<svg width="37" height="58" viewBox="0 0 37 58" fill="none" xmlns="http://www.w3.org/2000/svg">
<path d="M17.9804 1.9504L20.6871 3.12064L17.5937 10.1421L14.887 8.97184L11.4069 7.60656C11.2136 7.60656 11.0202 7.41152 10.8269 7.41152C10.0536 7.60656 9.86022 8.97184 10.6336 9.36192L13.3403 10.5322L0 41.9336C0 42.3237 0 42.7137 0.386675 42.9088L7.34683 49.7352L4.44677 56.5616C4.25343 56.9517 4.44677 57.7318 4.83344 57.9269C5.41346 58.1219 5.99347 57.9269 6.18681 57.3417L9.08687 50.7104L18.9471 50.9054C19.3338 50.9054 19.7204 50.7104 19.7204 50.3203L32.8674 18.7238L35.5741 19.8941C35.9608 20.0891 36.7342 19.8941 36.9275 19.504C37.1208 18.9189 36.9275 18.3338 36.3475 18.1387L33.0607 16.7734L32.8674 16.5784L30.934 15.7982L30.1607 15.4082L33.0607 8.19168L35.7675 9.36192C36.7342 9.752 37.5075 7.99664 36.5408 7.60656L33.0607 6.24128H32.8674L18.7538 0C18.5604 0 18.1737 0 17.9804 0C17.2071 0.19504 17.2071 1.56032 17.9804 1.9504Z" fill="currentColor"/>
<path d="M31.3207 7.60636L28.2273 14.8228L19.3337 10.922L22.4271 3.70557L31.3207 7.60636Z" fill="white" stroke="black" stroke-miterlimit="10"/>
</svg>
