<svg width="30" height="28" viewBox="0 0 30 28" fill="none" xmlns="http://www.w3.org/2000/svg">
<path d="M28.4171 15.2146L15 3.04296L1.58293 15.2146L0.276398 13.6804L15 0.281311L29.7236 13.6804L28.4171 15.2146Z" fill="currentColor"/>
<path d="M28.4171 15.4703C28.3668 15.4703 28.3166 15.4703 28.2663 15.4192L15 3.40091L1.73367 15.4192C1.68342 15.4703 1.63317 15.4703 1.53266 15.4703C1.48241 15.4703 1.38191 15.4192 1.38191 15.368L0.0753769 13.8338C-0.0251256 13.7315 -0.0251256 13.5781 0.0753769 13.4758L14.8492 0.0767123C14.9497 -0.0255708 15.1005 -0.0255708 15.201 0.0767123L29.9246 13.4758C30.0251 13.5781 30.0251 13.7315 29.9246 13.8338L28.6181 15.368C28.5678 15.4192 28.5176 15.4703 28.4171 15.4703ZM15 2.78721C15.0503 2.78721 15.1005 2.78721 15.1508 2.83836L28.4171 14.8566L29.3719 13.7315L15 0.639269L0.628141 13.6804L1.58291 14.8566L14.8492 2.83836C14.8995 2.78721 14.9497 2.78721 15 2.78721Z" fill="currentColor"/>
<path d="M15 5.24213L3.94473 15.4704V27.7444H11.9849V19.5618H18.0151V27.7444H26.0553V15.4704L15 5.24213Z" fill="currentColor"/>
<path d="M26.0553 28.0001H18.0151C17.8643 28.0001 17.7638 27.8978 17.7638 27.7444V19.8174H12.2362V27.7444C12.2362 27.8978 12.1357 28.0001 11.9849 28.0001H3.94472C3.79397 28.0001 3.69347 27.8978 3.69347 27.7444V15.4704C3.69347 15.4193 3.74372 15.317 3.79397 15.2658L14.8492 5.03753C14.9497 4.93524 15.1005 4.93524 15.201 5.03753L26.2563 15.2658C26.3065 15.317 26.3568 15.3681 26.3568 15.4704V27.7444C26.3065 27.8978 26.206 28.0001 26.0553 28.0001ZM18.2663 27.4887H25.804V15.5727L15 5.60008L4.19598 15.5727V27.4887H11.7337V19.5617C11.7337 19.4083 11.8342 19.306 11.9849 19.306H18.0151C18.1658 19.306 18.2663 19.4083 18.2663 19.5617V27.4887Z" fill="currentColor"/>
</svg>
