<svg width="111" height="19" viewBox="0 0 111 19" fill="none" xmlns="http://www.w3.org/2000/svg">
<path d="M9.991 0.377655H6.76367L0.0343333 17.5443L0 17.6817H16.7203L9.991 0.446322V0.377655ZM4.532 14.6603L8.343 4.73799L12.1883 14.6603H4.532Z" fill="currentColor"/>
<path d="M26.2307 13.0467L21.3553 0.377655H17.9907L24.3767 17.613L24.411 17.6817H28.0503L34.4707 0.377655H31.106L26.2307 13.0467Z" fill="currentColor"/>
<path d="M45.32 0.377655H42.0927L35.3633 17.5443L35.329 17.6473H52.0494L45.3543 0.446322L45.32 0.377655ZM39.861 14.6603L43.672 4.73799L47.5173 14.6603H39.861Z" fill="currentColor"/>
<path d="M68.495 12.1197L59.74 0.411988L59.7057 0.377655H56.959V17.6817H60.1864V5.93966L68.907 17.6473L68.9414 17.6817H71.688V0.377655H68.495V12.1197Z" fill="currentColor"/>
<path d="M86.0394 0C81.1297 0 77.0097 4.08567 77.0097 8.89234C77.0097 13.9393 81.0267 18.0593 85.9707 18.0593C90.9834 18.0593 95.1034 14.008 95.1034 9.02967C95.069 4.05133 91.0177 0 86.0394 0ZM85.9707 15.0037C82.812 15.0037 80.237 12.2913 80.237 8.92667C80.237 5.665 82.8464 3.02133 86.0394 3.02133C89.2324 3.02133 91.8417 5.69934 91.8417 9.02967C91.8074 12.3257 89.198 15.0037 85.9707 15.0037Z" fill="currentColor"/>
<path d="M105.884 7.24433C104.305 6.62633 102.931 6.077 102.931 4.944C102.931 3.63933 104.27 3.05567 105.609 3.05567C106.674 3.05567 107.807 3.502 108.562 4.15433L108.631 4.223L110.416 1.68233L110.347 1.648C108.837 0.549333 107.257 0.0343323 105.3 0.0343323C102.485 0.0343323 99.498 1.751 99.498 4.97833C99.498 6.695 100.322 7.99967 101.97 8.961C102.691 9.373 103.515 9.71634 104.305 10.0253C105.987 10.6777 107.601 11.33 107.601 12.875C107.601 14.1453 106.536 15.0723 105.06 15.0723C103.618 15.0723 102.073 14.3857 101.009 13.2183L100.94 13.1497L98.7084 15.4843L98.777 15.553C100.631 17.2353 102.828 18.128 105.06 18.128C108.39 18.128 111 15.8277 111 12.8407C111.034 9.27 108.184 8.137 105.884 7.24433Z" fill="currentColor"/>
</svg>
