<svg width="28" height="28" viewBox="0 0 28 28" fill="none" xmlns="http://www.w3.org/2000/svg">
<path d="M13.9681 0.0116687C13.4591 0.0116687 13.0136 0.488941 13.0136 0.966214V10.1298L11.7409 11.5298C11.8363 9.39802 11.9636 7.26621 12.0591 5.13439C12.0272 4.43439 11.4863 4.0844 10.8818 4.14803C6.64997 5.19803 3.53178 8.88894 1.74997 13.3117C-0.0318521 17.7344 -0.540943 22.8889 0.63633 27.2798C0.731784 27.6935 1.14542 27.9799 1.55906 27.9799C3.49997 27.7571 5.34542 26.9935 7.03178 26.2299C8.78178 25.3708 11.5818 24.1935 11.7409 22.1889C11.5818 19.6117 11.5818 17.0344 11.6454 14.4571L13.9681 11.9117L16.3227 14.5208C16.3863 17.098 16.3545 19.6753 16.2272 22.2208C16.6409 24.448 19.25 25.498 20.9363 26.2617C22.75 26.898 24.5954 27.9799 26.4091 28.0117C26.8227 28.0117 27.2045 27.6935 27.3318 27.3116C28.5091 22.9207 28 17.7344 26.2181 13.3435C24.4363 8.95257 21.3181 5.22984 17.0863 4.17984C16.4818 4.05257 15.8772 4.68893 15.9091 5.1662C16.0363 7.32983 16.1636 9.46166 16.2272 11.5935L14.8909 10.1298V0.966214C14.9545 0.457123 14.4772 -0.0201495 13.9681 0.0116687Z" fill="currentColor"/>
</svg>
