<svg width="28" height="28" viewBox="0 0 28 28" fill="none" xmlns="http://www.w3.org/2000/svg">
<path d="M14 0C6.27789 0 0 6.27789 0 14C0 21.7221 6.27789 28 14 28C21.7221 28 28 21.7221 28 14C28 6.27789 21.7221 0 14 0ZM14 22.4884C13.1747 22.4884 12.4968 21.8105 12.4968 20.9853C12.4968 20.16 13.1747 19.4821 14 19.4821C14.8253 19.4821 15.5032 20.16 15.5032 20.9853C15.5032 21.8105 14.8547 22.4884 14 22.4884ZM15.4737 14.7663C15.3263 14.8253 15.2084 15.0021 15.2084 15.2084V16.7116C15.2084 17.36 14.6779 17.8905 14.0295 17.8905C13.3811 17.8905 12.8505 17.36 12.8505 16.7116V15.2084C12.8505 13.9705 13.6168 12.88 14.7663 12.4968C15.7389 12.1726 16.5937 11.1705 16.3579 9.81474C16.1811 8.87158 15.4147 8.10526 14.4716 7.92842C13.7642 7.81053 13.0568 7.98737 12.5263 8.42947C11.9368 8.90105 11.6421 9.57895 11.6421 10.2568C11.6421 10.9053 11.1116 11.4358 10.4632 11.4358C9.81474 11.4358 9.28421 10.9053 9.28421 10.2568C9.28421 8.8421 9.90316 7.51579 10.9642 6.63158C12.0253 5.71789 13.44 5.33474 14.8547 5.6C16.7705 5.92421 18.3326 7.51579 18.6568 9.4021C19.0695 11.7895 17.7432 14.0295 15.4737 14.7663Z" fill="currentColor"/>
</svg>
