<svg width="194" height="166" viewBox="0 0 194 166" fill="none" xmlns="http://www.w3.org/2000/svg">
<path d="M50.8099 19.7672C61.3569 19.7672 69.4355 22.6874 75.0456 28.3031C78.636 31.8971 81.1045 36.6143 82.8997 42.23C83.3485 43.8024 83.7973 45.3748 84.0217 46.7226C82.0021 48.295 80.8801 50.3166 80.8801 52.3383V60.6495C80.8801 65.5913 86.939 69.6346 94.7932 69.6346C102.647 69.6346 108.706 65.8159 108.706 60.6495V52.3383C108.706 49.6427 107.135 47.3965 103.994 45.5994C102.647 37.2882 99.2812 24.4844 89.4074 14.3762C79.9825 4.94181 66.967 0 50.8099 0C34.8772 0 22.3106 4.94181 13.3344 14.8254C-1.02747 30.5494 -0.129849 53.0121 0.0945553 57.2801V166H19.8421L20.0665 56.8308V55.9323C20.0665 55.2584 18.7201 38.4113 28.1451 28.0785C33.082 22.6874 40.7117 19.7672 50.8099 19.7672ZM105.116 60.8741C105.116 63.5697 100.852 66.4898 94.5687 66.4898C88.2854 66.4898 84.0217 63.5697 84.0217 60.8741V58.4032C86.4902 60.2002 90.3051 61.548 94.5687 61.548C98.8324 61.548 102.423 60.4249 105.116 58.4032V60.8741ZM104.667 52.3383V51.2151C104.667 50.9905 104.667 50.9905 104.667 50.7659C105.116 51.4398 105.34 51.889 105.34 52.5629C105.34 55.2584 101.076 58.1786 94.7932 58.1786C88.5098 58.1786 84.2461 55.2584 84.2461 52.5629C84.2461 52.1136 84.4706 51.6644 84.695 51.2151C84.695 51.4398 84.695 51.4398 84.695 51.6644V52.5629L85.5926 53.0121C90.7539 55.7077 98.8324 55.7077 103.769 52.7875L104.667 52.3383ZM16.7005 56.1569V56.8308L16.4761 162.63H3.46062V57.0555C3.23621 53.0121 2.563 31.8971 16.0273 17.0717C24.3302 8.0866 35.9992 3.36942 50.8099 3.36942C66.0694 3.36942 78.1872 7.86197 86.939 17.0717C97.9348 28.3031 100.403 43.3532 101.076 50.3166C97.2616 52.1136 91.6515 52.1136 87.8366 50.3166C87.6122 48.0703 87.1634 44.9256 86.0414 41.3315C84.2461 35.0419 81.3289 29.8755 77.514 26.0568C71.2307 19.7672 62.2545 16.3978 50.8099 16.3978C39.8141 16.3978 31.2867 19.5426 25.6766 25.8322C15.354 37.0636 16.7005 55.4831 16.7005 56.1569Z" fill="url(#paint0_linear)"/>
<path fill-rule="evenodd" clip-rule="evenodd" d="M96.364 72.7791H92.9979V83.112H96.364V72.7791Z" fill="url(#paint1_linear)"/>
<path fill-rule="evenodd" clip-rule="evenodd" d="M80.3514 72.4038L61.5738 79.211L62.7199 82.3789L81.4976 75.5717L80.3514 72.4038Z" fill="url(#paint2_linear)"/>
<path fill-rule="evenodd" clip-rule="evenodd" d="M108.94 72.5072L107.794 75.6752L126.571 82.4824L127.717 79.3145L108.94 72.5072Z" fill="url(#paint3_linear)"/>
<path fill-rule="evenodd" clip-rule="evenodd" d="M186.799 105.351L185.901 104.677L185.004 105.126C183.657 105.8 182.086 106.474 180.74 107.148C177.149 86.7064 163.91 84.2355 163.236 84.0109H162.788H162.339C161.89 84.2355 112.97 98.6117 96.364 94.793C88.061 92.996 83.3485 89.1773 79.758 86.4818C76.1676 83.5616 72.8015 81.3153 68.7622 84.2355C66.7426 85.5833 65.6206 87.8295 66.0694 90.5251C66.7426 95.2423 72.1283 101.083 78.636 104.452C70.1087 106.923 52.6051 112.988 45.1998 124.668C43.629 127.139 38.9165 134.552 42.9558 137.248C43.4046 137.472 43.8534 137.697 44.3022 137.922C44.0778 138.82 44.0778 139.943 44.3022 141.291C44.9754 143.088 46.5462 144.211 48.7903 144.885C49.2391 144.885 49.4635 145.11 49.9123 145.11C50.1367 146.233 50.8099 147.805 52.1563 148.928C53.0539 149.602 54.176 150.051 55.5224 150.051C55.7468 150.051 55.9712 150.051 56.1956 150.051C56.6444 151.624 57.7664 152.972 59.7861 153.645C60.2349 153.645 60.4593 153.87 60.9081 153.87C63.6009 153.87 65.6206 151.624 66.967 150.051C68.3134 150.95 69.8843 151.624 71.2307 152.298C71.0063 152.747 70.5575 153.421 70.5575 154.319C70.5575 154.993 70.7819 155.892 71.9039 156.79C73.4747 158.138 77.0652 159.037 81.5533 159.71C81.5533 159.935 81.3289 160.384 81.3289 160.609C81.3289 161.058 81.3289 161.957 82.2265 162.631C84.2461 164.428 90.9783 166 99.0568 166C101.974 166 104.891 165.775 108.033 165.326C109.155 165.101 136.308 159.935 144.835 147.131C150.67 147.581 173.783 148.928 179.842 144.211C189.043 137.248 193.755 129.835 193.98 122.198C194.429 112.089 187.248 105.575 186.799 105.351ZM56.42 146.457C55.5224 146.682 54.8492 146.457 54.4004 146.233C53.7272 145.559 53.2784 144.885 53.2784 144.436C55.0736 143.537 56.6444 141.74 58.6641 139.494C61.8057 135.9 66.7426 130.509 75.7188 124.893L73.9235 121.973C64.4986 127.813 59.5617 133.429 56.1956 137.248C53.0539 140.842 51.9319 141.965 49.9123 141.516C49.0147 141.291 47.8926 140.842 47.6682 139.943C47.4438 139.269 47.6682 138.146 48.1171 137.697C50.8099 137.023 53.5028 135.226 54.8492 133.429C57.0932 130.733 62.7033 124.444 69.4355 121.299L68.089 118.154C60.6837 121.524 54.6248 128.263 52.1563 131.183C50.1367 133.429 46.0974 135.001 45.1998 134.327C45.1998 134.327 44.0778 132.755 48.3415 126.241C57.3176 111.865 84.2461 106.249 84.6949 106.249L90.9783 104.901L84.4705 103.329C76.6164 100.858 70.1087 94.3437 69.4355 90.0758C69.211 88.7281 69.6599 87.8295 70.7819 87.1557C72.8015 85.8079 73.9235 86.2572 77.9628 89.4019C81.7777 92.3221 86.939 96.1408 95.6908 98.1624C112.521 101.981 157.851 88.9527 163.012 87.3803C165.032 87.8296 174.905 91.199 177.598 108.495C172.886 110.742 168.173 112.763 163.685 114.56L130.249 117.256C129.127 116.582 127.781 115.908 126.659 115.459C123.966 114.111 121.497 112.763 119.702 111.865C117.458 110.742 114.765 108.271 112.297 106.249C108.482 102.88 106.238 100.633 103.994 102.655C102.872 103.778 100.179 106.249 100.403 109.618C100.403 111.865 101.75 114.336 104.218 116.357C106.238 118.154 110.726 121.748 110.726 123.321C97.0372 129.61 86.0414 131.857 84.6949 132.306C81.7777 132.081 78.636 131.407 75.0456 130.06C73.2503 129.386 70.3331 129.835 68.7622 132.755L67.4158 131.407C65.3962 133.654 62.2545 137.922 60.2349 142.639C59.3373 144.66 57.9908 146.233 56.42 146.457ZM153.363 118.828C147.079 121.299 142.367 122.647 141.02 122.422C139.674 121.973 137.879 121.074 135.859 120.176L153.363 118.828ZM68.5378 137.248C68.089 137.248 67.6402 137.248 67.1914 137.248C67.6402 136.798 67.8646 136.125 68.3134 135.675C68.3134 136.125 68.3134 136.798 68.5378 137.248ZM60.9081 150.051C60.0105 149.827 59.7861 149.153 59.5617 148.479C60.6837 147.581 61.8057 146.457 62.4789 145.11C62.9277 146.008 63.6009 146.682 64.2742 147.581C63.3765 149.153 62.0301 150.501 60.9081 150.051ZM178.047 141.291C173.335 144.885 152.016 143.986 144.386 143.537H143.264L142.816 144.436C135.635 156.566 107.809 161.732 107.584 161.957C96.8128 163.754 86.939 161.507 84.9193 160.384C84.9193 160.16 85.1438 160.16 85.1438 160.16C86.4902 160.16 88.061 160.384 89.4074 160.384C93.6711 160.384 97.7104 159.935 100.852 159.037C110.053 156.341 112.072 155.892 112.072 155.892L111.175 152.747C111.175 152.747 109.379 153.196 99.9544 155.892C91.4271 158.363 76.392 156.566 74.1479 154.544C74.1479 154.095 74.3723 154.095 74.3723 154.095C74.8212 153.87 75.4944 153.87 76.1676 153.87C78.8604 154.319 83.3485 154.993 88.061 154.993C97.486 154.993 108.706 153.196 114.541 145.784L111.848 143.762C103.994 153.421 84.0217 152.073 76.8408 150.725C76.6164 150.725 76.6164 150.725 76.392 150.725C71.6795 149.827 66.0694 146.233 65.1718 143.537C64.9474 142.863 64.9474 142.414 65.3962 141.965C65.845 141.516 66.2938 141.066 66.967 141.066C68.7622 140.842 71.0063 142.189 72.1283 143.313C72.3527 143.537 72.5771 143.537 72.8015 143.762C72.8015 143.762 72.8015 143.762 73.0259 143.762C75.9432 145.784 80.6557 148.03 88.2854 148.03C103.994 148.03 112.072 141.066 114.316 138.82L111.848 136.349C110.053 138.146 102.647 144.436 88.2854 144.436C82.0021 144.436 77.7384 142.639 75.0456 140.617C74.8212 140.392 74.5967 140.392 74.3723 140.168C73.6991 139.494 73.0259 138.82 72.5771 138.146C71.6795 136.574 71.4551 135.451 71.6795 135.001C72.3527 133.204 73.4747 133.204 73.9235 133.429C90.5295 139.494 101.301 133.429 107.584 129.835C108.482 129.161 109.379 128.712 110.277 128.487C112.745 127.364 113.867 126.016 114.092 124.219C114.541 121.074 110.95 117.93 106.462 113.886C104.667 112.314 103.769 110.966 103.769 109.618C103.769 108.046 105.116 106.474 106.013 105.575C106.911 106.024 108.706 107.821 110.053 108.945C112.521 111.191 115.438 113.886 118.131 115.234C119.926 116.133 122.395 117.256 124.863 118.604C130.249 121.524 136.532 124.668 139.898 125.792C144.835 127.589 174.681 113.886 185.228 108.72C187.023 110.517 190.838 115.459 190.614 121.973C190.614 128.487 186.35 135.001 178.047 141.291Z" fill="url(#paint4_linear)"/>
<defs>
<linearGradient id="paint0_linear" x1="54.3531" y1="0" x2="54.3531" y2="166" gradientUnits="userSpaceOnUse">
<stop offest="0" stop-color="#FF9E1B"/>
<stop offset="1" stop-color="#FB637E"/>
</linearGradient>
<linearGradient id="paint1_linear" x1="94.6809" y1="72.7791" x2="94.6809" y2="83.112" gradientUnits="userSpaceOnUse">
<stop offest="0" stop-color="#FF9E1B"/>
<stop offset="1" stop-color="#FB637E"/>
</linearGradient>
<linearGradient id="paint2_linear" x1="70.9626" y1="75.8074" x2="72.1107" y2="78.9746" gradientUnits="userSpaceOnUse">
<stop offest="0" stop-color="#FF9E1B"/>
<stop offset="1" stop-color="#FB637E"/>
</linearGradient>
<linearGradient id="paint3_linear" x1="108.367" y1="74.0912" x2="127.149" y2="80.8865" gradientUnits="userSpaceOnUse">
<stop offest="0" stop-color="#FF9E1B"/>
<stop offset="1" stop-color="#FB637E"/>
</linearGradient>
<linearGradient id="paint4_linear" x1="117.68" y1="82.871" x2="117.68" y2="166" gradientUnits="userSpaceOnUse">
<stop offest="0" stop-color="#FF9E1B"/>
<stop offset="1" stop-color="#FB637E"/>
</linearGradient>
</defs>
</svg>
