<svg width="261" height="262" viewBox="0 0 261 262" fill="none" xmlns="http://www.w3.org/2000/svg">
<path d="M260.608 206.9C260.722 206.234 260.667 205.551 260.451 204.911C260.234 204.272 259.861 203.696 259.367 203.236L161.434 112.121C160.854 111.583 160.13 111.226 159.35 111.093C158.571 110.96 157.769 111.057 157.044 111.372C156.319 111.688 155.701 112.207 155.266 112.868C154.831 113.529 154.598 114.302 154.596 115.092V248.824C154.597 249.5 154.766 250.164 155.088 250.758C155.409 251.352 155.874 251.856 156.439 252.225C157.005 252.595 157.653 252.818 158.326 252.874C158.999 252.931 159.675 252.819 160.294 252.549L187.525 240.765L195.36 258.756C195.805 259.732 196.616 260.493 197.618 260.874C198.62 261.255 199.733 261.225 200.713 260.791L236.573 245.181C237.549 244.737 238.31 243.926 238.691 242.924C239.072 241.921 239.042 240.809 238.608 239.829L230.773 221.838L258.085 209.952C258.731 209.701 259.301 209.288 259.743 208.754C260.185 208.219 260.483 207.581 260.608 206.9ZM223.975 215.977C222.999 216.421 222.238 217.232 221.857 218.234C221.476 219.237 221.506 220.349 221.94 221.329L229.775 239.32L201.283 251.674L193.447 233.703C193.003 232.727 192.192 231.966 191.189 231.585C190.187 231.204 189.075 231.234 188.095 231.668L162.736 242.698V124.515L249.232 205.027L223.975 215.977Z" fill="currentColor"/>
<path d="M228.352 45.1426C228.104 44.7614 227.795 44.4243 227.436 44.1454C215.239 30.4433 200.281 19.4775 183.544 11.9686C166.807 4.45967 148.671 0.577637 130.327 0.577637C111.983 0.577637 93.8467 4.45967 77.1099 11.9686C60.3731 19.4775 45.4149 30.4433 33.2183 44.1454C32.8773 44.4154 32.5819 44.7383 32.3431 45.1019V45.2036C15.8559 64.0236 5.14278 87.1971 1.48682 111.949C-2.16914 136.701 1.38698 161.982 11.7293 184.765C22.0717 207.548 38.7619 226.866 59.8012 240.408C80.8405 253.949 105.337 261.139 130.358 261.116C134.83 261.119 139.299 260.895 143.749 260.445C144.284 260.39 144.802 260.23 145.275 259.975C145.748 259.72 146.166 259.374 146.505 258.957C146.844 258.541 147.098 258.061 147.252 257.547C147.406 257.032 147.457 256.492 147.402 255.957C147.347 255.423 147.188 254.904 146.933 254.431C146.678 253.958 146.332 253.54 145.915 253.201C145.498 252.862 145.019 252.608 144.504 252.454C143.989 252.3 143.449 252.249 142.915 252.304C140.106 252.589 137.277 252.752 134.428 252.833V194.22C136.85 194.22 139.292 194.342 141.694 194.444C142.228 194.47 142.763 194.392 143.267 194.212C143.771 194.032 144.234 193.754 144.631 193.395C145.028 193.036 145.35 192.603 145.58 192.119C145.809 191.635 145.941 191.111 145.967 190.577C145.994 190.042 145.915 189.508 145.736 189.004C145.556 188.5 145.278 188.036 144.919 187.639C144.56 187.242 144.126 186.92 143.643 186.691C143.159 186.461 142.635 186.33 142.101 186.303C139.557 186.181 136.992 186.099 134.428 186.059V134.935H142.304C143.384 134.935 144.419 134.506 145.182 133.743C145.946 132.979 146.374 131.944 146.374 130.865C146.374 129.785 145.946 128.75 145.182 127.986C144.419 127.223 143.384 126.794 142.304 126.794H134.428V75.1819C152.306 74.9286 170.082 72.4399 187.343 67.7738C193.84 88.1682 197.075 109.461 196.928 130.865C196.928 131.944 197.357 132.979 198.121 133.743C198.884 134.506 199.919 134.935 200.999 134.935H252.469C252.03 149.148 249.096 163.174 243.799 176.371C243.58 176.871 243.463 177.409 243.456 177.954C243.449 178.499 243.552 179.04 243.758 179.545C243.964 180.05 244.27 180.508 244.657 180.893C245.043 181.277 245.503 181.58 246.009 181.783C246.515 181.986 247.057 182.086 247.602 182.076C248.147 182.066 248.685 181.946 249.183 181.724C249.681 181.502 250.13 181.182 250.502 180.784C250.874 180.385 251.162 179.916 251.349 179.404C260.242 157.121 262.809 132.816 258.765 109.168C254.721 85.5198 244.225 63.448 228.433 45.3868L228.352 45.1426ZM218.461 46.4451C210.096 51.1371 201.271 54.9563 192.125 57.8421C184.616 38.5486 174.195 22.9998 161.984 12.9256C183.518 18.7318 203.049 30.3242 218.461 46.4451ZM126.287 67.0412C109.377 66.787 92.563 64.4562 76.2217 60.1012C87.6187 30.9574 105.65 11.2975 126.287 8.99773V67.0412ZM98.7308 12.9256C86.5197 22.9387 76.1199 38.5282 68.6101 57.8421C59.4641 54.9563 50.6392 51.1371 42.2748 46.4451C57.6805 30.3274 77.2049 18.7352 98.7308 12.9256ZM8.34831 134.935H55.7885C56.0291 155.607 59.37 176.126 65.6998 195.807C55.496 199.053 45.6814 203.414 36.4338 208.812C19.1017 188.004 9.21678 162.002 8.34831 134.935ZM8.34831 126.794C9.23529 99.5846 19.2332 73.461 36.7391 52.6117C45.941 57.9604 55.7 62.2871 65.8423 65.5148C59.4202 85.3174 56.0306 105.978 55.7885 126.794H8.34831ZM41.9696 214.999C50.3661 210.254 59.2328 206.393 68.4269 203.48C75.9571 222.977 86.418 238.729 98.7105 248.803C77.0507 242.961 57.4189 231.265 41.9696 214.999ZM76.0589 201.221C92.451 196.838 109.321 194.493 126.287 194.24V252.731C105.569 250.411 87.3745 230.589 76.0589 201.221ZM126.287 186.099C108.407 186.365 90.6309 188.868 73.3724 193.548C67.3523 174.583 64.1702 154.831 63.9292 134.935H126.287V186.099ZM63.9292 126.794C64.1251 106.761 67.3078 86.8684 73.3724 67.7738C90.6329 72.4397 108.409 74.9283 126.287 75.1819V126.794H63.9292ZM134.428 67.0412V8.99773C155.065 11.2975 173.096 30.9574 184.493 60.1012C168.152 64.456 151.338 66.7868 134.428 67.0412ZM194.873 65.5148C205.015 62.2871 214.774 57.9604 223.976 52.6117C241.482 73.461 251.48 99.5846 252.367 126.794H204.927C204.685 105.978 201.295 85.3174 194.873 65.5148Z" fill="currentColor"/>
</svg>
