<svg width="53" height="59" viewBox="0 0 53 59" fill="none" xmlns="http://www.w3.org/2000/svg">
<g clip-path="url(#clip0)">
<path d="M19.714 3.11573H12.2292V0H19.714V3.11573ZM30.0723 21.8101C30.0723 21.3461 29.805 20.9483 29.404 20.7494C27.7333 19.7551 26.1294 18.0315 24.9934 15.8438C24.9265 15.7775 24.9265 15.6449 24.8597 15.5787C24.4587 14.7831 24.1246 14.0539 23.8573 13.4573V3.3809C23.8573 3.18202 23.7905 3.04944 23.6568 2.91685L20.7164 0V3.11573V11.8H11.2268V3.11573V0L8.28637 2.91685C8.15272 3.04944 8.08589 3.18202 8.08589 3.3809V13.4573C7.81858 14.1202 7.48444 14.8494 7.08347 15.5787C7.01664 15.6449 7.01664 15.7775 6.94981 15.8438C5.74691 18.0315 4.20986 19.7551 2.53916 20.7494C2.1382 20.9483 1.93771 21.3461 1.87088 21.8101L-0.000298928 57.6079C-0.0671269 58.4034 0.534325 59 1.33626 59H14.5682H30.6069C31.342 59 32.0103 58.3371 31.9435 57.6079L30.0723 21.8101Z" fill="currentColor"/>
</g>
<path d="M46.9787 17.4005C46.3514 17.4761 45.8466 18.0097 45.735 18.6528C45.7026 18.3197 45.6737 18.0242 45.6498 17.7843L45.649 17.7761L45.6479 17.768C45.5468 17.0067 44.9002 16.6045 44.3483 16.5193C44.0646 16.4755 43.7488 16.5022 43.4736 16.6437C43.1827 16.7933 42.9554 17.0654 42.8976 17.4426L42.8974 17.4437C42.7909 18.1494 42.7542 19.2549 42.7521 20.4164C42.5641 19.6644 42.3809 18.9927 42.2298 18.5544L42.2298 18.5544L42.2282 18.5498C41.9696 17.8231 41.2726 17.5966 40.6977 17.7439C40.1273 17.8901 39.6224 18.4058 39.6224 19.1591V19.1672L39.6226 19.1752C39.6312 19.4408 39.6498 19.7686 39.6756 20.1372C39.5958 20.056 39.5006 19.9884 39.3888 19.9392C39.0602 19.7943 38.7184 19.8665 38.4597 20.0022C37.9436 20.273 37.5252 20.898 37.4853 21.6573L37.4853 21.6573L37.4851 21.6619C37.4511 22.4466 37.6498 23.9666 37.8441 25.2379C37.9429 25.885 38.0437 26.486 38.1197 26.925C38.1578 27.1446 38.1896 27.3239 38.212 27.4485L38.2381 27.5925L38.2447 27.6284L39.1856 35.3102C39.1857 35.3106 39.1857 35.311 39.1858 35.3114C39.3067 36.3442 39.3077 37.4468 39.2463 38.4992L38.5551 47.2031L38.5535 47.2229V47.2427C38.5535 47.5179 38.7157 47.7053 38.8432 47.8087C38.972 47.913 39.1293 47.9869 39.279 48.0426C39.5833 48.1558 39.9881 48.2407 40.4359 48.3055C41.3403 48.4364 42.5293 48.5 43.7062 48.5C44.883 48.5 46.072 48.4364 46.9765 48.3055C47.4243 48.2407 47.8291 48.1558 48.1333 48.0426C48.2831 47.9869 48.4404 47.913 48.5691 47.8087C48.6967 47.7053 48.8588 47.5179 48.8588 47.2427V47.2134L48.8554 47.1843L47.7866 38.0966L47.7862 38.0932C47.6099 36.6781 47.8422 35.2505 48.3813 33.8644L52.143 25.1799C52.5228 24.4436 52.6072 23.6997 52.3601 23.1447C52.2323 22.8575 52.0098 22.6166 51.6984 22.5001C51.3902 22.3848 51.0574 22.4144 50.7467 22.5462C50.3406 22.7078 49.9522 23.0893 49.6263 23.473C49.2884 23.8707 48.9552 24.3477 48.6629 24.802C48.68 24.4289 48.6962 24.0253 48.7093 23.6083C48.7369 22.7279 48.7509 21.7828 48.73 20.9355C48.7093 20.0994 48.6541 19.3209 48.5315 18.7935L48.5315 18.7935L48.5308 18.7904C48.4209 18.3309 48.2285 17.9631 47.9512 17.7154C47.6653 17.4599 47.3178 17.3597 46.9787 17.4005Z" fill="currentColor" stroke="white"/>
<path d="M25.3306 33.9349L25.3305 33.9349L25.3345 33.9436C25.9206 35.238 26.1012 36.7214 25.9225 38.1563L25.9222 38.1593L24.8533 47.1839L24.8498 47.2132V47.2427C24.8498 47.5179 25.012 47.7053 25.1396 47.8087C25.2683 47.913 25.4256 47.9869 25.5753 48.0426C25.8796 48.1558 26.2844 48.2407 26.7322 48.3055C27.6367 48.4364 28.8257 48.5 30.0025 48.5C31.1793 48.5 32.3683 48.4364 33.2728 48.3055C33.7206 48.2407 34.1254 48.1558 34.4297 48.0426C34.5794 47.9869 34.7367 47.913 34.8654 47.8087C34.993 47.7053 35.1552 47.5179 35.1552 47.2427V47.2247L35.1539 47.2067L34.5254 38.501C34.4638 37.4476 34.4647 36.3439 34.5859 35.3102L34.5859 35.3102L34.5865 35.3047L35.4019 27.6244L35.4077 27.5925L35.4338 27.4485C35.4562 27.3239 35.488 27.1446 35.5261 26.925C35.6021 26.486 35.7029 25.885 35.8017 25.2379C35.996 23.9666 36.1947 22.4466 36.1607 21.6619L36.1607 21.6619L36.1605 21.6573C36.121 20.9053 35.7235 20.2897 35.2058 20.0239C34.9449 19.8899 34.6139 19.8295 34.2947 19.961C34.1662 20.014 34.0566 20.0909 33.9653 20.1856C33.9937 19.7939 34.0141 19.4485 34.0232 19.1757L34.0234 19.1674V19.1591C34.0234 18.4137 33.5278 17.8811 32.9577 17.7228C32.6721 17.6436 32.3501 17.6531 32.0578 17.7956C31.7587 17.9412 31.5325 18.2059 31.4152 18.5569C31.2642 18.9952 31.0813 19.6659 30.8937 20.4164C30.8916 19.2549 30.8549 18.1494 30.7484 17.4437L30.7482 17.4426C30.6904 17.0654 30.4631 16.7933 30.1722 16.6437C29.897 16.5022 29.5812 16.4755 29.2974 16.5193C28.7456 16.6045 28.099 17.0067 27.9979 17.768L27.9968 17.7761L27.996 17.7843C27.9721 18.0238 27.9433 18.3186 27.911 18.651C27.8021 17.994 27.3128 17.4367 26.6861 17.3468C26.3445 17.2978 25.9942 17.398 25.7129 17.6608C25.4435 17.9124 25.2669 18.2836 25.1751 18.7398C25.0543 19.2805 24.9993 20.0621 24.9787 20.8991C24.9577 21.7493 24.9717 22.6924 24.9994 23.5689C25.0123 23.9772 25.0282 24.372 25.0449 24.7376C24.7528 24.2836 24.42 23.8072 24.0824 23.4098C23.7543 23.0237 23.3629 22.6396 22.9538 22.4799L22.9322 22.4715L22.9098 22.4651C22.5951 22.3748 22.2718 22.3826 21.9821 22.5116C21.6913 22.6412 21.4757 22.8747 21.3485 23.1604C21.1011 23.7162 21.1864 24.4446 21.5653 25.1793L25.3306 33.9349Z" fill="currentColor" stroke="white"/>
<defs>
<clipPath id="clip0">
<rect width="31.9438" height="59" fill="white"/>
</clipPath>
</defs>
</svg>
