<svg width="30" height="16" viewBox="0 0 30 16" fill="none" xmlns="http://www.w3.org/2000/svg">
<path d="M0 0.0126038V16.0126H2.44898V0.0126038H0ZM12.551 2.67927C10.3469 2.67927 8.57143 4.6126 8.57143 7.0126C8.57143 7.1126 8.57143 7.24594 8.57143 7.34594H26.3265C26.3265 7.24594 26.3265 7.1126 26.3265 7.0126C26.3265 4.6126 24.551 2.67927 22.3469 2.67927H12.551ZM5.5102 3.34594C4.5 3.34594 3.67347 4.24594 3.67347 5.34594C3.67347 6.44594 4.5 7.34594 5.5102 7.34594C6.52041 7.34594 7.34694 6.44594 7.34694 5.34594C7.34694 4.2126 6.52041 3.34594 5.5102 3.34594ZM27.551 6.67927V16.0126H30V6.67927H27.551ZM3.06122 8.67927V12.6793H26.9388V8.67927H3.06122Z" fill="currentColor"/>
</svg>
