<svg width="21" height="28" viewBox="0 0 21 28" fill="none" xmlns="http://www.w3.org/2000/svg">
<path fill-rule="evenodd" clip-rule="evenodd" d="M16.5254 0.683105L20.3123 4.32538H16.5254V0.683105Z" fill="currentColor"/>
<path fill-rule="evenodd" clip-rule="evenodd" d="M15.6066 4.89431V0H0V28H21V5.23577H16.1803C15.8361 5.23577 15.6066 5.12195 15.6066 4.89431ZM4.13115 21.8537H16.8689C17.4426 21.8537 17.4426 22.7642 16.8689 22.7642H4.13115C3.55738 22.7642 3.55738 21.8537 4.13115 21.8537ZM4.13115 17.8699H16.8689C17.4426 17.8699 17.4426 18.7805 16.8689 18.7805H4.13115C3.55738 18.7805 3.55738 17.8699 4.13115 17.8699ZM4.13115 14H16.8689C17.4426 14 17.4426 14.9106 16.8689 14.9106H4.13115C3.55738 14.9106 3.55738 14 4.13115 14ZM4.13115 10.1301H11.1311C11.8197 10.1301 11.8197 11.0407 11.1311 11.0407H4.13115C3.55738 11.0407 3.55738 10.1301 4.13115 10.1301Z" fill="currentColor"/>
</svg>
