<svg width="250" height="250" viewBox="0 0 250 250" fill="none" xmlns="http://www.w3.org/2000/svg">
<path d="M191.309 75H57.6911C55.6241 75 54 76.6207 54 78.6834V172.317C54 174.379 55.6241 176 57.6911 176H191.309C193.376 176 195 174.379 195 172.317V78.6834C195 76.6207 193.376 75 191.309 75ZM145.539 128.042C143.915 126.789 141.627 127.01 140.372 128.631C139.117 130.252 139.338 132.535 140.962 133.788L184.517 168.633H66.033L109.588 133.788C111.212 132.535 111.434 130.178 110.179 128.631C108.924 127.01 106.561 126.789 105.011 128.042L61.456 162.887V87.5237L123.097 128.557C123.688 128.999 124.426 129.147 125.164 129.147C125.903 129.147 126.641 128.926 127.231 128.484L187.618 87.5237V161.708L145.539 128.042ZM66.9188 82.3669H182.155L125.017 121.043L66.9188 82.3669Z" fill="currentColor"/>
<path fill-rule="evenodd" clip-rule="evenodd" d="M124.666 241.574C189.048 241.574 241.24 189.382 241.24 125C241.24 60.6179 189.048 8.42578 124.666 8.42578C60.2839 8.42578 8.0918 60.6179 8.0918 125C8.0918 189.382 60.2839 241.574 124.666 241.574ZM124.666 249.574C193.467 249.574 249.24 193.801 249.24 125C249.24 56.1996 193.467 0.425781 124.666 0.425781C55.8656 0.425781 0.0917969 56.1996 0.0917969 125C0.0917969 193.801 55.8656 249.574 124.666 249.574Z" fill="currentColor"/>
</svg>
