<svg width="31" height="26" viewBox="0 0 31 26" fill="none" xmlns="http://www.w3.org/2000/svg">
<path d="M18.4472 16.6369C14.1449 16.6369 9.17957 14.8953 3.63963 11.427C2.623 12.6178 2.09258 13.4812 2.07784 13.4961C1.8863 13.8087 1.47376 13.9129 1.16434 13.7193C0.854933 13.5258 0.751796 13.109 0.943337 12.7964C1.12014 12.5285 5.00988 6.21699 12.2589 3.70132C16.3255 2.28719 22.2927 3.19521 24.4586 4.41583C26.4771 5.54714 29.2471 8.42006 30.0133 10.7124C30.028 10.772 30.0427 10.8315 30.0427 10.8762C30.0427 10.9506 30.0722 11.6354 29.5123 12.1861C29.085 12.6029 28.4662 12.8113 27.6706 12.8113C27.6558 12.8113 27.6411 12.8113 27.6264 12.8113C27.037 13.5258 25.3426 15.2823 22.219 16.1308C21.0109 16.4732 19.7585 16.6369 18.4472 16.6369ZM4.55313 10.4147C9.26797 13.3323 16.0013 16.3987 21.777 14.8804C23.5893 14.4041 24.8417 13.5854 25.5784 12.9899C26.3887 12.335 26.7571 11.7842 26.7718 11.7693C26.9044 11.5758 27.1402 11.4567 27.3759 11.4716C27.9505 11.5163 28.3778 11.4418 28.5841 11.2483C28.6725 11.1739 28.7019 11.0697 28.7167 11.0102C28.0242 9.1048 25.5489 6.54448 23.825 5.57691C22.1012 4.59446 16.5612 3.6269 12.7157 4.9666C9.09117 6.21699 6.35067 8.52426 4.55313 10.4147Z" fill="black"/>
<path d="M17.283 16.6219C13.5848 16.6219 10.5791 13.5853 10.5791 9.849C10.5791 6.11271 13.5848 3.07605 17.283 3.07605C20.9812 3.07605 23.9869 6.11271 23.9869 9.849C23.9869 13.5853 20.9812 16.6219 17.283 16.6219ZM17.283 4.41575C14.3215 4.41575 11.9051 6.85699 11.9051 9.849C11.9051 12.841 14.3215 15.2822 17.283 15.2822C20.2445 15.2822 22.6609 12.841 22.6609 9.849C22.6609 6.85699 20.2593 4.41575 17.283 4.41575Z" fill="black"/>
<path d="M1.51863 8.73269C1.38602 8.73269 1.23868 8.68803 1.12081 8.59872C0.826134 8.37543 0.767199 7.95864 0.988207 7.66092C1.09134 7.51207 3.74344 3.98418 8.56141 1.75134C13.011 -0.317758 20.2012 -1.58303 29.1741 4.05861C29.4835 4.25212 29.5866 4.66892 29.3804 4.98152C29.1888 5.29411 28.7763 5.39831 28.4669 5.18991C24.7245 2.83799 21.0115 1.54294 17.4312 1.33454C14.5876 1.18569 11.8029 1.72157 9.1655 2.94219C4.64221 5.02617 2.07851 8.43497 2.04904 8.46475C1.91644 8.64337 1.7249 8.73269 1.51863 8.73269Z" fill="black"/>
<path d="M0.530334 24.0649C0.25039 24.0649 0.0146484 23.8267 0.0146484 23.5439V20.8645C0.0146484 20.5817 0.25039 20.3435 0.530334 20.3435C0.810277 20.3435 1.04602 20.5817 1.04602 20.8645V23.5439C1.04602 23.8267 0.825011 24.0649 0.530334 24.0649Z" fill="black"/>
<path d="M2.66705 24.0649C2.38711 24.0649 2.15137 23.8267 2.15137 23.5439V20.8645C2.15137 20.5817 2.38711 20.3435 2.66705 20.3435C2.947 20.3435 3.18274 20.5817 3.18274 20.8645V23.5439C3.18274 23.8267 2.96173 24.0649 2.66705 24.0649Z" fill="black"/>
<path d="M4.8028 24.0649C4.52285 24.0649 4.28711 23.8267 4.28711 23.5439V20.8645C4.28711 20.5817 4.52285 20.3435 4.8028 20.3435C5.08274 20.3435 5.31848 20.5817 5.31848 20.8645V23.5439C5.31848 23.8267 5.09747 24.0649 4.8028 24.0649Z" fill="black"/>
<path d="M6.93951 24.0649C6.65957 24.0649 6.42383 23.8267 6.42383 23.5439V20.8645C6.42383 20.5817 6.65957 20.3435 6.93951 20.3435C7.21946 20.3435 7.4552 20.5817 7.4552 20.8645V23.5439C7.4552 23.8267 7.23419 24.0649 6.93951 24.0649Z" fill="black"/>
<path d="M9.07623 24.0649C8.79629 24.0649 8.56055 23.8267 8.56055 23.5439V20.8645C8.56055 20.5817 8.79629 20.3435 9.07623 20.3435C9.35618 20.3435 9.59192 20.5817 9.59192 20.8645V23.5439C9.59192 23.8267 9.37091 24.0649 9.07623 24.0649Z" fill="black"/>
<path d="M11.213 24.0649C10.933 24.0649 10.6973 23.8267 10.6973 23.5439V20.8645C10.6973 20.5817 10.933 20.3435 11.213 20.3435C11.4929 20.3435 11.7286 20.5817 11.7286 20.8645V23.5439C11.7286 23.8267 11.5076 24.0649 11.213 24.0649Z" fill="black"/>
<path d="M13.3487 24.0649C13.0687 24.0649 12.833 23.8267 12.833 23.5439V20.8645C12.833 20.5817 13.0687 20.3435 13.3487 20.3435C13.6286 20.3435 13.8644 20.5817 13.8644 20.8645V23.5439C13.8644 23.8267 13.6434 24.0649 13.3487 24.0649Z" fill="black"/>
<path d="M15.4854 24.0649C15.2055 24.0649 14.9697 23.8267 14.9697 23.5439V20.8645C14.9697 20.5817 15.2055 20.3435 15.4854 20.3435C15.7654 20.3435 16.0011 20.5817 16.0011 20.8645V23.5439C16.0011 23.8267 15.7801 24.0649 15.4854 24.0649Z" fill="black"/>
<path d="M17.6221 24.0649C17.3422 24.0649 17.1064 23.8267 17.1064 23.5439V20.8645C17.1064 20.5817 17.3422 20.3435 17.6221 20.3435C17.9021 20.3435 18.1378 20.5817 18.1378 20.8645V23.5439C18.1378 23.8267 17.9168 24.0649 17.6221 24.0649Z" fill="black"/>
<path d="M19.7579 24.0649C19.4779 24.0649 19.2422 23.8267 19.2422 23.5439V20.8645C19.2422 20.5817 19.4779 20.3435 19.7579 20.3435C20.0378 20.3435 20.2736 20.5817 20.2736 20.8645V23.5439C20.2736 23.8267 20.0378 24.0649 19.7579 24.0649Z" fill="black"/>
<path d="M21.8946 24.0649C21.6146 24.0649 21.3789 23.8267 21.3789 23.5439V20.8645C21.3789 20.5817 21.6146 20.3435 21.8946 20.3435C22.1745 20.3435 22.4103 20.5817 22.4103 20.8645V23.5439C22.4103 23.8267 22.1745 24.0649 21.8946 24.0649Z" fill="black"/>
<path d="M24.0313 24.0649C23.7514 24.0649 23.5156 23.8267 23.5156 23.5439V20.8645C23.5156 20.5817 23.7514 20.3435 24.0313 20.3435C24.3113 20.3435 24.547 20.5817 24.547 20.8645V23.5439C24.547 23.8267 24.3113 24.0649 24.0313 24.0649Z" fill="black"/>
<path d="M26.1671 24.0649C25.8871 24.0649 25.6514 23.8267 25.6514 23.5439V20.8645C25.6514 20.5817 25.8871 20.3435 26.1671 20.3435C26.447 20.3435 26.6827 20.5817 26.6827 20.8645V23.5439C26.6827 23.8267 26.447 24.0649 26.1671 24.0649Z" fill="black"/>
<path d="M28.3038 24.0649C28.0238 24.0649 27.7881 23.8267 27.7881 23.5439V20.8645C27.7881 20.5817 28.0238 20.3435 28.3038 20.3435C28.5837 20.3435 28.8195 20.5817 28.8195 20.8645V23.5439C28.8195 23.8267 28.5837 24.0649 28.3038 24.0649Z" fill="black"/>
<path d="M30.4405 24.0649C30.1605 24.0649 29.9248 23.8267 29.9248 23.5439V20.8645C29.9248 20.5817 30.1605 20.3435 30.4405 20.3435C30.7204 20.3435 30.9562 20.5817 30.9562 20.8645V23.5439C30.9562 23.8267 30.7204 24.0649 30.4405 24.0649Z" fill="black"/>
<path d="M12.1112 25.9851H0.515685C0.235742 25.9851 0 25.7469 0 25.4641C0 25.1813 0.235742 24.9431 0.515685 24.9431H12.1112C12.3912 24.9431 12.6269 25.1813 12.6269 25.4641C12.6269 25.7469 12.4059 25.9851 12.1112 25.9851Z" fill="black"/>
<path d="M30.4841 25.9851H16.7227C16.4428 25.9851 16.207 25.7469 16.207 25.4641C16.207 25.1813 16.4428 24.9431 16.7227 24.9431H30.4841C30.7641 24.9431 30.9998 25.1813 30.9998 25.4641C30.9998 25.7469 30.7641 25.9851 30.4841 25.9851Z" fill="black"/>
<path d="M14.8367 26H13.879C13.599 26 13.3633 25.7618 13.3633 25.479C13.3633 25.1962 13.599 24.958 13.879 24.958H14.8367C15.1166 24.958 15.3524 25.1962 15.3524 25.479C15.3524 25.7618 15.1313 26 14.8367 26Z" fill="black"/>
</svg>
