<svg width="47" height="51" viewBox="0 0 47 51" fill="none" xmlns="http://www.w3.org/2000/svg">
<path d="M23.5 14.875C12.22 14.875 0 12.325 0 7.4375C0 2.55 12.22 0 23.5 0C34.78 0 47 2.55 47 7.4375C47 12.325 34.78 14.875 23.5 14.875ZM23.5 2.125C10.34 2.125 2.35 5.3125 2.35 7.4375C2.35 9.5625 10.34 12.75 23.5 12.75C36.66 12.75 44.65 9.5625 44.65 7.4375C44.65 5.3125 36.66 2.125 23.5 2.125Z" fill="currentColor"/>
<path d="M23.735 50.9999C15.275 50.9999 8.695 48.0249 7.99 44.1999L0 7.86238L2.35 7.43738L10.105 43.7749C10.575 46.3249 15.98 48.8749 23.735 48.8749C31.49 48.8749 36.66 46.3249 37.365 43.7749L44.65 7.43738L47 7.86238L39.48 44.1999C38.775 48.2374 31.96 50.9999 23.735 50.9999Z" fill="currentColor"/>
</svg>
