<svg width="67" height="66" viewBox="0 0 67 66" fill="none" xmlns="http://www.w3.org/2000/svg">
<g filter="url(#filter0_d)">
<path d="M33.5 61C49.2401 61 62 48.464 62 33C62 17.536 49.2401 5 33.5 5C17.7599 5 5 17.536 5 33C5 48.464 17.7599 61 33.5 61Z" fill="currentColor"/>
<path d="M33.5 19.4C33.1742 19.4 32.8485 19.72 32.8485 20.04V44.84L25.1942 37.32C25.0314 37.16 24.5428 37.16 24.38 37.32C24.2171 37.48 24.2171 37.96 24.38 38.12L33.0114 46.6C33.1742 46.76 33.3371 46.76 33.5 46.76C33.6628 46.76 33.8257 46.76 33.9885 46.6L42.62 38.12C42.7828 37.96 42.7828 37.48 42.62 37.32C42.4571 37.16 41.9685 37.16 41.8057 37.32L34.1514 44.84V19.88C34.1514 19.56 33.8257 19.4 33.5 19.4Z" fill="white"/>
</g>
<defs>
<filter id="filter0_d" x="0" y="0" width="67" height="66" filterUnits="userSpaceOnUse" color-interpolation-filters="sRGB">
<feFlood flood-opacity="0" result="BackgroundImageFix"/>
<feColorMatrix in="SourceAlpha" type="matrix" values="0 0 0 0 0 0 0 0 0 0 0 0 0 0 0 0 0 0 127 0"/>
<feOffset/>
<feGaussianBlur stdDeviation="2.5"/>
<feColorMatrix type="matrix" values="0 0 0 0 0 0 0 0 0 0 0 0 0 0 0 0 0 0 0.25 0"/>
<feBlend mode="normal" in2="BackgroundImageFix" result="effect1_dropShadow"/>
<feBlend mode="normal" in="SourceGraphic" in2="effect1_dropShadow" result="shape"/>
</filter>
</defs>
</svg>
