<svg width="50" height="56" viewBox="0 0 50 56" fill="none" xmlns="http://www.w3.org/2000/svg">
<path d="M37.4689 0L7.53972 0.0715468C4.60409 1.64596 2.59926 4.86635 1.38205 9.01708C0.164833 13.2394 -0.193171 18.392 0.0932326 23.6162C0.66604 33.8499 3.81648 44.3698 7.75453 49.3078L9.97415 47.5903C10.189 47.4471 10.547 47.4471 10.7618 47.5903L15.201 51.0253L17.4206 49.1646C17.6354 49.0215 17.9935 49.0215 18.2083 49.1646L22.7907 52.5998L25.5115 50.8107C25.7263 50.6675 26.0127 50.6675 26.2276 50.8822L30.3088 54.1741L32.0272 53.0291C32.242 52.886 32.4568 52.886 32.6716 53.0291L36.8245 55.3191C32.1704 39.4319 29.8076 26.6219 30.094 17.247C30.2372 12.3806 31.0964 8.44459 32.6716 5.36732C33.7456 2.93414 35.3925 1.14503 37.4689 0ZM41.1921 0.214684C40.3329 0.214684 39.4737 0.357821 38.6861 0.715643C38.6861 0.715643 38.6861 0.715643 38.6145 0.715643C36.5381 1.71754 34.9629 3.29192 33.7456 5.51042C32.8148 7.37109 32.242 9.66115 32.242 12.0943C32.242 18.6067 36.1801 23.9025 41.1205 23.9025C46.061 23.9025 49.999 18.6067 49.999 12.0943C50.0706 5.51043 46.1326 0.214684 41.1921 0.214684ZM41.2637 3.29194C44.9154 3.29194 47.851 7.22797 47.851 12.0943C47.851 16.9607 44.9154 20.8967 41.2637 20.8967C37.6121 20.8967 34.6765 16.9607 34.6765 12.0943C34.6765 7.22797 37.6121 3.29194 41.2637 3.29194ZM41.2637 4.65168C38.1849 4.65168 35.7505 7.94363 35.7505 12.0228C35.7505 16.102 38.1849 19.3939 41.2637 19.3939C44.3426 19.3939 46.777 16.102 46.777 12.0228C46.777 8.01519 44.271 4.65168 41.2637 4.65168ZM31.3828 14.3129C31.3112 15.1716 31.2396 16.1019 31.2396 17.1038C31.168 19.0361 31.2396 21.183 31.3828 23.4731L36.7529 23.8309C33.9604 22.0418 31.9556 18.5352 31.3828 14.3129Z" fill="currentColor"/>
</svg>
