<svg width="22" height="33" viewBox="0 0 22 33" fill="none" xmlns="http://www.w3.org/2000/svg">
<path d="M22 6.54181C22 6.54181 22 6.50067 21.9585 6.50067C21.917 6.45952 21.8755 6.37724 21.834 6.33609C21.834 6.33609 21.834 6.33609 21.834 6.29495L12.9094 0.0822869C12.8679 0.0411435 12.8264 0.0411435 12.7849 0.0411435C12.7434 0.0411435 12.7434 0 12.7019 0H12.4528C12.4113 0 12.3698 0.0411435 12.3698 0.0411435C12.3283 0.0411435 12.2868 0.0822869 12.2453 0.0822869L6.18491 4.23778C6.1434 4.27892 6.10189 4.32006 6.06038 4.36121C6.06038 4.36121 6.06038 4.36121 6.06038 4.40235C6.01887 4.44349 5.97736 4.52578 5.97736 4.60807C5.97736 4.60807 5.97736 4.60807 5.97736 4.64921V12.7956L0.249057 16.7865L0.166038 16.8688C0.124528 16.91 0.124528 16.91 0.124528 16.9511L0.0830189 16.9923C0.0830189 17.0334 0.0415094 17.0745 0.0415094 17.0745V17.1157C0.0415094 17.1568 0 17.198 0 17.2803V25.5912C0 25.6735 0 25.7558 0.0415094 25.797V25.8381C0.0830189 25.8792 0.124528 25.9615 0.166038 26.0027C0.166038 26.0027 0.166038 26.0027 0.207547 26.0438L0.249057 26.085L9.13208 32.3388H9.17358C9.17358 32.3388 9.21509 32.3388 9.21509 32.3799H9.2566C9.33962 32.4211 9.42264 32.4211 9.50566 32.4211C9.54717 32.4211 9.63019 32.4211 9.6717 32.3799H9.71321C9.75472 32.3799 9.75472 32.3799 9.79623 32.3388C9.79623 32.3388 9.83774 32.3388 9.83774 32.2976H9.87924L21.8755 23.9866C21.917 23.9455 21.9585 23.9044 22 23.8632V6.54181ZM8.84151 30.6519L1.16226 25.2209V18.3911L8.84151 23.7809V30.6519ZM9.42264 22.7523L1.61887 17.2391L6.51698 13.7831L14.3623 19.2963L9.42264 22.7523ZM14.8189 18.1443L7.13962 12.7545V5.92466L14.8189 11.3145V18.1443ZM15.4415 10.2447L7.59623 4.7315L12.5358 1.31659L20.3811 6.82982L15.4415 10.2447Z" fill="currentColor"/>
</svg>
