<svg width="268" height="266" viewBox="0 0 268 266" fill="none" xmlns="http://www.w3.org/2000/svg">
<g clip-path="url(#clip0)">
<path d="M244.35 250.2C229.05 250.2 216.55 237.7 216.55 222.4C216.55 218.5 217.35 214.8 218.85 211.2V210.7L219.35 210.1C219.75 209.4 220.45 208.1 220.85 207.4L221.85 205.9C221.85 205.8 221.95 205.8 221.95 205.7C222.15 205.3 222.55 204.6 222.95 204V202.9L223.75 202.5C226.35 197 227.65 191.2 227.65 185C227.65 163.8 211.05 145.9 189.95 144.4C188.25 144.3 187.05 142.8 187.15 141.2C187.25 139.5 188.75 138.3 190.35 138.4C214.65 140.1 233.65 160.6 233.65 185C233.65 192.1 232.05 199.1 228.95 205.4L228.65 206L228.15 206.9C227.85 207.4 227.65 207.9 227.35 208.3V208.4L225.85 210.7C225.65 211 224.85 212.5 224.45 213.2L224.35 213.5C223.05 216.3 222.45 219.4 222.45 222.5C222.45 234.5 232.25 244.3 244.25 244.3C251.45 244.3 258.25 240.7 262.35 234.7C263.25 233.3 265.15 233 266.55 233.9C267.95 234.8 268.25 236.7 267.35 238.1C262.15 245.6 253.55 250.2 244.35 250.2Z" fill="currentColor"/>
<path d="M23.6503 249.7C14.4503 249.7 5.85032 245.1 0.650323 237.4C-0.249677 236 0.0503229 234.2 1.45032 233.2C2.85032 232.3 4.65032 232.6 5.65032 234C9.75032 240 16.4503 243.6 23.7503 243.6C35.7503 243.6 45.5503 233.8 45.5503 221.8C45.5503 218.7 44.9503 215.7 43.6503 212.9L43.4503 212.6C43.1503 211.9 42.2503 210.5 42.0503 210.1L40.5503 207.8V207.7C40.3503 207.3 40.0503 206.8 39.7503 206.3L39.3503 205.4L39.0503 204.8C35.9503 198.5 34.3503 191.5 34.3503 184.4C34.3503 160 53.3503 139.6 77.6503 137.8C79.2503 137.7 80.7503 138.9 80.8503 140.6C80.9503 142.3 79.7503 143.7 78.0503 143.8C56.8503 145.3 40.3503 163.1 40.3503 184.4C40.3503 190.5 41.6503 196.4 44.2503 201.8L44.9503 202.2V203.3C45.2503 203.9 45.7503 204.7 45.9503 205.1C45.9503 205.2 46.0503 205.2 46.0503 205.3L47.0503 206.8C47.4503 207.5 48.1503 208.7 48.5503 209.4L49.0503 209.9V210.5C50.6503 214 51.3503 217.8 51.3503 221.7C51.4503 237.3 38.9503 249.7 23.6503 249.7Z" fill="currentColor"/>
<path d="M61.4512 262.4C60.5512 262.4 59.6512 262 58.9512 261.4C58.2512 260.7 57.9512 259.8 57.9512 258.9L60.1512 112.4C60.1512 110.5 61.7512 109 63.6512 109C74.6512 109 88.2512 73.9002 94.3512 48.9002C94.7512 47.3002 96.1512 46.2002 97.7512 46.2002H169.351C170.951 46.2002 172.351 47.3002 172.751 48.9002C178.851 73.8002 192.451 109 203.451 109C205.351 109 206.951 110.5 206.951 112.4L209.151 258.8C209.151 259.7 208.851 260.6 208.151 261.3C207.451 262 206.551 262.3 205.651 262.3H61.4512V262.4Z" fill="white"/>
<path d="M169.351 49.7002C169.351 49.7002 184.651 112.4 203.451 112.4L205.651 258.8H137.851H129.351H61.4512L63.6512 112.4C82.3512 112.4 97.7512 49.7002 97.7512 49.7002H108.151H127.451H169.351ZM169.351 42.7002H127.451H108.151H97.7512C94.5512 42.7002 91.7512 44.9002 90.9512 48.0002C90.9512 48.2002 87.1512 63.5002 81.1512 78.6002C72.7512 99.8002 66.0512 105.4 63.6512 105.4C59.8512 105.4 56.7512 108.5 56.6512 112.3L54.4512 258.7C54.4512 260.6 55.1512 262.4 56.4512 263.7C57.7512 265 59.5512 265.8 61.4512 265.8H129.251H137.751H205.551C207.451 265.8 209.251 265 210.551 263.7C211.851 262.4 212.551 260.6 212.551 258.7L210.351 112.3C210.251 108.5 207.151 105.4 203.351 105.4C200.951 105.4 194.151 99.8002 185.851 78.5002C179.951 63.5002 176.151 48.2002 176.151 48.1002C175.351 44.9002 172.551 42.7002 169.351 42.7002Z" fill="currentColor"/>
<path d="M167.05 49.0001L164.15 48.4001C164.65 45.7001 164.95 43.0001 164.95 40.2001C164.95 19.8001 150.95 3.1001 133.85 3.1001C116.75 3.1001 102.75 19.7001 102.75 40.2001C102.75 43.0001 103.05 45.7001 103.55 48.4001L100.65 49.0001C100.15 46.2001 99.8496 43.2001 99.8496 40.2001C99.6496 18.1001 114.95 0.100098 133.75 0.100098C152.55 0.100098 167.85 18.1001 167.85 40.2001C167.85 43.2001 167.55 46.1001 167.05 49.0001Z" fill="currentColor"/>
<path d="M161.15 49.0001L158.25 48.4001C158.85 45.8001 159.05 43.0001 159.05 40.2001C159.05 22.6001 147.65 8.40015 133.65 8.40015C119.65 8.40015 108.25 22.7001 108.25 40.2001C108.25 43.0001 108.55 45.7001 109.05 48.4001L106.15 49.0001C105.55 46.2001 105.25 43.2001 105.25 40.2001C105.25 21.0001 117.95 5.40015 133.65 5.40015C149.35 5.40015 162.15 21.0001 162.15 40.2001C162.15 43.2001 161.75 46.1001 161.15 49.0001Z" fill="currentColor"/>
<path d="M95.3512 159.1C95.3512 160.6 93.4512 161.8 91.9512 162.6C89.4512 163.9 86.7512 164.9 84.0512 165.7C81.1512 166.5 71.7512 169 70.7512 165.8C70.6512 165.6 70.6512 165.4 70.6512 165.1L70.4512 163.7C68.7512 164.4 67.0512 165 65.2512 165.5C62.3512 166.3 52.9512 168.8 51.9512 165.6C51.9512 165.5 51.9512 165.5 51.9512 165.4C51.9512 165.3 51.8512 165.3 51.8512 165.2C50.6512 161.3 48.8512 156.6 48.2512 155.9C47.6512 155.5 46.6512 154.8 45.7512 154.1C44.9512 153.5 44.2512 153 43.8512 152.7C43.4512 152.4 41.7512 151.3 39.7512 149.9C37.2512 148.2 34.4512 146.3 33.6512 145.8C31.2512 144.2 28.2512 141.1 26.3512 139C25.6512 138.3 24.8512 137.4 24.6512 137.3C24.5512 137.2 24.1512 137.1 23.8512 136.9C21.4512 135.7 19.0512 134.4 18.6512 132.5C18.5512 131.3 19.0512 130.1 20.0512 129.3C21.8512 127.7 24.5512 127.3 27.2512 128.3C30.3512 129.4 33.7512 131.6 35.6512 133L35.7512 131.8C35.4512 129.5 34.7512 123.6 34.5512 122.6C34.3512 121.9 33.8512 118.7 33.3512 115.6C32.9512 113.4 32.5512 111 32.4512 110.6C32.2512 109.8 31.0512 101.2 31.1512 99.7001V99.3001C31.2512 97.6001 31.3512 95.2001 33.9512 94.7001C34.3512 94.6001 34.6512 94.6001 35.0512 94.7001C35.0512 93.9001 35.1512 93.0001 35.5512 92.3001C35.9512 91.6001 36.5512 91.1001 37.3512 90.8001C38.3512 90.5001 39.5512 90.6001 40.4512 91.1001C41.0512 91.5001 41.6512 92.0001 42.0512 92.7001C42.5512 92.4001 43.1512 92.2001 43.7512 92.2001C45.3512 92.1001 47.0512 93.6001 48.3512 96.1001C48.9512 97.3001 49.6512 99.0001 50.2512 100.4C50.4512 100.3 50.5512 100.2 50.7512 100.1C52.5512 99.4001 54.4512 100.5 55.5512 102.9C55.7512 103.3 56.3512 104.3 56.9512 105.5C57.8512 107.1 58.6512 108.7 59.4512 110.2V109.7C59.3512 108.8 59.4512 100.2 59.7512 98.7001L59.8512 98.3001C60.1512 96.6001 60.6512 94.3001 63.2512 94.1001C63.6512 94.1001 63.9512 94.1001 64.3512 94.2001C64.4512 93.4001 64.7512 92.6001 65.1512 91.9001C65.6512 91.2001 66.3512 90.8001 67.1512 90.7001C68.2512 90.5001 69.3512 90.8001 70.2512 91.4001C70.8512 91.9001 71.2512 92.5001 71.5512 93.2001C72.1512 93.0001 72.7512 92.9001 73.2512 92.9001C74.8512 93.0001 76.3512 94.7001 77.2512 97.5001C77.6512 98.8001 78.1512 100.5 78.5512 102C78.7512 101.9 78.9512 101.9 79.1512 101.8C81.0512 101.3 82.7512 102.7 83.5512 105.3C83.6512 105.7 84.0512 106.6 84.4512 107.7C85.8512 111.5 87.0512 114.7 87.1512 116.3C87.2512 117.5 88.1512 119.8 88.9512 122C89.4512 123.4 90.0512 124.8 90.4512 126.2C91.6512 130 93.3512 140.2 92.9512 144.3V144.6C92.6512 147.5 92.6512 147.5 93.6512 151.5L94.1512 153.5C94.3512 154.2 94.6512 155.5 95.0512 156.6C95.3512 157.7 95.6512 158.6 95.6512 158.6C95.2512 158.8 95.3512 159 95.3512 159.1Z" fill="white"/>
<path d="M95.2508 158.6C95.2508 158.6 94.9508 157.7 94.6508 156.6C94.3508 155.5 93.9508 154.2 93.7508 153.5L93.2508 151.5C92.2508 147.6 92.2508 147.6 92.5508 144.6V144.3C92.9508 140.2 91.2508 130 90.0508 126.2C89.5508 124.8 89.0508 123.4 88.5508 122C87.7508 119.8 86.8508 117.5 86.7508 116.3C86.6508 114.7 85.4508 111.5 84.0508 107.7C83.6508 106.6 83.2508 105.7 83.1508 105.3C82.3508 102.7 80.6508 101.3 78.7508 101.8C78.5508 101.8 78.3508 101.9 78.1508 102C77.7508 100.6 77.2508 98.8002 76.8508 97.5002C75.9508 94.8002 74.4508 93.1002 72.8508 92.9002C72.2508 92.9002 71.6508 92.9002 71.1508 93.2002C70.8508 92.5002 70.4508 91.9002 69.8508 91.4002C68.9508 90.7002 67.8508 90.5002 66.7508 90.7002C65.9508 90.8002 65.2508 91.3002 64.7508 91.9002C64.2508 92.6002 64.0508 93.4002 63.9508 94.2002C63.5508 94.1002 63.2508 94.1002 62.8508 94.1002C60.2508 94.3002 59.8508 96.6002 59.4508 98.3002L59.3508 98.7002C59.0508 100.2 59.0508 108.8 59.0508 109.7V110.2C58.3508 108.8 57.4508 107.2 56.5508 105.5C55.9508 104.3 55.3508 103.3 55.1508 102.9C54.0508 100.5 52.0508 99.3002 50.3508 100.1C50.1508 100.2 49.9508 100.3 49.8508 100.4C49.2508 99.0002 48.5508 97.3002 47.9508 96.1002C46.6508 93.5002 44.9508 92.1002 43.3508 92.2002C42.7508 92.2002 42.1508 92.4002 41.6508 92.7002C41.2508 92.1002 40.7508 91.5002 40.0508 91.1002C39.0508 90.6002 37.9508 90.4002 36.9508 90.8002C36.1508 91.0002 35.5508 91.6002 35.1508 92.3002C34.7508 93.0002 34.6508 93.9002 34.6508 94.7002C34.2508 94.7002 33.9508 94.7002 33.5508 94.7002C31.0508 95.2002 30.8508 97.6002 30.7508 99.3002V99.7002C30.6508 101.2 31.8508 109.8 32.0508 110.6C32.1508 111 32.5508 113.3 32.9508 115.6C33.4508 118.7 34.0508 121.9 34.1508 122.6C34.3508 123.6 35.1508 129.5 35.3508 131.8L35.2508 133C33.2508 131.6 29.9508 129.4 26.8508 128.3C24.1508 127.4 21.4508 127.8 19.6508 129.3C18.6508 130 18.1508 131.2 18.2508 132.5C18.6508 134.5 21.0508 135.8 23.4508 136.9C23.7508 137.1 24.1508 137.2 24.2508 137.3C24.4508 137.5 25.2508 138.3 25.9508 139C27.9508 141.1 30.9508 144.2 33.2508 145.8C34.0508 146.3 36.8508 148.2 39.3508 149.9C41.3508 151.3 43.0508 152.5 43.4508 152.7C43.8508 153 44.5508 153.5 45.3508 154.1C46.2508 154.8 47.2508 155.5 47.8508 155.9C48.5508 156.6 50.2508 161.3 51.4508 165.2C51.4508 165.3 51.5508 165.3 51.5508 165.4C51.5508 165.5 51.5508 165.5 51.5508 165.6C52.5508 168.9 61.9508 166.4 64.8508 165.5C66.6508 165 68.3508 164.4 70.0508 163.7L70.2508 165.1C70.2508 165.3 70.2508 165.6 70.3508 165.8C71.3508 169.1 80.7508 166.6 83.6508 165.7C86.3508 164.9 89.0508 163.9 91.5508 162.6C93.0508 161.8 94.9508 160.6 94.9508 159.1C95.3508 159 95.2508 158.8 95.2508 158.6ZM49.5508 153.9C48.9508 153.5 47.9508 152.8 47.0508 152.1C46.1508 151.4 45.4508 150.9 45.0508 150.7C44.6508 150.4 42.8508 149.2 40.9508 147.9C38.4508 146.2 35.6508 144.3 34.8508 143.7C32.7508 142.3 29.8508 139.3 27.9508 137.3C27.3508 136.6 26.5508 135.9 25.8508 135.2C25.5508 135 25.1508 134.8 24.7508 134.6C23.7508 134.1 21.0508 132.8 20.8508 131.9C20.9508 131.5 21.2508 131.1 21.6508 130.8C22.1508 130.4 23.7508 129.5 26.2508 130.4C30.4508 131.8 35.5508 135.9 35.6508 136C35.9508 136.3 36.4508 136.3 36.8508 136.2C37.2508 136 37.5508 135.7 37.5508 135.2L37.9508 131.8C37.9508 131.7 37.9508 131.6 37.9508 131.5C37.9508 131.2 36.9508 123.3 36.6508 121.9C36.4508 121.2 35.9508 117.9 35.4508 115C35.0508 112.5 34.6508 110.4 34.5508 110C34.3508 109.1 33.2508 100.8 33.3508 99.7002V99.3002C33.4508 97.3002 33.6508 97.0002 34.2508 96.9002C34.6508 96.8002 35.0508 97.0002 35.3508 97.3002L42.1508 123.2C42.3508 123.8 42.9508 124.2 43.6508 124C44.1508 123.9 44.5508 123.4 44.5508 122.8C44.5508 122.7 44.5508 122.6 44.5508 122.5L37.6508 96.3002C37.4508 95.6002 37.1508 93.9002 37.5508 93.2002C37.6508 93.0002 37.7508 92.9002 37.9508 92.9002C38.3508 92.7002 38.8508 92.8002 39.1508 93.0002C39.7508 93.5002 40.1508 94.1002 40.3508 94.9002V95.0002L48.9508 121.3C49.1508 121.9 49.8508 122.3 50.4508 122.1C50.9508 121.9 51.2508 121.5 51.2508 121C51.2508 120.9 51.2508 120.8 51.1508 120.6L42.7508 94.9002C42.9508 94.7002 43.3508 94.5002 43.6508 94.5002C43.8508 94.5002 44.8508 95.0002 45.9508 97.1002C47.0508 99.2002 48.6508 103.4 48.7508 103.6L55.7508 122.4C55.9508 123 56.6508 123.3 57.3508 123.1C57.8508 122.9 58.1508 122.5 58.1508 122C58.1508 121.9 58.1508 121.7 58.0508 121.6L51.1508 103C51.1508 102.7 51.2508 102.5 51.5508 102.4C52.1508 102.2 52.8508 103.1 53.3508 104C53.5508 104.4 54.0508 105.4 54.7508 106.7C56.2508 109.6 59.1508 115 59.4508 116.3C59.4508 116.4 59.4508 116.5 59.5508 116.5C59.6508 119 59.6508 121.3 59.7508 121.9C59.8508 123 59.7508 128.8 59.6508 131.2L59.3508 132.4C57.5508 130.7 54.5508 128.1 51.6508 126.6C49.1508 125.3 46.4508 125.3 44.4508 126.6C43.3508 127.2 42.6508 128.3 42.6508 129.6C42.7508 131.6 44.9508 133.3 47.2508 134.7C47.5508 134.9 47.9508 135.1 47.9508 135.2C48.1508 135.4 48.8508 136.3 49.3508 137.2C51.0508 139.5 53.5508 143.1 55.6508 144.9C56.3508 145.5 58.8508 147.8 61.1508 149.9C62.9508 151.5 64.4508 152.9 64.8508 153.3C65.2508 153.6 65.8508 154.3 66.5508 154.9C67.2508 155.6 67.9508 156.3 68.4508 156.8C66.6508 157.2 64.2508 157.9 62.9508 158.3C60.2508 159 57.5508 160.2 55.1508 161.6C54.6508 161.9 54.0508 162.3 53.5508 162.7C51.7508 157.4 50.4508 154.5 49.5508 153.9ZM64.5508 163.2C59.4508 164.7 55.8508 164.9 54.5508 164.8C55.4508 163.8 58.4508 161.8 63.4508 160.3C64.7508 159.9 67.5508 159.1 69.2508 158.7C69.4508 159.4 69.6508 160.3 69.8508 161.3C68.1508 162.1 66.3508 162.7 64.5508 163.2ZM70.2508 155.1C69.7508 154.6 68.8508 153.8 68.0508 153C67.2508 152.2 66.6508 151.6 66.2508 151.3C65.8508 150.9 64.3508 149.5 62.6508 148C60.4508 145.9 57.8508 143.6 57.1508 143C55.2508 141.3 52.8508 137.9 51.2508 135.7C50.7508 134.9 50.1508 134.1 49.4508 133.3C49.1508 133 48.7508 132.8 48.4508 132.6C47.5508 132 45.0508 130.3 44.9508 129.3C45.1508 128.9 45.4508 128.5 45.8508 128.4C46.4508 128.1 48.0508 127.4 50.4508 128.6C54.4508 130.6 58.9508 135.4 58.9508 135.4C59.4508 135.9 60.1508 135.9 60.6508 135.4C60.8508 135.2 60.9508 135 60.9508 134.8L61.7508 131.4C61.7508 131.3 61.7508 131.2 61.7508 131.1C61.7508 130.8 61.9508 122.9 61.8508 121.5C61.8508 120.8 61.7508 117.4 61.6508 114.5C61.5508 112 61.5508 109.8 61.4508 109.4C61.3508 108.5 61.4508 100.1 61.6508 99.1002L61.7508 98.7002C62.1508 96.8002 62.3508 96.5002 62.9508 96.5002C63.3508 96.5002 63.7508 96.7002 63.9508 97.0002L67.0508 123.6C67.0508 124.3 67.6508 124.8 68.3508 124.7C69.0508 124.7 69.5508 124.1 69.4508 123.4V123.3L66.2508 96.4002C66.1508 95.7002 66.0508 94.0002 66.5508 93.3002C66.6508 93.2002 66.7508 93.1002 66.9508 93.1002C67.3508 93.0002 67.8508 93.1002 68.1508 93.3002C68.6508 93.8002 68.9508 94.5002 69.0508 95.3002V95.4002L73.8508 122.6C73.9508 123.3 74.4508 123.8 75.1508 123.7C75.8508 123.6 76.3508 123.1 76.2508 122.4V122.2L71.5508 95.6002C71.8508 95.4002 72.1508 95.3002 72.5508 95.3002C72.7508 95.3002 73.6508 96.0002 74.4508 98.2002C75.2508 100.5 76.2508 104.9 76.2508 105L80.4508 124.6C80.6508 125.3 81.2508 125.6 81.8508 125.5C82.4508 125.3 82.8508 124.7 82.7508 124.1L78.5508 104.7C78.5508 104.4 78.7508 104.2 79.0508 104.1C79.6508 104 80.2508 105 80.5508 106C80.7508 106.5 81.0508 107.4 81.4508 108.6C82.3508 111.1 83.9508 115.2 84.0508 116.5C84.1508 118 85.0508 120.3 85.9508 122.9C86.4508 124.3 86.9508 125.7 87.4508 127C88.5508 130.5 90.2508 140.3 89.8508 144.1V144.4C89.5508 147.7 89.5508 147.8 90.6508 152.1L91.1508 154.1C91.3508 154.8 91.6508 156 91.9508 157.1C88.6508 156.9 83.6508 158.2 81.6508 158.8C78.9508 159.6 76.2508 160.6 73.7508 161.9C73.2508 162.1 72.7508 162.4 72.3508 162.7C72.0508 159.3 71.1508 155.9 70.2508 155.1ZM83.3508 163.4C78.4508 164.8 74.9508 165.1 73.5508 165C74.6508 164.1 77.7508 162.5 82.6508 161C87.5508 159.6 91.0508 159.3 92.4508 159.4C91.3508 160.4 88.2508 162 83.3508 163.4Z" fill="currentColor"/>
<path fill-rule="evenodd" clip-rule="evenodd" d="M134 95.5C137.314 95.5 140 98.1863 140 101.5V140.5C140 143.814 137.314 146.5 134 146.5C130.686 146.5 128 143.814 128 140.5V101.5C128 98.1863 130.686 95.5 134 95.5Z" fill="currentColor"/>
<path fill-rule="evenodd" clip-rule="evenodd" d="M159.5 121C159.5 124.314 156.814 127 153.5 127L114.5 127C111.186 127 108.5 124.314 108.5 121C108.5 117.686 111.186 115 114.5 115L153.5 115C156.814 115 159.5 117.686 159.5 121Z" fill="currentColor"/>
</g>
<defs>
<clipPath id="clip0">
<rect width="267.7" height="265.8" fill="white" transform="translate(0.150391 0.100098)"/>
</clipPath>
</defs>
</svg>
