<svg width="301" height="300" viewBox="0 0 301 300" fill="none" xmlns="http://www.w3.org/2000/svg">
<rect width="300" height="300" transform="translate(0.296875)" fill="white"/>
<path d="M273.9 40.4999C272 40.4999 268.7 38.8999 265.6 35.3999C261.6 30.8999 260.9 26.3999 262.2 25.2999C262.5 25.0999 262.9 24.8999 263.5 24.8999C265.4 24.8999 268.7 26.4999 271.8 29.9999C275.8 34.4999 276.5 38.9999 275.2 40.0999C274.9 40.3999 274.4 40.4999 273.9 40.4999Z" fill="white"/>
<path d="M263.6 27C264.8 27.1 267.6 28.3 270.2 31.4C273 34.6 273.7 37.4 273.7 38.5C272.5 38.4 269.7 37.2 267.1 34.1C264.3 31 263.5 28.1 263.6 27ZM263.4 23C262.4 23 261.5 23.3 260.8 23.9C258.3 26.1 259.7 31.9 264 36.8C267.2 40.4 271 42.5 273.8 42.5C274.8 42.5 275.7 42.2 276.4 41.6C278.9 39.4 277.5 33.6 273.2 28.7C270.1 25.1 266.3 23 263.4 23Z" fill="currentColor"/>
<path d="M258.3 78.1001C253.3 78.1001 244 73.9001 234.5 64.4001C228.9 58.8001 224.5 52.6001 222.3 47.0001C220.2 41.9001 220.6 38.9001 221.6 37.9001C222.3 37.2001 223.4 37.1001 224.3 37.1001C229.3 37.1001 238.6 41.3001 248.1 50.8001C259.9 62.6001 263.7 74.6001 261 77.3001C260.4 78.0001 259.2 78.1001 258.3 78.1001Z" fill="white"/>
<path d="M224.8 41.1001C228.4 41.4001 236.4 44.8001 245.2 53.6001C254.2 62.6001 257.5 70.8001 257.8 74.0001C254.2 73.7001 246.2 70.3001 237.4 61.5001C228.3 52.5001 225.1 44.3001 224.8 41.1001ZM224.3 33.1001C222 33.1001 220.1 33.7001 218.8 35.1001C213.5 40.4001 219.3 54.8001 231.7 67.2001C241 76.5001 251.4 82.1001 258.3 82.1001C260.6 82.1001 262.5 81.5001 263.8 80.1001C269.1 74.8001 263.3 60.4001 250.9 48.0001C241.6 38.7001 231.2 33.1001 224.3 33.1001Z" fill="currentColor"/>
<path d="M59.0055 273.567C62.4811 270.091 57.7008 259.676 48.3283 250.303C38.9558 240.931 28.5403 236.151 25.0647 239.626C21.589 243.102 26.3694 253.517 35.7419 262.89C45.1144 272.262 55.5298 277.043 59.0055 273.567Z" fill="white"/>
<path d="M55.7006 276.6C53.9006 276.6 51.6006 276.1 48.7006 274.7C44.1006 272.6 39.0006 268.8 34.3006 264.2C22.2006 252.2 19.8006 242 23.6006 238.2C27.4006 234.4 37.6006 236.8 49.6006 248.9C54.3006 253.6 58.0006 258.7 60.1006 263.3C63.2006 270 61.9006 273.3 60.2006 274.9C59.5006 275.8 58.0006 276.6 55.7006 276.6ZM28.3006 240.5C27.5006 240.5 26.9006 240.7 26.5006 241.1C24.5006 243.1 27.7006 252 37.2006 261.5C41.6006 265.9 46.3006 269.3 50.4006 271.2C54.5006 273.1 56.8006 272.9 57.5006 272.1C58.2006 271.4 58.4006 269 56.6006 265C54.7006 260.8 51.2006 256.1 46.9006 251.8C39.2006 244 31.8006 240.5 28.3006 240.5Z" fill="currentColor"/>
<path d="M49.9008 262.1C38.7008 259.2 36.8008 247.4 36.8008 247.4L217.901 68L231.001 82.7L49.9008 262.1Z" fill="white"/>
<path d="M49.9004 264.1C49.7004 264.1 49.6004 264.1 49.4004 264C37.0004 260.8 34.9004 248.2 34.8004 247.7C34.7004 247.1 34.9004 246.4 35.4004 246L216.5 66.6C216.9 66.2 217.4 66 218 66C218.5 66 219.1 66.3 219.4 66.7L232.5 81.4C233.2 82.2 233.2 83.4 232.4 84.2L51.3004 263.6C50.9004 263.9 50.4004 264.1 49.9004 264.1ZM38.9004 248.1C39.6004 250.7 42.0004 257.5 49.3004 259.9L228.3 82.6L217.9 70.9L38.9004 248.1Z" fill="currentColor"/>
<path d="M95.607 262.586C100.879 257.314 91.9832 239.87 75.7375 223.624C59.4919 207.379 42.0483 198.483 36.7763 203.755C31.5043 209.027 40.4002 226.47 56.6458 242.716C72.8915 258.962 90.335 267.858 95.607 262.586Z" fill="white"/>
<path d="M91.2008 268.1C88.0008 268.1 83.9008 267.1 78.4008 264.3C70.7008 260.4 61.9008 253.7 53.8008 245.6C45.6008 237.4 39.0008 228.7 35.0008 221C29.1008 209.4 31.1008 203.7 33.9008 201C36.6008 198.3 42.3008 196.2 53.9008 202.1C61.6008 206 70.4008 212.7 78.5008 220.8C86.6008 228.9 93.3008 237.7 97.2008 245.4C103.101 257 101.101 262.7 98.3008 265.4C97.0008 266.9 94.7008 268.1 91.2008 268.1ZM41.1008 206.2C40.4008 206.2 39.9008 206.3 39.6008 206.6C37.6008 208.6 42.2008 222.6 59.5008 239.9C76.8008 257.2 90.9008 261.7 92.8008 259.8C94.8008 257.8 90.2008 243.8 72.9008 226.5C58.1008 211.6 45.6008 206.2 41.1008 206.2Z" fill="currentColor"/>
<path d="M89.0004 249.6C64.7004 242.8 50.3004 213.4 49.4004 210L220.7 38.8003C220.7 38.8003 235.6 69.5003 260.3 78.4003L89.0004 249.6Z" fill="white"/>
<path d="M89.0009 253.6C88.6009 253.6 88.3009 253.6 87.9009 253.4C61.4009 246 46.6009 215 45.5009 211.1C45.1009 209.7 45.5009 208.2 46.5009 207.2L217.801 36.0001C218.701 35.1001 220.001 34.7001 221.301 34.9001C222.601 35.1001 223.701 35.9001 224.201 37.1001C224.301 37.4001 238.801 66.4001 261.501 74.7001C262.801 75.2001 263.701 76.3001 264.001 77.6001C264.301 78.9001 263.901 80.3001 262.901 81.3001L91.8009 252.4C91.0009 253.2 90.0009 253.6 89.0009 253.6ZM54.1009 211C57.4009 217.9 69.5009 238.6 87.9009 245.1L253.201 79.7001C236.301 71.1001 224.601 53.9001 219.701 45.4001L54.1009 211Z" fill="currentColor"/>
<path d="M275.101 40.1998L252.801 61.0998C241.501 58.4998 239.301 46.6998 239.301 46.6998L261.601 25.7998C263.801 36.1998 275.101 40.1998 275.101 40.1998Z" fill="white"/>
<path d="M252.8 63.0998C252.7 63.0998 252.5 63.0998 252.4 63.0998C240 60.2998 237.5 47.6998 237.4 47.0998C237.3 46.3998 237.5 45.6998 238 45.2998L260.3 24.3998C260.8 23.8998 261.6 23.6998 262.3 23.9998C263 24.1998 263.5 24.7998 263.7 25.4998C265.6 34.6998 275.8 38.3998 275.9 38.3998C276.6 38.5998 277.1 39.1998 277.2 39.8998C277.3 40.5998 277.1 41.2998 276.6 41.7998L254.3 62.6998C253.8 62.8998 253.4 63.0998 252.8 63.0998ZM241.6 47.3998C242.4 49.9998 245 56.6998 252.3 58.8998L271.6 40.7998C268.3 39.0998 263.1 35.4998 260.7 29.4998L241.6 47.3998Z" fill="currentColor"/>
<path d="M87.0984 247.5C87.0984 247.5 75.9984 218.1 52.8984 211.3L87.0984 247.5Z" fill="white"/>
<path d="M87.0993 249.5C86.2993 249.5 85.4993 249 85.1993 248.2C85.0993 247.9 74.1993 219.7 52.2993 213.2C51.1993 212.9 50.5993 211.8 50.9993 210.7C51.2993 209.6 52.3993 209 53.4993 209.4C63.3993 212.3 72.6993 219.8 80.3993 230.9C86.0993 239.2 88.8993 246.6 89.0993 246.9C89.4993 247.9 88.9993 249.1 87.8993 249.5C87.5993 249.5 87.2993 249.5 87.0993 249.5Z" fill="currentColor"/>
<path d="M67.5 195.5C67.5 195.5 72.8 206 81.5 213.7L67.5 195.5Z" fill="white"/>
<path d="M81.4996 215.7C80.9996 215.7 80.5996 215.5 80.1996 215.2C71.2996 207.3 65.9996 196.8 65.6996 196.4C65.1996 195.4 65.5996 194.2 66.5996 193.7C67.5996 193.2 68.7996 193.6 69.2996 194.6C69.3996 194.7 74.5996 204.9 82.8996 212.3C83.6996 213 83.7996 214.3 83.0996 215.1C82.5996 215.5 82.0996 215.7 81.4996 215.7Z" fill="currentColor"/>
<path d="M79.2988 184.2C79.2988 184.2 82.2988 191.2 88.1988 196.3L79.2988 184.2Z" fill="white"/>
<path d="M88.299 198.4C87.799 198.4 87.399 198.2 86.999 197.9C80.799 192.5 77.699 185.4 77.499 185.1C77.099 184.1 77.499 182.9 78.499 182.5C79.499 182.1 80.699 182.5 81.099 183.5C81.199 183.6 84.099 190.1 89.499 194.9C90.299 195.6 90.399 196.9 89.699 197.7C89.399 198.1 88.799 198.4 88.299 198.4Z" fill="currentColor"/>
<path d="M104.799 158.5C104.799 158.5 107.799 165.5 113.699 170.6L104.799 158.5Z" fill="white"/>
<path d="M113.799 172.6C113.299 172.6 112.899 172.4 112.499 172.1C106.299 166.7 103.199 159.6 102.999 159.3C102.599 158.3 102.999 157.1 103.999 156.7C104.999 156.3 106.199 156.7 106.599 157.7C106.699 157.8 109.599 164.3 114.999 169.1C115.799 169.8 115.899 171.1 115.199 171.9C114.899 172.4 114.299 172.6 113.799 172.6Z" fill="currentColor"/>
<path d="M130.199 133C130.199 133 133.699 139.7 139.999 144.4L130.199 133Z" fill="white"/>
<path d="M139.999 146.4C139.599 146.4 139.199 146.3 138.799 146C132.199 141.1 128.599 134.2 128.399 133.9C127.899 132.9 128.299 131.7 129.199 131.2C130.199 130.7 131.399 131.1 131.899 132C131.899 132.1 135.299 138.4 141.099 142.8C141.999 143.5 142.199 144.7 141.499 145.6C141.199 146.2 140.599 146.4 139.999 146.4Z" fill="currentColor"/>
<path d="M156.6 106.8C156.6 106.8 161.5 112.5 166.4 118.2L156.6 106.8Z" fill="white"/>
<path d="M166.399 120.3C165.799 120.3 165.299 120.1 164.899 119.6L155.099 108.2C154.399 107.4 154.499 106.1 155.299 105.4C156.099 104.7 157.399 104.8 158.099 105.6L167.899 117C168.599 117.8 168.499 119.1 167.699 119.8C167.299 120.1 166.899 120.3 166.399 120.3Z" fill="currentColor"/>
<path d="M182.199 81.0996C182.199 81.0996 187.599 86.3996 192.899 91.6996L182.199 81.0996Z" fill="white"/>
<path d="M192.899 93.6996C192.399 93.6996 191.899 93.4996 191.499 93.0996L180.799 82.4996C179.999 81.6996 179.999 80.4996 180.799 79.6996C181.599 78.8996 182.799 78.8996 183.599 79.6996L194.299 90.2996C195.099 91.0996 195.099 92.2996 194.299 93.0996C193.899 93.4996 193.399 93.6996 192.899 93.6996Z" fill="currentColor"/>
<path d="M92.0996 170.6C92.0996 170.6 97.5996 181 106.5 188.6L92.0996 170.6Z" fill="white"/>
<path d="M106.499 190.6C105.999 190.6 105.599 190.4 105.199 190.1C96.1995 182.4 90.5995 172 90.3995 171.5C89.8995 170.5 90.2995 169.3 91.1995 168.8C92.1995 168.3 93.3995 168.7 93.8995 169.6C93.9995 169.7 99.3995 179.8 107.799 187C108.599 187.7 108.699 189 107.999 189.8C107.599 190.4 106.999 190.6 106.499 190.6Z" fill="currentColor"/>
<path d="M117.398 145.3C117.398 145.3 123.198 155.6 132.298 162.8L117.398 145.3Z" fill="white"/>
<path d="M132.299 164.9C131.899 164.9 131.399 164.8 130.999 164.5C121.799 157.1 115.899 146.8 115.599 146.4C115.099 145.4 115.399 144.2 116.399 143.7C117.399 143.2 118.599 143.5 119.099 144.5C119.199 144.6 124.899 154.5 133.499 161.5C134.399 162.2 134.499 163.5 133.799 164.3C133.499 164.6 132.899 164.9 132.299 164.9Z" fill="currentColor"/>
<path d="M143.398 119.8C143.398 119.8 149.798 129.7 159.198 136.5L143.398 119.8Z" fill="white"/>
<path d="M159.199 138.5C158.799 138.5 158.399 138.4 157.999 138.1C148.399 131.2 141.999 121.2 141.699 120.8C141.099 119.9 141.399 118.6 142.299 118C143.199 117.4 144.499 117.7 145.099 118.6C145.199 118.7 151.399 128.3 160.399 134.8C161.299 135.4 161.499 136.7 160.899 137.6C160.499 138.2 159.799 138.5 159.199 138.5Z" fill="currentColor"/>
<path d="M170.199 93.0996C170.199 93.0996 178.899 101.2 186.499 109.4L170.199 93.0996Z" fill="white"/>
<path d="M186.499 111.4C185.999 111.4 185.399 111.2 184.999 110.8C177.599 102.8 168.899 94.6998 168.799 94.5998C167.999 93.7998 167.899 92.5998 168.699 91.7998C169.499 90.9998 170.699 90.8998 171.499 91.6998C171.599 91.7998 180.399 99.9998 187.899 108.1C188.699 108.9 188.599 110.2 187.799 110.9C187.399 111.2 186.899 111.4 186.499 111.4Z" fill="currentColor"/>
<path d="M195.4 67.3999C195.4 67.3999 204.7 74.2999 212.2 83.0999L195.4 67.3999Z" fill="white"/>
<path d="M212.2 85.0998C211.6 85.0998 211.1 84.8998 210.7 84.3998C203.4 75.7998 194.3 69.0998 194.2 68.9998C193.3 68.2998 193.1 67.0998 193.8 66.1998C194.5 65.2998 195.7 65.0998 196.6 65.7998C197 66.0998 206.2 72.8998 213.7 81.7998C214.4 82.5998 214.3 83.8998 213.5 84.5998C213.1 84.9998 212.6 85.0998 212.2 85.0998Z" fill="currentColor"/>
<path d="M253.699 85.0998C253.399 85.0998 253.099 84.9998 252.799 84.8998C251.799 84.3998 227.599 71.8998 215.999 47.0998C215.499 46.0998 215.999 44.8998 216.999 44.3998C217.999 43.8998 219.199 44.3998 219.699 45.3998C230.799 68.8998 254.499 81.1998 254.699 81.2998C255.699 81.7998 256.099 82.9998 255.599 83.9998C255.199 84.6998 254.499 85.0998 253.699 85.0998Z" fill="currentColor"/>
<path d="M250.4 88.8C250.1 88.8 249.8 88.7 249.5 88.6C248.5 88.1 224.3 75.6 212.7 50.8C212.2 49.8 212.7 48.6 213.7 48.1C214.7 47.6 215.9 48.1 216.4 49.1C227.5 72.6 251.2 84.9 251.4 85C252.4 85.5 252.8 86.7 252.3 87.7C251.9 88.4 251.2 88.8 250.4 88.8Z" fill="currentColor"/>
</svg>
