<svg width="263" height="270" viewBox="0 0 263 270" fill="none" xmlns="http://www.w3.org/2000/svg">
<path d="M109.191 266.743C106.991 266.743 104.691 266.643 102.491 266.543C75.8908 264.643 52.0908 251.343 29.9908 225.943C26.1908 221.643 22.8908 217.243 20.0908 212.843C14.3908 207.043 10.1908 200.943 7.9908 194.843C-5.0092 160.043 7.1908 133.243 30.9908 101.443C45.0908 82.7431 66.7908 69.9431 88.5908 65.6431C118.491 44.4431 148.291 27.7431 148.791 27.5431L149.491 27.1431L150.191 28.4431L149.491 28.8431C148.991 29.1431 120.891 44.8431 91.9908 65.0431C104.491 63.1431 116.791 64.1431 127.491 68.4431C132.091 70.3431 136.791 72.7431 141.591 75.7431C154.691 79.9431 168.291 86.2431 180.791 95.4431C194.391 105.443 203.091 121.943 206.491 144.643C206.591 145.543 206.791 146.343 206.891 147.243C206.991 147.743 207.091 148.243 207.291 148.743C235.191 95.4431 258.791 38.9431 259.191 37.9431L259.491 37.2431L260.891 37.8431L260.591 38.5431C260.391 38.9431 241.891 83.3431 218.491 130.143C214.791 137.443 211.291 144.443 207.791 151.043C211.091 165.543 211.991 178.743 211.091 185.243C209.991 193.243 205.491 208.043 198.391 221.343C191.891 233.443 180.691 249.043 164.191 254.643C162.891 255.043 161.591 255.543 160.191 256.043C146.791 260.643 128.991 266.743 109.191 266.743ZM25.2908 217.743C27.0908 220.143 28.9908 222.543 31.0908 224.943C52.9908 250.043 76.3908 263.143 102.591 265.043C124.691 266.643 144.091 259.943 159.691 254.643C161.091 254.143 162.391 253.743 163.691 253.243C179.691 247.843 190.691 232.443 196.991 220.643C204.091 207.443 208.391 192.943 209.491 185.043C210.191 179.843 209.791 170.243 207.791 159.143C208.291 169.643 207.591 177.943 207.191 180.943C207.191 181.143 205.691 193.843 199.091 208.343C191.491 235.443 165.691 256.043 134.991 259.243C106.091 262.143 72.1908 251.643 52.7908 240.543C45.8908 236.543 39.4908 230.843 34.0908 224.643C30.9908 222.343 28.0908 220.043 25.2908 217.743ZM39.4908 228.043C43.7908 232.343 48.5908 236.243 53.6908 239.143C72.7908 250.043 106.391 260.543 134.991 257.643C149.891 256.143 164.391 250.043 175.891 240.543C183.491 234.343 189.391 226.943 193.491 218.843C187.191 228.743 178.191 238.343 165.291 244.343C132.791 259.443 108.891 256.443 87.9908 251.043C85.0908 250.343 81.9908 249.143 78.6908 247.543C69.6908 245.043 63.9908 242.043 62.4908 241.243L61.7908 240.843C58.6908 239.143 54.8908 237.043 50.8908 234.243C46.7908 232.343 42.9908 230.243 39.4908 228.043ZM90.2908 250.143C110.491 255.143 133.491 257.443 164.491 243.043C181.591 235.143 191.691 220.743 197.691 207.843C197.991 206.643 198.291 205.443 198.591 204.143C201.391 191.143 202.791 175.943 202.091 161.543C201.191 163.143 200.391 164.743 199.491 166.243C199.391 175.043 198.391 184.643 195.791 194.143C189.591 216.743 176.191 233.043 156.891 241.243C130.291 252.543 107.091 252.843 90.2908 250.143ZM78.8908 246.043C95.2908 250.643 123.091 253.943 156.391 239.843C180.191 229.743 190.291 209.243 194.491 193.743C196.791 185.443 197.791 176.943 198.091 169.043C176.191 208.543 158.391 232.543 144.891 240.643C127.391 251.043 101.891 252.043 73.9908 243.543C75.5908 244.443 77.1908 245.343 78.8908 246.043ZM68.3908 240.143H68.4908C97.7908 250.443 125.991 250.143 143.991 239.343C159.291 230.143 179.191 200.043 197.991 165.743C197.991 157.043 197.091 149.143 195.691 143.143C192.091 127.443 177.591 107.443 159.991 91.7431C146.191 84.0431 128.991 78.9431 109.091 79.5431C99.1908 79.8431 90.3908 80.8431 82.7908 82.3431C70.6908 87.0431 60.5908 91.8431 52.4908 96.5431C45.9908 102.643 40.4908 108.743 36.4908 114.543C32.9908 119.643 29.9908 124.643 27.3908 129.443C25.6908 136.143 24.3908 143.543 23.7908 151.843C22.1908 171.643 23.9908 186.943 27.5908 198.743C37.2908 213.543 52.7908 229.843 68.3908 240.143ZM61.5908 239.143C61.8908 239.243 62.0908 239.443 62.3908 239.543L63.0908 239.943C64.0908 240.443 66.8908 241.943 71.1908 243.543C70.0908 242.943 68.9908 242.243 67.8908 241.543C65.7908 240.843 63.6908 240.043 61.5908 239.143ZM51.3908 232.943C55.0908 234.743 58.8908 236.543 62.7908 238.043C50.9908 229.543 38.8908 217.743 29.4908 204.443C35.1908 218.843 43.6908 227.343 51.3908 232.943ZM34.9908 223.143C37.8908 225.143 40.9908 227.143 44.2908 229.043C37.2908 222.643 30.4908 213.443 26.1908 199.443C24.5908 196.943 23.0908 194.443 21.7908 191.843C18.2908 185.243 15.9908 178.343 14.7908 171.543C14.0908 182.043 15.5908 190.343 17.6908 195.543C20.3908 202.643 26.5908 213.443 34.9908 223.143ZM20.9908 211.543C23.6908 214.343 26.6908 217.043 30.0908 219.643C23.4908 211.043 18.5908 202.243 16.1908 196.243C13.6908 189.943 11.9908 179.143 13.8908 165.443C12.0908 145.143 18.9908 125.843 28.6908 113.443C30.2908 111.443 32.1908 109.443 34.2908 107.443C35.3908 105.443 36.4908 103.543 37.6908 101.643C30.1908 108.243 10.1908 132.043 7.8908 162.443C6.6908 179.443 11.0908 195.843 20.9908 211.543ZM85.4908 67.8431C65.1908 72.6431 45.2908 84.8431 32.1908 102.343C8.5908 133.743 -3.4092 160.043 9.3908 194.243C10.7908 197.943 12.9908 201.743 15.7908 205.443C8.4908 191.543 5.3908 177.143 6.4908 162.243C8.8908 130.743 29.9908 106.143 37.1908 100.043C38.0908 99.2431 39.2908 98.3431 40.7908 97.2431C43.7908 93.3431 47.1908 89.7431 50.8908 86.4431C61.2908 77.4431 72.4908 73.1431 81.0908 71.0431C82.5908 69.9431 84.0908 68.9431 85.4908 67.8431ZM203.491 159.043C204.391 172.643 203.391 186.943 201.091 199.643C204.891 189.043 205.791 180.843 205.791 180.643C206.191 177.243 207.091 166.843 205.991 154.143C205.191 155.843 204.391 157.443 203.491 159.043ZM15.3908 165.343C16.1908 173.943 18.5908 182.743 23.0908 191.243C23.5908 192.243 24.1908 193.243 24.6908 194.243C21.9908 183.043 20.8908 169.143 22.2908 151.843C22.7908 146.043 23.4908 140.543 24.5908 135.343C19.3908 146.243 16.6908 156.443 15.3908 165.343ZM166.791 95.8431C168.491 97.5431 170.191 99.2431 171.791 101.043C185.291 115.543 194.591 130.743 197.291 142.843C198.491 148.343 199.391 155.343 199.591 163.143C200.391 161.643 201.191 160.143 201.991 158.643C200.891 143.343 197.291 129.043 190.391 118.943C184.791 110.843 176.891 102.643 166.791 95.8431ZM32.1908 111.643C31.2908 112.543 30.5908 113.443 29.8908 114.343C21.4908 125.143 15.1908 141.243 15.0908 158.543C16.9908 149.543 20.3908 139.643 25.9908 128.943C27.5908 122.743 29.6908 116.943 32.1908 111.643ZM161.291 90.7431C174.591 98.2431 184.891 108.243 191.591 118.043C198.391 127.943 201.991 141.543 203.291 156.243C204.191 154.643 204.991 153.043 205.791 151.443C205.691 150.143 205.491 148.743 205.291 147.343C201.491 132.343 194.991 116.443 185.191 105.443C177.091 96.3431 165.191 88.8431 152.591 83.6431C155.591 85.7431 158.491 88.1431 161.291 90.7431ZM148.191 80.1431C162.891 85.5431 176.991 93.8431 186.391 104.243C193.491 112.243 198.891 122.843 202.791 133.743C198.591 117.043 190.891 104.643 179.891 96.5431C169.191 88.7431 157.891 83.0431 146.591 78.9431C147.191 79.4431 147.691 79.8431 148.191 80.1431ZM35.2908 108.643C32.9908 112.943 30.9908 117.743 29.1908 123.143C30.9908 120.043 32.9908 116.943 35.1908 113.743C38.2908 109.243 42.2908 104.643 46.7908 99.9431C42.1908 103.043 38.3908 105.943 35.2908 108.643ZM41.6908 98.5431C40.2908 100.443 38.8908 102.443 37.5908 104.643C41.7908 101.243 46.6908 98.0431 51.8908 95.1431C53.7908 93.3431 55.7908 91.5431 57.8908 89.7431C50.5908 92.7431 45.2908 95.9431 41.6908 98.5431ZM77.7908 73.5431C67.8908 76.4431 55.2908 82.4431 44.7908 94.6431C48.8908 92.0431 54.3908 89.2431 61.2908 86.6431C66.4908 82.2431 72.0908 77.8431 77.7908 73.5431ZM62.0908 87.9431C60.4908 89.3431 58.8908 90.7431 57.2908 92.1431C62.9908 89.1431 68.7908 86.5431 74.2908 84.1431C69.7908 85.3431 65.6908 86.6431 62.0908 87.9431ZM112.491 78.0431C128.691 78.0431 143.091 81.7431 155.191 87.5431C152.591 85.3431 149.891 83.3431 147.191 81.3431C129.391 74.8431 110.891 72.8431 99.5908 76.4431C96.2908 77.4431 93.1908 78.5431 90.1908 79.6431C95.9908 78.8431 102.291 78.3431 109.191 78.0431C110.291 78.0431 111.391 78.0431 112.491 78.0431ZM81.6908 72.4431C76.0908 76.6431 70.4908 80.8431 65.2908 85.2431C70.3908 83.5431 76.1908 82.0431 82.6908 80.8431C89.6908 78.1431 95.5908 76.1431 99.1908 75.0431C109.691 71.6431 126.191 73.1431 142.791 78.3431C142.191 77.9431 141.491 77.5431 140.891 77.1431C121.891 71.1431 103.791 69.7431 90.7908 71.0431C88.4908 71.1431 85.3908 71.6431 81.6908 72.4431ZM99.8908 69.0431C110.191 69.0431 122.491 70.4431 135.391 73.9431C132.491 72.3431 129.591 70.9431 126.791 69.8431C115.491 65.2431 102.291 64.5431 89.0908 67.0431C87.5908 68.1431 86.0908 69.2431 84.5908 70.3431C86.8908 69.9431 88.8908 69.6431 90.5908 69.5431C93.4908 69.2431 96.5908 69.0431 99.8908 69.0431Z" fill="#B49F25"/>
<path d="M183.39 12.343L184.69 11.443C184.69 11.443 185.99 4.84297 177.69 2.04297L157.49 16.043L155.29 17.643L154.69 18.043L153.49 18.943L151.99 20.043L147.09 26.143L151.59 32.543L157.99 30.043L159.79 28.743L160.99 27.843L161.49 27.543L163.79 25.943L173.89 18.943" fill="#7E54F5"/>
<path d="M151.391 33.0429L146.391 25.9429L151.591 19.5429L177.591 1.44287L177.791 1.54287C186.391 4.44287 185.091 11.4429 185.091 11.5429V11.7429L183.591 12.7429L182.991 11.9429L184.091 11.1429C184.191 10.0429 184.491 5.04287 177.691 2.64287L152.191 20.4429L147.591 26.1429L151.691 31.9429L157.691 29.6429L173.591 18.5429L174.191 19.3429L158.091 30.5429L151.391 33.0429Z" fill="#3200C0"/>
<path d="M162.491 29.643C161.991 29.943 161.291 30.243 160.291 30.043C159.991 29.943 159.491 29.643 159.091 29.543L159.791 28.743L160.991 27.843C161.091 27.843 161.191 27.843 161.291 27.743C161.391 27.643 161.491 27.543 161.491 27.443C161.591 27.243 161.691 26.943 161.691 26.543C161.691 25.143 161.091 23.243 159.891 21.543C158.791 19.743 157.291 18.343 155.991 17.743C155.691 17.643 155.391 17.543 155.191 17.543C155.091 17.543 154.891 17.543 154.791 17.643C154.691 17.743 154.591 17.843 154.591 17.943L153.391 18.843L152.291 19.443C152.291 18.043 152.791 16.343 153.691 15.743C154.291 15.343 155.291 15.043 156.891 15.643C157.091 15.743 157.291 15.843 157.491 15.943C158.991 16.743 160.491 18.343 161.791 20.243C162.991 22.043 163.691 24.043 163.891 25.743C163.891 26.043 163.891 26.243 163.891 26.543C163.891 28.043 163.391 29.043 162.491 29.643Z" fill="#3200C0"/>
<path d="M172.891 16.4429C172.291 16.4429 171.591 16.1429 171.191 15.5429C170.591 14.6429 170.791 13.3429 171.691 12.7429L180.891 6.54292C181.791 5.94292 183.091 6.14292 183.691 7.04292C184.291 7.94292 184.091 9.24292 183.191 9.84292L173.991 16.0429C173.591 16.3429 173.191 16.4429 172.891 16.4429Z" fill="#3200C0"/>
<path d="M183.49 14.843L176.19 19.843C175.89 20.043 175.49 20.143 175.09 20.043C174.69 19.943 174.39 19.743 174.19 19.443C174.09 19.243 173.99 19.143 173.99 18.943L183.39 12.343C183.59 12.443 183.79 12.643 183.89 12.843C184.29 13.443 184.19 14.343 183.49 14.843Z" fill="#3200C0"/>
<path d="M167.391 10.643C166.791 10.643 166.091 10.343 165.691 9.74297C165.091 8.84297 165.291 7.54297 166.191 6.94297L174.491 1.34297C175.391 0.742968 176.691 0.942968 177.291 1.84297C177.891 2.74297 177.691 4.04297 176.791 4.64297L168.491 10.243C168.191 10.543 167.791 10.643 167.391 10.643Z" fill="#3200C0"/>
<path d="M157.491 30.0429C156.591 23.9429 151.191 21.1429 151.191 21.1429L151.591 20.2429C151.791 20.3429 157.491 23.2429 158.491 29.9429L157.491 30.0429Z" fill="#3200C0"/>
<path d="M155.391 30.843C154.991 26.243 149.691 22.943 149.691 22.943L150.191 22.043C150.391 22.143 155.991 25.643 156.391 30.743L155.391 30.843Z" fill="#3200C0"/>
<path d="M153.19 31.7429C151.99 27.0429 148.19 24.8429 148.09 24.8429L148.59 23.9429C148.79 24.0429 152.89 26.3429 154.19 31.5429L153.19 31.7429Z" fill="#3200C0"/>
<path d="M109.39 269.543C104.39 269.543 99.29 269.143 94.09 268.343C70.2901 264.443 47.9901 250.743 27.8901 227.743C24.0901 223.343 20.6901 218.843 17.7901 214.343C11.8901 208.243 7.69005 201.943 5.39005 195.743C-8.00995 159.843 4.99005 131.443 28.7901 99.743C42.3901 81.743 63.99 68.043 86.69 63.243C88.59 61.943 90.59 60.543 92.59 59.243C94.29 58.043 95.99 56.943 97.69 55.843C98.69 55.243 99.59 54.643 100.59 53.943L101.09 54.743C100.19 55.343 99.19 55.943 98.19 56.543C96.49 57.643 94.79 58.743 93.09 59.943C91.09 61.343 89.09 62.643 87.19 64.043L86.9901 64.243C64.4901 68.943 42.9901 82.443 29.5901 100.343C5.99005 131.743 -6.90995 159.943 6.29005 195.443C8.59005 201.543 12.6901 207.643 18.5901 213.743C21.4901 218.243 24.8901 222.743 28.6901 227.043C48.5901 249.843 70.6901 263.443 94.2901 267.243C120.49 271.543 143.79 263.443 160.89 257.643L161.09 257.543C162.39 257.143 163.59 256.643 164.79 256.243C181.79 250.443 193.29 234.443 199.89 222.043C207.09 208.543 211.69 193.543 212.79 185.343C213.89 177.643 212.69 164.343 209.79 151.443V151.243L209.89 151.043C236.39 100.443 258.39 48.243 260.79 42.443L261.39 40.843C261.69 40.243 261.69 39.543 261.39 38.943C261.09 38.343 260.69 37.843 259.99 37.543C259.39 37.243 258.69 37.243 258.09 37.543C257.49 37.843 256.99 38.243 256.69 38.943L256.09 40.543C255.89 41.043 234.59 92.043 208.79 142.143L208.09 143.443L207.79 141.943C204.09 119.943 195.29 103.843 181.79 93.943C170.09 85.443 156.89 78.743 142.39 74.143L142.29 74.043C137.39 71.043 132.69 68.643 128.09 66.743C119.79 63.343 110.39 61.943 100.29 62.443L98.4901 62.543L99.9901 61.543C101.29 60.643 102.59 59.843 103.89 59.043L104.39 59.843C103.59 60.343 102.79 60.843 101.99 61.443C111.59 61.143 120.49 62.743 128.49 65.943C133.09 67.843 137.89 70.243 142.79 73.243C157.29 77.943 170.69 84.643 182.39 93.243C195.89 103.043 204.69 118.943 208.59 140.443C234.09 90.743 254.99 40.743 255.19 40.243L255.79 38.643C256.49 36.843 258.59 36.043 260.39 36.743C262.19 37.443 262.99 39.543 262.29 41.343L261.69 42.943C259.29 48.743 237.39 100.943 210.89 151.543C213.79 164.643 214.89 177.743 213.89 185.643C212.79 193.943 208.19 209.043 200.89 222.643C194.19 235.243 182.49 251.443 165.19 257.243C163.99 257.643 162.79 258.043 161.49 258.543L161.29 258.643C147.39 263.343 129.59 269.543 109.39 269.543ZM109.29 263.543C89.3901 263.543 71.2901 257.143 54.1901 244.243L54.6901 243.443C70.0901 251.643 97.59 261.243 124.59 261.343L124.69 262.343C119.49 263.143 114.39 263.543 109.29 263.543ZM59.9901 247.243C77.8901 259.243 96.99 264.143 118.09 262.243C96.1901 260.943 74.5901 254.043 59.9901 247.243ZM146.59 248.043L146.29 247.043C150.09 245.843 153.89 244.343 157.69 242.743C177.49 234.343 191.29 217.643 197.59 194.543L197.79 193.743L198.79 193.943C198.29 197.143 197.69 200.443 196.99 203.743C196.79 204.643 196.59 205.443 196.39 206.343C188.79 223.143 177.89 234.943 163.89 241.343C157.99 244.143 152.19 246.343 146.59 248.043ZM196.39 201.843C191.79 214.743 184.59 225.343 175.19 233.243C183.39 226.643 190.19 217.543 195.39 206.043C195.59 205.243 195.79 204.443 195.99 203.543C196.09 203.043 196.19 202.443 196.39 201.843ZM109.49 245.943C97.1901 245.943 83.49 243.543 69.69 238.743L69.59 238.643C54.29 228.643 39.1901 213.543 29.3901 198.343L29.2901 198.243C25.3901 185.543 24.1901 169.943 25.5901 152.043C26.1901 144.243 27.3901 136.943 29.0901 130.143V130.043C31.6901 125.243 34.5901 120.343 37.8901 115.643C41.6901 110.243 46.6901 104.443 52.7901 98.443L52.8901 98.343C61.3901 93.443 71.99 88.443 83.59 84.043C91.6901 82.543 100.29 81.643 109.39 81.343C127.39 80.843 144.19 84.843 159.29 93.343L159.39 93.443C177.49 109.743 190.79 128.943 194.19 143.643C195.69 150.043 196.49 157.843 196.39 165.643V165.743L196.29 165.843C174.29 205.843 156.39 230.043 143.19 237.943C134.19 243.243 122.59 245.943 109.49 245.943ZM70.09 237.743C98.39 247.543 125.49 247.243 142.69 236.943C155.79 229.143 173.49 205.043 195.39 165.343C195.39 157.643 194.59 150.043 193.19 143.643C189.89 129.143 176.69 110.143 158.79 94.043C143.79 85.643 127.19 81.643 109.39 82.243C100.39 82.543 91.8901 83.443 83.8901 84.843C72.4901 89.243 61.9901 94.143 53.4901 99.043C47.4901 104.943 42.4901 110.743 38.7901 116.043C35.4901 120.743 32.5901 125.543 30.0901 130.343C28.3901 137.043 27.1901 144.243 26.5901 151.943C25.1901 169.743 26.3901 185.043 30.2901 197.743C39.9901 212.943 54.89 227.843 70.09 237.743ZM146.69 241.743L149.39 239.643C161.49 230.543 176.69 210.143 194.59 179.043L195.79 176.943L195.49 179.443C194.89 184.243 193.99 188.943 192.79 193.343C188.69 208.443 178.89 228.443 155.69 238.243C153.79 239.043 151.79 239.843 149.89 240.543L146.69 241.743ZM194.09 181.743C177.89 209.643 163.89 228.643 152.39 238.443C153.39 238.043 154.29 237.643 155.19 237.243C177.99 227.543 187.59 207.843 191.69 192.943C192.79 189.443 193.59 185.643 194.09 181.743ZM27.8901 211.043C24.1901 205.543 21.0901 199.743 19.1901 195.043C18.5901 193.543 18.0901 191.843 17.6901 189.943L16.5901 185.343L18.5901 189.643C19.0901 190.743 19.5901 191.743 20.1901 192.843C21.5901 195.443 23.1901 198.143 24.7901 200.743L24.8901 200.843C25.9901 204.243 27.2901 207.543 28.7901 210.543L27.8901 211.043ZM20.3901 195.143C21.5901 198.143 23.2901 201.443 25.2901 204.943C24.7901 203.743 24.3901 202.443 23.9901 201.143C22.6901 199.143 21.4901 197.143 20.3901 195.143ZM10.3901 179.343C9.49005 173.843 9.29005 168.143 9.79005 162.543C9.99005 159.243 10.4901 155.943 11.1901 152.643L12.1901 152.743C11.8901 156.843 11.8901 160.943 12.1901 165.043V165.143V165.243C11.4901 170.143 11.2901 174.843 11.3901 179.343H10.3901ZM10.8901 160.643C10.7901 161.343 10.7901 161.943 10.6901 162.643C10.4901 165.243 10.3901 167.943 10.4901 170.543C10.5901 168.743 10.7901 166.943 11.0901 165.043C10.9901 163.543 10.8901 162.143 10.8901 160.643ZM19.4901 177.543C18.3901 173.543 17.5901 169.443 17.1901 165.343V165.243V165.143C17.6901 161.643 18.3901 158.043 19.3901 154.443L20.3901 154.643C19.8901 162.643 19.8901 170.343 20.4901 177.343L19.4901 177.543ZM18.1901 165.343C18.3901 167.543 18.6901 169.643 19.0901 171.843C18.8901 168.043 18.8901 164.143 19.0901 160.143C18.6901 161.843 18.3901 163.643 18.1901 165.343ZM54.59 87.443L57.9901 85.043C58.6901 84.543 59.2901 84.143 59.9901 83.643L60.59 84.443L59.1901 85.643L54.59 87.443ZM72.3901 81.343L74.2901 79.943C76.5901 78.143 79.09 76.243 81.59 74.443L81.7901 74.343C84.8901 73.543 87.9901 73.043 90.9901 72.743C93.3901 72.543 95.99 72.343 98.69 72.343H101.99L98.7901 73.343L98.59 73.043V73.243C94.89 74.443 89.09 76.343 82.19 79.043C79.49 79.543 76.99 80.143 74.59 80.643L72.3901 81.343ZM82.09 75.243C80.29 76.643 78.49 77.943 76.69 79.243C78.39 78.843 80.1901 78.443 81.9901 78.143C87.0901 76.143 91.69 74.543 95.19 73.443C93.79 73.543 92.39 73.643 91.09 73.743C88.09 73.943 85.09 74.443 82.09 75.243Z" fill="#D6C149"/>
<path d="M105.79 61.7427C105.69 61.7427 105.59 61.7427 105.49 61.7427C105.19 61.6427 104.99 61.4427 104.79 61.1427C104.09 59.8427 101.69 55.6427 99.4902 54.0427C99.1902 53.8427 98.9902 53.4427 98.9902 53.0427C98.9902 52.6427 99.1902 52.3427 99.4902 52.0427L137.19 25.0427C137.49 24.6427 139.29 22.4427 141.39 22.1427C141.69 21.2427 142.59 19.9427 144.39 19.7427C144.59 19.7427 144.79 19.8427 144.89 19.9427C145.19 20.3427 152.29 30.1427 153.89 32.8427C153.99 32.9427 153.99 33.0427 153.99 33.1427C153.99 33.1427 153.79 34.3427 152.89 34.9427C152.39 35.2427 151.79 35.3427 150.99 35.2427C150.59 36.0427 149.59 37.8427 147.19 38.3427L106.39 61.6427C106.19 61.7427 105.99 61.7427 105.79 61.7427ZM144.29 20.8427C142.69 21.1427 142.39 22.6427 142.29 22.7427C142.29 22.9427 142.09 23.1427 141.79 23.1427C140.19 23.1427 138.49 25.0427 137.99 25.7427L137.89 25.8427L100.09 52.8427C99.9902 52.9427 99.9902 53.0427 99.9902 53.0427C99.9902 53.0427 99.9902 53.1427 100.09 53.2427C102.39 54.9427 104.79 59.0427 105.69 60.7427L105.79 60.8427H105.89L146.79 37.5427C146.79 37.5427 146.89 37.5427 146.99 37.4427C149.59 36.9427 150.29 34.7427 150.29 34.6427C150.29 34.5427 150.39 34.4427 150.49 34.3427C150.59 34.2427 150.79 34.2427 150.89 34.3427C151.49 34.5427 151.99 34.5427 152.39 34.2427C152.79 33.9427 152.99 33.5427 153.09 33.2427C151.39 30.5427 145.39 22.3427 144.29 20.8427Z" fill="#B49F25"/>
<path d="M149.19 33.9426C149.09 33.9426 148.89 33.9426 148.79 33.8426C146.09 31.1426 142.09 24.4426 141.89 24.1426C141.79 23.9426 141.79 23.6426 142.09 23.4426C142.29 23.3426 142.59 23.3426 142.79 23.6426C142.79 23.7426 146.89 30.4426 149.59 33.1426C149.79 33.3426 149.79 33.6426 149.59 33.8426C149.49 33.8426 149.39 33.9426 149.19 33.9426Z" fill="#B49F25"/>
<path d="M146.091 37.8428C145.991 37.8428 145.891 37.8428 145.791 37.7428C141.491 33.8428 138.491 27.3428 138.291 27.1428C138.191 26.9428 138.291 26.6428 138.491 26.4428C138.691 26.3428 138.991 26.4428 139.191 26.6428C139.191 26.7428 142.291 33.1428 146.391 36.9428C146.591 37.1428 146.591 37.4428 146.391 37.6428C146.291 37.7428 146.191 37.8428 146.091 37.8428Z" fill="#B49F25"/>
<path d="M132.69 6.24283C132.69 6.24283 116.79 -0.457169 104.79 3.44283C104.79 3.44283 103.59 4.94283 105.79 5.54283C107.99 6.14283 110.29 7.44283 110.29 7.44283L110.99 7.64283L126.59 11.3428C126.59 11.3428 132.09 12.4428 132.69 6.24283ZM127.09 8.14283C126.79 7.94283 126.49 7.74283 126.19 7.64283C126.89 5.14283 130.19 6.84283 130.19 6.84283C128.19 11.8428 127.09 8.14283 127.09 8.14283Z" fill="#7E54F5"/>
<path d="M127.589 11.9427C126.989 11.9427 126.589 11.8427 126.589 11.8427L110.089 8.04275H109.989C109.989 8.04275 107.689 6.74275 105.589 6.24275C104.689 6.04275 104.189 5.54275 103.989 5.04275C103.689 4.24275 104.289 3.44275 104.389 3.34275C104.489 3.24275 104.489 3.24275 104.589 3.14275C116.689 -0.757252 132.189 5.64275 132.889 5.94275C133.089 6.04275 133.189 6.24275 133.189 6.44275C132.989 8.54275 132.289 10.0427 130.989 10.9427C129.789 11.7427 128.489 11.9427 127.589 11.9427ZM110.389 7.04275L126.689 10.8427C126.689 10.8427 128.789 11.2427 130.389 10.0427C131.389 9.34275 131.889 8.14275 132.089 6.54275C129.689 5.64275 115.689 0.542748 104.989 3.84275C104.889 4.04275 104.789 4.24275 104.889 4.54275C104.989 4.74275 105.289 4.94275 105.789 5.14275C107.889 5.74275 109.989 6.84275 110.389 7.04275ZM128.289 9.94275C128.189 9.94275 128.189 9.94275 128.289 9.94275C127.389 9.94275 126.889 8.84275 126.789 8.44275C126.589 8.34275 126.289 8.14275 126.089 8.04275C125.889 7.94275 125.789 7.64275 125.889 7.44275C126.089 6.74275 126.489 6.24275 127.189 5.94275C128.589 5.34275 130.489 6.34275 130.589 6.34275C130.789 6.44275 130.889 6.74275 130.789 6.94275C129.889 9.04275 129.089 9.94275 128.289 9.94275ZM126.889 7.44275C127.089 7.54275 127.189 7.64275 127.389 7.74275C127.489 7.84275 127.589 7.94275 127.589 8.04275C127.689 8.44275 127.989 8.94275 128.189 9.04275C128.189 9.04275 128.689 9.04275 129.489 7.14275C128.889 6.94275 127.989 6.64275 127.389 6.94275C127.189 7.04275 126.989 7.14275 126.889 7.44275Z" fill="#3200C0"/>
<path d="M106.289 48.5427C106.289 48.5427 106.789 55.0427 118.089 42.2427L125.189 19.7427L126.589 11.3427C126.589 11.3427 120.789 4.94268 110.689 7.74268L109.189 17.1427L106.289 48.5427Z" fill="#7E54F5"/>
<path d="M107.989 50.7427C107.689 50.7427 107.489 50.7427 107.289 50.6427C105.989 50.2427 105.789 48.7427 105.789 48.6427V48.5427L108.689 17.1427L110.189 7.74267C110.189 7.54267 110.389 7.44267 110.589 7.34267C120.789 4.54267 126.889 11.0427 126.989 11.0427C127.089 11.1427 127.089 11.3427 127.089 11.4427L125.689 19.8427L118.589 42.3427C118.589 42.4427 118.489 42.4427 118.489 42.5427C113.689 47.9427 110.189 50.7427 107.989 50.7427ZM106.789 48.5427C106.789 48.7427 106.989 49.4427 107.589 49.6427C108.389 49.8427 110.889 49.6427 117.689 41.9427L124.789 19.5427L126.089 11.4427C125.089 10.4427 119.689 5.84267 111.189 8.04267L109.689 17.1427L106.789 48.5427Z" fill="#3200C0"/>
<path d="M111.389 16.1429C111.389 16.1429 116.889 13.3429 123.389 18.1429Z" fill="#7E54F5"/>
<path d="M123.389 18.6429C123.289 18.6429 123.189 18.6429 123.089 18.5429C116.889 14.0429 111.789 16.5429 111.589 16.6429C111.389 16.7429 111.089 16.6429 110.889 16.4429C110.789 16.2429 110.889 15.9429 111.089 15.7429C111.289 15.6429 116.989 12.8429 123.689 17.7429C123.889 17.9429 123.989 18.2429 123.789 18.4429C123.689 18.5429 123.589 18.6429 123.389 18.6429Z" fill="#3200C0"/>
<path d="M128.29 9.94268C128.19 9.94268 128.19 9.94268 128.29 9.94268C127.39 9.94268 126.89 8.84268 126.79 8.44268C126.59 8.34268 126.29 8.14268 126.09 8.04268C119.19 3.94268 112.99 5.54268 111.59 5.94268L111.29 7.04268C111.29 7.34268 110.99 7.54268 110.69 7.44268C110.39 7.44268 110.19 7.14268 110.29 6.84268L110.49 5.34268C110.49 5.14268 110.69 5.04268 110.79 4.94268C111.09 4.84268 117.99 2.34268 125.89 6.84268C126.09 6.44268 126.49 6.14268 126.89 5.94268C128.29 5.34268 130.19 6.34268 130.29 6.34268C130.49 6.44268 130.59 6.74268 130.49 6.94268C129.89 9.04268 129.09 9.94268 128.29 9.94268ZM126.89 7.44268C127.09 7.54268 127.19 7.64268 127.39 7.74268C127.49 7.84268 127.59 7.94268 127.59 8.04268C127.69 8.44268 127.99 8.94268 128.19 9.04268C128.19 9.04268 128.69 9.04268 129.49 7.14268C128.89 6.94268 127.99 6.64268 127.39 6.94268C127.19 7.04268 126.99 7.14268 126.89 7.44268Z" fill="#3200C0"/>
</svg>
