<svg width="260" height="264" viewBox="0 0 260 264" fill="none" xmlns="http://www.w3.org/2000/svg">
<path d="M43.5996 219.7C91.5996 220.1 139.5 220.4 187.5 220.8C179.9 149.1 179.9 76.7996 187.5 5.09961C139.5 5.49961 91.5996 5.79961 43.5996 6.19961C36.0996 77.0996 36.0996 148.7 43.5996 219.7Z" fill="white"/>
<path d="M187.5 5C179.9 76.3 179.9 148.2 187.4 219.6L187.5 5Z" fill="white"/>
<path d="M187.4 223.6C185.4 223.6 183.6 222.1 183.4 220C175.9 148.5 175.9 75.9998 183.5 4.59979C183.7 2.39979 185.7 0.799789 187.9 0.999789C190.1 1.19979 191.7 3.19979 191.5 5.39979C184 76.2998 183.9 148.2 191.4 219.1C191.6 221.3 190 223.3 187.8 223.5C187.7 223.6 187.5 223.6 187.4 223.6Z" fill="black"/>
<path d="M43.5005 218.5C36.1005 147.9 36.1005 76.7001 43.6005 6.1001L43.5005 218.5Z" fill="white"/>
<path d="M43.4998 222.5C41.4998 222.5 39.6998 221 39.4998 218.9C32.0998 148.2 32.1998 76.3999 39.6998 5.69989C39.8998 3.49989 41.8998 1.89989 44.0998 2.09989C46.2998 2.29989 47.8998 4.29989 47.6998 6.49989C40.2998 76.6999 40.1998 147.9 47.5998 218.1C47.7998 220.3 46.1998 222.3 43.9998 222.5C43.7998 222.5 43.6998 222.5 43.4998 222.5Z" fill="black"/>
<path d="M48.5996 223.7H43.5996C41.3996 223.7 39.5996 221.9 39.5996 219.7C39.5996 217.5 41.3996 215.7 43.5996 215.7H48.5996C50.7996 215.7 52.5996 217.5 52.5996 219.7C52.5996 221.9 50.7996 223.7 48.5996 223.7Z" fill="black"/>
<path d="M172.9 224.6L162.5 224.5C160.3 224.5 158.5 222.7 158.5 220.5C158.5 218.3 160.3 216.5 162.5 216.5L172.9 216.6C175.1 216.6 176.9 218.4 176.9 220.6C176.9 222.9 175.1 224.6 172.9 224.6ZM152.2 224.5L141.8 224.4C139.6 224.4 137.8 222.6 137.8 220.4C137.8 218.2 139.6 216.4 141.8 216.4L152.2 216.5C154.4 216.5 156.2 218.3 156.2 220.5C156.2 222.7 154.4 224.5 152.2 224.5ZM131.5 224.3C131.5 224.3 131.4 224.3 131.5 224.3L121.1 224.2C118.9 224.2 117.1 222.4 117.1 220.2C117.1 218 118.9 216.2 121.1 216.2L131.5 216.3C133.7 216.3 135.5 218.1 135.5 220.3C135.4 222.5 133.7 224.3 131.5 224.3ZM110.7 224.2L100.3 224.1C98.1004 224.1 96.3004 222.3 96.3004 220.1C96.3004 217.9 98.1004 216.1 100.3 216.1L110.7 216.2C112.9 216.2 114.7 218 114.7 220.2C114.7 222.4 112.9 224.2 110.7 224.2ZM90.0004 224L79.6004 223.9C77.4004 223.9 75.6004 222.1 75.6004 219.9C75.6004 217.7 77.4004 215.9 79.6004 215.9L90.0004 216C92.2004 216 94.0004 217.8 94.0004 220C94.0004 222.2 92.2004 224 90.0004 224ZM69.3004 223.8L58.9004 223.7C56.7004 223.7 54.9004 221.9 54.9004 219.7C54.9004 217.5 56.7004 215.7 58.9004 215.7L69.3004 215.8C71.5004 215.8 73.3004 217.6 73.3004 219.8C73.3004 222.1 71.5004 223.8 69.3004 223.8Z" fill="black"/>
<path d="M187.5 224.7H182.5C180.3 224.7 178.5 222.9 178.5 220.7C178.5 218.5 180.3 216.7 182.5 216.7H187.5C189.7 216.7 191.5 218.5 191.5 220.7C191.5 223 189.7 224.7 187.5 224.7Z" fill="black"/>
<path d="M43.7988 10.1001C41.5988 10.1001 39.7988 8.3001 39.7988 6.1001C39.7988 3.9001 41.5988 2.1001 43.7988 2.1001H48.7988C50.9988 2.1001 52.7988 3.9001 52.7988 6.1001C52.7988 8.3001 50.9988 10.1001 48.7988 10.1001H43.7988Z" fill="black"/>
<path d="M58.998 10.0001C56.798 10.0001 54.998 8.2001 54.998 6.0001C54.998 3.8001 56.798 2.0001 58.998 2.0001L69.398 1.9001C71.598 1.9001 73.398 3.7001 73.398 5.9001C73.398 8.1001 71.598 9.9001 69.398 9.9001L58.998 10.0001ZM79.798 9.8001C77.598 9.8001 75.798 8.0001 75.798 5.8001C75.798 3.6001 77.598 1.8001 79.798 1.8001L90.198 1.7001C92.398 1.7001 94.198 3.5001 94.198 5.7001C94.198 7.9001 92.398 9.7001 90.198 9.7001L79.798 9.8001ZM100.498 9.7001C98.298 9.7001 96.498 7.9001 96.498 5.7001C96.498 3.5001 98.298 1.7001 100.498 1.7001L110.898 1.6001C113.098 1.6001 114.898 3.4001 114.898 5.6001C114.898 7.8001 113.098 9.6001 110.898 9.6001L100.498 9.7001ZM121.198 9.5001C118.998 9.5001 117.198 7.7001 117.198 5.5001C117.198 3.3001 118.998 1.5001 121.198 1.5001L131.598 1.4001C133.798 1.4001 135.598 3.2001 135.598 5.4001C135.598 7.6001 133.798 9.4001 131.598 9.4001L121.198 9.5001ZM141.898 9.3001C139.698 9.3001 137.898 7.5001 137.898 5.3001C137.898 3.1001 139.698 1.3001 141.898 1.3001L152.298 1.2001C154.498 1.2001 156.298 3.0001 156.298 5.2001C156.298 7.4001 154.498 9.2001 152.298 9.2001L141.898 9.3001C141.998 9.3001 141.998 9.3001 141.898 9.3001ZM162.698 9.2001C160.498 9.2001 158.698 7.4001 158.698 5.2001C158.698 3.0001 160.498 1.2001 162.698 1.2001L172.998 1.1001C175.198 1.1001 176.998 2.9001 176.998 5.1001C176.998 7.3001 175.198 9.1001 172.998 9.1001L162.698 9.2001Z" fill="black"/>
<path d="M182.6 9C180.4 9 178.6 7.2 178.6 5C178.6 2.8 180.4 1 182.6 1H187.6C189.8 1 191.6 2.8 191.6 5C191.6 7.2 189.8 9 187.6 9H182.6C182.7 9 182.7 9 182.6 9Z" fill="black"/>
<path d="M46.1006 229.6C94.3006 234.4 142.501 239.1 190.801 243.9C189.201 172.5 194.701 100.5 207.301 28.9998C160.001 24.3998 112.701 19.8998 65.4006 15.2998C51.8006 86.4998 45.4006 158.3 46.1006 229.6Z" fill="white"/>
<path d="M207.2 29C194.6 100.1 189.1 171.7 190.7 242.7L207.2 29Z" fill="white"/>
<path d="M190.701 246.7C188.501 246.7 186.801 245 186.701 242.8C185.101 171.5 190.701 99.3998 203.301 28.2998C203.701 26.0998 205.801 24.6998 207.901 25.0998C210.101 25.4998 211.501 27.5998 211.101 29.6998C198.601 100.3 193.101 171.9 194.701 242.7C194.801 244.9 193.001 246.7 190.701 246.7C190.801 246.7 190.801 246.7 190.701 246.7Z" fill="black"/>
<path d="M46.1011 228.4C45.5011 157.5 51.9011 86.0998 65.4011 15.2998L46.1011 228.4Z" fill="white"/>
<path d="M46.1005 232.4C43.9005 232.4 42.1005 230.6 42.1005 228.4C41.5005 157.3 48.0005 85.3 61.4005 14.5C61.8005 12.3 63.9005 10.9 66.1005 11.3C68.3005 11.7 69.7005 13.8 69.3005 16C55.9005 86.3 49.5005 157.7 50.1005 228.4C50.1005 230.6 48.3005 232.4 46.1005 232.4Z" fill="black"/>
<path d="M51.1009 234C51.0009 234 50.8009 234 50.7009 234L45.7009 233.5C43.5009 233.3 41.9009 231.3 42.1009 229.1C42.3009 226.9 44.3009 225.3 46.5009 225.5L51.5009 226C53.7009 226.2 55.3009 228.2 55.1009 230.4C54.9009 232.5 53.1009 234 51.1009 234Z" fill="black"/>
<path d="M174.902 246.3C174.802 246.3 174.602 246.3 174.502 246.3L164.202 245.3C162.002 245.1 160.402 243.1 160.602 240.9C160.802 238.7 162.802 237.1 165.002 237.3L175.302 238.3C177.502 238.5 179.102 240.5 178.902 242.7C178.702 244.8 176.902 246.3 174.902 246.3ZM154.302 244.3C154.202 244.3 154.002 244.3 153.902 244.3L143.602 243.3C141.402 243.1 139.802 241.1 140.002 238.9C140.202 236.7 142.202 235.1 144.402 235.3L154.702 236.3C156.902 236.5 158.502 238.5 158.302 240.7C158.002 242.7 156.302 244.3 154.302 244.3ZM133.602 242.2C133.502 242.2 133.302 242.2 133.202 242.2L122.902 241.2C120.702 241 119.102 239 119.302 236.8C119.502 234.6 121.502 233 123.702 233.2L134.002 234.2C136.202 234.4 137.802 236.4 137.602 238.6C137.402 240.7 135.702 242.2 133.602 242.2ZM113.002 240.2C112.902 240.2 112.702 240.2 112.602 240.2L102.302 239.2C100.102 239 98.5016 237 98.7016 234.8C98.9016 232.6 100.902 231 103.102 231.2L113.402 232.2C115.602 232.4 117.202 234.4 117.002 236.6C116.802 238.6 115.002 240.2 113.002 240.2ZM92.4016 238.1C92.3016 238.1 92.1016 238.1 92.0016 238.1L81.7016 237.1C79.5016 236.9 77.9016 234.9 78.1016 232.7C78.3016 230.5 80.3016 228.9 82.5016 229.1L92.8016 230.1C95.0016 230.3 96.6016 232.3 96.4016 234.5C96.2016 236.6 94.4016 238.1 92.4016 238.1ZM71.8016 236.1C71.7016 236.1 71.5016 236.1 71.4016 236.1L61.0016 235C58.8016 234.8 57.2016 232.8 57.4016 230.6C57.6016 228.4 59.6016 226.8 61.8016 227L72.1016 228C74.3016 228.2 75.9016 230.2 75.7016 232.4C75.5016 234.5 73.8016 236.1 71.8016 236.1Z" fill="black"/>
<path d="M190.8 247.9C190.7 247.9 190.5 247.9 190.4 247.9L185.4 247.4C183.2 247.2 181.6 245.2 181.8 243C182 240.8 184 239.2 186.2 239.4L191.2 239.9C193.4 240.1 195 242.1 194.8 244.3C194.5 246.3 192.8 247.9 190.8 247.9Z" fill="black"/>
<path d="M70.4013 19.8001C70.3013 19.8001 70.1013 19.8001 70.0013 19.8001L65.1013 19.3001C62.9013 19.1001 61.3013 17.1001 61.5013 14.9001C61.7013 12.7001 63.7013 11.1001 65.9013 11.3001L70.8013 11.8001C73.0013 12.0001 74.6013 14.0001 74.4013 16.2001C74.1013 18.2001 72.4013 19.8001 70.4013 19.8001Z" fill="black"/>
<path d="M194.001 31.7C193.901 31.7 193.701 31.7 193.601 31.7L183.301 30.7C181.101 30.5 179.501 28.5 179.701 26.3C179.901 24.1 181.901 22.5 184.101 22.7L194.401 23.7C196.601 23.9 198.201 25.9 198.001 28.1C197.801 30.2 196.001 31.7 194.001 31.7ZM173.401 29.7C173.301 29.7 173.101 29.7 173.001 29.7L162.701 28.7C160.501 28.5 158.901 26.5 159.101 24.3C159.301 22.1 161.301 20.5 163.501 20.7L173.801 21.7C176.001 21.9 177.601 23.9 177.401 26.1C177.201 28.2 175.401 29.7 173.401 29.7ZM152.701 27.7C152.601 27.7 152.401 27.7 152.301 27.7L142.001 26.7C139.801 26.5 138.201 24.5 138.401 22.3C138.601 20.1 140.601 18.5 142.801 18.7L153.101 19.7C155.301 19.9 156.901 21.9 156.701 24.1C156.501 26.2 154.801 27.7 152.701 27.7ZM132.101 25.7C132.001 25.7 131.801 25.7 131.701 25.7L121.401 24.7C119.201 24.5 117.601 22.5 117.801 20.3C118.001 18.1 120.001 16.5 122.201 16.7L132.501 17.7C134.701 17.9 136.301 19.9 136.101 22.1C135.901 24.2 134.101 25.7 132.101 25.7ZM111.501 23.7C111.401 23.7 111.201 23.7 111.101 23.7L100.801 22.7C98.6013 22.5 97.0013 20.5 97.2013 18.3C97.4013 16.1 99.4013 14.5 101.601 14.7L111.901 15.7C114.101 15.9 115.701 17.9 115.501 20.1C115.301 22.2 113.501 23.7 111.501 23.7ZM90.8013 21.7C90.7013 21.7 90.5013 21.7 90.4013 21.7L80.1013 20.7C77.9013 20.5 76.3013 18.5 76.5013 16.3C76.7013 14.1 78.7013 12.5 80.9013 12.7L91.2013 13.7C93.4013 13.9 95.0013 15.9 94.8013 18.1C94.6013 20.2 92.9013 21.7 90.8013 21.7Z" fill="black"/>
<path d="M207.401 33.0003C207.301 33.0003 207.101 33.0003 207.001 33.0003L202.101 32.5003C199.901 32.3003 198.301 30.3003 198.501 28.1003C198.701 25.9003 200.701 24.3003 202.901 24.5003L207.801 25.0003C210.001 25.2003 211.601 27.2003 211.401 29.4003C211.101 31.5003 209.401 33.0003 207.401 33.0003Z" fill="black"/>
<path d="M46.8008 232.7C94.8008 241.5 142.901 250.3 191.101 259.1C194.801 188.4 205.301 117.1 222.401 46.3C175.901 37.4 129.501 28.4 83.1008 19.5C64.4008 90.4 52.2008 161.7 46.8008 232.7Z" fill="white"/>
<path d="M222.399 46.3999C205.399 116.8 194.899 187.7 191.199 258L222.399 46.3999Z" fill="white"/>
<path d="M191.2 262C191.1 262 191.1 262 191 262C188.8 261.9 187.1 260 187.2 257.8C191 187.1 201.6 115.7 218.6 45.4997C219.1 43.3997 221.3 41.9997 223.4 42.5997C225.5 43.0997 226.9 45.2997 226.3 47.3997C209.4 117.1 199 188 195.2 258.2C195.1 260.3 193.3 262 191.2 262Z" fill="black"/>
<path d="M46.9004 231.5C52.3004 160.9 64.4004 89.9 83.2004 19.5L46.9004 231.5Z" fill="white"/>
<path d="M46.9008 235.5C46.8008 235.5 46.7008 235.5 46.6008 235.5C44.4008 235.3 42.7008 233.4 42.9008 231.2C48.4008 160.3 60.6008 88.7 79.3008 18.5C79.9008 16.4 82.1008 15.1 84.2008 15.7C86.3008 16.3 87.6008 18.5 87.0008 20.6C68.5008 90.3 56.4008 161.4 50.9008 231.9C50.8008 234 49.0008 235.5 46.9008 235.5Z" fill="black"/>
<path d="M51.8001 237.6C51.6001 237.6 51.3001 237.6 51.1001 237.5L46.1001 236.6C43.9001 236.2 42.5001 234.1 42.9001 231.9C43.3001 229.7 45.4001 228.3 47.6001 228.7L52.6001 229.6C54.8001 230 56.2001 232.1 55.8001 234.3C55.4001 236.3 53.7001 237.6 51.8001 237.6Z" fill="black"/>
<path d="M174.301 260C174.101 260 173.801 260 173.601 259.9L163.401 258C161.201 257.6 159.801 255.5 160.201 253.3C160.601 251.1 162.701 249.7 164.901 250.1L175.101 252C177.301 252.4 178.701 254.5 178.301 256.7C177.901 258.7 176.201 260 174.301 260ZM153.901 256.3C153.701 256.3 153.401 256.3 153.201 256.2L143.001 254.3C140.801 253.9 139.401 251.8 139.801 249.6C140.201 247.4 142.301 246 144.501 246.4L154.701 248.3C156.901 248.7 158.301 250.8 157.901 253C157.501 255 155.801 256.3 153.901 256.3ZM133.501 252.6C133.301 252.6 133.001 252.6 132.801 252.5L122.601 250.6C120.401 250.2 119.001 248.1 119.401 245.9C119.801 243.7 121.901 242.3 124.101 242.7L134.301 244.6C136.501 245 137.901 247.1 137.501 249.3C137.101 251.2 135.401 252.6 133.501 252.6ZM113.101 248.9C112.901 248.9 112.601 248.9 112.401 248.8L102.201 246.9C100.001 246.5 98.6009 244.4 99.0009 242.2C99.4009 240 101.501 238.6 103.701 239L113.901 240.9C116.101 241.3 117.501 243.4 117.101 245.6C116.701 247.5 115.001 248.9 113.101 248.9ZM92.7009 245.1C92.5009 245.1 92.2009 245.1 92.0009 245L81.8009 243.1C79.6009 242.7 78.2009 240.6 78.6009 238.4C79.0009 236.2 81.1009 234.8 83.3009 235.2L93.5009 237.1C95.7009 237.5 97.1009 239.6 96.7009 241.8C96.3009 243.8 94.6009 245.1 92.7009 245.1ZM72.3009 241.4C72.1009 241.4 71.8009 241.4 71.6009 241.3L61.4009 239.4C59.2009 239 57.8009 236.9 58.2009 234.7C58.6009 232.5 60.7009 231.1 62.9009 231.5L73.1009 233.4C75.3009 233.8 76.7009 235.9 76.3009 238.1C75.9009 240 74.2009 241.4 72.3009 241.4Z" fill="black"/>
<path d="M191.101 263.1C190.901 263.1 190.601 263.1 190.401 263L185.401 262.1C183.201 261.7 181.801 259.6 182.201 257.4C182.601 255.2 184.701 253.8 186.901 254.2L191.901 255.1C194.101 255.5 195.501 257.6 195.101 259.8C194.701 261.8 193.001 263.1 191.101 263.1Z" fill="black"/>
<path d="M88.1005 24.4998C87.8005 24.4998 87.6005 24.4998 87.3005 24.3998L82.5005 23.4998C80.3005 23.0998 78.9005 20.9998 79.3005 18.7998C79.7005 16.5998 81.8005 15.1998 84.0005 15.5998L88.8005 16.4998C91.0005 16.8998 92.4005 18.9998 92.0005 21.1998C91.6005 23.1998 90.0005 24.4998 88.1005 24.4998Z" fill="black"/>
<path d="M210 47.9996C209.8 47.9996 209.5 47.9997 209.2 47.8997L199 45.8997C196.8 45.4997 195.4 43.3997 195.8 41.1996C196.2 38.9996 198.3 37.5996 200.5 37.9996L210.7 39.9996C212.9 40.3996 214.3 42.4996 213.9 44.6996C213.6 46.5996 211.9 47.9996 210 47.9996ZM189.6 44.0996C189.3 44.0996 189.1 44.0996 188.8 43.9996L178.6 41.9996C176.4 41.5996 175 39.4996 175.4 37.2996C175.8 35.0996 177.9 33.6996 180.1 34.0996L190.3 36.0996C192.5 36.4996 193.9 38.5996 193.5 40.7996C193.2 42.6996 191.5 44.0996 189.6 44.0996ZM169.3 40.0996C169 40.0996 168.8 40.0996 168.5 39.9996L158.3 37.9996C156.1 37.5996 154.7 35.4996 155.1 33.2996C155.5 31.0996 157.6 29.6996 159.8 30.0996L170 32.0996C172.2 32.4996 173.6 34.5996 173.2 36.7996C172.8 38.7996 171.2 40.0996 169.3 40.0996ZM148.9 36.1996C148.6 36.1996 148.4 36.1996 148.1 36.0996L137.9 34.0996C135.7 33.6996 134.3 31.5996 134.7 29.3996C135.1 27.1996 137.2 25.7997 139.4 26.1997L149.6 28.1996C151.8 28.5996 153.2 30.6996 152.8 32.8996C152.5 34.8996 150.8 36.1996 148.9 36.1996ZM128.6 32.2996C128.3 32.2996 128.1 32.2997 127.8 32.1996L117.6 30.1996C115.4 29.7997 114 27.6996 114.4 25.4996C114.8 23.2996 116.9 21.8996 119.1 22.2996L129.3 24.2996C131.5 24.6996 132.9 26.7996 132.5 28.9996C132.1 30.9996 130.5 32.2996 128.6 32.2996ZM108.2 28.3996C107.9 28.3996 107.7 28.3996 107.4 28.2996L97.1997 26.2996C94.9997 25.8996 93.5997 23.7997 93.9997 21.5996C94.3997 19.3996 96.4997 17.9996 98.6997 18.3996L108.9 20.3996C111.1 20.7996 112.5 22.8996 112.1 25.0996C111.8 27.0996 110.1 28.3996 108.2 28.3996Z" fill="black"/>
<path d="M222.601 50.3997C222.301 50.3997 222.101 50.3997 221.801 50.2997L217.001 49.3997C214.801 48.9997 213.401 46.8997 213.801 44.6997C214.201 42.4997 216.301 41.0997 218.501 41.4997L223.301 42.3997C225.501 42.7997 226.901 44.8997 226.501 47.0997C226.101 48.9997 224.401 50.3997 222.601 50.3997Z" fill="black"/>
</svg>
