<svg width="228" height="252" viewBox="0 0 228 252" fill="none" xmlns="http://www.w3.org/2000/svg">
<path d="M136.199 57.6999L154.699 10.7999C155.099 9.69987 155.099 8.49987 154.499 7.39987C153.899 6.29987 152.899 5.59987 151.799 5.39987L125.499 0.0998737C124.399 -0.100126 123.299 0.0998737 122.399 0.799874C121.499 1.49987 120.899 2.39987 120.799 3.59987L119.599 13.5999L99.0992 17.6999L97.3992 10.8999C97.0992 9.59987 96.0992 8.49987 94.8992 8.09987C93.5992 7.69987 92.1992 7.89987 91.1992 8.69987L70.4992 24.0999C69.5992 24.7999 69.0992 25.6999 68.8992 26.7999C68.7992 27.8999 69.0992 28.9999 69.7992 29.7999L92.1992 57.5999C40.3992 65.7999 0.699219 110.8 0.699219 164.9V191C0.699219 224.6 27.9992 251.9 61.5992 251.9H166.299C199.899 251.9 227.199 224.6 227.199 191V164.9C227.299 110.9 187.799 66.0999 136.199 57.6999ZM145.499 12.2999L127.999 56.6999C126.099 56.4999 124.199 56.3999 122.199 56.3999L128.099 8.89987L145.499 12.2999ZM118.399 21.8999L114.199 55.4999H108.199L100.799 25.4999L118.399 21.8999ZM90.8992 18.6999L99.6992 53.9999L78.5992 27.9999L90.8992 18.6999ZM219.299 191C219.299 220.2 195.599 243.9 166.399 243.9H61.5992C32.3992 243.9 8.69922 220.2 8.69922 191V164.9C8.69922 109.4 53.7992 64.2999 109.299 64.2999H118.599C174.099 64.2999 219.199 109.4 219.199 164.9V191H219.299Z" fill="black"/>
<path d="M93.0995 71.4998C90.3995 72.7998 67.0995 84.9998 64.5995 97.8998C64.1995 100.1 65.5995 102.2 67.6995 102.6C67.9995 102.7 68.1995 102.7 68.4995 102.7C70.3995 102.7 71.9995 101.4 72.3995 99.4998C73.6995 92.4998 87.9995 82.9998 96.6995 78.5998C98.6995 77.5998 99.4995 75.1998 98.4995 73.1998C97.3995 71.1998 94.9995 70.4998 93.0995 71.4998Z" fill="black"/>
<path d="M111 73.3997C108.9 73.8997 107.5 76.0997 108 78.1997C109.3 83.6997 112.3 99.9997 110.1 108.5C109.6 110.6 110.8 112.8 113 113.4C113.3 113.5 113.7 113.5 114 113.5C115.8 113.5 117.4 112.3 117.9 110.5C121 98.2997 116.1 77.2997 115.8 76.3997C115.3 74.1997 113.1 72.8997 111 73.3997Z" fill="black"/>
<path d="M130.7 70.5997C128.9 69.2997 126.4 69.6997 125.1 71.3997C123.8 73.1997 124.2 75.6997 125.9 76.9997C126 77.0997 135.6 84.1997 145.4 94.2997C158.1 107.3 165.4 119.4 166.7 129.2C167 131.2 168.7 132.7 170.7 132.7C170.9 132.7 171 132.7 171.2 132.7C173.4 132.4 174.9 130.4 174.7 128.2C171.2 100.7 132.3 71.8997 130.7 70.5997Z" fill="black"/>
</svg>
