<svg width="261" height="260" viewBox="0 0 261 260" fill="none" xmlns="http://www.w3.org/2000/svg">
<path fill-rule="evenodd" clip-rule="evenodd" d="M130.666 250C196.94 250 250.666 196.274 250.666 130C250.666 63.7258 196.94 10 130.666 10C64.3918 10 10.666 63.7258 10.666 130C10.666 196.274 64.3918 250 130.666 250ZM130.666 260C202.463 260 260.666 201.797 260.666 130C260.666 58.203 202.463 0 130.666 0C58.869 0 0.666016 58.203 0.666016 130C0.666016 201.797 58.869 260 130.666 260Z" fill="currentColor"/>
<path d="M130.668 169.343C128.697 169.343 126.806 168.56 125.412 167.167C124.019 165.773 123.236 163.882 123.236 161.911C123.236 140.284 133.975 128.802 142.596 119.549C149.471 112.117 154.487 106.841 154.487 97.7736C154.487 91.4563 151.978 85.3978 147.511 80.9308C143.044 76.4638 136.985 73.9542 130.668 73.9542C124.35 73.9542 118.292 76.4638 113.825 80.9308C109.358 85.3978 106.848 91.4563 106.848 97.7736C106.848 99.7447 106.065 101.635 104.672 103.029C103.278 104.423 101.387 105.206 99.4163 105.206C97.4453 105.206 95.5549 104.423 94.1611 103.029C92.7674 101.635 91.9844 99.7447 91.9844 97.7736C91.9844 87.5142 96.0599 77.6749 103.314 70.4204C110.569 63.1659 120.408 59.0903 130.668 59.0903C140.927 59.0903 150.766 63.1659 158.021 70.4204C165.275 77.6749 169.351 87.5142 169.351 97.7736C169.351 112.638 160.879 121.742 153.447 129.694C146.015 137.646 138.1 146.118 138.1 161.911C138.1 163.882 137.317 165.773 135.923 167.167C134.529 168.56 132.639 169.343 130.668 169.343Z" fill="currentColor"/>
<path d="M130.664 200C135.281 200 139.025 196.257 139.025 191.639C139.025 187.021 135.281 183.278 130.664 183.278C126.046 183.278 122.303 187.021 122.303 191.639C122.303 196.257 126.046 200 130.664 200Z" fill="currentColor"/>
</svg>
