<svg width="234" height="234" viewBox="0 0 234 234" fill="none" xmlns="http://www.w3.org/2000/svg">
<g clip-path="url(#clip0)">
<path d="M230.8 215.55L180.9 165.65C195 148.15 203.5 125.95 203.5 101.75C203.5 45.75 157.9 0.0500488 101.8 0.0500488C45.7 0.0500488 0 45.7501 0 101.85C0 157.95 45.7 203.65 101.8 203.65C126 203.65 148.2 195.15 165.7 181.05L215.6 230.95C217.7 233.05 220.5 234.15 223.2 234.15C225.9 234.15 228.7 233.05 230.8 230.95C235 226.65 235 219.75 230.8 215.55ZM8 101.85C8 50.1501 50.1 8.05005 101.8 8.05005C153.5 8.05005 195.6 50.1501 195.6 101.85C195.6 153.55 153.5 195.65 101.8 195.65C50.1 195.65 8 153.55 8 101.85ZM225.1 225.15C224 226.25 222.2 226.25 221.1 225.15L171.6 175.65C173 174.35 174.3 173.05 175.6 171.65L225.1 221.15C226.2 222.25 226.2 224.05 225.1 225.15Z" fill="black"/>
<path d="M101.8 21.95C57.8 21.95 22 57.7499 22 101.75C22 145.75 57.8 181.55 101.8 181.55C145.8 181.55 181.6 145.75 181.6 101.75C181.6 57.8499 145.8 21.95 101.8 21.95ZM101.8 173.65C62.2 173.65 30 141.45 30 101.85C30 62.25 62.2 30.05 101.8 30.05C141.4 30.05 173.6 62.25 173.6 101.85C173.6 141.45 141.4 173.65 101.8 173.65Z" fill="black"/>
</g>
<defs>
<clipPath id="clip0">
<rect width="233.9" height="233.9" fill="white" transform="translate(0 0.0500488)"/>
</clipPath>
</defs>
</svg>
