<svg width="260" height="261" viewBox="0 0 260 261" fill="none" xmlns="http://www.w3.org/2000/svg">
<path d="M129.8 9.75C162.1 9.75 192.4 22.35 215.2 45.15C238 67.95 250.6 98.25 250.6 130.55C250.6 162.85 238 193.15 215.2 215.95C192.4 238.75 162.1 251.35 129.8 251.35C97.5 251.35 67.2 238.75 44.4 215.95C21.6 193.05 9 162.75 9 130.55C9 98.35 21.6 67.95 44.4 45.15C67.2 22.35 97.5 9.75 129.8 9.75ZM129.8 0.75C58.1 0.75 0 58.85 0 130.55C0 202.25 58.1 260.35 129.8 260.35C201.5 260.35 259.6 202.25 259.6 130.55C259.6 58.85 201.4 0.75 129.8 0.75Z" fill="currentColor"/>
<path d="M136.3 159.95C135.9 159.95 135.4 159.95 135 159.95C128.7 159.75 122.5 157.85 117.2 154.55C115.3 153.35 114.8 150.95 115.9 149.05C117.1 147.15 119.5 146.65 121.4 147.75C125.6 150.35 130.4 151.75 135.3 151.95C140.2 152.15 145 151.05 149.3 148.85C151.9 147.55 154.3 145.75 156.4 143.65L192.8 107.25C203.8 96.2499 203.8 78.2499 192.8 67.2499C181.8 56.2499 163.8 56.2499 152.8 67.2499L129 91.0499C127.5 92.5499 124.9 92.5499 123.4 91.0499C121.9 89.5499 121.9 86.9499 123.4 85.4499L147.1 61.7499C153.9 54.9499 163 51.1499 172.7 51.1499C182.4 51.1499 191.5 54.9499 198.3 61.7499C212.4 75.8499 212.4 98.8499 198.3 112.95L161.9 149.35C159.2 152.05 156.2 154.25 152.8 155.95C147.8 158.55 142.1 159.95 136.3 159.95Z" fill="currentColor"/>
<path d="M86.5012 209.85C77.2012 209.85 67.9012 206.35 60.9012 199.25C46.8012 185.15 46.8012 162.15 60.9012 148.05L97.3012 111.65C100.001 108.95 103.001 106.75 106.401 105.05C112.401 101.95 119.201 100.65 126.101 101.25C131.501 101.75 136.801 103.45 141.501 106.15C143.401 107.25 144.001 109.65 142.901 111.55C141.801 113.45 139.301 114.05 137.501 112.95C133.901 110.85 129.701 109.45 125.501 109.15C120.201 108.65 114.801 109.75 110.101 112.15C107.501 113.45 105.101 115.25 103.001 117.35L66.6012 153.75C55.6012 164.75 55.6012 182.75 66.6012 193.75C77.6012 204.75 95.6012 204.75 106.601 193.75L130.401 169.95C131.901 168.45 134.501 168.45 136.001 169.95C137.501 171.45 137.501 174.05 136.001 175.55L112.201 199.35C105.101 206.25 95.8012 209.85 86.5012 209.85Z" fill="currentColor"/>
<path d="M82.8008 109.85H54.3008C52.1008 109.85 50.3008 108.05 50.3008 105.85C50.3008 103.65 52.1008 101.85 54.3008 101.85H82.9008C85.1008 101.85 86.9008 103.65 86.9008 105.85C86.8008 108.15 85.0008 109.85 82.8008 109.85Z" fill="currentColor"/>
<path d="M105 87.6499C102.8 87.6499 101 85.8499 101 83.6499V55.1499C101 52.9499 102.8 51.1499 105 51.1499C107.2 51.1499 109 52.9499 109 55.1499V83.7499C109 85.8499 107.2 87.6499 105 87.6499Z" fill="currentColor"/>
<path d="M88.7012 93.5499C87.7012 93.5499 86.7012 93.1499 85.9012 92.3499L65.7012 72.2499C64.2012 70.7499 64.2012 68.1499 65.7012 66.6499C67.2012 65.1499 69.8012 65.1499 71.3012 66.6499L91.5012 86.8499C93.0012 88.3499 93.0012 90.9499 91.5012 92.4499C90.8012 93.1499 89.7012 93.5499 88.7012 93.5499Z" fill="currentColor"/>
<path d="M205 159.05H176.4C174.2 159.05 172.4 157.25 172.4 155.05C172.4 152.85 174.2 151.05 176.4 151.05H205C207.2 151.05 209 152.85 209 155.05C208.9 157.25 207.1 159.05 205 159.05Z" fill="currentColor"/>
<path d="M154.201 209.85C152.001 209.85 150.201 208.05 150.201 205.85V177.25C150.201 175.05 152.001 173.25 154.201 173.25C156.401 173.25 158.201 175.05 158.201 177.25V205.85C158.201 208.05 156.401 209.85 154.201 209.85Z" fill="currentColor"/>
<path d="M190.701 195.55C189.701 195.55 188.701 195.15 187.901 194.35L167.701 174.15C166.201 172.65 166.201 170.05 167.701 168.55C169.201 167.05 171.801 167.05 173.301 168.55L193.501 188.75C195.001 190.25 195.001 192.85 193.501 194.35C192.701 195.15 191.701 195.55 190.701 195.55Z" fill="currentColor"/>
</svg>
