<svg xmlns="http://www.w3.org/2000/svg" viewBox="0 0 75.03 75.02"><defs><style>.cls-1{fill:#fff;}.cls-2{fill:#ff6363;}</style></defs><title>incorrect</title><g id="Layer_2" data-name="Layer 2"><g id="Layer_1-2" data-name="Layer 1"><circle class="cls-1" cx="37.53" cy="37.52" r="37.5"/><path class="cls-2" d="M37.51,0A37.51,37.51,0,1,0,75,37.51,37.69,37.69,0,0,0,37.51,0ZM49.94,49.94a1,1,0,0,1-1.07,0l-.43-.43L37.51,38.58,26.58,49.51l-.43.43a1,1,0,0,1-1.07,0,1,1,0,0,1,0-1.07l.43-.43L36.44,37.51,25.08,26.15a.76.76,0,0,1,1.07-1.07L37.51,36.44,48.87,25.08a1,1,0,0,1,1.07,0,1,1,0,0,1,0,1.07L38.58,37.51,49.51,48.44l.43.43A.61.61,0,0,1,49.94,49.94Z"/></g></g></svg>