<svg width="30" height="30" viewBox="5 5 30 30" fill="none" xmlns="http://www.w3.org/2000/svg">
<g clip-path="url(#clip0)">
<path d="M5.16904 14.6053C5.42157 15.0094 5.92666 15.2115 6.38123 15.0599L8.17425 14.5801C6.30547 18.6207 6.63376 23.4442 9.1844 27.207C13.1492 33.0406 21.1547 34.5306 26.9883 30.5153C27.4177 30.187 27.5439 29.5051 27.2409 29.0505C26.9378 28.596 26.256 28.4697 25.8014 28.7222C20.9022 32.0557 14.2857 30.8436 10.9522 25.9443C8.90661 22.9391 8.57831 19.1258 9.94201 15.8428L10.2956 17.257C10.4218 17.8378 11.0532 18.2167 11.6088 18.0651C12.1644 17.9136 12.5179 17.257 12.3664 16.7014C11.9118 14.9842 11.4572 13.2669 11.0027 11.5496C9.28541 12.0042 7.5429 12.484 5.82564 12.9386C5.14378 13.2164 4.84074 14.075 5.16904 14.6053ZM12.2906 11.0698C12.6442 11.4234 13.2755 11.4991 13.6796 11.1961C18.5536 7.78683 25.1701 8.94851 28.5541 13.7467C30.7006 16.8024 31.0289 20.7168 29.5895 24.0755L29.2359 22.8128C28.9329 22.1562 28.5036 21.9795 27.8722 22.0552C27.3166 22.2573 27.0388 22.8886 27.1651 23.3684C27.6197 25.0857 28.0743 26.803 28.5288 28.5202C30.2461 28.0656 31.9886 27.5858 33.7059 27.1313C34.2867 27.005 34.6655 26.3736 34.514 25.8181C34.3625 25.2625 33.7059 24.9089 33.1755 25.0857L31.2562 25.5908C33.3523 21.4239 33.024 16.3984 30.2966 12.5093C26.256 6.75142 18.2505 5.36246 12.4674 9.42832C11.9371 9.80713 11.7603 10.388 12.2906 11.0698Z" fill="currentColor"/>
</g>
<defs>
<clipPath id="clip0">
<rect x="0.15918" y="18.4849" width="25.7143" height="30" transform="rotate(-45 0.15918 18.4849)" fill="white"/>
</clipPath>
</defs>
</svg>
