<svg width="30" height="21" viewBox="0 0 30 21" fill="none" xmlns="http://www.w3.org/2000/svg">
<g clip-path="url(#clip0)">
<path d="M28.2981 4.49362C28.1313 4.22128 27.931 3.94894 27.7308 3.71064C27.6307 3.57447 27.5306 3.47234 27.4305 3.33617C27.2303 3.09787 26.9967 2.85957 26.7631 2.65532C26.396 2.31489 26.0289 2.00851 25.6285 1.73617C25.3615 1.56596 25.0946 1.39574 24.7942 1.22553C24.4939 1.05532 24.2269 0.919149 23.9266 0.782979C23.4928 0.578723 23.0256 0.442553 22.525 0.306383C22.1913 0.238298 21.891 0.170213 21.5573 0.102128C21.0567 0.0340426 20.5562 0 20.0222 0C18.1869 0 16.485 0.510638 15.0167 1.3617C13.5484 0.476596 11.8465 0 10.0111 0C4.47163 0 0 4.5617 0 10.2128C0 15.8638 4.47163 20.4255 10.0111 20.4255C11.8465 20.4255 13.5484 19.9149 15.0167 19.0638C16.485 19.9489 18.1869 20.4255 20.0222 20.4255C20.5562 20.4255 21.0567 20.3915 21.5573 20.3234C21.891 20.2553 22.2247 20.1872 22.525 20.1191C22.9922 19.983 23.4594 19.8468 23.9266 19.6426C24.2269 19.5064 24.5273 19.3702 24.7942 19.2C25.0946 19.0298 25.3615 18.8596 25.6285 18.6894C26.0289 18.417 26.396 18.1106 26.7631 17.7702C26.9967 17.566 27.2303 17.3277 27.4305 17.0894C27.5306 16.9532 27.6307 16.8511 27.7308 16.7149C27.931 16.4766 28.1313 16.2043 28.2981 15.9319C29.366 14.2979 30 12.3234 30 10.2128C30 8.10213 29.3993 6.12766 28.2981 4.49362ZM20.0222 18.383C18.8877 18.383 17.7864 18.1447 16.8187 17.7021C16.1847 17.3957 15.5506 17.0213 15.0167 16.5787C13.1813 15.0809 12.0133 12.766 12.0133 10.2128C12.0133 7.65957 13.1813 5.34468 15.0167 3.84681C15.5506 3.40426 16.1847 3.02979 16.8187 2.7234C17.7864 2.28085 18.8877 2.04255 20.0222 2.04255C24.4271 2.04255 28.0311 5.71915 28.0311 10.2128C28.0311 14.7064 24.4271 18.383 20.0222 18.383Z" fill="currentColor"/>
</g>
<defs>
<clipPath id="clip0">
<rect width="30" height="20.4255" fill="white"/>
</clipPath>
</defs>
</svg>
