<svg width="261" height="261" viewBox="0 0 261 261" fill="none" xmlns="http://www.w3.org/2000/svg">
<path d="M173.17 238.103C172.19 238.108 171.242 237.759 170.5 237.12C169.757 236.481 169.271 235.595 169.13 234.626C168.989 233.656 169.203 232.669 169.733 231.845C170.262 231.021 171.072 230.416 172.012 230.141C198.025 222.32 220.356 205.403 234.929 182.48C249.502 159.556 255.343 132.156 251.386 105.283C247.43 78.4096 233.939 53.8559 213.378 36.1054C192.817 18.3549 166.558 8.59207 139.394 8.59959C115.264 8.51519 91.7442 16.1823 72.2993 30.4716C52.8545 44.7609 38.5125 64.917 31.3857 87.9712C31.0652 89 30.3491 89.8594 29.395 90.3603C28.4408 90.8611 27.3268 90.9625 26.298 90.642C25.2692 90.3215 24.4098 89.6054 23.9089 88.6513C23.4081 87.6972 23.3067 86.5831 23.6272 85.5543C32.2908 57.8938 50.5735 34.2503 75.1644 18.9058C99.7552 3.56136 129.028 -2.46949 157.682 1.90549C186.335 6.28048 212.474 20.772 231.366 42.7556C250.257 64.7392 260.651 92.7613 260.666 121.747C260.55 147.783 252.11 173.1 236.58 193.997C221.05 214.895 199.244 230.279 174.348 237.9C173.968 238.025 173.571 238.094 173.17 238.103Z" fill="currentColor"/>
<path d="M146.564 208.877C134.906 197.219 119.023 188.059 111.549 195.31C107.308 199.111 103.677 203.543 100.785 208.45C91.7876 206.175 80.6374 199.128 71.051 189.542C61.4647 179.955 54.9452 169.739 52.4064 160.925C57.6209 157.897 62.0849 153.732 65.4658 148.739C72.3103 141.163 63.2114 125.484 51.6753 113.948C40.1392 102.412 23.9927 93.0892 16.5592 100.543C16.5592 100.543 16.3967 100.746 16.3155 100.827L16.0312 101.071C8.55706 108.525 0.0877758 118.985 0.697077 133.73C1.73289 157.167 18.9761 188.282 45.6026 214.97C74.8084 244.196 104.441 260.444 127.818 260.444C129.348 260.444 130.857 260.376 132.347 260.241C142.827 259.246 152.9 251.142 159.501 244.541C159.501 244.541 159.664 244.338 159.745 244.236L160.029 243.993C167.463 236.559 158.262 220.575 146.564 208.877ZM131.555 252.137C110.249 254.168 80.3124 238.123 51.3706 209.181C26.4705 184.281 9.77566 154.527 8.82109 133.364C8.31334 121.808 15.4625 113.054 21.7383 106.819C21.7383 106.819 21.9008 106.616 21.982 106.514L22.2663 106.27C22.5304 106.006 24.6426 105.458 29.5983 107.733C35.6478 110.796 41.1402 114.854 45.8463 119.736C56.834 130.724 60.0633 140.046 59.5556 142.727C59.2854 142.7 59.0133 142.7 58.7432 142.727C54.6811 142.727 47.6336 137.751 37.8035 127.921C34.127 124.306 30.8889 120.27 28.1562 115.897C27.8789 115.441 27.5144 115.044 27.0836 114.729C26.6528 114.414 26.1641 114.187 25.6454 114.06C25.1268 113.934 24.5884 113.911 24.0608 113.993C23.5333 114.074 23.0271 114.259 22.571 114.537C22.1149 114.814 21.7179 115.178 21.4027 115.609C21.0875 116.04 20.8602 116.529 20.7339 117.047C20.6075 117.566 20.5845 118.104 20.6663 118.632C20.748 119.16 20.9328 119.666 21.2102 120.122C24.2799 125.055 27.9202 129.608 32.0558 133.689C38.9206 140.554 46.6384 147.54 53.7672 149.937C50.8019 152.719 46.8009 155.441 42.4748 155.441C41.3975 155.441 40.3643 155.869 39.6025 156.631C38.8408 157.393 38.4128 158.426 38.4128 159.503C38.4128 160.58 38.8408 161.614 39.6025 162.375C40.3643 163.137 41.3975 163.565 42.4748 163.565C43.1535 163.562 43.8316 163.521 44.5058 163.443C47.5117 173.598 54.9858 185.236 65.1205 195.35C75.5396 205.769 87.4615 213.325 97.779 216.168C97.6284 217.006 97.5469 217.855 97.5353 218.707C97.5353 219.784 97.9633 220.817 98.7251 221.579C99.4868 222.341 100.52 222.769 101.597 222.769C102.675 222.769 103.708 222.341 104.47 221.579C105.231 220.817 105.659 219.784 105.659 218.707C105.659 213.264 112.504 205.201 116.83 201.403L117.013 201.22C118.333 199.92 128.468 202.52 140.654 214.685C145.536 219.391 149.594 224.883 152.657 230.933C154.931 235.889 154.383 238.022 154.119 238.265C153.855 238.509 153.957 238.468 153.875 238.57C153.607 238.591 153.342 238.639 153.083 238.712C150.402 239.484 140.654 233.533 131.514 224.495C127.837 220.88 124.599 216.844 121.867 212.472C121.589 212.016 121.225 211.619 120.794 211.303C120.363 210.988 119.875 210.761 119.356 210.634C118.837 210.508 118.299 210.485 117.771 210.567C117.244 210.649 116.738 210.833 116.281 211.111C115.825 211.388 115.428 211.753 115.113 212.184C114.798 212.614 114.571 213.103 114.444 213.622C114.318 214.14 114.295 214.679 114.377 215.206C114.458 215.734 114.643 216.24 114.921 216.696C117.99 221.629 121.631 226.183 125.766 230.263C129.016 233.513 137.952 241.901 146.198 245.394C141.872 248.664 136.612 251.65 131.555 252.137Z" fill="currentColor"/>
<path d="M78.9897 172.46C78.2945 172.46 77.611 172.281 77.0046 171.941C76.3982 171.601 75.8893 171.111 75.5265 170.518C75.1638 169.925 74.9593 169.249 74.9327 168.554C74.906 167.859 75.0582 167.169 75.3745 166.55L87.1137 143.559V80.334C87.1137 79.2567 87.5417 78.2235 88.3035 77.4617C89.0652 76.6999 90.0984 76.272 91.1757 76.272H198.616C199.693 76.272 200.726 76.6999 201.488 77.4617C202.25 78.2235 202.678 79.2567 202.678 80.334V156.212C202.678 157.29 202.25 158.323 201.488 159.085C200.726 159.846 199.693 160.274 198.616 160.274H104.276L80.7973 172.034C80.2358 172.314 79.6171 172.46 78.9897 172.46ZM95.2377 84.396V144.534C95.2371 145.177 95.084 145.81 94.7909 146.382L88.2308 159.238L101.514 152.597C102.081 152.314 102.707 152.168 103.341 152.171H194.554V84.396H95.2377Z" fill="currentColor"/>
<path d="M122.048 125.361C120.843 125.361 119.665 125.004 118.663 124.334C117.661 123.665 116.88 122.713 116.419 121.6C115.958 120.487 115.837 119.262 116.072 118.08C116.307 116.898 116.888 115.812 117.74 114.96C118.592 114.108 119.677 113.527 120.859 113.292C122.041 113.057 123.266 113.178 124.38 113.639C125.493 114.1 126.445 114.881 127.114 115.883C127.784 116.885 128.141 118.063 128.141 119.268C128.141 120.884 127.499 122.434 126.356 123.577C125.214 124.719 123.664 125.361 122.048 125.361Z" fill="currentColor"/>
<path d="M146.421 125.361C145.216 125.361 144.038 125.004 143.036 124.334C142.034 123.665 141.253 122.713 140.792 121.6C140.331 120.487 140.21 119.262 140.445 118.08C140.68 116.898 141.261 115.812 142.113 114.96C142.965 114.108 144.051 113.527 145.232 113.292C146.414 113.057 147.639 113.178 148.753 113.639C149.866 114.1 150.818 114.881 151.487 115.883C152.157 116.885 152.514 118.063 152.514 119.268C152.514 120.884 151.872 122.434 150.73 123.577C149.587 124.719 148.037 125.361 146.421 125.361Z" fill="currentColor"/>
<path d="M170.792 125.361C169.587 125.361 168.409 125.004 167.407 124.334C166.405 123.665 165.624 122.713 165.163 121.6C164.702 120.487 164.581 119.262 164.816 118.08C165.051 116.898 165.632 115.812 166.484 114.96C167.336 114.108 168.422 113.527 169.604 113.292C170.785 113.057 172.011 113.178 173.124 113.639C174.237 114.1 175.189 114.881 175.858 115.883C176.528 116.885 176.885 118.063 176.885 119.268C176.885 120.884 176.243 122.434 175.101 123.577C173.958 124.719 172.408 125.361 170.792 125.361Z" fill="currentColor"/>
</svg>
