<svg width="39" height="58" viewBox="0 0 39 58" fill="none" xmlns="http://www.w3.org/2000/svg">
<path d="M38.28 6.3075C38.28 6.235 38.28 6.1625 38.28 6.09V6.0175C38.28 5.8725 38.28 5.8 38.2075 5.7275C37.845 4.1325 35.8875 2.755 32.4075 1.6675C28.855 0.58 24.1425 0 19.14 0C14.1375 0 9.425 0.58 5.8725 1.6675C2.465 2.755 0.435 4.1325 0.0725 5.7275C0 5.8 0 5.945 0 6.0175V6.09C0 6.1625 0 6.235 0 6.3075C0 6.525 0 6.7425 0.0725 6.8875L4.1325 52.5625C4.1325 52.635 4.1325 52.635 4.1325 52.7075C4.205 52.925 6.09 58 19.2125 58C25.1575 58 29.435 57.13 31.9 55.4625C33.785 54.1575 33.93 52.8525 33.93 52.5625L38.28 7.0325C38.28 6.7425 38.28 6.525 38.28 6.3075ZM30.9575 22.9825C27.84 21.895 23.635 21.2425 19.285 21.2425C14.935 21.2425 10.73 21.8225 7.6125 22.9825C5.365 23.78 3.8425 24.795 3.045 25.8825L1.595 8.845C2.61 9.6425 4.06 10.3675 6.0175 10.9475C9.57 12.035 14.2825 12.615 19.285 12.615C24.2875 12.615 29 12.035 32.5525 10.9475C34.4375 10.3675 35.96 9.6425 36.9025 8.845L35.3075 25.4475C34.365 24.505 32.9875 23.635 30.9575 22.9825ZM34.945 27.6225C34.945 28.855 33.35 30.16 30.595 31.1025C27.6225 32.19 23.5625 32.77 19.285 32.77C15.0075 32.77 11.02 32.19 7.975 31.1025C5.22 30.16 3.625 28.855 3.625 27.6225C3.625 26.39 5.22 25.085 7.975 24.1425C10.9475 23.055 15.0075 22.475 19.285 22.475C23.5625 22.475 27.55 23.055 30.595 24.1425C33.35 25.085 34.945 26.39 34.945 27.6225ZM19.2125 1.2325C29.5075 1.2325 36.7575 3.77 37.12 6.1625L37.0475 6.7425C36.3225 9.0625 29.145 11.455 19.2125 11.455C9.2075 11.455 2.1025 9.0625 1.3775 6.7425L1.305 6.1625C1.6675 3.77 8.9175 1.2325 19.2125 1.2325ZM32.6975 52.4175C32.6975 52.49 32.2625 56.7675 19.2125 56.7675C7.7575 56.7675 5.51 52.78 5.2925 52.2725L3.335 29.6525C4.205 30.595 5.655 31.465 7.6125 32.1175C10.73 33.205 14.935 33.8575 19.285 33.8575C23.635 33.8575 27.84 33.2775 30.9575 32.1175C32.625 31.5375 33.93 30.8125 34.8 30.015L32.6975 52.4175Z" fill="currentColor"/>
<path d="M7.61256 9.49777C10.8026 10.2228 14.9351 10.6578 19.2126 10.6578C23.4901 10.6578 27.6226 10.2228 30.8126 9.49777C34.2926 8.70026 36.0326 7.61276 36.0326 6.38026C36.0326 5.14776 34.2926 4.06026 30.8126 3.19026C27.6226 2.39276 23.4176 1.95776 19.1401 1.95776C14.8626 1.95776 10.7301 2.39276 7.46756 3.19026C3.98756 4.06026 2.24756 5.07526 2.24756 6.38026C2.39256 7.61276 4.20506 8.70026 7.61256 9.49777ZM7.90256 4.35026C11.0201 3.55276 15.0801 3.19026 19.2851 3.19026C23.4901 3.19026 27.4776 3.62526 30.6676 4.35026C34.1476 5.22026 34.9451 6.09026 34.9451 6.38026C34.9451 6.59776 34.1476 7.54026 30.6676 8.33776C27.5501 9.06276 23.4901 9.49777 19.2851 9.49777C15.0801 9.49777 11.0201 9.06276 7.90256 8.33776C4.42256 7.54026 3.62506 6.59776 3.62506 6.38026C3.62506 6.09026 4.42256 5.22026 7.90256 4.35026Z" fill="currentColor"/>
</svg>
