<svg width="30" height="29" viewBox="0 0 30 29" fill="none" xmlns="http://www.w3.org/2000/svg">
<path d="M15 29C12.1322 29 9.32874 28.1496 6.94423 26.5563C4.55972 24.963 2.70122 22.6984 1.60375 20.0489C0.506283 17.3994 0.219134 14.4839 0.77862 11.6712C1.3381 8.85847 2.7191 6.27481 4.74695 4.24695C6.77481 2.2191 9.35847 0.838105 12.1712 0.27862C14.9839 -0.280866 17.8994 0.00628257 20.5489 1.10375C23.1984 2.20122 25.463 4.05972 27.0563 6.44423C28.6496 8.82874 29.5 11.6322 29.5 14.5C29.4958 18.3443 27.9668 22.03 25.2484 24.7484C22.53 27.4668 18.8443 28.9958 15 29ZM15 0.906256C12.3114 0.906256 9.6832 1.70351 7.44772 3.19721C5.21224 4.69091 3.4699 6.81397 2.44102 9.2979C1.41214 11.7818 1.14294 14.5151 1.66746 17.152C2.19197 19.7889 3.48665 22.2111 5.38777 24.1122C7.28889 26.0133 9.71106 27.308 12.348 27.8325C14.9849 28.3571 17.7182 28.0879 20.2021 27.059C22.686 26.0301 24.8091 24.2878 26.3028 22.0523C27.7965 19.8168 28.5937 17.1886 28.5937 14.5C28.5895 10.896 27.156 7.44082 24.6076 4.89241C22.0592 2.34399 18.604 0.910453 15 0.906256Z" fill="black"/>
<path d="M15.9481 20.3661C15.8067 20.366 15.6701 20.3149 15.5634 20.2222L15.0376 19.7787C14.9673 19.733 14.9077 19.6728 14.8626 19.6021C14.8175 19.5314 14.7881 19.4519 14.7763 19.3688C14.7646 19.2858 14.7707 19.2013 14.7943 19.1208C14.8179 19.0404 14.8585 18.9659 14.9133 18.9024C14.9681 18.839 15.0358 18.788 15.112 18.7529C15.1881 18.7178 15.2709 18.6994 15.3547 18.6989C15.4385 18.6985 15.5215 18.7159 15.598 18.7502C15.6746 18.7845 15.7428 18.8347 15.7983 18.8976L15.8747 18.9622L23.8664 9.40501C23.9136 9.33955 23.9738 9.28452 24.0432 9.24334C24.1126 9.20217 24.1898 9.17574 24.2698 9.1657C24.3499 9.15566 24.4312 9.16222 24.5086 9.18499C24.5861 9.20775 24.658 9.24622 24.7198 9.29801C24.7817 9.34979 24.8323 9.41377 24.8684 9.48596C24.9045 9.55815 24.9253 9.63699 24.9295 9.71758C24.9338 9.79817 24.9214 9.87877 24.8931 9.95436C24.8648 10.0299 24.8213 10.0989 24.7652 10.1569L16.4004 20.1664C16.3502 20.2264 16.2884 20.2758 16.2188 20.3116C16.1492 20.3474 16.0732 20.3689 15.9951 20.3749L15.9481 20.3661Z" fill="black"/>
<path d="M11.9625 20.3662C11.885 20.3662 11.8082 20.351 11.7367 20.3212C11.6651 20.2915 11.6001 20.2479 11.5455 20.1929L5.69189 14.3511C5.59044 14.2395 5.53577 14.0932 5.53922 13.9425C5.54266 13.7917 5.60394 13.6481 5.71038 13.5412C5.81681 13.4344 5.96025 13.3726 6.11099 13.3687C6.26173 13.3647 6.40822 13.4188 6.52014 13.5199L11.9214 18.9211L19.8779 9.40505C19.9776 9.28392 20.1214 9.20737 20.2775 9.19222C20.4337 9.17707 20.5894 9.22458 20.7106 9.32428C20.8317 9.42399 20.9083 9.56773 20.9234 9.72388C20.9385 9.88004 20.891 10.0358 20.7913 10.1569L12.4119 20.1665C12.3578 20.228 12.2915 20.2776 12.2171 20.312C12.1428 20.3464 12.0621 20.3648 11.9801 20.3662H11.9625Z" fill="black"/>
</svg>
