<svg width="197" height="258" viewBox="0 0 197 258" fill="none" xmlns="http://www.w3.org/2000/svg">
<path d="M194.4 209.9C186.8 207.2 165.1 197.1 164.8 187.1C164.4 173.8 165.4 171.4 171.6 155.6L172.4 153.5C173.3 151.1 174.7 148.2 176.2 144.9C185.7 123.8 203.5 84.6001 184.1 47.4001C174 28.0001 160.6 14.3001 144.3 6.70012C128.3 -0.699876 113 -0.599876 103 0.800124C81.9999 3.80012 59.7999 10.1001 39.4999 35.6001C20.5999 59.4001 25.4999 88.7001 27.8999 102.8C28.3999 105.8 28.8999 108.7 28.7999 109.8C28.5999 114.4 23.9999 122.8 20.9999 128.4C19.4999 131.3 18.0999 133.7 17.3999 135.5C17.0999 136.3 16.6999 137 16.2999 137.8C14.3999 141.6 11.6999 147.2 20.1999 152.8L0.699944 179C-0.400056 180.5 -0.100056 182.6 1.39994 183.7C2.89994 184.8 4.99994 184.5 6.09994 183L26.0999 156C26.9999 156.4 27.7999 156.7 28.3999 157V157.1C28.2999 157.7 27.9999 158.5 27.5999 159.3C26.5999 161.6 25.2999 164.8 26.9999 168C28.0999 170.1 30.0999 171.7 33.4999 173C32.9999 174 32.5999 175.1 32.4999 176.3C32.3999 177.9 32.7999 180.3 35.3999 182.6C37.1999 184.2 37.2999 186.8 37.0999 191C36.9999 193.3 36.8999 195.7 37.4999 197.9L37.5999 198.2C38.3999 201.3 39.8999 207.7 46.6999 211.6C53.0999 215.3 62.4999 215.6 74.6999 212.4C79.3999 218.2 94.7999 238.6 89.7999 253.2C89.2 254.9 90.0999 256.9 91.8999 257.5C92.2999 257.6 92.5999 257.7 92.9999 257.7C94.3999 257.7 95.6999 256.8 96.1999 255.5C103.4 234.8 79.4999 207.7 78.4999 206.5C77.5999 205.5 76.2999 205.2 75.0999 205.5C63.8999 208.7 55.2999 208.8 50.1999 205.9C45.8999 203.4 44.8999 199.2 44.2999 196.7L44.1999 196.3C43.8999 195 43.9999 193.2 43.9999 191.3C44.1999 186.9 44.3999 181.4 39.9999 177.6C39.5999 177.3 39.3999 177 39.3999 176.9C39.3999 176.2 40.6999 174.9 41.6999 174.3C42.7999 173.6 43.3999 172.2 43.1999 170.9C42.9999 169.6 41.9999 168.5 40.6999 168.2C34.4999 166.8 33.4999 165.3 33.2999 165C32.9999 164.5 33.5999 163.1 34.0999 161.9C34.5999 160.8 35.0999 159.6 35.2999 158.3C36.0999 154 35.1999 152.3 31.3999 150.9C31.0999 150.8 30.7999 150.7 30.4999 150.6L33.8999 146.1C33.9999 146 33.9999 145.9 34.0999 145.8C34.2999 145.4 57.0999 107 84.0999 106.5C97.1999 106.2 109.6 115.1 120.9 132.8C128.7 145 129.5 163.7 130.5 187.3C131.3 205.9 132.2 226.9 136.7 249.9C137 251.5 138.4 252.6 140 252.6C140.2 252.6 140.4 252.6 140.7 252.5C142.5 252.1 143.7 250.4 143.3 248.6C138.9 226.1 138 205.3 137.2 187C136.1 162.4 135.3 142.9 126.6 129.2C114 109.4 99.5999 99.5001 83.9999 99.8001C70.8999 100.1 57.4999 107.4 44.1999 121.5C35.0999 131.2 29.2999 140.8 28.3999 142.2L24.4999 147.5C20.5999 145.1 20.8999 144.3 22.5999 140.8C22.9999 140 23.4999 139 23.8999 138C24.4999 136.6 25.6999 134.3 27.0999 131.6C30.7999 124.8 35.3999 116.2 35.6999 110.2C35.7999 108.3 35.2999 105.5 34.6999 101.7C31.9999 87.5001 27.5999 61.2001 44.5999 39.7001C64.3999 14.9001 85.5999 10.0001 103.8 7.40012C121.8 4.80012 155.4 7.00012 178.1 50.4001C196 84.8001 179.8 120.6 170.1 142.1C168.5 145.5 167.2 148.5 166.2 151L165.4 153.1C159 169.2 157.7 172.6 158.1 187.2C158.6 203.5 188.7 214.9 192.1 216.1C193.8 216.7 195.8 215.8 196.4 214.1C197 212.4 196.1 210.5 194.4 209.9Z" fill="currentColor"/>
</svg>
