<svg width="300" height="301" viewBox="0 0 300 301" fill="none" xmlns="http://www.w3.org/2000/svg">
<rect width="300" height="300" transform="translate(0 0.5)" fill="white"/>
<g clip-path="url(#clip0)">
<path d="M172.199 82.6999L190.699 35.7999C191.099 34.6999 191.099 33.4999 190.499 32.3999C189.899 31.2999 188.899 30.5999 187.799 30.3999L161.499 25.0999C160.399 24.8999 159.299 25.0999 158.399 25.7999C157.499 26.4999 156.899 27.3999 156.799 28.5999L155.599 38.5999L135.099 42.6999L133.399 35.8999C133.099 34.5999 132.099 33.4999 130.899 33.0999C129.599 32.6999 128.199 32.8999 127.199 33.6999L106.499 49.0999C105.599 49.7999 105.099 50.6999 104.899 51.7999C104.799 52.8999 105.099 53.9999 105.799 54.7999L128.199 82.5999C76.3992 90.7999 36.6992 135.8 36.6992 189.9V216C36.6992 249.6 63.9992 276.9 97.5992 276.9H202.299C235.899 276.9 263.199 249.6 263.199 216V189.9C263.299 135.9 223.799 91.0999 172.199 82.6999ZM181.499 37.2999L163.999 81.6999C162.099 81.4999 160.199 81.3999 158.199 81.3999L164.099 33.8999L181.499 37.2999ZM154.399 46.8999L150.199 80.4999H144.199L136.799 50.4999L154.399 46.8999ZM126.899 43.6999L135.699 78.9999L114.599 52.9999L126.899 43.6999ZM255.299 216C255.299 245.2 231.599 268.9 202.399 268.9H97.5992C68.3992 268.9 44.6992 245.2 44.6992 216V189.9C44.6992 134.4 89.7992 89.2999 145.299 89.2999H154.599C210.099 89.2999 255.199 134.4 255.199 189.9V216H255.299Z" fill="currentColor"/>
<path d="M129.1 96.4998C126.4 97.7998 103.1 110 100.6 122.9C100.2 125.1 101.6 127.2 103.7 127.6C104 127.7 104.2 127.7 104.5 127.7C106.4 127.7 108 126.4 108.4 124.5C109.7 117.5 124 108 132.7 103.6C134.7 102.6 135.5 100.2 134.5 98.1998C133.4 96.1998 131 95.4998 129.1 96.4998Z" fill="currentColor"/>
<path d="M147 98.3997C144.9 98.8997 143.5 101.1 144 103.2C145.3 108.7 148.3 125 146.1 133.5C145.6 135.6 146.8 137.8 149 138.4C149.3 138.5 149.7 138.5 150 138.5C151.8 138.5 153.4 137.3 153.9 135.5C157 123.3 152.1 102.3 151.8 101.4C151.3 99.1997 149.1 97.8997 147 98.3997Z" fill="currentColor"/>
<path d="M166.7 95.5997C164.9 94.2997 162.4 94.6997 161.1 96.3997C159.8 98.1997 160.2 100.7 161.9 102C162 102.1 171.6 109.2 181.4 119.3C194.1 132.3 201.4 144.4 202.7 154.2C203 156.2 204.7 157.7 206.7 157.7C206.9 157.7 207 157.7 207.2 157.7C209.4 157.4 210.9 155.4 210.7 153.2C207.2 125.7 168.3 96.8997 166.7 95.5997Z" fill="currentColor"/>
</g>
<defs>
<clipPath id="clip0">
<rect width="226.6" height="251.9" fill="white" transform="translate(36.6992 25)"/>
</clipPath>
</defs>
</svg>
