<svg width="300" height="301" viewBox="0 0 300 301" fill="none" xmlns="http://www.w3.org/2000/svg">
<rect width="300" height="300" transform="translate(0 0.5)" fill="white"/>
<path d="M127.623 103.867C88.3983 103.867 46.1855 93.1626 46.1855 69.6355C46.1855 48.8695 88.1524 37.6733 127.623 37.6733C167.093 37.6733 209.06 48.8695 209.06 69.6355C209.06 93.295 168.152 103.867 127.623 103.867ZM127.623 45.2383C84.124 45.2383 53.7505 58.0988 53.7505 69.6355C53.7505 84.8411 85.5046 96.3021 127.623 96.3021C170.422 96.3021 201.495 85.087 201.495 69.6166C201.495 58.0988 171.122 45.2383 127.623 45.2383Z" fill="currentColor"/>
<path d="M127.624 279.754C92.787 279.754 65.4585 266.95 65.2126 250.553L46.3001 70.033C46.2479 69.5363 46.2941 69.0341 46.436 68.5553C46.5779 68.0764 46.8128 67.6302 47.1271 67.242C47.4415 66.8539 47.8292 66.5315 48.2682 66.2932C48.7071 66.055 49.1887 65.9055 49.6854 65.8533C50.1822 65.8012 50.6843 65.8474 51.1632 65.9893C51.642 66.1312 52.0883 66.366 52.4764 66.6804C52.8645 66.9947 53.1869 67.3824 53.4252 67.8214C53.6635 68.2604 53.8129 68.7419 53.8651 69.2387L72.7776 249.929C72.7846 250.061 72.7846 250.194 72.7776 250.326C72.7776 260.671 95.3024 272.189 127.624 272.189C159.945 272.189 182.47 260.671 182.47 250.326C182.463 250.194 182.463 250.061 182.47 249.929L201.496 69.2387C201.601 68.2355 202.101 67.3152 202.885 66.6804C203.669 66.0455 204.673 65.748 205.676 65.8533C206.679 65.9587 207.599 66.4582 208.234 67.242C208.869 68.0259 209.166 69.0298 209.061 70.033L190.035 250.553C189.789 266.95 162.461 279.754 127.624 279.754Z" fill="currentColor"/>
<path d="M127.621 165.201C107.404 165.201 89.0965 162.572 76.1036 157.825C75.6367 157.653 75.2081 157.392 74.8423 157.055C74.4765 156.718 74.1806 156.312 73.9717 155.861C73.7627 155.409 73.6446 154.921 73.6243 154.424C73.6039 153.927 73.6816 153.431 73.853 152.964C74.1991 152.021 74.9056 151.254 75.8172 150.832C76.2685 150.623 76.7566 150.505 77.2535 150.485C77.7505 150.465 78.2466 150.542 78.7135 150.714C90.9121 155.177 108.274 157.636 127.64 157.636C164.538 157.636 192.378 148.879 192.378 137.286C192.378 134.298 188.368 130.704 181.654 127.678C181.201 127.475 180.792 127.184 180.452 126.822C180.111 126.461 179.844 126.035 179.668 125.571C179.311 124.633 179.342 123.591 179.754 122.676C180.165 121.761 180.923 121.046 181.861 120.69C182.799 120.333 183.841 120.364 184.756 120.775C197.295 126.449 199.886 132.879 199.886 137.286C199.924 157.882 160.964 165.201 127.621 165.201Z" fill="currentColor"/>
<path d="M169.381 123.366C169.069 123.366 168.757 123.328 168.454 123.252C166.412 122.742 164.275 122.269 162.1 121.834C161.612 121.738 161.147 121.547 160.733 121.272C160.319 120.997 159.963 120.643 159.685 120.23C159.408 119.818 159.214 119.354 159.116 118.867C159.017 118.38 159.016 117.877 159.112 117.389C159.207 116.901 159.398 116.437 159.673 116.023C159.948 115.608 160.302 115.252 160.715 114.975C161.128 114.697 161.591 114.504 162.079 114.405C162.566 114.307 163.068 114.306 163.556 114.401C165.863 114.855 168.133 115.366 170.308 115.895C171.204 116.12 171.987 116.664 172.509 117.426C173.031 118.188 173.256 119.115 173.142 120.031C173.028 120.948 172.583 121.791 171.89 122.402C171.197 123.012 170.305 123.349 169.381 123.347V123.366Z" fill="currentColor"/>
<path d="M99.9159 120.624C98.9127 120.694 97.9227 120.363 97.1637 119.703C96.4047 119.043 95.9389 118.109 95.8686 117.106C95.7984 116.103 96.1296 115.113 96.7893 114.354C97.449 113.595 98.3832 113.129 99.3864 113.059C108.742 111.758 118.178 111.126 127.623 111.167C132.748 111.167 137.854 111.357 142.753 111.716C143.756 111.789 144.689 112.257 145.347 113.018C146.005 113.778 146.334 114.769 146.261 115.773C146.188 116.776 145.72 117.709 144.959 118.367C144.198 119.025 143.207 119.354 142.204 119.281C137.419 118.94 132.483 118.751 127.547 118.751C118.461 118.736 109.385 119.368 100.389 120.643L99.9159 120.624Z" fill="currentColor"/>
</svg>
