<svg width="44" height="19" viewBox="0 0 44 19" fill="none" xmlns="http://www.w3.org/2000/svg">
<g clip-path="url(#clip0)">
<path d="M0.885466 15.1228L5.3612 15.1304V7.25118L11.4897 15.1128H17.7819L17.7235 12.9398L13.3562 7.44114L13.0938 9.02894L6.3548 0.392923L0.84375 0.390625L0.885466 15.1228Z" fill="#ED1C24"/>
<path d="M8.61328 2.14541L12.7439 7.56752L12.9919 6.149L19.9304 15.0745H25.1343V12.7392L21.2524 7.48404L21.0871 8.40164L14.6439 0.392929H8.61328V2.14541ZM16.7084 0.392929V2.06192L20.8042 6.90039L20.968 6.06627L27.7685 15.0745H33.1741V14.1079C34.415 15.0217 36.0919 15.6138 38.2907 15.6138C39.3701 15.6096 40.4432 15.4471 41.4763 15.1312C42.3751 14.8494 43.1958 14.4357 43.7616 13.8774L43.8465 13.7931V6.54576H38.0078V10.2047H39.681V10.5049C39.122 10.8182 38.582 10.9599 38.0882 10.9599C37.6514 10.9623 37.2221 10.8445 36.8466 10.619C36.472 10.3891 36.1606 10.0678 35.941 9.68459C35.6282 9.12883 35.4687 8.49853 35.4791 7.85935C35.4791 6.69282 35.8621 5.72083 36.5303 5.04451C37.1985 4.36818 38.1595 3.98291 39.3124 3.98291C39.9581 3.97094 40.6027 4.0438 41.2298 4.19967C41.9286 4.38182 42.577 4.72235 43.126 5.1954L43.5864 5.59139V1.22551L43.4574 1.14126C42.7283 0.669355 41.9145 0.346658 41.0622 0.191486C40.2514 0.0337015 39.4338 0 38.6229 0C36.4727 0 34.6114 0.608159 33.19 1.68048V0.398291L28.5125 0.382972L28.5322 7.63186L22.6867 0.392929H16.7084ZM33.1726 13.391L33.1885 2.40353C34.5538 1.23777 36.4211 0.565266 38.6229 0.565266C39.4072 0.565266 40.1937 0.59667 40.9575 0.745263C41.6896 0.879439 42.3913 1.14731 43.0281 1.53572V4.40877C42.523 4.06135 41.9624 3.80433 41.3709 3.64896C40.6976 3.47988 40.0053 3.40031 39.3116 3.41228C38.0056 3.41228 36.9096 3.86112 36.1359 4.64392C35.3623 5.42671 34.9224 6.53733 34.9224 7.86088C34.9123 8.60262 35.0996 9.33348 35.4647 9.97718C35.7311 10.4402 36.1081 10.8283 36.5614 11.1062C37.0216 11.3835 37.5478 11.5292 38.0837 11.5275C38.7155 11.5275 39.4004 11.336 40.1012 10.9147L40.2377 10.832V9.63634H38.5676V7.11409H43.2845V13.548C42.79 13.9992 42.0854 14.3423 41.3125 14.5859C40.3331 14.8859 39.3157 15.0407 38.2923 15.0454C36.0168 15.0454 34.3535 14.3837 33.1764 13.3925L33.1726 13.391Z" fill="#ED1C24"/>
<path d="M2.2985 17.9352H2.29243L1.19492 16.1452H0.84375V18.3611H1.13121V16.5711H1.13728L2.25223 18.3611H2.58596V16.1452H2.2985V17.9352ZM3.25493 17.2382C3.25949 17.2039 3.26685 17.1701 3.27693 17.1371C3.28818 17.1003 3.30619 17.066 3.33002 17.036C3.35917 17.0019 3.39615 16.9756 3.43772 16.9594C3.49625 16.9368 3.55863 16.9261 3.62127 16.928C3.72016 16.921 3.81882 16.9445 3.90418 16.9954C3.93477 17.0173 3.95932 17.0468 3.97551 17.0809C3.9917 17.1151 3.999 17.1529 3.99671 17.1907C3.99867 17.2317 3.99114 17.2726 3.97472 17.3102C3.96353 17.3343 3.94452 17.3537 3.92087 17.3653C3.90038 17.3751 3.87824 17.3808 3.85564 17.3822L3.41269 17.4381C3.33595 17.4465 3.26097 17.4669 3.19046 17.4986C3.13721 17.5235 3.08909 17.5583 3.04863 17.6013C3.01639 17.6373 2.99071 17.6788 2.97278 17.7238C2.95601 17.7627 2.94428 17.8037 2.93789 17.8456C2.9327 17.8785 2.93017 17.9118 2.9303 17.9452C2.92926 18.031 2.95156 18.1155 2.99477 18.1895C3.03727 18.2592 3.09822 18.3154 3.17074 18.3519C3.25165 18.3919 3.34079 18.4121 3.43089 18.4109C3.5007 18.4114 3.57028 18.4029 3.63796 18.3856C3.69353 18.3714 3.74706 18.35 3.79724 18.322C3.84012 18.2978 3.88052 18.2693 3.91783 18.237C3.94972 18.2093 3.97987 18.1796 4.00809 18.1481C4.00975 18.1787 4.01458 18.209 4.0225 18.2385C4.03081 18.2666 4.04475 18.2927 4.06346 18.3151C4.08632 18.3407 4.11531 18.36 4.14765 18.371C4.19388 18.3863 4.24236 18.3936 4.291 18.3925C4.31663 18.3922 4.34212 18.3886 4.36685 18.3818L4.43435 18.3618V18.1642L4.38809 18.1727C4.37394 18.1736 4.35975 18.1736 4.34561 18.1727C4.33394 18.1735 4.32222 18.172 4.31114 18.1682C4.30006 18.1643 4.28986 18.1583 4.28114 18.1504C4.27208 18.1401 4.26525 18.1279 4.26107 18.1147C4.2569 18.1015 4.25547 18.0876 4.25687 18.0738V17.1517C4.25805 17.0908 4.24615 17.0305 4.22198 16.9747C4.20187 16.9276 4.17215 16.8853 4.13476 16.8506C4.09775 16.8191 4.05635 16.7933 4.01188 16.774C3.96867 16.7547 3.92371 16.7396 3.87763 16.7289C3.83734 16.7199 3.79657 16.7132 3.75552 16.7089C3.72605 16.7057 3.69642 16.7042 3.66678 16.7043C3.55001 16.7015 3.43367 16.7197 3.32319 16.758C3.23123 16.7901 3.15162 16.8507 3.09565 16.9311C3.0365 17.0237 3.0054 17.1318 3.00615 17.242L3.25493 17.2382ZM3.9914 17.8027C3.99153 17.8567 3.97683 17.9098 3.94893 17.9559C3.9205 18.0032 3.88282 18.0441 3.83819 18.0761C3.78963 18.1099 3.73614 18.1357 3.67967 18.1527C3.62056 18.1717 3.55892 18.1816 3.49688 18.1818C3.45688 18.1847 3.41672 18.1794 3.37879 18.1663C3.34087 18.1531 3.30596 18.1324 3.27617 18.1053C3.25172 18.0772 3.23303 18.0446 3.22118 18.0092C3.20933 17.9739 3.20456 17.9365 3.20715 17.8992C3.20568 17.8549 3.21788 17.8113 3.24204 17.7744C3.26423 17.7421 3.29392 17.7158 3.3285 17.6978C3.36387 17.6795 3.40131 17.6656 3.44 17.6564C3.47602 17.6478 3.51248 17.6411 3.54922 17.6365C3.63189 17.6258 3.70091 17.6158 3.75324 17.6074C3.80558 17.599 3.84881 17.5898 3.87991 17.5821C3.90583 17.5768 3.93121 17.5691 3.95576 17.5591C3.97012 17.5527 3.98363 17.5445 3.99596 17.5346V17.8004L3.9914 17.8027ZM5.30204 16.9724V16.7472H5.04568V16.2969H4.77718V16.7472H4.56026V16.9724H4.77718V18.0371C4.77634 18.0826 4.78067 18.1281 4.79007 18.1727C4.79811 18.2125 4.81468 18.2502 4.83862 18.2829C4.8638 18.3172 4.89794 18.3438 4.93722 18.3595C4.98945 18.3787 5.04475 18.3877 5.10029 18.3864C5.1147 18.3864 5.13973 18.3864 5.17614 18.3795L5.30356 18.3649V18.152H5.20799C5.19183 18.1529 5.17562 18.1529 5.15945 18.152C5.14112 18.1504 5.12317 18.1457 5.10636 18.1382C5.0889 18.1301 5.07415 18.117 5.06388 18.1007C5.05079 18.0774 5.04473 18.0508 5.04644 18.0241V16.9747L5.30204 16.9724ZM5.84056 16.7472H5.5713V18.3611H5.84056V16.7472ZM5.84056 16.4539V16.1475H5.5713V16.4539H5.84056ZM6.15305 17.553C6.15297 17.6366 6.16264 17.7199 6.18187 17.8012C6.20023 17.8813 6.22905 17.9585 6.26758 18.031C6.30544 18.1026 6.35492 18.1673 6.41396 18.2224C6.47437 18.2794 6.54523 18.3239 6.62254 18.3534C6.79885 18.4186 6.99233 18.4186 7.16864 18.3534C7.24595 18.3239 7.3168 18.2794 7.37722 18.2224C7.43625 18.1673 7.48573 18.1026 7.5236 18.031C7.56239 17.9586 7.59146 17.8813 7.61007 17.8012C7.64747 17.6376 7.64747 17.4676 7.61007 17.3041C7.59145 17.2239 7.56238 17.1467 7.5236 17.0743C7.48573 17.0027 7.43625 16.9379 7.37722 16.8828C7.31672 16.8258 7.2459 16.781 7.16864 16.7511C6.99221 16.6866 6.79898 16.6866 6.62254 16.7511C6.54527 16.781 6.47445 16.8257 6.41396 16.8828C6.35492 16.9379 6.30544 17.0027 6.26758 17.0743C6.22906 17.1467 6.20024 17.224 6.18187 17.3041C6.16264 17.3854 6.15296 17.4687 6.15305 17.5522V17.553ZM6.43141 17.553C6.43148 17.5038 6.43528 17.4546 6.44278 17.4059C6.45124 17.3501 6.46495 17.2952 6.48374 17.242C6.50326 17.1871 6.53087 17.1355 6.56566 17.0888C6.60162 17.042 6.64748 17.0038 6.6999 16.977C6.76143 16.9486 6.8283 16.9338 6.89597 16.9338C6.96364 16.9338 7.03051 16.9486 7.09203 16.977C7.14446 17.0038 7.19032 17.042 7.22628 17.0888C7.26124 17.1353 7.28887 17.187 7.3082 17.242C7.327 17.2952 7.34071 17.3501 7.34916 17.4059C7.36408 17.5034 7.36408 17.6026 7.34916 17.7001C7.34072 17.7559 7.327 17.8108 7.3082 17.864C7.28877 17.919 7.26115 17.9706 7.22628 18.0172C7.19016 18.0639 7.14433 18.1021 7.09203 18.129C7.03051 18.1574 6.96364 18.1722 6.89597 18.1722C6.8283 18.1722 6.76143 18.1574 6.6999 18.129C6.64761 18.1021 6.60178 18.0639 6.56566 18.0172C6.53096 17.9705 6.50335 17.9189 6.48374 17.864C6.46495 17.8108 6.45124 17.7559 6.44278 17.7001C6.4353 17.6514 6.4315 17.6022 6.43141 17.553ZM9.24458 17.2627C9.24597 17.183 9.23444 17.1035 9.21044 17.0276C9.19093 16.9682 9.16 16.9133 9.11943 16.866C9.08248 16.8252 9.03854 16.7914 8.98973 16.7664C8.94172 16.7425 8.89067 16.7255 8.83804 16.7158C8.78804 16.7061 8.73725 16.7012 8.68634 16.7013C8.57027 16.7003 8.45697 16.7371 8.36323 16.8062C8.32733 16.8328 8.29428 16.8631 8.26463 16.8966C8.24231 16.9206 8.22178 16.9462 8.20319 16.9732H8.19713V16.7434H7.94304V18.3572H8.2123V17.4818C8.21117 17.406 8.22088 17.3304 8.24112 17.2574C8.25712 17.2021 8.28281 17.1502 8.31697 17.1042C8.34467 17.0646 8.37938 17.0306 8.41936 17.0038C8.45403 16.9817 8.4919 16.9652 8.53161 16.9548C8.63493 16.9282 8.74427 16.9402 8.83955 16.9885C8.89048 17.0212 8.92815 17.0712 8.94574 17.1294C8.96831 17.2054 8.97856 17.2845 8.97608 17.3638V18.3595H9.24533V17.2627H9.24458ZM9.88017 17.2382C9.88477 17.204 9.89213 17.1701 9.90217 17.1371C9.91365 17.1003 9.93192 17.066 9.95602 17.036C9.98517 17.0019 10.0222 16.9756 10.0637 16.9594C10.1227 16.9363 10.1856 16.9254 10.2488 16.9272C10.3477 16.9202 10.4463 16.9437 10.5317 16.9946C10.5623 17.0166 10.5868 17.046 10.603 17.0802C10.6192 17.1144 10.6265 17.1521 10.6242 17.1899C10.6262 17.231 10.6186 17.2719 10.6022 17.3094C10.591 17.3335 10.572 17.3529 10.5484 17.3646C10.5279 17.3743 10.5058 17.3801 10.4832 17.3814L10.0402 17.4373C9.96347 17.4457 9.88849 17.4661 9.81798 17.4979C9.76471 17.5227 9.71659 17.5575 9.67614 17.6005C9.6439 17.6365 9.61822 17.678 9.6003 17.723C9.58351 17.7619 9.57179 17.8029 9.56541 17.8448C9.56022 17.8778 9.55769 17.9111 9.55782 17.9444C9.55674 18.0303 9.57905 18.1148 9.62229 18.1887C9.66482 18.2584 9.72576 18.3146 9.79826 18.3511C9.87917 18.3912 9.96831 18.4114 10.0584 18.4101C10.1282 18.4106 10.1978 18.4021 10.2655 18.3848C10.3211 18.3706 10.3746 18.3492 10.4248 18.3212C10.4677 18.297 10.508 18.2685 10.5454 18.2362C10.5772 18.2085 10.6074 18.1789 10.6356 18.1474C10.6375 18.178 10.6426 18.2083 10.6508 18.2378C10.6591 18.2659 10.673 18.2919 10.6917 18.3144C10.7146 18.34 10.7436 18.3592 10.7759 18.3703C10.8222 18.3856 10.8706 18.3928 10.9193 18.3917C10.9449 18.3914 10.9704 18.3878 10.9951 18.381L11.0626 18.3611V18.1635L11.0164 18.1719C11.0022 18.1728 10.988 18.1728 10.9739 18.1719C10.9622 18.1727 10.9505 18.1712 10.9394 18.1674C10.9283 18.1636 10.9181 18.1576 10.9094 18.1497C10.9004 18.1393 10.8935 18.1271 10.8894 18.1139C10.8852 18.1008 10.8837 18.0868 10.8851 18.0731V17.1517C10.8863 17.0908 10.8744 17.0305 10.8503 16.9747C10.8293 16.9273 10.7985 16.885 10.76 16.8506C10.723 16.8191 10.6816 16.7933 10.6371 16.774C10.5939 16.7547 10.549 16.7396 10.5029 16.7289C10.4626 16.7199 10.4218 16.7132 10.3808 16.7089C10.3513 16.7057 10.3217 16.7042 10.292 16.7043C10.1753 16.7015 10.0589 16.7197 9.94844 16.758C9.85647 16.7901 9.77686 16.8507 9.72089 16.9311C9.66202 17.0238 9.63118 17.1319 9.63215 17.242L9.88017 17.2382ZM10.6166 17.8027C10.6168 17.8567 10.6021 17.9098 10.5742 17.9559C10.5457 18.0031 10.508 18.0441 10.4634 18.0761C10.4146 18.1099 10.3609 18.1358 10.3042 18.1527C10.245 18.1717 10.1834 18.1816 10.1214 18.1818C10.0814 18.1847 10.0412 18.1794 10.0033 18.1662C9.96538 18.153 9.93047 18.1323 9.90065 18.1053C9.87621 18.0772 9.85752 18.0446 9.84567 18.0092C9.83382 17.9739 9.82905 17.9365 9.83163 17.8992C9.83012 17.8549 9.84232 17.8113 9.86652 17.7744C9.88871 17.7421 9.9184 17.7158 9.95299 17.6978C9.98836 17.6795 10.0258 17.6656 10.0645 17.6564C10.1005 17.6478 10.137 17.6411 10.1737 17.6365C10.2564 17.6258 10.3254 17.6158 10.3777 17.6074C10.4301 17.599 10.4733 17.5898 10.5044 17.5821C10.5303 17.5768 10.5557 17.5691 10.5802 17.5591C10.5946 17.5527 10.6081 17.5444 10.6204 17.5346V17.8004L10.6166 17.8027ZM11.6163 16.1452H11.3471V18.3611H11.6163V16.1452ZM14.3574 17.9352H14.3514L13.2539 16.1452H12.9027V18.3611H13.1901V16.5711H13.1962L14.3112 18.3611H14.6449V16.1452H14.3574V17.9352ZM16.3712 18.3611V16.7472H16.1019V17.6357C16.1021 17.6848 16.0978 17.7338 16.089 17.782C16.0802 17.8319 16.0655 17.8805 16.045 17.9268C16.0251 17.9727 15.9976 18.0149 15.9639 18.0516C15.9287 18.0895 15.8861 18.1195 15.8387 18.1397C15.7829 18.1626 15.723 18.1741 15.6628 18.1734C15.6084 18.175 15.5543 18.1637 15.505 18.1405C15.4572 18.1164 15.4186 18.0771 15.395 18.0287C15.3652 17.9629 15.3512 17.891 15.3541 17.8188V16.7465H15.0848V17.9076C15.0841 17.9756 15.0948 18.0432 15.1167 18.1075C15.1348 18.1602 15.1632 18.2086 15.2001 18.25C15.2343 18.2878 15.2749 18.3191 15.3199 18.3427C15.3643 18.3656 15.4115 18.3823 15.4602 18.3925C15.5077 18.4024 15.5559 18.4072 15.6044 18.407C15.6792 18.4087 15.7538 18.3978 15.8251 18.3749C15.8852 18.3545 15.9405 18.3216 15.9874 18.2784C16.0366 18.2323 16.0788 18.1792 16.1125 18.1206L16.1186 18.1267V18.3611H16.3712ZM17.0803 17.4228C17.0801 17.3659 17.0898 17.3093 17.1092 17.2558C17.1276 17.2053 17.1554 17.1587 17.1911 17.1187C17.2275 17.0789 17.2716 17.0471 17.3208 17.0253C17.3744 17.002 17.4323 16.9903 17.4907 16.9908H17.5915V16.7097C17.5816 16.7067 17.5715 16.7044 17.5612 16.7028C17.5481 16.7019 17.5349 16.7019 17.5218 16.7028C17.4589 16.7026 17.3968 16.7162 17.3397 16.7426C17.284 16.7696 17.2338 16.8071 17.1918 16.8529C17.1457 16.9031 17.1057 16.9586 17.0728 17.0184H17.0667V16.7495H16.8134V18.3634H17.0826V17.4228H17.0803ZM18.9598 17.2068C18.9597 17.185 18.9579 17.1632 18.9545 17.1417C18.9493 17.107 18.9406 17.0728 18.9287 17.0398C18.9138 16.9986 18.8936 16.9595 18.8688 16.9234C18.839 16.8813 18.8026 16.8443 18.7611 16.8139C18.71 16.7773 18.653 16.7499 18.5927 16.7327C18.5132 16.7103 18.431 16.6995 18.3485 16.7005C18.2716 16.7003 18.1951 16.7106 18.121 16.7311C18.0514 16.7505 17.9859 16.7824 17.9276 16.8254C17.8708 16.8675 17.8248 16.9226 17.7933 16.9862C17.7586 17.0577 17.7412 17.1364 17.7425 17.216C17.7399 17.2796 17.7549 17.3427 17.7857 17.3983C17.8165 17.4538 17.8619 17.4997 17.9169 17.5308C17.9777 17.5662 18.0434 17.592 18.1119 17.6074L18.4236 17.684C18.4862 17.6989 18.5478 17.7181 18.6079 17.7414C18.6471 17.7555 18.6821 17.7795 18.7095 17.8111C18.732 17.841 18.7433 17.8779 18.7414 17.9153C18.742 17.9559 18.7315 17.996 18.7111 18.031C18.6903 18.0625 18.6625 18.0888 18.6299 18.1075C18.5936 18.1291 18.5542 18.1446 18.5131 18.1535C18.4675 18.1637 18.421 18.1686 18.3743 18.1681C18.2971 18.1707 18.22 18.1593 18.1467 18.1344C18.0982 18.1178 18.0548 18.0888 18.0208 18.0501C17.9945 18.0189 17.9751 17.9823 17.964 17.9429C17.9548 17.9086 17.9492 17.8734 17.9473 17.8379H17.6871C17.6889 17.8826 17.6937 17.9272 17.7015 17.9712C17.7106 18.0244 17.7272 18.076 17.7508 18.1244C17.7781 18.1779 17.816 18.2251 17.8623 18.263C17.9209 18.3106 17.9886 18.3455 18.061 18.3657C18.1632 18.3944 18.269 18.4078 18.375 18.4055C18.4601 18.4061 18.5447 18.3937 18.6261 18.3687C18.6991 18.3466 18.7673 18.3107 18.8271 18.263C18.883 18.2176 18.9283 18.1604 18.9598 18.0953C18.9922 18.0251 19.0086 17.9484 19.0076 17.8709C19.0095 17.8052 18.9949 17.7401 18.9651 17.6817C18.9312 17.6233 18.8818 17.5756 18.8225 17.5438C18.7393 17.4986 18.6502 17.4653 18.5578 17.445L18.2886 17.3768C18.2318 17.3636 18.1758 17.347 18.121 17.3271C18.0846 17.315 18.0521 17.2933 18.0269 17.2642C18.0059 17.2341 17.9957 17.1976 17.9981 17.1608C17.9973 17.1255 18.0059 17.0906 18.0231 17.0597C18.0387 17.0329 18.0603 17.0101 18.0861 16.9931C18.1114 16.9764 18.139 16.9635 18.168 16.9548C18.195 16.9463 18.2226 16.9402 18.2507 16.9364C18.272 16.9332 18.2936 16.9316 18.3151 16.9318C18.3835 16.9299 18.4517 16.9395 18.5169 16.9602C18.5599 16.9736 18.599 16.9975 18.6307 17.0299C18.654 17.0551 18.6711 17.0856 18.6807 17.1187C18.6889 17.1463 18.6932 17.1749 18.6936 17.2037L18.9598 17.2068ZM20.4078 17.8548C20.4039 17.8901 20.3928 17.9243 20.3751 17.9551C20.3537 17.9942 20.3261 18.0294 20.2932 18.0593C20.2555 18.0935 20.2121 18.1208 20.165 18.1397C20.1111 18.1618 20.0534 18.173 19.9951 18.1727C19.9051 18.1756 19.816 18.1539 19.7373 18.1098C19.669 18.0673 19.6159 18.004 19.5856 17.9291C19.5487 17.838 19.5311 17.7402 19.534 17.6419H20.7013C20.7025 17.5114 20.6883 17.3813 20.6588 17.2543C20.6346 17.1481 20.5911 17.0474 20.5306 16.9571C20.4761 16.8765 20.4023 16.8112 20.316 16.7671C20.2215 16.721 20.1175 16.6982 20.0126 16.7005C19.8946 16.6981 19.7776 16.7219 19.6698 16.7702C19.576 16.8137 19.494 16.8794 19.4308 16.9617C19.3663 17.0469 19.3186 17.1439 19.2905 17.2474C19.2596 17.3619 19.2442 17.4802 19.245 17.599C19.244 17.7086 19.2604 17.8178 19.2936 17.9222C19.3234 18.0159 19.3711 18.1028 19.4339 18.178C19.4962 18.2507 19.574 18.3083 19.6614 18.3465C19.7572 18.388 19.8606 18.4086 19.9648 18.407C20.0352 18.4078 20.1056 18.4019 20.1749 18.3894C20.2554 18.3753 20.3318 18.3434 20.3987 18.296C20.4464 18.2638 20.4895 18.2251 20.5268 18.1811C20.5869 18.1093 20.633 18.0266 20.6626 17.9375C20.6718 17.9109 20.6784 17.8835 20.6823 17.8556L20.4078 17.8548ZM19.531 17.4259C19.531 17.3639 19.5429 17.3025 19.5658 17.2451C19.5877 17.1887 19.6196 17.1368 19.6599 17.0919C19.6993 17.0473 19.747 17.0109 19.8002 16.9847C19.8544 16.9584 19.9138 16.9448 19.9739 16.9448C20.0445 16.9432 20.1145 16.9567 20.1795 16.9847C20.2322 17.0088 20.2783 17.0456 20.3137 17.0919C20.348 17.1379 20.3737 17.1898 20.3895 17.2451C20.4066 17.304 20.4167 17.3646 20.4199 17.4259H19.531ZM22.1864 17.2068C22.1863 17.185 22.1845 17.1632 22.1811 17.1417C22.1758 17.107 22.1672 17.0728 22.1553 17.0398C22.1404 16.9986 22.1202 16.9594 22.0954 16.9234C22.0655 16.8813 22.0291 16.8443 21.9876 16.8139C21.9365 16.7773 21.8796 16.7499 21.8193 16.7327C21.7398 16.7103 21.6575 16.6995 21.575 16.7005C21.4982 16.7003 21.4216 16.7106 21.3475 16.7311C21.2779 16.7505 21.2124 16.7824 21.1541 16.8254C21.0974 16.8675 21.0514 16.9226 21.0198 16.9862C20.9854 17.0577 20.9683 17.1365 20.9698 17.216C20.9672 17.2796 20.9822 17.3427 21.013 17.3983C21.0438 17.4538 21.0892 17.4997 21.1442 17.5308C21.205 17.5662 21.2707 17.592 21.3392 17.6074L21.6509 17.684C21.7135 17.6989 21.7751 17.7181 21.8352 17.7414C21.8744 17.7555 21.9094 17.7795 21.9368 17.8111C21.9593 17.841 21.9706 17.8779 21.9687 17.9153C21.9693 17.9559 21.9588 17.996 21.9383 18.031C21.9176 18.0625 21.8898 18.0888 21.8572 18.1075C21.8209 18.1291 21.7815 18.1446 21.7404 18.1535C21.6948 18.1637 21.6483 18.1686 21.6016 18.1681C21.5244 18.1707 21.4473 18.1593 21.374 18.1344C21.3255 18.1178 21.2821 18.0888 21.2481 18.0501C21.2218 18.0189 21.2023 17.9823 21.1913 17.9429C21.1821 17.9086 21.1765 17.8734 21.1746 17.8379H20.9152C20.917 17.8826 20.9218 17.9272 20.9296 17.9712C20.9387 18.0244 20.9553 18.076 20.9789 18.1244C21.0061 18.1779 21.0441 18.2251 21.0904 18.263C21.149 18.3106 21.2166 18.3455 21.2891 18.3657C21.3913 18.3943 21.4971 18.4078 21.6031 18.4055C21.6881 18.4061 21.7728 18.3937 21.8542 18.3687C21.9271 18.3466 21.9953 18.3107 22.0552 18.263C22.111 18.2176 22.1563 18.1603 22.1879 18.0953C22.2203 18.025 22.2366 17.9483 22.2357 17.8709C22.2376 17.8052 22.223 17.7401 22.1932 17.6817C22.1592 17.6233 22.1098 17.5756 22.0506 17.5438C21.9676 17.4986 21.8788 17.4654 21.7867 17.445L21.5174 17.3768C21.4606 17.3636 21.4046 17.347 21.3498 17.3271C21.3134 17.315 21.2809 17.2933 21.2557 17.2642C21.2346 17.2342 21.2244 17.1976 21.2269 17.1608C21.2261 17.1255 21.2347 17.0905 21.2519 17.0597C21.2675 17.0329 21.2891 17.0101 21.3149 16.9931C21.3402 16.9764 21.3678 16.9635 21.3968 16.9548C21.4238 16.9463 21.4514 16.9402 21.4795 16.9364C21.5008 16.9332 21.5224 16.9317 21.5439 16.9318C21.6123 16.9299 21.6805 16.9395 21.7457 16.9602C21.7887 16.9735 21.8278 16.9975 21.8595 17.0299C21.883 17.0551 21.9004 17.0855 21.9103 17.1187C21.9184 17.1463 21.9228 17.1749 21.9232 17.2037L22.1864 17.2068ZM24.885 17.9352H24.8789L23.7822 16.1452H23.4303V18.3611H23.7177V16.5711H23.7238L24.8395 18.3611H25.1725V16.1452H24.885V17.9352ZM26.8987 18.3611V16.7472H26.6318V17.6357C26.6319 17.6848 26.6276 17.7338 26.6189 17.782C26.6101 17.8319 26.5953 17.8805 26.5749 17.9268C26.5549 17.9727 26.5275 18.0149 26.4937 18.0516C26.4585 18.0895 26.4159 18.1195 26.3686 18.1397C26.3127 18.1626 26.2529 18.1741 26.1926 18.1734C26.1385 18.1749 26.0847 18.1636 26.0356 18.1405C25.9878 18.1164 25.9492 18.0771 25.9256 18.0287C25.8958 17.9629 25.8818 17.891 25.8847 17.8188V16.7465H25.6154V17.9076C25.6147 17.9756 25.6254 18.0432 25.6473 18.1075C25.6654 18.1602 25.6938 18.2086 25.7307 18.25C25.7649 18.2878 25.8055 18.3191 25.8505 18.3427C25.8949 18.3656 25.9421 18.3823 25.9909 18.3925C26.0383 18.4024 26.0866 18.4072 26.135 18.407C26.2098 18.4087 26.2844 18.3978 26.3557 18.3749C26.4159 18.3545 26.4711 18.3216 26.518 18.2784C26.5673 18.2323 26.6094 18.1792 26.6431 18.1206L26.6492 18.1267V18.3611H26.8987ZM27.8893 16.9724V16.7472H27.6329V16.2969H27.3637V16.7472H27.1468V16.9724H27.3637V18.0371C27.3628 18.0826 27.3672 18.1281 27.3766 18.1727C27.3846 18.2126 27.4012 18.2502 27.4251 18.2829C27.4503 18.3172 27.4845 18.3438 27.5237 18.3595C27.576 18.3787 27.6313 18.3877 27.6868 18.3864C27.7012 18.3864 27.7262 18.3864 27.7626 18.3795L27.8901 18.3649V18.152H27.7953C27.7791 18.1529 27.7629 18.1529 27.7467 18.152C27.7281 18.1505 27.7099 18.1458 27.6929 18.1382C27.6754 18.1301 27.6607 18.117 27.6504 18.1007C27.6373 18.0774 27.6312 18.0508 27.6329 18.0241V16.9747L27.8893 16.9724ZM28.4574 17.4228C28.4571 17.3659 28.4669 17.3093 28.4862 17.2558C28.5046 17.2053 28.5324 17.1587 28.5681 17.1187C28.6045 17.0788 28.6487 17.047 28.6978 17.0253C28.7515 17.002 28.8094 16.9903 28.8677 16.9908H28.9686V16.7097C28.9587 16.7067 28.9485 16.7044 28.9383 16.7028C28.9251 16.7019 28.912 16.7019 28.8988 16.7028C28.836 16.7026 28.7739 16.7162 28.7168 16.7426C28.661 16.7696 28.6108 16.807 28.5689 16.8529C28.5228 16.9031 28.4828 16.9586 28.4498 17.0184H28.4438V16.7495H28.1904V18.3634H28.4597V17.4228H28.4574ZM29.4897 16.7472H29.2204V18.3611H29.4897V16.7472ZM29.4897 16.4539V16.1475H29.2204V16.4539H29.4897ZM30.4802 16.9724V16.7472H30.2239V16.2969H29.9546V16.7472H29.7377V16.9724H29.9546V18.0371C29.954 18.0827 29.9586 18.1281 29.9683 18.1727C29.9763 18.2126 29.9929 18.2502 30.0168 18.2829C30.042 18.3172 30.0761 18.3438 30.1154 18.3595C30.1677 18.3787 30.223 18.3877 30.2785 18.3864C30.2929 18.3864 30.3179 18.3864 30.3543 18.3795L30.4818 18.3649V18.152H30.387C30.3708 18.1529 30.3546 18.1529 30.3384 18.152C30.3201 18.1504 30.3021 18.1457 30.2853 18.1382C30.2679 18.1301 30.2531 18.117 30.2428 18.1007C30.2298 18.0774 30.2237 18.0508 30.2254 18.0241V16.9747L30.4802 16.9724ZM31.018 16.7472H30.7487V18.3611H31.018V16.7472ZM31.018 16.4539V16.1475H30.7487V16.4539H31.018ZM31.3297 17.553C31.3297 17.6366 31.3393 17.7199 31.3586 17.8012C31.3772 17.8813 31.4062 17.9586 31.445 18.031C31.4829 18.1026 31.5324 18.1673 31.5914 18.2224C31.6518 18.2794 31.7227 18.3239 31.8 18.3534C31.9763 18.4186 32.1698 18.4186 32.3461 18.3534C32.4234 18.3239 32.4942 18.2794 32.5547 18.2224C32.6137 18.1673 32.6632 18.1026 32.701 18.031C32.7398 17.9586 32.7689 17.8813 32.7875 17.8012C32.8249 17.6376 32.8249 17.4676 32.7875 17.3041C32.7689 17.224 32.7398 17.1467 32.701 17.0743C32.6632 17.0027 32.6137 16.9379 32.5547 16.8828C32.4942 16.8258 32.4234 16.781 32.3461 16.7511C32.1697 16.6866 31.9764 16.6866 31.8 16.7511C31.7227 16.781 31.6519 16.8258 31.5914 16.8828C31.5324 16.9379 31.4829 17.0027 31.445 17.0743C31.4062 17.1467 31.3772 17.2239 31.3586 17.3041C31.3393 17.3854 31.3297 17.4687 31.3297 17.5522V17.553ZM31.6081 17.553C31.6082 17.5038 31.612 17.4546 31.6195 17.4059C31.6279 17.3501 31.6416 17.2952 31.6604 17.242C31.6799 17.1871 31.7075 17.1354 31.7423 17.0888C31.7783 17.042 31.8242 17.0038 31.8766 16.977C31.9381 16.9486 32.005 16.9338 32.0727 16.9338C32.1403 16.9338 32.2072 16.9486 32.2687 16.977C32.3211 17.0038 32.367 17.042 32.403 17.0888C32.4379 17.1353 32.4656 17.187 32.4849 17.242C32.5037 17.2952 32.5174 17.3501 32.5258 17.4059C32.5407 17.5034 32.5407 17.6026 32.5258 17.7001C32.5174 17.7559 32.5037 17.8108 32.4849 17.864C32.4655 17.919 32.4378 17.9706 32.403 18.0172C32.3668 18.0639 32.321 18.102 32.2687 18.129C32.2072 18.1574 32.1403 18.1722 32.0727 18.1722C32.005 18.1722 31.9381 18.1574 31.8766 18.129C31.8243 18.1021 31.7785 18.0639 31.7423 18.0172C31.7076 17.9705 31.68 17.9189 31.6604 17.864C31.6416 17.8108 31.6279 17.7559 31.6195 17.7001C31.612 17.6514 31.6082 17.6022 31.6081 17.553ZM34.422 17.2627C34.4234 17.183 34.4119 17.1035 34.3879 17.0276C34.3683 16.9682 34.3374 16.9133 34.2969 16.866C34.2599 16.8252 34.216 16.7914 34.1672 16.7664C34.1192 16.7425 34.0681 16.7255 34.0155 16.7158C33.9655 16.7061 33.9147 16.7012 33.8638 16.7013C33.7477 16.7003 33.6344 16.7371 33.5407 16.8062C33.5048 16.8328 33.4717 16.8631 33.4421 16.8966C33.4198 16.9206 33.3992 16.9462 33.3806 16.9732H33.3746V16.7434H33.1212V18.3572H33.3905V17.4818C33.3893 17.406 33.3991 17.3304 33.4193 17.2574C33.4353 17.2021 33.461 17.1502 33.4952 17.1042C33.5235 17.0662 33.5585 17.0338 33.5983 17.0084C33.633 16.9863 33.6709 16.9697 33.7106 16.9594C33.8139 16.9328 33.9232 16.9448 34.0185 16.9931C34.0694 17.0258 34.1071 17.0758 34.1247 17.134C34.1473 17.21 34.1576 17.2891 34.155 17.3684V18.3641H34.4243V17.2627H34.422ZM36.6588 17.432H37.3414C37.3423 17.5073 37.3357 17.5825 37.3217 17.6564C37.3074 17.7256 37.2818 17.7919 37.2458 17.8525C37.2061 17.9177 37.1547 17.9749 37.0941 18.021C37.0446 18.0609 36.9894 18.0929 36.9303 18.116C36.8801 18.135 36.8279 18.1481 36.7748 18.155C36.7318 18.1608 36.6885 18.1636 36.6451 18.1635C36.5416 18.1657 36.4386 18.148 36.3417 18.1114C36.2625 18.0809 36.191 18.033 36.1324 17.9712C36.0766 17.9113 36.0319 17.8418 36.0004 17.7659C35.9674 17.6864 35.9442 17.603 35.9314 17.5178C35.9176 17.4291 35.911 17.3394 35.9117 17.2497C35.9102 17.1198 35.9291 16.9906 35.9678 16.8667C35.9996 16.7639 36.0511 16.6684 36.1195 16.5856C36.1818 16.5118 36.2595 16.4527 36.347 16.4125C36.4346 16.3731 36.5295 16.353 36.6254 16.3535C36.6895 16.3533 36.7536 16.3594 36.8165 16.3719C36.8839 16.3849 36.9489 16.4084 37.0092 16.4416C37.0734 16.4767 37.1297 16.525 37.1745 16.5833C37.2265 16.6535 37.2635 16.7338 37.283 16.8192H37.5704C37.559 16.7259 37.5313 16.6354 37.4885 16.5519C37.4497 16.4754 37.3984 16.406 37.3368 16.3466C37.2749 16.2888 37.2052 16.24 37.1298 16.2019C37.054 16.1638 36.9741 16.135 36.8916 16.1161C36.7022 16.0728 36.5051 16.0794 36.319 16.1352C36.2255 16.1646 36.1372 16.2085 36.0573 16.2655C35.9816 16.3199 35.9141 16.3852 35.857 16.4592C35.8002 16.5326 35.7528 16.6129 35.716 16.6982C35.6791 16.7833 35.6514 16.8722 35.6333 16.9632C35.6152 17.053 35.606 17.1443 35.606 17.2359C35.606 17.2949 35.606 17.3623 35.6128 17.4358C35.6192 17.5153 35.6327 17.594 35.653 17.671C35.6763 17.7589 35.711 17.8434 35.7562 17.9222C35.8091 18.0141 35.875 18.0977 35.9519 18.1704C35.983 18.2015 36.0165 18.2301 36.052 18.2561C36.095 18.2879 36.1413 18.3148 36.19 18.3366C36.2498 18.3636 36.3124 18.3836 36.3766 18.3963C36.458 18.4127 36.5409 18.4207 36.6239 18.4201C36.7212 18.4201 36.8181 18.4056 36.9113 18.3772C36.9998 18.3503 37.0837 18.31 37.1601 18.2577C37.2328 18.2081 37.2965 18.1462 37.3482 18.0746L37.4187 18.3618H37.6114V17.1762H36.6588V17.432ZM38.3524 17.4228C38.3522 17.3659 38.3619 17.3093 38.3812 17.2558C38.3999 17.2052 38.4279 17.1587 38.4639 17.1187C38.5003 17.0788 38.5444 17.047 38.5936 17.0253C38.6473 17.002 38.7051 16.9903 38.7635 16.9908H38.8644V16.7097C38.8545 16.7067 38.8443 16.7044 38.834 16.7028C38.8209 16.7019 38.8077 16.7019 38.7946 16.7028C38.7318 16.7026 38.6697 16.7162 38.6126 16.7426C38.5567 16.7688 38.5063 16.8055 38.4639 16.8506C38.4178 16.9008 38.3778 16.9563 38.3448 17.0161H38.3388V16.7472H38.0847V18.3611H38.3539V17.4228H38.3524ZM38.9728 17.553C38.9728 17.6366 38.9824 17.7199 39.0017 17.8012C39.02 17.8813 39.0489 17.9585 39.0874 18.031C39.1252 18.1026 39.1747 18.1673 39.2338 18.2224C39.2942 18.2794 39.365 18.3239 39.4423 18.3534C39.6186 18.4186 39.8121 18.4186 39.9884 18.3534C40.0657 18.3239 40.1366 18.2794 40.197 18.2224C40.2561 18.1673 40.3055 18.1026 40.3434 18.031C40.3822 17.9586 40.4112 17.8813 40.4299 17.8012C40.4672 17.6376 40.4672 17.4676 40.4299 17.3041C40.4112 17.224 40.3822 17.1467 40.3434 17.0743C40.3055 17.0027 40.2561 16.9379 40.197 16.8828C40.1365 16.8258 40.0657 16.781 39.9884 16.7511C39.812 16.6866 39.6188 16.6866 39.4423 16.7511C39.3651 16.781 39.2943 16.8258 39.2338 16.8828C39.1747 16.9379 39.1252 17.0027 39.0874 17.0743C39.0489 17.1467 39.02 17.224 39.0017 17.3041C38.9824 17.3854 38.9728 17.4687 38.9728 17.5522V17.553ZM39.2512 17.553C39.2513 17.5038 39.2551 17.4546 39.2626 17.4059C39.271 17.3501 39.2847 17.2952 39.3035 17.242C39.3231 17.1871 39.3507 17.1355 39.3855 17.0888C39.4214 17.042 39.4673 17.0038 39.5197 16.977C39.5812 16.9486 39.6481 16.9338 39.7158 16.9338C39.7834 16.9338 39.8503 16.9486 39.9118 16.977C39.9642 17.0038 40.0101 17.042 40.0461 17.0888C40.081 17.1353 40.1087 17.187 40.128 17.242C40.1468 17.2952 40.1605 17.3501 40.169 17.4059C40.1839 17.5034 40.1839 17.6026 40.169 17.7001C40.1605 17.7559 40.1468 17.8108 40.128 17.864C40.1086 17.919 40.0809 17.9706 40.0461 18.0172C40.0099 18.0639 39.9641 18.102 39.9118 18.129C39.8503 18.1574 39.7834 18.1722 39.7158 18.1722C39.6481 18.1722 39.5812 18.1574 39.5197 18.129C39.4674 18.1021 39.4216 18.0639 39.3855 18.0172C39.3508 17.9705 39.3232 17.9189 39.3035 17.864C39.2847 17.8108 39.271 17.7559 39.2626 17.7001C39.2551 17.6514 39.2513 17.6022 39.2512 17.553ZM42.0591 18.3611V16.7472H41.7898V17.6357C41.79 17.6848 41.7856 17.7338 41.7769 17.782C41.7681 17.8319 41.7534 17.8805 41.7329 17.9268C41.713 17.9727 41.6855 18.0149 41.6518 18.0516C41.6166 18.0895 41.574 18.1195 41.5266 18.1397C41.4708 18.1626 41.4109 18.1741 41.3507 18.1734C41.2965 18.1749 41.2428 18.1636 41.1936 18.1405C41.1459 18.1164 41.1072 18.0771 41.0837 18.0287C41.0539 17.9629 41.0398 17.891 41.0427 17.8188V16.7465H40.7735V17.9076C40.7727 17.9756 40.7835 18.0432 40.8053 18.1075C40.8234 18.1602 40.8518 18.2086 40.8887 18.25C40.923 18.2878 40.9635 18.3192 41.0086 18.3427C41.0529 18.3656 41.1001 18.3823 41.1489 18.3925C41.1963 18.4024 41.2446 18.4072 41.293 18.407C41.3678 18.4087 41.4424 18.3978 41.5137 18.3749C41.5739 18.3545 41.6292 18.3216 41.676 18.2784C41.7253 18.2323 41.7675 18.1792 41.8012 18.1206L41.8073 18.1267V18.3611H42.0591ZM42.6977 17.6296C42.6973 17.5723 42.6999 17.5151 42.7053 17.458C42.7106 17.3964 42.7212 17.3354 42.7371 17.2757C42.7527 17.2172 42.777 17.1614 42.8092 17.1103C42.8407 17.0608 42.8836 17.0198 42.9343 16.9908C42.9941 16.959 43.061 16.9431 43.1285 16.9448C43.1994 16.9428 43.2698 16.9575 43.3341 16.9877C43.3852 17.0131 43.4293 17.0511 43.4622 17.098C43.4933 17.1436 43.5166 17.1941 43.5313 17.2474C43.546 17.2997 43.5556 17.3533 43.5601 17.4075C43.5639 17.4603 43.5662 17.5078 43.5654 17.5499C43.5661 17.6329 43.5575 17.7156 43.5396 17.7966C43.5257 17.8666 43.5 17.9337 43.4638 17.995C43.43 18.0511 43.3821 18.0972 43.3249 18.1285C43.2678 18.1599 43.2034 18.1754 43.1384 18.1734C43.1009 18.1735 43.0637 18.1684 43.0276 18.1581C42.9387 18.1341 42.8605 18.08 42.8062 18.0049C42.7721 17.9588 42.7464 17.9069 42.7303 17.8517C42.7101 17.7797 42.7004 17.7052 42.7015 17.6304L42.6977 17.6296ZM42.4413 18.9999H42.7114V18.1918H42.7174C42.7427 18.2325 42.7745 18.2688 42.8115 18.299C42.854 18.3327 42.902 18.3586 42.9533 18.3756C43.0143 18.3966 43.0785 18.407 43.1429 18.4063C43.225 18.4073 43.3066 18.3938 43.3841 18.3664C43.4513 18.3421 43.5135 18.3055 43.5677 18.2584C43.619 18.2128 43.6632 18.1596 43.6989 18.1007C43.7345 18.0408 43.7633 17.9771 43.7846 17.9107C43.806 17.844 43.8217 17.7756 43.8316 17.7062C43.8411 17.6397 43.8459 17.5727 43.846 17.5055C43.8471 17.3982 43.8322 17.2913 43.802 17.1884C43.7748 17.0958 43.7308 17.0091 43.6723 16.9326C43.6163 16.8605 43.5447 16.8024 43.463 16.7626C43.3747 16.7202 43.2779 16.699 43.1801 16.7005C43.1162 16.6998 43.0526 16.7099 42.992 16.7304C42.9432 16.7473 42.8974 16.7719 42.8562 16.8031C42.8223 16.8299 42.7913 16.8602 42.7637 16.8935C42.7394 16.9242 42.7189 16.9517 42.703 16.9755H42.6969V16.7457H42.4436V18.9983L42.4413 18.9999Z" fill="#231F20"/>
</g>
<defs>
<clipPath id="clip0">
<rect width="43" height="19" fill="white" transform="translate(0.84375)"/>
</clipPath>
</defs>
</svg>
