<svg width="301" height="300" viewBox="0 0 301 300" fill="none" xmlns="http://www.w3.org/2000/svg">
<rect width="300" height="300" transform="translate(0.703125)" fill="white"/>
<path d="M26.8984 109L34.1984 124.2C41.0984 138.6 53.2984 149.8 68.2984 155.4C92.4984 164.5 128.798 180.5 141.598 199.2C161.398 228.1 159.198 238.8 183.498 248.9C218.998 263.6 250.298 234.2 256.998 230.3" fill="white"/>
<path d="M203.699 256.4C196.799 256.4 189.499 255.2 182.099 252.1C164.099 244.6 159.499 236.4 151.899 222.8C148.699 217 144.599 209.8 138.599 201.1C129.299 187.5 103.799 172.5 66.9993 158.6C51.0993 152.6 38.2993 140.9 30.9993 125.7L23.6993 110.5C22.8993 108.8 23.5993 106.7 25.2993 105.8C26.9993 105 29.0993 105.7 29.9993 107.4L37.2993 122.6C43.7993 136.2 55.1993 146.7 69.3993 152C96.3993 162.1 131.399 178.2 144.299 197.1C150.499 206.1 154.599 213.4 157.899 219.3C165.299 232.4 168.999 239 184.699 245.5C213.499 257.4 239.499 238.3 250.599 230.2C252.499 228.8 253.999 227.7 254.999 227.1C256.699 226.1 258.799 226.7 259.799 228.4C260.799 230.1 260.199 232.2 258.499 233.2C257.699 233.6 256.299 234.7 254.699 235.9C246.399 242.2 226.999 256.4 203.699 256.4Z" fill="black"/>
<path d="M101.6 46.6002C101.6 46.6002 221.4 41.7002 267.1 142.4C310.8 238.7 221.5 241.9 201.4 237.4C181.3 232.9 152.1 228.3 136.8 188.6C121.5 148.9 71 135.3 53.4 128.1C42.4 123.6 32.6 117.4 26.9 109C23.5 104 21.5 98.2001 21.5 91.6001C21.6 74.0001 45.6 44.0002 101.6 46.6002Z" fill="white"/>
<path d="M215 242.2C208.9 242.2 203.9 241.7 200.7 240.9C199.7 240.7 198.7 240.5 197.7 240.2C177.1 235.7 148.8 229.5 133.5 189.9C120.7 156.6 81.3 142.1 60.2 134.4C57.1 133.2 54.3 132.2 52.1 131.3C39.1 126.1 29.6 119.2 24 111C20 105.1 18 98.6001 18 91.6001C18.1 82.7001 23.3 72.4001 32.1 64.1001C53.1 44.1001 84.6 42.4001 101.6 43.1001C104.3 43.0001 133.4 42.3001 168.3 53.4001C201.5 64.0001 246.2 87.8001 270.3 141C286 175.6 286.6 202.3 272 220.2C257.7 237.8 232.2 242.2 215 242.2ZM94.8 50.0001C62.1 50.0001 44.6 61.8001 36.8 69.1001C29.5 76.1001 25.1 84.5001 25 91.6001C25 97.1001 26.6 102.3 29.8 107C34.7 114.1 43 120.1 54.7 124.8C56.8 125.7 59.5 126.7 62.6 127.8C84.8 136 126 151.2 140 187.4C153.9 223.5 179 229 199.1 233.4C200.1 233.6 201.1 233.8 202.1 234.1C208.2 235.5 220.3 235.9 232.5 233.6C243 231.7 257.4 227 266.5 215.8C279.3 200.1 278.4 175.9 263.9 143.9C245.4 103.1 212.5 74.9001 166.1 60.1001C131.5 49.1001 102 50.1001 101.7 50.1001C101.6 50.1001 101.5 50.1001 101.4 50.1001C99.2 50.0001 97 50.0001 94.8 50.0001Z" fill="black"/>
<path d="M241.101 222.5C240.901 222.5 240.801 222.5 240.601 222.5C239.201 222.2 238.401 220.9 238.601 219.6C238.701 219.3 241.601 202.6 234.101 181C227.101 161.1 209.501 132.8 165.001 111.3C126.501 92.7 96.5008 88 78.0008 97.7C63.2008 105.5 60.9008 119.6 60.8008 120.2C60.6008 121.6 59.3008 122.5 58.0008 122.3C56.6008 122.1 55.7008 120.8 55.9008 119.5C56.0008 118.8 58.6008 102.4 75.6008 93.3C95.8008 82.6 126.601 87.1 167.201 106.7C192.701 119 225.901 141.6 239.001 179.5C246.901 202.3 243.701 219.6 243.601 220.4C243.301 221.6 242.301 222.5 241.101 222.5Z" fill="black"/>
</svg>
