<svg width="300" height="300" viewBox="0 0 300 300" fill="none" xmlns="http://www.w3.org/2000/svg">
<rect width="300" height="300" fill="white"/>
<path d="M232.199 46.8999V78.8999C232.199 79.7999 231.899 80.6999 231.299 81.4999C228.899 84.5999 223.899 82.8999 223.899 78.8999V46.8999C223.899 46.7999 223.899 46.7999 223.899 46.6999C223.699 44.2999 221.699 42.5999 219.299 42.6999H195.199C192.999 42.6999 191.099 41.0999 190.899 38.8999C190.699 36.4999 192.599 34.3999 194.999 34.3999H219.299C219.399 34.3999 219.399 34.3999 219.499 34.3999C226.399 34.3999 232.099 39.9999 232.199 46.8999Z" fill="black"/>
<path d="M227.8 147.1C230.2 147 232.2 148.8 232.2 151.2V270.1C232.1 276.9 226.6 282.3 219.8 282.2H46.4C39.6 282.2 34 276.7 34 269.8V46.9C34 40.1 39.6 34.5 46.4 34.5H71C73.2 34.5 75.1 36.1 75.3 38.2C75.5 40.7 73.6 42.7 71.2 42.7H46.4C44.1 42.7 42.3 44.6 42.3 46.8V269.7C42.3 272 44.1 273.8 46.4 273.8H219.8C222.1 273.8 223.9 272 223.9 269.7V151.2C223.9 149 225.6 147.2 227.8 147.1Z" fill="black"/>
<path d="M207.399 63.3998V109.5C207.399 110.4 207.099 111.3 206.499 112.1C204.099 115.2 199.099 113.5 199.099 109.5V67.4998H195.199C192.999 67.4998 191.099 65.8998 190.899 63.7998C190.699 61.2998 192.599 59.2998 194.999 59.2998H203.299C205.499 59.2998 207.399 61.0998 207.399 63.3998Z" fill="black"/>
<path d="M200.001 176.7C202.401 173.6 207.401 175.3 207.401 179.3V253.3C207.401 255.6 205.601 257.4 203.301 257.4H62.9008C60.6008 257.4 58.8008 255.6 58.8008 253.3V63.3998C58.8008 61.0998 60.6008 59.2998 62.9008 59.2998H71.0008C73.2008 59.2998 75.1008 60.8998 75.3008 62.9998C75.5008 65.4998 73.6008 67.4998 71.2008 67.4998H67.0008V249.1H199.101V179.2C199.101 178.3 199.401 177.4 200.001 176.7Z" fill="black"/>
<path d="M178.5 34.4998H153.3C151.5 24.7998 142.9 17.8998 133.1 17.9998H133C123.1 17.7998 114.5 24.7998 112.6 34.4998H87.6996C85.3996 34.4998 83.5996 36.3998 83.5996 38.5998V71.5998C83.5996 73.8998 85.3996 75.6998 87.6996 75.6998H178.5C180.8 75.6998 182.6 73.7998 182.6 71.5998V38.5998C182.6 36.3998 180.8 34.4998 178.5 34.4998ZM174.4 67.4998H91.7996V42.7998H116.3C118.6 42.7998 120.4 40.9998 120.4 38.6998C120.3 31.9998 125.7 26.3998 132.4 26.2998H133.2C139.8 26.2998 145.3 31.5998 145.4 38.1998V38.6998C145.4 40.9998 147.2 42.7998 149.5 42.7998H174.3V67.4998H174.4Z" fill="black"/>
<path d="M278.5 90.4999L252.5 70.0999C250.7 68.6999 248.1 68.9999 246.7 70.7999L232.2 89.2999L223.9 99.7999L207.4 120.8L199.1 131.3L144.7 200.6C144.7 200.6 144.6 200.7 144.6 200.8C144.5 200.9 144.4 201 144.3 201.1C144.2 201.2 144.1 201.3 144.1 201.4C144.1 201.4 144 201.5 144 201.6L135.2 226.2C134.4 228.3 135.5 230.7 137.7 231.5C138.9 231.9 140.3 231.8 141.4 231L163.2 216.6C163.2 216.6 163.3 216.5 163.3 216.4C163.4 216.3 163.5 216.2 163.6 216.1C163.7 216 163.8 215.9 163.9 215.8C163.9 215.8 164 215.7 164 215.6L199.3 170.7L207.6 160.2L224.1 139.2L232.4 128.7L263.6 88.9999L270.1 94.0999L239.5 133.1C238.1 134.9 238.4 137.5 240.2 138.9C242 140.3 244.6 140 246 138.2L279.2 95.9999C280.2 94.3999 280 91.9999 278.5 90.4999ZM232.2 116.1L223.9 126.6L207.4 147.6L199.1 158.1L158.1 210.3L147.2 217.5L151.6 205.2L199.1 144.7L207.4 134.2L223.9 113.2L232.2 102.7L250.7 79.1999L257.2 84.2999L232.2 116.1Z" fill="black"/>
</svg>
