<svg width="300" height="300" viewBox="0 0 300 300" fill="none" xmlns="http://www.w3.org/2000/svg">
<rect width="300" height="300" fill="white"/>
<path d="M260 114.469C260 84.9658 236.042 61 206.549 61H93.451C63.9579 61 40 84.9658 40 114.469V143.971C40 151.326 41.487 158.434 44.2959 164.962V179.094C44.2959 212.729 71.641 240.083 105.265 240.083H194.24C227.863 240.083 255.208 212.729 255.208 179.094V165.954C258.265 159.26 260 151.74 260 143.889V114.469ZM253.721 107.775C249.425 88.2715 234.39 72.6524 215.141 67.6113C235.216 71.2475 250.83 87.4451 253.721 107.775ZM223.905 147.112H98.7383C80.5633 147.112 69.3278 152.897 66.3537 163.557C58.2576 155.045 53.3008 143.476 53.3008 130.831V119.262C53.3008 92.982 74.6977 71.578 100.969 71.578H201.592C227.863 71.578 249.26 92.982 249.26 119.262V130.831C249.26 157.111 227.863 178.515 201.592 178.515H100.969C89.816 178.515 79.5719 174.631 71.4758 168.185C72.2193 158.103 81.472 152.897 98.8209 152.897H223.988C225.558 152.897 226.879 151.574 226.879 150.004C226.879 148.434 225.475 147.112 223.905 147.112ZM45.783 114.469C45.783 89.2632 65.445 68.603 90.1465 66.8675C65.8581 71.9086 47.5178 93.4778 47.5178 119.262V130.831C47.5178 147.029 54.7878 161.491 66.1885 171.325C66.4364 171.656 66.7668 171.904 67.0973 172.152C76.35 179.755 88.0811 184.3 100.969 184.3H201.592C227.946 184.3 249.921 165.045 254.217 139.922V143.971C254.217 170.251 232.82 191.655 206.549 191.655H93.451C84.1157 191.655 75.0282 188.928 67.2625 183.804C53.7965 174.962 45.783 160.086 45.783 143.971V114.469ZM249.425 179.011C249.425 209.423 224.641 234.215 194.24 234.215H105.265C74.8629 234.215 50.0789 209.423 50.0789 179.011V175.127C53.7965 180.333 58.5054 184.879 64.0406 188.515C72.7976 194.3 82.8765 197.275 93.3684 197.275H206.466C223.98 197.275 239.594 188.763 249.343 175.705V179.011H249.425Z" fill="black"/>
</svg>
