<svg width="301" height="301" viewBox="0 0 301 301" fill="none" xmlns="http://www.w3.org/2000/svg">
<rect width="300" height="300" transform="translate(0.320312 0.5)" fill="white"/>
<path d="M270.22 228C270.22 223.3 266.02 217.2 233.32 212.4C213.22 209.4 187.22 207.7 159.32 207.4C158.32 206.8 157.32 206.1 156.32 205.5C149.62 201.1 143.12 196.1 136.92 190.5C115.62 171.6 98.3203 146.8 85.3203 116.8C76.0203 95.3999 69.2203 71.7999 64.9203 46.5999C63.7203 39.4999 62.7203 32.5999 62.1203 25.8999C62.1203 25.5999 61.8203 25.3999 61.6203 25.4999C61.3203 25.4999 61.1203 25.7999 61.2203 25.9999C61.9203 32.6999 62.8203 39.6999 64.0203 46.7999C68.2203 71.9999 75.1203 95.6999 84.4203 117.2C97.4203 147.3 114.82 172.2 136.12 191.2C142.32 196.7 148.92 201.8 155.62 206.2C156.12 206.6 156.72 206.9 157.22 207.2C155.02 207.2 152.82 207.2 150.62 207.2C149.82 207.2 148.92 207.2 148.12 207.2C125.12 190.9 105.82 168.8 90.5203 141.1C65.0203 94.7999 57.9203 44.9999 56.0203 25.7999C55.9203 24.6999 54.9203 23.8999 53.8203 23.9999C52.7203 24.0999 51.9203 25.0999 52.0203 26.1999C53.9203 45.6999 61.1203 96.0999 87.1203 143.1C101.82 169.6 119.92 191.1 141.52 207.4C138.92 207.4 136.32 207.5 133.82 207.5C133.12 206.9 132.32 206.3 131.62 205.7C130.12 204.4 128.42 203 126.72 201.4C103.82 181 85.3203 154.4 71.5203 122.3C54.3203 82.4999 48.8203 44.8999 47.0203 25.9999C47.0203 25.6999 46.7203 25.4999 46.5203 25.4999C46.2203 25.4999 46.0203 25.7999 46.0203 25.9999C47.8203 44.9999 53.3203 82.6999 70.5203 122.7C84.4203 154.9 103.02 181.6 125.92 202.1C127.72 203.7 129.32 205.1 130.92 206.4C131.32 206.8 131.82 207.1 132.22 207.4C108.12 208 85.8203 209.6 68.2203 212.3C35.5203 217.2 31.3203 223.2 31.3203 228C31.3203 228.1 31.3203 228.2 31.3203 228.3V228.4C31.3203 255.5 53.4203 277.6 80.5203 277.6H220.92C248.02 277.6 270.12 255.5 270.12 228.4V228.3C270.22 228.2 270.22 228.1 270.22 228ZM263.12 228C261.72 229.8 253.92 232.9 238.02 235.8C236.82 234.6 235.22 233.7 233.42 233.5C211.02 230.5 190.42 224.2 171.82 214.6C234.32 216.1 260.32 224.5 263.12 228ZM169.52 214.5C188.62 224.6 210.02 231.4 233.22 234.5C234.52 234.7 235.72 235.2 236.72 236C232.82 236.7 228.32 237.3 223.42 237.9C199.62 233.7 178.12 225.8 158.92 214.3C162.62 214.3 166.12 214.4 169.52 214.5ZM150.72 214.3C150.92 214.3 151.12 214.3 151.32 214.3C168.92 225.8 188.62 234.2 210.32 239.3C205.72 239.7 200.92 240.1 195.62 240.4C176.32 234.4 158.62 225.6 142.72 214.3C145.42 214.3 148.02 214.3 150.72 214.3ZM141.12 214.3C156.82 225.6 174.12 234.4 193.02 240.6C180.82 241.3 166.72 241.7 150.72 241.7C72.9203 241.7 41.5203 231.8 38.4203 228C41.4203 224.3 70.4203 215.1 141.12 214.3ZM221.02 270.7H80.5203C60.0203 270.7 42.8203 256 39.1203 236.6C44.5203 239.1 53.4203 241.5 68.3203 243.7C90.4203 247 119.72 248.8 150.82 248.8C181.92 248.8 211.22 247 233.32 243.7C248.12 241.5 257.12 239.1 262.52 236.6C258.62 255.9 241.52 270.7 221.02 270.7Z" fill="black"/>
<path d="M187.461 110.143C187.841 109.657 188.563 109.659 188.942 110.151C192.327 114.551 196.567 120.616 199.955 126.879C203.364 133.18 205.828 139.532 205.828 144.552C205.828 155.296 198.453 163 188.214 163C178.247 163 170.6 155.152 170.6 144.552C170.6 139.521 173.014 133.184 176.393 126.896C179.752 120.644 183.986 114.582 187.461 110.143Z" stroke="black" stroke-width="2" stroke-linecap="round" stroke-linejoin="round"/>
<path d="M150.017 56.1427C150.398 55.6567 151.12 55.6588 151.498 56.1508C154.883 60.551 159.123 66.616 162.512 72.8793C165.921 79.1798 168.385 85.5324 168.385 90.5523C168.385 101.296 161.01 109 150.77 109C140.803 109 133.156 101.152 133.156 90.5523C133.156 85.5206 135.571 79.1835 138.949 72.8961C142.309 66.6437 146.542 60.5815 150.017 56.1427Z" stroke="black" stroke-width="2" stroke-linecap="round" stroke-linejoin="round"/>
</svg>
