<svg width="300" height="301" viewBox="0 0 300 301" fill="none" xmlns="http://www.w3.org/2000/svg">
<rect width="300" height="300" transform="translate(0 0.5)" fill="white"/>
<path d="M128.201 281.7C126.001 281.7 123.701 281.6 121.501 281.5C94.9006 279.6 71.1006 266.3 49.0006 240.9C45.2006 236.6 41.9006 232.2 39.1006 227.8C33.4006 222 29.2006 215.9 27.0006 209.8C14.0006 175 26.2006 148.2 50.0006 116.4C64.1006 97.7001 85.8006 84.9001 107.601 80.6001C137.501 59.4001 167.301 42.7001 167.801 42.5001L168.501 42.1001L169.201 43.4001L168.501 43.8001C168.001 44.1001 139.901 59.8001 111.001 80.0001C123.501 78.1001 135.801 79.1001 146.501 83.4001C151.101 85.3001 155.801 87.7001 160.601 90.7001C173.701 94.9001 187.301 101.2 199.801 110.4C213.401 120.4 222.101 136.9 225.501 159.6C225.601 160.5 225.801 161.3 225.901 162.2C226.001 162.7 226.101 163.2 226.301 163.7C254.201 110.4 277.801 53.9001 278.201 52.9001L278.501 52.2001L279.901 52.8001L279.601 53.5001C279.401 53.9001 260.901 98.3001 237.501 145.1C233.801 152.4 230.301 159.4 226.801 166C230.101 180.5 231.001 193.7 230.101 200.2C229.001 208.2 224.501 223 217.401 236.3C210.901 248.4 199.701 264 183.201 269.6C181.901 270 180.601 270.5 179.201 271C165.801 275.6 148.001 281.7 128.201 281.7ZM44.3006 232.7C46.1006 235.1 48.0006 237.5 50.1006 239.9C72.0006 265 95.4006 278.1 121.601 280C143.701 281.6 163.101 274.9 178.701 269.6C180.101 269.1 181.401 268.7 182.701 268.2C198.701 262.8 209.701 247.4 216.001 235.6C223.101 222.4 227.401 207.9 228.501 200C229.201 194.8 228.801 185.2 226.801 174.1C227.301 184.6 226.601 192.9 226.201 195.9C226.201 196.1 224.701 208.8 218.101 223.3C210.501 250.4 184.701 271 154.001 274.2C125.101 277.1 91.2006 266.6 71.8006 255.5C64.9006 251.5 58.5006 245.8 53.1006 239.6C50.0006 237.3 47.1006 235 44.3006 232.7ZM58.5006 243C62.8006 247.3 67.6006 251.2 72.7006 254.1C91.8006 265 125.401 275.5 154.001 272.6C168.901 271.1 183.401 265 194.901 255.5C202.501 249.3 208.401 241.9 212.501 233.8C206.201 243.7 197.201 253.3 184.301 259.3C151.801 274.4 127.901 271.4 107.001 266C104.101 265.3 101.001 264.1 97.7006 262.5C88.7006 260 83.0006 257 81.5006 256.2L80.8006 255.8C77.7006 254.1 73.9006 252 69.9006 249.2C65.8006 247.3 62.0006 245.2 58.5006 243ZM109.301 265.1C129.501 270.1 152.501 272.4 183.501 258C200.601 250.1 210.701 235.7 216.701 222.8C217.001 221.6 217.301 220.4 217.601 219.1C220.401 206.1 221.801 190.9 221.101 176.5C220.201 178.1 219.401 179.7 218.501 181.2C218.401 190 217.401 199.6 214.801 209.1C208.601 231.7 195.201 248 175.901 256.2C149.301 267.5 126.101 267.8 109.301 265.1ZM97.9006 261C114.301 265.6 142.101 268.9 175.401 254.8C199.201 244.7 209.301 224.2 213.501 208.7C215.801 200.4 216.801 191.9 217.101 184C195.201 223.5 177.401 247.5 163.901 255.6C146.401 266 120.901 267 93.0006 258.5C94.6006 259.4 96.2006 260.3 97.9006 261ZM87.4006 255.1H87.5006C116.801 265.4 145.001 265.1 163.001 254.3C178.301 245.1 198.201 215 217.001 180.7C217.001 172 216.101 164.1 214.701 158.1C211.101 142.4 196.601 122.4 179.001 106.7C165.201 99.0001 148.001 93.9001 128.101 94.5001C118.201 94.8001 109.401 95.8001 101.801 97.3001C89.7006 102 79.6006 106.8 71.5006 111.5C65.0006 117.6 59.5006 123.7 55.5006 129.5C52.0006 134.6 49.0006 139.6 46.4006 144.4C44.7006 151.1 43.4006 158.5 42.8006 166.8C41.2006 186.6 43.0006 201.9 46.6006 213.7C56.3006 228.5 71.8006 244.8 87.4006 255.1ZM80.6006 254.1C80.9006 254.2 81.1006 254.4 81.4006 254.5L82.1006 254.9C83.1006 255.4 85.9006 256.9 90.2006 258.5C89.1006 257.9 88.0006 257.2 86.9006 256.5C84.8006 255.8 82.7006 255 80.6006 254.1ZM70.4006 247.9C74.1006 249.7 77.9006 251.5 81.8006 253C70.0006 244.5 57.9006 232.7 48.5006 219.4C54.2006 233.8 62.7006 242.3 70.4006 247.9ZM54.0006 238.1C56.9006 240.1 60.0006 242.1 63.3006 244C56.3006 237.6 49.5006 228.4 45.2006 214.4C43.6006 211.9 42.1006 209.4 40.8006 206.8C37.3006 200.2 35.0006 193.3 33.8006 186.5C33.1006 197 34.6006 205.3 36.7006 210.5C39.4006 217.6 45.6006 228.4 54.0006 238.1ZM40.0006 226.5C42.7006 229.3 45.7006 232 49.1006 234.6C42.5006 226 37.6006 217.2 35.2006 211.2C32.7006 204.9 31.0006 194.1 32.9006 180.4C31.1006 160.1 38.0006 140.8 47.7006 128.4C49.3006 126.4 51.2006 124.4 53.3006 122.4C54.4006 120.4 55.5006 118.5 56.7006 116.6C49.2006 123.2 29.2006 147 26.9006 177.4C25.7006 194.4 30.1006 210.8 40.0006 226.5ZM104.501 82.8001C84.2006 87.6001 64.3006 99.8001 51.2006 117.3C27.6006 148.7 15.6006 175 28.4006 209.2C29.8006 212.9 32.0006 216.7 34.8006 220.4C27.5006 206.5 24.4006 192.1 25.5006 177.2C27.9006 145.7 49.0006 121.1 56.2006 115C57.1006 114.2 58.3006 113.3 59.8006 112.2C62.8006 108.3 66.2006 104.7 69.9006 101.4C80.3006 92.4001 91.5006 88.1001 100.101 86.0001C101.601 84.9001 103.101 83.9001 104.501 82.8001ZM222.501 174C223.401 187.6 222.401 201.9 220.101 214.6C223.901 204 224.801 195.8 224.801 195.6C225.201 192.2 226.101 181.8 225.001 169.1C224.201 170.8 223.401 172.4 222.501 174ZM34.4006 180.3C35.2006 188.9 37.6006 197.7 42.1006 206.2C42.6006 207.2 43.2006 208.2 43.7006 209.2C41.0006 198 39.9006 184.1 41.3006 166.8C41.8006 161 42.5006 155.5 43.6006 150.3C38.4006 161.2 35.7006 171.4 34.4006 180.3ZM185.801 110.8C187.501 112.5 189.201 114.2 190.801 116C204.301 130.5 213.601 145.7 216.301 157.8C217.501 163.3 218.401 170.3 218.601 178.1C219.401 176.6 220.201 175.1 221.001 173.6C219.901 158.3 216.301 144 209.401 133.9C203.801 125.8 195.901 117.6 185.801 110.8ZM51.2006 126.6C50.3006 127.5 49.6006 128.4 48.9006 129.3C40.5006 140.1 34.2006 156.2 34.1006 173.5C36.0006 164.5 39.4006 154.6 45.0006 143.9C46.6006 137.7 48.7006 131.9 51.2006 126.6ZM180.301 105.7C193.601 113.2 203.901 123.2 210.601 133C217.401 142.9 221.001 156.5 222.301 171.2C223.201 169.6 224.001 168 224.801 166.4C224.701 165.1 224.501 163.7 224.301 162.3C220.501 147.3 214.001 131.4 204.201 120.4C196.101 111.3 184.201 103.8 171.601 98.6001C174.601 100.7 177.501 103.1 180.301 105.7ZM167.201 95.1001C181.901 100.5 196.001 108.8 205.401 119.2C212.501 127.2 217.901 137.8 221.801 148.7C217.601 132 209.901 119.6 198.901 111.5C188.201 103.7 176.901 98.0001 165.601 93.9001C166.201 94.4001 166.701 94.8001 167.201 95.1001ZM54.3006 123.6C52.0006 127.9 50.0006 132.7 48.2006 138.1C50.0006 135 52.0006 131.9 54.2006 128.7C57.3006 124.2 61.3006 119.6 65.8006 114.9C61.2006 118 57.4006 120.9 54.3006 123.6ZM60.7006 113.5C59.3006 115.4 57.9006 117.4 56.6006 119.6C60.8006 116.2 65.7006 113 70.9006 110.1C72.8006 108.3 74.8006 106.5 76.9006 104.7C69.6006 107.7 64.3006 110.9 60.7006 113.5ZM96.8006 88.5001C86.9006 91.4001 74.3006 97.4001 63.8006 109.6C67.9006 107 73.4006 104.2 80.3006 101.6C85.5006 97.2001 91.1006 92.8001 96.8006 88.5001ZM81.1006 102.9C79.5006 104.3 77.9006 105.7 76.3006 107.1C82.0006 104.1 87.8006 101.5 93.3006 99.1001C88.8006 100.3 84.7006 101.6 81.1006 102.9ZM131.501 93.0001C147.701 93.0001 162.101 96.7001 174.201 102.5C171.601 100.3 168.901 98.3001 166.201 96.3001C148.401 89.8001 129.901 87.8001 118.601 91.4001C115.301 92.4001 112.201 93.5001 109.201 94.6001C115.001 93.8001 121.301 93.3001 128.201 93.0001C129.301 93.0001 130.401 93.0001 131.501 93.0001ZM100.701 87.4001C95.1006 91.6001 89.5006 95.8001 84.3006 100.2C89.4006 98.5001 95.2006 97.0001 101.701 95.8001C108.701 93.1001 114.601 91.1001 118.201 90.0001C128.701 86.6001 145.201 88.1001 161.801 93.3001C161.201 92.9001 160.501 92.5001 159.901 92.1001C140.901 86.1001 122.801 84.7001 109.801 86.0001C107.501 86.1001 104.401 86.6001 100.701 87.4001ZM118.901 84.0001C129.201 84.0001 141.501 85.4001 154.401 88.9001C151.501 87.3001 148.601 85.9001 145.801 84.8001C134.501 80.2001 121.301 79.5001 108.101 82.0001C106.601 83.1001 105.101 84.2001 103.601 85.3001C105.901 84.9001 107.901 84.6001 109.601 84.5001C112.501 84.2001 115.601 84.0001 118.901 84.0001Z" fill="black"/>
<path d="M202.4 27.3L203.7 26.4C203.7 26.4 205 19.8 196.7 17L176.5 31L174.3 32.6L173.7 33L172.5 33.9L171 35L166.1 41.1L170.6 47.5L177 45L178.8 43.7L180 42.8L180.5 42.5L182.8 40.9L192.9 33.9" fill="white"/>
<path d="M170.4 47.9999L165.4 40.8999L170.6 34.4999L196.6 16.3999L196.8 16.4999C205.4 19.3999 204.1 26.3999 204.1 26.4999V26.6999L202.6 27.6999L202 26.8999L203.1 26.0999C203.2 24.9999 203.5 19.9999 196.7 17.5999L171.2 35.3999L166.6 41.0999L170.7 46.8999L176.7 44.5999L192.6 33.4999L193.2 34.2999L177.1 45.4999L170.4 47.9999Z" fill="black"/>
<path d="M181.501 44.6C181.001 44.9 180.301 45.2 179.301 45C179.001 44.9 178.501 44.6 178.101 44.5L178.801 43.7L180.001 42.8C180.101 42.8 180.201 42.8 180.301 42.7C180.401 42.6 180.501 42.5 180.501 42.4C180.601 42.2 180.701 41.9 180.701 41.5C180.701 40.1 180.101 38.2 178.901 36.5C177.801 34.7 176.301 33.3 175.001 32.7C174.701 32.6 174.401 32.5 174.201 32.5C174.101 32.5 173.901 32.5 173.801 32.6C173.701 32.7 173.601 32.8 173.601 32.9L172.401 33.8L171.301 34.4C171.301 33 171.801 31.3 172.701 30.7C173.301 30.3 174.301 30 175.901 30.6C176.101 30.7 176.301 30.8 176.501 30.9C178.001 31.7 179.501 33.3 180.801 35.2C182.001 37 182.701 39 182.901 40.7C182.901 41 182.901 41.2 182.901 41.5C182.901 43 182.401 44 181.501 44.6Z" fill="black"/>
<path d="M191.9 31.4C191.3 31.4 190.6 31.1 190.2 30.5C189.6 29.6 189.8 28.3 190.7 27.7L199.9 21.5C200.8 20.9 202.1 21.1 202.7 22C203.3 22.9 203.1 24.2 202.2 24.8L193 31C192.6 31.3 192.2 31.4 191.9 31.4Z" fill="black"/>
<path d="M202.5 29.8L195.2 34.8C194.9 35 194.5 35.1 194.1 35C193.7 34.9 193.4 34.7 193.2 34.4C193.1 34.2 193 34.1 193 33.9L202.4 27.3C202.6 27.4 202.8 27.6 202.9 27.8C203.3 28.4 203.2 29.3 202.5 29.8Z" fill="black"/>
<path d="M186.4 25.6C185.8 25.6 185.1 25.3 184.7 24.7C184.1 23.8 184.3 22.5 185.2 21.9L193.5 16.3C194.4 15.7 195.7 15.9 196.3 16.8C196.9 17.7 196.7 19 195.8 19.6L187.5 25.2C187.2 25.5 186.8 25.6 186.4 25.6Z" fill="black"/>
<path d="M176.501 45C175.601 38.9 170.201 36.1 170.201 36.1L170.601 35.2C170.801 35.3 176.501 38.2 177.501 44.9L176.501 45Z" fill="black"/>
<path d="M174.401 45.8C174.001 41.2 168.701 37.9 168.701 37.9L169.201 37C169.401 37.1 175.001 40.6 175.401 45.7L174.401 45.8Z" fill="black"/>
<path d="M172.2 46.6999C171 41.9999 167.2 39.7999 167.1 39.7999L167.6 38.8999C167.8 38.9999 171.9 41.2999 173.2 46.4999L172.2 46.6999Z" fill="black"/>
<path d="M128.4 284.5C123.4 284.5 118.3 284.1 113.1 283.3C89.2998 279.4 66.9998 265.7 46.8998 242.7C43.0998 238.3 39.6998 233.8 36.7998 229.3C30.8998 223.2 26.6998 216.9 24.3998 210.7C10.9998 174.8 23.9998 146.4 47.7998 114.7C61.3998 96.7 82.9998 83 105.7 78.2C107.6 76.9 109.6 75.5 111.6 74.2C113.3 73 115 71.9 116.7 70.8C117.7 70.2 118.6 69.6 119.6 68.9L120.1 69.7C119.2 70.3 118.2 70.9 117.2 71.5C115.5 72.6 113.8 73.7 112.1 74.9C110.1 76.3 108.1 77.6 106.2 79L106 79.2C83.4998 83.9 61.9998 97.4 48.5998 115.3C24.9998 146.7 12.0998 174.9 25.2998 210.4C27.5998 216.5 31.6998 222.6 37.5998 228.7C40.4998 233.2 43.8998 237.7 47.6998 242C67.5998 264.8 89.6998 278.4 113.3 282.2C139.5 286.5 162.8 278.4 179.9 272.6L180.1 272.5C181.4 272.1 182.6 271.6 183.8 271.2C200.8 265.4 212.3 249.4 218.9 237C226.1 223.5 230.7 208.5 231.8 200.3C232.9 192.6 231.7 179.3 228.8 166.4V166.2L228.9 166C255.4 115.4 277.4 63.2 279.8 57.4L280.4 55.8C280.7 55.2 280.7 54.5 280.4 53.9C280.1 53.3 279.7 52.8 279 52.5C278.4 52.2 277.7 52.2 277.1 52.5C276.5 52.8 276 53.2 275.7 53.9L275.1 55.5C274.9 56 253.6 107 227.8 157.1L227.1 158.4L226.8 156.9C223.1 134.9 214.3 118.8 200.8 108.9C189.1 100.4 175.9 93.7 161.4 89.1L161.3 89C156.4 86 151.7 83.6 147.1 81.7C138.8 78.3 129.4 76.9 119.3 77.4L117.5 77.5L119 76.5C120.3 75.6 121.6 74.8 122.9 74L123.4 74.8C122.6 75.3 121.8 75.8 121 76.4C130.6 76.1 139.5 77.7 147.5 80.9C152.1 82.8 156.9 85.2 161.8 88.2C176.3 92.9 189.7 99.6 201.4 108.2C214.9 118 223.7 133.9 227.6 155.4C253.1 105.7 274 55.7 274.2 55.2L274.8 53.6C275.5 51.8 277.6 51 279.4 51.7C281.2 52.4 282 54.5 281.3 56.3L280.7 57.9C278.3 63.7 256.4 115.9 229.9 166.5C232.8 179.6 233.9 192.7 232.9 200.6C231.8 208.9 227.2 224 219.9 237.6C213.2 250.2 201.5 266.4 184.2 272.2C183 272.6 181.8 273 180.5 273.5L180.3 273.6C166.4 278.3 148.6 284.5 128.4 284.5ZM128.3 278.5C108.4 278.5 90.2998 272.1 73.1998 259.2L73.6998 258.4C89.0998 266.6 116.6 276.2 143.6 276.3L143.7 277.3C138.5 278.1 133.4 278.5 128.3 278.5ZM78.9998 262.2C96.8998 274.2 116 279.1 137.1 277.2C115.2 275.9 93.5998 269 78.9998 262.2ZM165.6 263L165.3 262C169.1 260.8 172.9 259.3 176.7 257.7C196.5 249.3 210.3 232.6 216.6 209.5L216.8 208.7L217.8 208.9C217.3 212.1 216.7 215.4 216 218.7C215.8 219.6 215.6 220.4 215.4 221.3C207.8 238.1 196.9 249.9 182.9 256.3C177 259.1 171.2 261.3 165.6 263ZM215.4 216.8C210.8 229.7 203.6 240.3 194.2 248.2C202.4 241.6 209.2 232.5 214.4 221C214.6 220.2 214.8 219.4 215 218.5C215.1 218 215.2 217.4 215.4 216.8ZM128.5 260.9C116.2 260.9 102.5 258.5 88.6998 253.7L88.5998 253.6C73.2998 243.6 58.1998 228.5 48.3998 213.3L48.2998 213.2C44.3998 200.5 43.1998 184.9 44.5998 167C45.1998 159.2 46.3998 151.9 48.0998 145.1V145C50.6998 140.2 53.5998 135.3 56.8998 130.6C60.6998 125.2 65.6998 119.4 71.7998 113.4L71.8998 113.3C80.3998 108.4 90.9998 103.4 102.6 99C110.7 97.5 119.3 96.6 128.4 96.3C146.4 95.8 163.2 99.8 178.3 108.3L178.4 108.4C196.5 124.7 209.8 143.9 213.2 158.6C214.7 165 215.5 172.8 215.4 180.6V180.7L215.3 180.8C193.3 220.8 175.4 245 162.2 252.9C153.2 258.2 141.6 260.9 128.5 260.9ZM89.0998 252.7C117.4 262.5 144.5 262.2 161.7 251.9C174.8 244.1 192.5 220 214.4 180.3C214.4 172.6 213.6 165 212.2 158.6C208.9 144.1 195.7 125.1 177.8 109C162.8 100.6 146.2 96.6 128.4 97.2C119.4 97.5 110.9 98.4 102.9 99.8C91.4998 104.2 80.9998 109.1 72.4998 114C66.4998 119.9 61.4998 125.7 57.7998 131C54.4998 135.7 51.5998 140.5 49.0998 145.3C47.3998 152 46.1998 159.2 45.5998 166.9C44.1998 184.7 45.3998 200 49.2998 212.7C58.9998 227.9 73.8998 242.8 89.0998 252.7ZM165.7 256.7L168.4 254.6C180.5 245.5 195.7 225.1 213.6 194L214.8 191.9L214.5 194.4C213.9 199.2 213 203.9 211.8 208.3C207.7 223.4 197.9 243.4 174.7 253.2C172.8 254 170.8 254.8 168.9 255.5L165.7 256.7ZM213.1 196.7C196.9 224.6 182.9 243.6 171.4 253.4C172.4 253 173.3 252.6 174.2 252.2C197 242.5 206.6 222.8 210.7 207.9C211.8 204.4 212.6 200.6 213.1 196.7ZM46.8998 226C43.1998 220.5 40.0998 214.7 38.1998 210C37.5998 208.5 37.0998 206.8 36.6998 204.9L35.5998 200.3L37.5998 204.6C38.0998 205.7 38.5998 206.7 39.1998 207.8C40.5998 210.4 42.1998 213.1 43.7998 215.7L43.8998 215.8C44.9998 219.2 46.2998 222.5 47.7998 225.5L46.8998 226ZM39.3998 210.1C40.5998 213.1 42.2998 216.4 44.2998 219.9C43.7998 218.7 43.3998 217.4 42.9998 216.1C41.6998 214.1 40.4998 212.1 39.3998 210.1ZM29.3998 194.3C28.4998 188.8 28.2998 183.1 28.7998 177.5C28.9998 174.2 29.4998 170.9 30.1998 167.6L31.1998 167.7C30.8998 171.8 30.8998 175.9 31.1998 180V180.1V180.2C30.4998 185.1 30.2998 189.8 30.3998 194.3H29.3998ZM29.8998 175.6C29.7998 176.3 29.7998 176.9 29.6998 177.6C29.4998 180.2 29.3998 182.9 29.4998 185.5C29.5998 183.7 29.7998 181.9 30.0998 180C29.9998 178.5 29.8998 177.1 29.8998 175.6ZM38.4998 192.5C37.3998 188.5 36.5998 184.4 36.1998 180.3V180.2V180.1C36.6998 176.6 37.3998 173 38.3998 169.4L39.3998 169.6C38.8998 177.6 38.8998 185.3 39.4998 192.3L38.4998 192.5ZM37.1998 180.3C37.3998 182.5 37.6998 184.6 38.0998 186.8C37.8998 183 37.8998 179.1 38.0998 175.1C37.6998 176.8 37.3998 178.6 37.1998 180.3ZM73.5998 102.4L76.9998 100C77.6998 99.5 78.2998 99.1 78.9998 98.6L79.5998 99.4L78.1998 100.6L73.5998 102.4ZM91.3998 96.3L93.2998 94.9C95.5998 93.1 98.0998 91.2 100.6 89.4L100.8 89.3C103.9 88.5 107 88 110 87.7C112.4 87.5 115 87.3 117.7 87.3H121L117.8 88.3L117.6 88V88.2C113.9 89.4 108.1 91.3 101.2 94C98.4998 94.5 95.9998 95.1 93.5998 95.6L91.3998 96.3ZM101.1 90.2C99.2998 91.6 97.4998 92.9 95.6998 94.2C97.3998 93.8 99.1998 93.4 101 93.1C106.1 91.1 110.7 89.5 114.2 88.4C112.8 88.5 111.4 88.6 110.1 88.7C107.1 88.9 104.1 89.4 101.1 90.2Z" fill="black"/>
<path d="M124.8 76.6997C124.7 76.6997 124.6 76.6997 124.5 76.6997C124.2 76.5997 124 76.3997 123.8 76.0997C123.1 74.7997 120.7 70.5997 118.5 68.9997C118.2 68.7997 118 68.3997 118 67.9997C118 67.5997 118.2 67.2997 118.5 66.9997L156.2 39.9997C156.5 39.5997 158.3 37.3997 160.4 37.0997C160.7 36.1997 161.6 34.8997 163.4 34.6997C163.6 34.6997 163.8 34.7997 163.9 34.8997C164.2 35.2997 171.3 45.0997 172.9 47.7997C173 47.8997 173 47.9997 173 48.0997C173 48.0997 172.8 49.2997 171.9 49.8997C171.4 50.1997 170.8 50.2997 170 50.1997C169.6 50.9997 168.6 52.7997 166.2 53.2997L125.4 76.5997C125.2 76.6997 125 76.6997 124.8 76.6997ZM163.3 35.7997C161.7 36.0997 161.4 37.5997 161.3 37.6997C161.3 37.8997 161.1 38.0997 160.8 38.0997C159.2 38.0997 157.5 39.9997 157 40.6997L156.9 40.7997L119.1 67.7997C119 67.8997 119 67.9997 119 67.9997C119 67.9997 119 68.0997 119.1 68.1997C121.4 69.8997 123.8 73.9997 124.7 75.6997L124.8 75.7997H124.9L165.8 52.4997C165.8 52.4997 165.9 52.4997 166 52.3997C168.6 51.8997 169.3 49.6997 169.3 49.5997C169.3 49.4997 169.4 49.3997 169.5 49.2997C169.6 49.1997 169.8 49.1997 169.9 49.2997C170.5 49.4997 171 49.4997 171.4 49.1997C171.8 48.8997 172 48.4997 172.1 48.1997C170.4 45.4997 164.4 37.2997 163.3 35.7997Z" fill="black"/>
<path d="M168.2 48.8997C168.1 48.8997 167.9 48.8997 167.8 48.7997C165.1 46.0997 161.1 39.3997 160.9 39.0997C160.8 38.8997 160.8 38.5997 161.1 38.3997C161.3 38.2997 161.6 38.2997 161.8 38.5997C161.8 38.6997 165.9 45.3997 168.6 48.0997C168.8 48.2997 168.8 48.5997 168.6 48.7997C168.5 48.7997 168.4 48.8997 168.2 48.8997Z" fill="black"/>
<path d="M165.101 52.7998C165.001 52.7998 164.901 52.7998 164.801 52.6998C160.501 48.7998 157.501 42.2998 157.301 42.0998C157.201 41.8998 157.301 41.5998 157.501 41.3998C157.701 41.2998 158.001 41.3998 158.201 41.5998C158.201 41.6998 161.301 48.0998 165.401 51.8998C165.601 52.0998 165.601 52.3998 165.401 52.5998C165.301 52.6998 165.201 52.7998 165.101 52.7998Z" fill="black"/>
<path d="M151.699 21.1999C151.699 21.1999 135.799 14.4999 123.799 18.3999C123.799 18.3999 122.599 19.8999 124.799 20.4999C126.999 21.0999 129.299 22.3999 129.299 22.3999L129.999 22.5999L145.599 26.2999C145.599 26.2999 151.099 27.3999 151.699 21.1999ZM146.099 23.0999C145.799 22.8999 145.499 22.6999 145.199 22.5999C145.899 20.0999 149.199 21.7999 149.199 21.7999C147.199 26.7999 146.099 23.0999 146.099 23.0999Z" fill="white"/>
<path d="M146.599 26.8998C145.999 26.8998 145.599 26.7998 145.599 26.7998L129.099 22.9998H128.999C128.999 22.9998 126.699 21.6998 124.599 21.1998C123.699 20.9998 123.199 20.4998 122.999 19.9998C122.699 19.1998 123.299 18.3998 123.399 18.2998C123.499 18.1998 123.499 18.1998 123.599 18.0998C135.699 14.1998 151.199 20.5998 151.899 20.8998C152.099 20.9998 152.199 21.1998 152.199 21.3998C151.999 23.4998 151.299 24.9998 149.999 25.8998C148.799 26.6998 147.499 26.8998 146.599 26.8998ZM129.399 21.9998L145.699 25.7998C145.699 25.7998 147.799 26.1998 149.399 24.9998C150.399 24.2998 150.899 23.0998 151.099 21.4998C148.699 20.5998 134.699 15.4998 123.999 18.7998C123.899 18.9998 123.799 19.1998 123.899 19.4998C123.999 19.6998 124.299 19.8998 124.799 20.0998C126.899 20.6998 128.999 21.7998 129.399 21.9998ZM147.299 24.8998C147.199 24.8998 147.199 24.8998 147.299 24.8998C146.399 24.8998 145.899 23.7998 145.799 23.3998C145.599 23.2998 145.299 23.0998 145.099 22.9998C144.899 22.8998 144.799 22.5998 144.899 22.3998C145.099 21.6998 145.499 21.1998 146.199 20.8998C147.599 20.2998 149.499 21.2998 149.599 21.2998C149.799 21.3998 149.899 21.6998 149.799 21.8998C148.899 23.9998 148.099 24.8998 147.299 24.8998ZM145.899 22.3998C146.099 22.4998 146.199 22.5998 146.399 22.6998C146.499 22.7998 146.599 22.8998 146.599 22.9998C146.699 23.3998 146.999 23.8998 147.199 23.9998C147.199 23.9998 147.699 23.9998 148.499 22.0998C147.899 21.8998 146.999 21.5998 146.399 21.8998C146.199 21.9998 145.999 22.0998 145.899 22.3998Z" fill="black"/>
<path d="M125.299 63.4997C125.299 63.4997 125.799 69.9997 137.099 57.1997L144.199 34.6997L145.599 26.2997C145.599 26.2997 139.799 19.8997 129.699 22.6997L128.199 32.0997L125.299 63.4997Z" fill="white"/>
<path d="M126.999 65.6997C126.699 65.6997 126.499 65.6997 126.299 65.5997C124.999 65.1997 124.799 63.6997 124.799 63.5997V63.4997L127.699 32.0997L129.199 22.6997C129.199 22.4997 129.399 22.3997 129.599 22.2997C139.799 19.4997 145.899 25.9997 145.999 25.9997C146.099 26.0997 146.099 26.2997 146.099 26.3997L144.699 34.7997L137.599 57.2997C137.599 57.3997 137.499 57.3997 137.499 57.4997C132.699 62.8997 129.199 65.6997 126.999 65.6997ZM125.799 63.4997C125.799 63.6997 125.999 64.3997 126.599 64.5997C127.399 64.7997 129.899 64.5997 136.699 56.8997L143.799 34.4997L145.099 26.3997C144.099 25.3997 138.699 20.7997 130.199 22.9997L128.699 32.0997L125.799 63.4997Z" fill="black"/>
<path d="M130.398 31.0999C130.398 31.0999 135.898 28.2999 142.398 33.0999L130.398 31.0999Z" fill="white"/>
<path d="M142.399 33.5999C142.299 33.5999 142.199 33.5999 142.099 33.4999C135.899 28.9999 130.799 31.4999 130.599 31.5999C130.399 31.6999 130.099 31.5999 129.899 31.3999C129.799 31.1999 129.899 30.8999 130.099 30.6999C130.299 30.5999 135.999 27.7999 142.699 32.6999C142.899 32.8999 142.999 33.1999 142.799 33.3999C142.699 33.4999 142.599 33.5999 142.399 33.5999Z" fill="black"/>
<path d="M147.299 24.8997C147.199 24.8997 147.199 24.8997 147.299 24.8997C146.399 24.8997 145.899 23.7997 145.799 23.3997C145.599 23.2997 145.299 23.0997 145.099 22.9997C138.199 18.8997 131.999 20.4997 130.599 20.8997L130.299 21.9997C130.299 22.2997 129.999 22.4997 129.699 22.3997C129.399 22.3997 129.199 22.0997 129.299 21.7997L129.499 20.2997C129.499 20.0997 129.699 19.9997 129.799 19.8997C130.099 19.7997 136.999 17.2997 144.899 21.7997C145.099 21.3997 145.499 21.0997 145.899 20.8997C147.299 20.2997 149.199 21.2997 149.299 21.2997C149.499 21.3997 149.599 21.6997 149.499 21.8997C148.899 23.9997 148.099 24.8997 147.299 24.8997ZM145.899 22.3997C146.099 22.4997 146.199 22.5997 146.399 22.6997C146.499 22.7997 146.599 22.8997 146.599 22.9997C146.699 23.3997 146.999 23.8997 147.199 23.9997C147.199 23.9997 147.699 23.9997 148.499 22.0997C147.899 21.8997 146.999 21.5997 146.399 21.8997C146.199 21.9997 145.999 22.0997 145.899 22.3997Z" fill="black"/>
</svg>
