<svg width="300" height="301" viewBox="0 0 300 301" fill="none" xmlns="http://www.w3.org/2000/svg">
<rect width="300" height="300" transform="translate(0 0.5)" fill="white"/>
<path d="M277.4 52.4922C212.562 27.4672 167.916 46.4594 128.53 63.1562C121.948 65.9594 115.692 68.6 109.375 71.0781V61.125C109.375 39.1062 88.9203 20.5 64.6875 20.5C40.4547 20.5 20 39.1062 20 61.125V235.812C20 247.664 24.7081 259.031 33.0887 267.411C41.4692 275.792 52.8356 280.5 64.6875 280.5C92.7797 280.5 116.464 273.391 139.377 266.525C179.006 254.642 216.442 243.409 274.353 267.987C274.971 268.249 275.643 268.354 276.311 268.292C276.979 268.23 277.621 268.004 278.18 267.634C278.739 267.264 279.198 266.762 279.515 266.171C279.833 265.581 279.999 264.921 280 264.25V56.2703C279.998 55.452 279.748 54.6534 279.284 53.9793C278.82 53.3051 278.163 52.7868 277.4 52.4922ZM28.125 61.125C28.125 43.8187 45.2078 28.625 64.6875 28.625C84.1672 28.625 101.25 43.8187 101.25 61.125V210.158C97.1268 204.29 91.6522 199.502 85.2884 196.196C78.9246 192.89 71.8587 191.164 64.6875 191.164C57.5163 191.164 50.4504 192.89 44.0866 196.196C37.7228 199.502 32.2482 204.29 28.125 210.158V61.125ZM28.125 235.812C28.125 228.581 30.2694 221.512 34.2869 215.499C38.3044 209.487 44.0147 204.8 50.6956 202.033C57.3766 199.266 64.7281 198.542 71.8205 199.953C78.9129 201.363 85.4277 204.846 90.5411 209.959C95.6544 215.072 99.1367 221.587 100.547 228.68C101.958 235.772 101.234 243.123 98.4669 249.804C95.6995 256.485 91.0132 262.196 85.0005 266.213C78.9879 270.231 71.9189 272.375 64.6875 272.375C54.9905 272.375 45.6907 268.523 38.8339 261.666C31.9771 254.809 28.125 245.509 28.125 235.812ZM271.875 258.156C214.37 235.508 175.086 247.289 137.041 258.705C122.817 263.27 108.328 266.96 93.6531 269.755C98.5705 265.569 102.522 260.367 105.236 254.508C107.951 248.648 109.362 242.27 109.375 235.812V79.8531C116.85 77.0094 124.386 73.7594 131.719 70.6922C170.962 53.9953 211.547 36.75 271.875 59.0938V258.156Z" fill="black"/>
<path fill-rule="evenodd" clip-rule="evenodd" d="M137.561 255.622C138.908 255.622 140 256.714 140 258.061C140 259.408 138.908 260.5 137.561 260.5H136.439C135.092 260.5 134 259.408 134 258.061C134 256.714 135.092 255.622 136.439 255.622H137.561ZM137 231.229C138.657 231.229 140 232.573 140 234.229V237.986C140 239.643 138.657 240.986 137 240.986C135.343 240.986 134 239.643 134 237.986V234.229C134 232.573 135.343 231.229 137 231.229ZM137 206.837C138.657 206.837 140 208.18 140 209.837V213.594C140 215.251 138.657 216.594 137 216.594C135.343 216.594 134 215.251 134 213.594V209.837C134 208.18 135.343 206.837 137 206.837ZM137 182.445C138.657 182.445 140 183.788 140 185.445V189.202C140 190.859 138.657 192.202 137 192.202C135.343 192.202 134 190.859 134 189.202V185.445C134 183.788 135.343 182.445 137 182.445ZM137 158.053C138.657 158.053 140 159.396 140 161.053V164.81C140 166.467 138.657 167.81 137 167.81C135.343 167.81 134 166.467 134 164.81V161.053C134 159.396 135.343 158.053 137 158.053ZM137 133.661C138.657 133.661 140 135.004 140 136.661V140.418C140 142.075 138.657 143.418 137 143.418C135.343 143.418 134 142.075 134 140.418V136.661C134 135.004 135.343 133.661 137 133.661ZM137 109.269C138.657 109.269 140 110.612 140 112.269V116.026C140 117.683 138.657 119.026 137 119.026C135.343 119.026 134 117.683 134 116.026V112.269C134 110.612 135.343 109.269 137 109.269ZM137 84.8767C138.657 84.8767 140 86.2199 140 87.8767V91.6336C140 93.2904 138.657 94.6336 137 94.6336C135.343 94.6336 134 93.2904 134 91.6336V87.8767C134 86.2199 135.343 84.8767 137 84.8767ZM137.561 65.363C138.908 65.363 140 66.4551 140 67.8022C140 69.1494 138.908 70.2415 137.561 70.2415H136.439C135.092 70.2415 134 69.1494 134 67.8022C134 66.4551 135.092 65.363 136.439 65.363H137.561Z" fill="black"/>
<path fill-rule="evenodd" clip-rule="evenodd" d="M65.4456 245.218C69.9557 245.218 73.6118 241.562 73.6118 237.052C73.6118 232.541 69.9557 228.885 65.4456 228.885C60.9355 228.885 57.2793 232.541 57.2793 237.052C57.2793 241.562 60.9355 245.218 65.4456 245.218ZM65.4456 251.218C73.2694 251.218 79.6118 244.875 79.6118 237.052C79.6118 229.228 73.2694 222.885 65.4456 222.885C57.6217 222.885 51.2793 229.228 51.2793 237.052C51.2793 244.875 57.6217 251.218 65.4456 251.218Z" fill="black"/>
</svg>
