<svg width="300" height="300" viewBox="0 0 300 300" fill="none" xmlns="http://www.w3.org/2000/svg">
<rect width="300" height="300" fill="white"/>
<path d="M216 25.7004L212.3 23.6004C210.5 22.6004 208.2 23.2004 207.2 25.0004L129.4 164C128.4 165.8 129 168.1 130.8 169.1L134.5 171.2C136.3 172.2 138.6 171.6 139.6 169.8L217.5 30.8004C218.5 28.9004 217.8 26.7004 216 25.7004Z" fill="white"/>
<path d="M132.8 172.9L130.2 171.4C128.6 170.5 127.5 169.1 127 167.4C126.5 165.7 126.7 163.9 127.6 162.3L204.9 24.4002C206.7 21.2002 210.8 20.0002 214 21.8002L216.6 23.3002C218.2 24.2002 219.3 25.6002 219.8 27.3002C220.3 29.0002 220.1 30.8002 219.2 32.4002L142 170.3C141.1 171.9 139.7 173 138 173.5C137.4 173.7 136.8 173.8 136.2 173.8C135 173.7 133.9 173.4 132.8 172.9ZM211.7 25.9002C210.7 25.4002 209.5 25.7002 209 26.7002L131.8 164.6C131.5 165.1 131.5 165.6 131.6 166.1C131.7 166.6 132.1 167 132.6 167.3L135.2 168.8C135.7 169.1 136.2 169.1 136.7 169C137.2 168.9 137.6 168.5 137.9 168L215.1 30.1002C215.4 29.6002 215.4 29.1002 215.3 28.6002C215.2 28.1002 214.8 27.7002 214.3 27.4002L211.7 25.9002Z" fill="currentColor"/>
<path d="M204.432 30.1976L202.135 34.2979L212.342 40.0156L214.639 35.9154L204.432 30.1976Z" fill="currentColor"/>
<path d="M196.947 43.5394L194.65 47.6396L204.857 53.3574L207.154 49.2572L196.947 43.5394Z" fill="currentColor"/>
<path d="M187.355 60.4686L185.059 64.5688L195.266 70.2866L197.563 66.1864L187.355 60.4686Z" fill="currentColor"/>
<path d="M182.822 68.5628L180.525 72.6631L190.732 78.3809L193.029 74.2806L182.822 68.5628Z" fill="currentColor"/>
<path d="M178.342 76.6204L176.045 80.7207L186.252 86.4397L188.549 82.3394L178.342 76.6204Z" fill="currentColor"/>
<path d="M232.7 35.7996L229.2 33.2996C227.5 32.0996 225.2 32.4996 224 34.1996L131.7 164C130.5 165.7 130.9 168 132.6 169.2L136.1 171.7C137.8 172.9 140.1 172.5 141.3 170.8L233.6 40.9996C234.8 39.2996 234.4 36.9996 232.7 35.7996Z" fill="white"/>
<path d="M134.199 173.2L131.799 171.5C130.299 170.5 129.399 168.9 129.099 167.2C128.799 165.5 129.199 163.7 130.199 162.2L221.799 33.3999C223.899 30.3999 228.099 29.6999 231.099 31.7999L233.499 33.4999C234.999 34.4999 235.899 36.0999 236.199 37.7999C236.499 39.5999 236.099 41.2999 235.099 42.7999L143.499 171.6C142.499 173.1 140.899 174 139.199 174.3C138.799 174.4 138.399 174.4 138.099 174.4C136.599 174.5 135.299 174 134.199 173.2ZM225.599 36.0999L133.999 164.9C133.699 165.3 133.599 165.9 133.699 166.4C133.799 166.9 134.099 167.4 134.499 167.7L136.899 169.4C137.799 170 139.099 169.8 139.699 168.9L231.299 40.0999C231.599 39.6999 231.699 39.0999 231.599 38.5999C231.499 38.0999 231.199 37.5999 230.799 37.2999L228.399 35.5999C227.999 35.2999 227.599 35.1999 227.199 35.1999C226.599 35.1999 225.999 35.4999 225.599 36.0999Z" fill="currentColor"/>
<path d="M220.63 39.0118L217.906 42.8418L227.441 49.6231L230.165 45.7931L220.63 39.0118Z" fill="currentColor"/>
<path d="M211.73 51.4712L209.006 55.3013L218.54 62.0826L221.264 58.2526L211.73 51.4712Z" fill="currentColor"/>
<path d="M200.457 67.3667L197.732 71.1968L207.267 77.9781L209.991 74.1481L200.457 67.3667Z" fill="currentColor"/>
<path d="M195.05 74.8604L192.326 78.6904L201.861 85.4717L204.585 81.6417L195.05 74.8604Z" fill="currentColor"/>
<path d="M189.693 82.3252L186.969 86.1553L196.503 92.9366L199.227 89.1066L189.693 82.3252Z" fill="currentColor"/>
<path d="M257.299 59.7001L254.399 56.6001C252.999 55.1001 250.699 55.0001 249.099 56.4001L131.899 164.4C130.399 165.8 130.299 168.1 131.699 169.7L134.599 172.8C135.999 174.3 138.299 174.4 139.899 173L257.099 65.0001C258.599 63.6001 258.699 61.2001 257.299 59.7001Z" fill="white"/>
<path d="M137.2 176C135.4 175.9 133.8 175.2 132.6 173.8L130.6 171.6C128.1 168.9 128.3 164.6 131 162.1L247.2 55.1002C249.9 52.6002 254.2 52.8002 256.7 55.5002L258.7 57.7002C259.9 59.0002 260.5 60.7002 260.5 62.5002C260.4 64.3002 259.7 65.9002 258.3 67.1002L142 174.2C140.8 175.3 139.2 176 137.5 176C137.4 176 137.3 176 137.2 176ZM253.2 58.6002C252.4 57.8002 251.2 57.7002 250.4 58.5002L134.1 165.6C133.3 166.4 133.2 167.6 134 168.4L136 170.6C136.4 171 136.9 171.2 137.4 171.2C137.9 171.2 138.4 171 138.8 170.7L255.1 63.7002C255.5 63.3002 255.7 62.8002 255.7 62.3002C255.7 61.8002 255.5 61.3002 255.2 60.9002L253.2 58.6002Z" fill="currentColor"/>
<path d="M244.798 60.3832L241.342 63.5684L249.271 72.1714L252.727 68.9862L244.798 60.3832Z" fill="currentColor"/>
<path d="M233.636 70.7548L230.18 73.9399L238.109 82.543L241.565 79.3578L233.636 70.7548Z" fill="currentColor"/>
<path d="M219.331 83.9383L215.875 87.1235L223.804 95.7265L227.26 92.5414L219.331 83.9383Z" fill="currentColor"/>
<path d="M212.503 90.1166L209.047 93.3018L216.976 101.905L220.432 98.7196L212.503 90.1166Z" fill="currentColor"/>
<path d="M205.723 96.4066L202.268 99.5918L210.197 108.195L213.653 105.01L205.723 96.4066Z" fill="currentColor"/>
<path d="M52.3996 172.5C50.6996 176.8 48.8996 201.2 47.5996 224.8L97.6996 252.8C97.8996 252.6 98.0996 252.5 98.2996 252.3C103.7 247.4 106.4 242 109 234.9C109.3 234.2 109.5 233.5 109.7 232.9C110.2 230.4 110.7 227.9 111 225.3C111.8 219.5 112.7 213.5 115.7 209.4C117.4 207.1 123.8 199.2 131.1 190.1L141.2 177.5C141.4 177.2 141.6 177 141.8 176.8C145.5 172.2 156.4 158.8 158.3 155.7C159.5 153.9 163.1 148.3 155.7 143.4C154.5 142.7 151 140.4 143.9 146.6L97.0996 187.3C95.5996 188.6 93.2996 188.4 91.9996 186.9C91.6996 186.5 91.4996 186.1 91.2996 185.7L88.0996 176.2C87.3996 174.3 88.4996 172.2 90.3996 171.6C92.2996 171 94.3996 172 94.9996 173.9L96.3996 178.3L138.5 141.7L124.9 134.5C120.2 132.6 114.8 133 110.3 135.6C106.6 137.7 95.5996 143.8 84.9996 149.5C75.3996 154.7 66.3996 159.6 63.6996 161.2C56.9996 165.1 54.7996 166.6 52.3996 172.5Z" fill="white"/>
<path d="M45.7 169.8C43.6 175.1 41.8 199.9 40.5 220.9L47.5 224.8C48.8 201.2 50.7 176.7 52.3 172.5C54.7 166.6 56.9 165.1 63.6 161.2C66.3 159.6 75.3 154.7 84.9 149.5C95.5 143.7 106.6 137.7 110.2 135.6C114.6 133 120 132.6 124.8 134.5L138.4 141.7L96.3 178.3L94.9 173.9C94.2 172 92.2 171 90.3 171.6C88.4 172.3 87.4 174.3 88 176.2L91.2 185.7C91.4 186.1 91.6 186.6 91.9 186.9C93.2 188.4 95.5 188.6 97 187.3L143.8 146.6C150.9 140.4 154.4 142.8 155.6 143.4C163.1 148.2 159.4 153.9 158.2 155.7C156.2 158.8 145.3 172.2 141.7 176.8C141.5 177 141.3 177.3 141.1 177.5L131 190.1C123.6 199.2 117.3 207 115.6 209.4C112.5 213.5 111.7 219.5 110.9 225.3C110.6 227.8 110.2 230.4 109.6 232.9C109.4 233.6 109.2 234.3 108.9 234.9C106.2 242 103.5 247.4 98.2 252.3C98 252.5 97.8 252.7 97.6 252.8L104.3 256.5C109.8 251.1 112.8 245.1 115.5 238C120.1 239 127.1 240.3 130.6 239.6C136.2 238.4 153.3 223.7 155.3 221.6C156.1 220.8 156.7 219.9 157.3 219C159.6 214.8 159.2 209.7 156.3 206C155.1 204.4 153.6 203.1 151.9 202.2C154 200.1 155.9 197.8 157.6 195.5L158.2 194.5C161.2 189.1 160.5 183.4 156.4 179.6C155 178.2 153.3 177.2 151.5 176.4L152.1 175.7L161.5 181.8C170 186.5 175.7 184.6 177.4 183.9C177.4 183.9 177.4 183.9 177.5 183.9C177.5 183.9 177.6 183.9 177.7 183.8C177.8 183.8 177.9 183.7 177.9 183.7H178C180.3 182.6 182.2 181 183.6 179L183.9 178.5C186.5 173.9 187.1 164.1 179.4 159L167.4 151.2C167.8 145.9 165.1 140.9 159.6 137.4C157.6 136.1 155.4 135.4 153.1 135.3C148.4 134.3 144.9 136.9 144.9 136.9L128.2 128C120.9 124.5 112.1 126.1 106.7 129.3C103.1 131.3 92.2 137.3 81.5 143.1C71.9 148.4 62.7 153.3 59.9 154.9C52.7 159.2 48.9 161.7 45.7 169.8Z" fill="white"/>
<path d="M45.7 169.8C43.6 175.1 41.8 199.9 40.5 220.9C39.7 235.4 39.1 248 39 251C39 252.9 40.5 254.5 42.4 254.7C44.4 254.9 46.1 253.4 46.3 251.4C46.6 243.6 47.1 234.3 47.6 224.9C48.9 201.3 50.8 176.8 52.4 172.6C54.8 166.7 57 165.2 63.7 161.3C66.4 159.7 75.4 154.8 85 149.6C95.6 143.8 106.7 137.8 110.3 135.7C114.7 133.1 120.1 132.7 124.9 134.6L138.5 141.8L96.4 178.4L95 174C94.3 172.1 92.3 171.1 90.4 171.7C88.5 172.4 87.5 174.4 88.1 176.3L91.3 185.8C91.5 186.2 91.7 186.7 92 187C93.3 188.5 95.6 188.7 97.1 187.4L143.9 146.7C151 140.5 154.5 142.9 155.7 143.5C163.2 148.3 159.5 154 158.3 155.8C156.3 158.9 145.4 172.3 141.8 176.9C141.6 177.1 141.4 177.4 141.2 177.6L131.1 190.2C123.7 199.3 117.4 207.1 115.7 209.5C112.6 213.6 111.8 219.6 111 225.4C110.7 227.9 110.3 230.5 109.7 233C109.5 233.7 109.3 234.4 109 235C106.3 242.1 103.6 247.5 98.3 252.4C98.1 252.6 97.9 252.8 97.7 252.9C94.3 255.7 90.5 257.8 86.3 259.3C85 259.7 84 260.8 83.8 262.2L81.7 274.5C81.4 276.5 82.7 278.3 84.7 278.7C86.7 279 88.5 277.7 88.9 275.7L90.6 265.5C95.2 263.7 99.5 261.1 103.2 257.8C103.6 257.4 104 257.1 104.3 256.7C109.8 251.3 112.8 245.3 115.5 238.2C120.1 239.2 127.1 240.5 130.6 239.8C136.2 238.6 153.3 223.9 155.3 221.8C156.1 221 156.7 220.1 157.3 219.2C159.6 215 159.2 209.9 156.3 206.2C155.1 204.6 153.6 203.3 151.9 202.4C154 200.3 155.9 198 157.6 195.7L158.2 194.7C161.2 189.3 160.5 183.6 156.4 179.8C155 178.4 153.3 177.4 151.5 176.6L152.1 175.9L161.5 182C170 186.7 175.7 184.8 177.4 184.1C177.4 184.1 177.4 184.1 177.5 184.1C177.5 184.1 177.6 184.1 177.7 184C177.8 184 177.9 183.9 177.9 183.9H178C180.3 182.8 182.2 181.2 183.6 179.2L183.9 178.7C186.5 174.1 187.1 164.3 179.4 159.2L167.4 151.4C167.8 146.1 165.1 141.1 159.6 137.6C157.6 136.3 155.4 135.6 153.1 135.5C148.4 134.5 144.9 137.1 144.9 137.1L128.2 128C120.9 124.5 112.1 126.1 106.7 129.3C103.1 131.3 92.2 137.3 81.5 143.1C71.9 148.4 62.7 153.3 59.9 154.9C52.7 159.2 48.9 161.7 45.7 169.8ZM156.5 170C160.9 164.5 163.4 161.3 164.3 159.7L165 158.4L175.3 165C179.4 167.8 178.3 173.5 177.4 175C176.5 176.4 171.7 179.8 167.5 177.1L156.5 170ZM117.3 231.1C117.6 229.5 117.8 227.9 118 226.3L118.5 223.2C122.8 223 134 222.2 137.3 218.2C138 217.3 140.5 214.6 143.1 211.9L146.6 208.1C148.2 208.2 149.6 209 150.5 210.3C152.1 212.2 151.9 215 150.2 216.6C147 219.9 132.2 231.7 129 232.5C127.4 233 122.3 232.2 117.3 231.1ZM136.7 194.7L146.4 182.7C148.3 182.7 150.1 183.5 151.4 184.9C153.6 187 152.7 189.7 151.4 191.6C148.7 195.2 145.7 198.6 142.6 201.8C142.2 202 142 202.4 141.7 202.7L137.8 206.9C134.9 210 132.6 212.4 131.7 213.6C130.5 214.6 124.1 215.6 120.3 215.9C120.6 215.1 121 214.3 121.5 213.6C123.1 211.5 129.4 203.7 136.7 194.7Z" fill="currentColor"/>
</svg>
