<svg width="301" height="301" viewBox="0 0 301 301" fill="none" xmlns="http://www.w3.org/2000/svg">
<rect width="300" height="300" transform="translate(0.320312 0.5)" fill="white"/>
<path d="M124.82 263.95C122.62 263.95 120.42 263.85 118.12 263.75C91.5205 261.85 67.7205 248.55 45.6205 223.15C28.3205 203.15 20.4205 181.75 22.1205 159.45C23.3205 142.95 29.8205 128.35 36.6205 117.25C39.0205 110.65 42.3204 104.25 46.6205 98.5501C57.3204 84.3501 72.4204 73.5501 88.5204 67.3501C94.2204 62.2501 97.9204 59.8501 98.4204 59.4501C99.8204 58.0501 123.12 35.3501 158.52 36.5501C177.42 37.1501 199.52 43.3501 214.72 48.3501C231.12 53.7501 243.32 59.1501 243.42 59.2501L244.12 59.5501L243.52 60.9501L242.82 60.6501C242.32 60.3501 194.32 39.2501 158.52 38.0501C122.82 36.8501 99.7204 60.3501 99.5204 60.5501L99.4204 60.6501C99.3204 60.6501 96.8204 62.3501 92.5204 65.8501C109.82 60.0501 128.02 59.4501 143.12 65.5501C147.72 67.4501 152.42 69.8501 157.22 72.8501C170.32 77.0501 183.92 83.3501 196.42 92.5501C210.02 102.55 218.72 119.05 222.12 141.75C222.22 142.65 222.42 143.45 222.52 144.35C226.52 160.35 227.72 175.25 226.72 182.35C225.62 190.35 221.12 205.15 214.02 218.45C209.02 227.75 201.32 239.05 190.52 246.35C208.82 245.85 224.42 242.35 235.32 235.75C276.02 211.45 206.12 61.1501 205.42 59.6501L205.12 58.9501L206.52 58.3501L206.82 59.0501C207.02 59.4501 224.82 97.6501 237.32 138.35C254.22 193.35 253.82 226.55 236.12 237.15C224.52 244.05 207.72 247.75 188.12 247.95C185.52 249.55 182.72 250.85 179.82 251.85C178.52 252.25 177.22 252.75 175.82 253.25C162.52 257.75 144.62 263.95 124.82 263.95ZM34.6205 123.65C29.2205 133.65 24.6205 145.95 23.6205 159.55C21.9205 181.55 29.7205 202.55 46.7205 222.05C68.6205 247.15 92.0204 260.25 118.22 262.15C140.32 263.75 159.72 257.05 175.32 251.65C176.72 251.15 178.02 250.75 179.32 250.25C181.32 249.55 183.22 248.75 185.02 247.85C183.12 247.85 181.12 247.75 179.12 247.75C170.52 252.25 160.82 255.25 150.72 256.25C121.82 259.15 87.9204 248.65 68.5205 237.55C50.4205 227.25 36.4205 204.85 31.8205 193.25C29.3205 186.95 27.6205 176.15 29.5205 162.45C28.6205 152.15 29.9205 142.05 32.7205 132.95C33.2205 129.85 33.8205 126.75 34.6205 123.65ZM30.4205 168.85C29.7205 179.35 31.2205 187.65 33.3205 192.85C37.8205 204.35 51.6204 226.25 69.3204 236.35C88.4204 247.25 122.02 257.75 150.62 254.85C159.32 253.95 168.02 251.45 175.92 247.65C173.12 247.45 170.32 247.25 167.42 246.95C141.62 255.75 121.52 252.85 103.62 248.15C100.72 247.45 97.6205 246.25 94.3204 244.65C85.3204 242.15 79.6204 239.15 78.1204 238.35L77.4204 237.95C67.4204 232.55 50.1205 223.15 41.9205 196.55C40.3205 194.05 38.8205 191.55 37.5205 188.95C33.9205 182.45 31.6205 175.65 30.4205 168.85ZM106.02 247.25C122.42 251.35 140.72 253.65 163.72 246.55C160.12 246.15 156.52 245.65 152.92 245.05C134.52 249.65 118.42 249.25 106.02 247.25ZM94.5204 243.25C107.02 246.75 126.12 249.55 149.22 244.35C147.82 244.05 146.42 243.85 145.02 243.55C108.02 236.05 74.6204 220.45 55.6204 201.95C49.0204 195.45 43.7205 187.85 39.9205 179.65C40.7205 185.75 41.8205 191.15 43.3205 195.95C55.0205 214.05 75.7204 234.25 94.5204 243.25ZM181.72 246.35C183.72 246.45 185.72 246.45 187.72 246.45C199.32 239.45 207.52 227.45 212.72 217.75C219.82 204.55 224.12 190.05 225.22 182.15C225.92 176.95 225.52 167.35 223.52 156.25C224.02 166.75 223.32 175.05 222.92 178.05C222.92 178.25 221.42 190.95 214.82 205.45C210.02 222.55 197.82 237.15 181.72 246.35ZM170.72 245.75C173.42 245.95 176.02 246.15 178.62 246.25C183.22 243.85 187.52 240.95 191.52 237.75C199.12 231.55 205.02 224.15 209.12 216.05C202.82 225.95 193.82 235.55 180.92 241.55C177.42 243.15 174.02 244.55 170.72 245.75ZM156.42 244.05C160.02 244.65 163.62 245.05 167.22 245.45C171.42 244.05 175.72 242.25 180.22 240.15C197.32 232.25 207.42 217.85 213.42 204.95C213.72 203.75 214.02 202.55 214.32 201.25C220.32 173.45 220.02 136.35 206.02 115.95C200.52 107.95 192.52 99.7501 182.42 92.9501C184.12 94.6501 185.82 96.3501 187.42 98.1501C200.92 112.65 210.22 127.85 212.92 139.95C215.72 152.15 216.82 172.05 211.52 191.35C205.32 213.95 191.92 230.25 172.62 238.45C167.02 240.75 161.62 242.55 156.42 244.05ZM39.3205 174.65C43.2205 184.35 49.0204 193.35 56.6204 200.85C75.4204 219.25 108.52 234.65 145.32 242.05C147.82 242.55 150.32 243.05 152.82 243.45C158.92 241.85 165.42 239.75 172.02 236.95C195.82 226.85 205.92 206.35 210.12 190.85C215.32 171.85 214.22 152.25 211.52 140.25C207.92 124.55 193.42 104.55 175.82 88.8501C162.02 81.1501 144.82 76.0501 124.92 76.6501C115.02 76.9501 106.22 77.9501 98.6205 79.4501C83.8205 85.1501 72.1204 91.0501 63.3204 96.6501C59.7205 101.15 56.0205 106.25 52.1205 111.75C48.6205 116.85 45.6205 121.85 43.0205 126.65C41.3205 133.35 40.0205 140.75 39.4205 149.05C38.6205 158.55 38.7205 167.05 39.3205 174.65ZM45.2205 201.65C53.8205 223.55 69.0204 231.85 78.1204 236.75L78.8204 237.15C79.8204 237.65 82.6204 239.15 86.9204 240.75C72.7204 232.25 56.8204 218.05 45.2205 201.65ZM176.92 87.8501C190.22 95.3501 200.52 105.35 207.22 115.15C220.72 134.75 221.72 169.35 216.72 196.85C220.52 186.25 221.42 178.05 221.42 177.85C221.82 173.85 223.02 160.15 220.92 144.45C217.12 129.45 210.62 113.55 200.82 102.55C192.72 93.4501 180.82 85.9501 168.22 80.7501C171.22 82.8501 174.12 85.2501 176.92 87.8501ZM31.0205 162.45C31.8205 171.05 34.2205 179.85 38.7205 188.35C39.2205 189.35 39.8205 190.35 40.3205 191.35C39.1205 186.45 38.2205 180.95 37.7205 174.95C35.1205 168.25 33.3205 161.25 32.5205 154.15C31.9205 157.05 31.4205 159.85 31.0205 162.45ZM33.7205 149.85C34.2205 156.55 35.4205 163.15 37.5205 169.55C37.2205 163.25 37.4205 156.35 38.0205 148.85C38.5205 143.05 39.2205 137.55 40.3205 132.35C37.3205 138.45 35.2205 144.35 33.7205 149.85ZM32.0205 142.15C31.2205 146.45 30.7205 151.05 30.7205 155.65C31.1205 153.75 31.6205 151.75 32.1205 149.75C32.0205 147.15 31.9205 144.65 32.0205 142.15ZM34.2205 133.35C33.7205 137.25 33.4205 141.25 33.5205 145.25C35.5205 139.15 38.1205 132.75 41.6205 126.05C43.2205 119.85 45.3205 114.05 47.8205 108.75C46.9205 109.65 46.2205 110.55 45.5205 111.45C40.8205 117.35 36.8205 124.85 34.2205 133.35ZM163.82 77.3501C178.52 82.7501 192.62 91.0501 202.02 101.45C209.12 109.45 214.52 120.05 218.42 130.95C214.22 114.25 206.52 101.85 195.52 93.7501C184.82 85.9501 173.52 80.2501 162.22 76.1501C162.82 76.5501 163.32 76.9501 163.82 77.3501ZM38.0205 117.85C37.2205 120.05 36.5205 122.35 35.9205 124.65C38.3205 119.35 41.1205 114.55 44.3205 110.45C45.9205 108.45 47.8205 106.45 49.9205 104.45C51.0205 102.45 52.1205 100.55 53.3205 98.6501C49.9205 101.75 43.8205 108.45 38.0205 117.85ZM50.9205 105.75C48.6205 110.05 46.6205 114.85 44.8205 120.25C46.6205 117.15 48.6205 114.05 50.8205 110.85C53.7205 106.65 56.5205 102.75 59.3204 99.1501C56.1204 101.45 53.3204 103.65 50.9205 105.75ZM85.3204 70.2501C70.8204 76.5501 57.5205 86.5501 47.8205 99.4501C45.1205 102.95 42.9205 106.75 40.9205 110.75C45.7205 104.15 50.1205 99.4501 52.8205 97.2501C53.7205 96.4501 54.9204 95.5501 56.4204 94.4501C59.4204 90.5501 62.8204 86.9501 66.5205 83.6501C71.6204 79.2501 76.9204 75.9501 81.9204 73.4501C83.1204 72.3501 84.2205 71.2501 85.3204 70.2501ZM57.3204 95.6501C55.9204 97.5501 54.5205 99.5501 53.2205 101.75C56.0205 99.4501 59.2205 97.3501 62.5205 95.2501C64.0205 93.3501 65.4204 91.6501 66.9204 89.9501C62.9204 91.9501 59.7205 93.9501 57.3204 95.6501ZM70.2205 88.2501C68.9205 89.7501 67.6205 91.3501 66.2205 92.9501C73.9205 88.4501 82.2204 84.5501 89.9204 81.3501C82.1204 83.3501 75.5205 85.7501 70.2205 88.2501ZM78.5205 76.9501C72.4205 80.4501 66.1204 85.1501 60.5205 91.7501C63.0205 90.2501 65.9204 88.5501 69.4204 86.9501C72.5204 83.2501 75.6204 79.9501 78.5205 76.9501ZM82.8204 74.6501C79.7205 77.7501 76.3204 81.3501 72.5205 85.5501C79.3204 82.6501 87.8204 79.8501 98.3204 77.9501C105.32 75.2501 111.22 73.2501 114.82 72.1501C125.32 68.7501 141.82 70.2501 158.42 75.4501C157.82 75.0501 157.12 74.6501 156.52 74.2501C137.52 68.2501 119.42 66.8501 106.42 68.1501C101.42 68.5501 92.6205 70.0501 82.8204 74.6501ZM128.12 75.1501C144.32 75.1501 158.72 78.8501 170.82 84.6501C168.22 82.4501 165.52 80.4501 162.82 78.4501C145.02 71.9501 126.52 69.9501 115.22 73.5501C111.92 74.5501 108.82 75.6501 105.82 76.7501C111.62 75.9501 117.92 75.4501 124.82 75.1501C125.92 75.1501 127.02 75.1501 128.12 75.1501ZM89.4204 68.5501C88.3204 69.4501 87.2204 70.5501 86.0204 71.6501C94.2204 68.2501 101.52 67.0501 106.22 66.5501C118.02 65.4501 134.02 66.4501 151.12 71.0501C148.22 69.4501 145.32 68.0501 142.52 66.9501C126.72 60.6501 107.42 61.7501 89.4204 68.5501Z" fill="currentColor"/>
<path d="M276.02 80.1501L277.52 80.75C277.52 80.75 283.82 78.25 281.62 69.85L258.92 60.4501L256.42 59.4501L255.72 59.15L254.32 58.55L252.62 57.85L244.92 57.05L241.92 64.35L247.42 68.35L249.52 69.25L250.92 69.85L251.52 70.05L254.12 71.1501L265.42 75.85" fill="white"/>
<path d="M277.521 81.35L275.821 80.6501L276.221 79.75L277.521 80.25C278.521 79.75 282.921 77.25 281.221 70.25L252.521 58.4501L245.221 57.65L242.521 64.25L247.721 67.9501L265.621 75.35L265.221 76.25L247.121 68.75L241.221 64.55L244.521 56.55L252.721 57.4501L281.921 69.55L282.021 69.75C284.221 78.55 277.621 81.25 277.621 81.25L277.521 81.35Z" fill="currentColor"/>
<path d="M250.221 71.9499C249.721 71.7499 249.121 71.2499 248.721 70.2499C248.621 69.9499 248.621 69.3499 248.521 68.9499L249.521 69.0499L250.921 69.6499C251.021 69.7499 251.021 69.8499 251.121 69.8499C251.221 69.8499 251.321 69.8499 251.421 69.8499C251.621 69.8499 251.921 69.7499 252.221 69.5499C253.421 68.8499 254.621 67.2499 255.521 65.3499C256.421 63.4499 256.821 61.3499 256.621 60.0499C256.521 59.7499 256.521 59.4499 256.421 59.2499C256.321 59.1499 256.221 59.0499 256.121 58.9499C256.021 58.9499 255.921 58.8499 255.721 58.9499L254.321 58.3499L253.221 57.7499C254.421 56.9499 256.121 56.4499 257.121 56.9499C257.821 57.2499 258.621 57.9499 258.921 59.5499C258.921 59.7499 259.021 59.9499 259.021 60.2499C259.121 61.9499 258.721 64.0499 257.721 66.1499C256.821 68.1499 255.521 69.7499 254.221 70.8499C254.021 71.0499 253.821 71.1499 253.621 71.2499C252.321 72.2499 251.121 72.4499 250.221 71.9499Z" fill="currentColor"/>
<path d="M278.722 78.85C278.422 78.85 278.222 78.75 277.922 78.65L267.722 74.25C266.722 73.85 266.222 72.65 266.722 71.65C267.122 70.65 268.322 70.15 269.322 70.65L279.522 75.05C280.522 75.45 281.022 76.65 280.522 77.65C280.222 78.35 279.522 78.85 278.722 78.85Z" fill="currentColor"/>
<path d="M274.02 81.65L265.92 78.15C265.52 77.95 265.22 77.65 265.12 77.35C265.02 77.05 265.02 76.65 265.12 76.25C265.22 76.05 265.32 75.95 265.42 75.75L276.02 80.15C276.02 80.35 276.02 80.65 275.92 80.85C275.62 81.65 274.72 81.95 274.02 81.65Z" fill="currentColor"/>
<path d="M279.722 70.7501C279.422 70.7501 279.222 70.6501 278.922 70.5501L269.722 66.5501C268.722 66.1501 268.222 64.9501 268.722 63.9501C269.122 62.9501 270.322 62.4501 271.322 62.9501L280.522 66.9501C281.522 67.3501 282.022 68.5501 281.522 69.5501C281.222 70.2501 280.422 70.7501 279.722 70.7501Z" fill="currentColor"/>
<path d="M247.721 68.75L247.021 67.95C251.721 63.95 251.121 57.85 251.121 57.85L252.121 57.75C252.221 57.95 252.821 64.35 247.721 68.75Z" fill="currentColor"/>
<path d="M245.92 67.4501L245.32 66.6501C249.02 63.8501 248.92 57.65 248.92 57.55H249.92C249.92 57.75 250.02 64.3501 245.92 67.4501Z" fill="currentColor"/>
<path d="M244.12 65.9501L243.42 65.2501C246.72 61.7501 246.52 57.2501 246.52 57.2501L247.52 57.1501C247.42 57.4501 247.72 62.1501 244.12 65.9501Z" fill="currentColor"/>
<path d="M124.12 266.65C93.8201 266.65 67.2201 252.95 42.7201 224.85C24.9201 204.45 16.8201 182.35 18.5201 159.25C19.9201 141.15 27.3201 125.75 33.3201 116.05C35.8201 109.05 39.3201 102.65 43.6201 96.85C54.0201 83.05 69.1201 71.75 86.1201 65.05C91.4201 60.35 95.0201 57.95 96.0201 57.25C98.5201 54.75 122.02 32.45 157.92 33.75C158.92 33.75 159.82 33.75 160.72 33.85C165.72 33.85 170.82 33.95 191.82 38.95L191.62 39.95C170.72 35.05 165.62 34.95 160.72 34.95C159.82 34.95 158.92 34.95 157.82 34.85C122.32 33.45 99.1201 55.55 96.6201 58.05C95.6201 58.75 92.0201 61.15 86.7201 65.85L86.6201 65.95C69.7201 72.55 54.7201 83.75 44.4201 97.55C40.1201 103.25 36.7201 109.65 34.2201 116.55V116.65C28.3201 126.25 20.9201 141.45 19.6201 159.35C17.9201 182.25 25.9201 204.05 43.5201 224.25C67.8201 252.15 94.2201 265.75 124.22 265.75C144.22 265.75 161.72 259.75 175.62 254.95L176.02 254.85C177.22 254.45 178.42 254.05 179.62 253.65C182.32 252.75 185.02 251.55 187.52 250.05L187.62 249.95H187.72C207.62 249.75 224.32 245.85 236.12 238.85C254.52 227.85 255.22 193.95 238.02 138.05C225.42 97.05 207.62 58.85 207.42 58.55C207.12 57.95 206.62 57.45 206.02 57.25C205.42 57.05 204.72 57.05 204.12 57.35C203.52 57.65 203.02 58.15 202.82 58.75C202.62 59.35 202.62 60.05 202.92 60.65C203.12 61.05 220.82 98.95 233.22 139.55C249.32 192.15 249.42 225.05 233.52 234.55C224.42 239.95 211.72 243.45 196.62 244.55L195.12 244.65L196.22 243.65C203.12 237.55 209.22 229.45 214.62 219.45C221.82 205.95 226.42 190.95 227.52 182.75C228.52 175.25 227.62 160.15 223.22 143.25C223.12 142.65 223.02 142.15 223.02 141.65C219.52 118.45 210.62 101.55 196.62 91.35C184.92 82.85 171.72 76.15 157.22 71.55L157.12 71.45C152.22 68.45 147.52 66.05 142.92 64.15C130.92 59.25 116.62 58.35 101.72 61.55L99.8201 61.75L101.22 60.55C108.72 53.75 130.12 40.75 157.62 39.85C168.82 39.45 188.72 43.75 189.12 43.95L188.72 44.85C188.02 44.65 168.42 40.45 157.62 40.75C132.02 41.75 111.82 53.15 103.32 60.05C117.82 57.35 131.62 58.35 143.22 63.05C147.82 64.95 152.62 67.35 157.52 70.35C172.02 75.05 185.42 81.75 197.12 90.35C211.32 100.75 220.42 117.95 223.92 141.35C224.02 141.85 224.12 142.35 224.12 142.85C228.52 159.85 229.52 175.05 228.42 182.65C227.32 190.95 222.72 206.05 215.42 219.65C210.32 229.15 204.42 237.05 197.92 243.05C212.22 241.85 224.32 238.45 232.92 233.35C248.42 224.05 248.22 191.65 232.22 139.45C219.82 98.95 202.12 61.05 201.92 60.75C201.12 59.05 201.82 56.95 203.62 56.05C204.42 55.65 205.42 55.65 206.32 55.95C207.22 56.25 207.92 56.95 208.32 57.75C208.52 58.15 226.42 96.35 238.92 137.45C256.22 193.85 255.42 228.15 236.52 239.35C224.62 246.45 207.72 250.35 187.72 250.65C185.12 252.15 182.42 253.35 179.72 254.25C178.52 254.65 177.42 255.05 176.12 255.45L175.72 255.55C162.62 260.35 144.42 266.65 124.12 266.65ZM124.92 260.75C105.02 260.75 86.9201 254.35 69.8201 241.45L70.3201 240.65C85.7201 248.85 113.22 258.45 140.22 258.55L140.32 259.55C135.12 260.35 130.02 260.75 124.92 260.75ZM75.6201 244.35C93.5201 256.35 112.62 261.25 133.72 259.35C111.82 258.05 90.2201 251.15 75.6201 244.35ZM123.62 245.45C114.02 245.45 104.72 244.25 95.6201 241.75H95.5201C80.6201 234.65 59.2201 217.55 44.9201 195.55L44.8201 195.45C44.5201 194.55 44.2201 193.55 44.0201 192.55L43.3201 189.75L44.9201 192.15C47.7201 196.15 50.8201 199.85 54.3201 203.25C72.3201 220.85 102.52 235.65 137.22 243.75L140.02 244.35L137.22 244.65C132.62 245.15 128.12 245.45 123.62 245.45ZM95.9201 240.75C108.22 244.15 121.02 245.15 134.22 243.95C100.52 235.65 71.3201 221.15 53.6201 203.85C50.8201 201.15 48.2201 198.15 45.8201 194.95C60.0201 216.75 81.2201 233.65 95.9201 240.75ZM166.92 243.65L164.42 243.35L166.42 242.65C168.72 241.85 171.02 240.95 173.22 239.95C193.02 231.55 206.82 214.85 213.12 191.75L213.32 190.95L214.32 191.15C213.82 194.35 213.22 197.65 212.52 200.95C212.32 201.85 212.12 202.65 211.92 203.55C204.32 220.35 193.42 232.15 179.42 238.55C175.22 240.45 171.12 242.15 167.02 243.55L166.92 243.65ZM212.02 198.95C207.42 211.85 200.22 222.35 190.82 230.35C199.02 223.75 205.82 214.65 211.02 203.15C211.22 202.35 211.42 201.55 211.62 200.65C211.72 200.15 211.82 199.55 212.02 198.95ZM152.72 241.65H152.62C150.32 241.25 147.92 240.85 145.62 240.35C109.22 232.95 76.4201 217.75 57.8201 199.55C50.6201 192.55 45.0201 184.05 41.0201 174.35V174.25C40.4201 166.55 40.4201 158.15 41.1201 149.15C41.7201 141.35 42.9201 134.05 44.6201 127.25V127.15C47.2201 122.35 50.1201 117.45 53.4201 112.75C57.0201 107.55 60.7201 102.55 64.4201 97.85L64.5201 97.75C73.7201 92.05 85.6201 86.25 99.0201 81.15C107.12 79.65 115.72 78.75 124.82 78.45C142.82 77.95 159.62 81.95 174.72 90.45L174.82 90.55C192.92 106.85 206.22 126.05 209.62 140.75C212.32 152.55 213.32 171.85 208.32 190.55C204.22 205.65 194.42 225.65 171.22 235.45C165.12 238.05 158.92 240.15 152.72 241.75V241.65ZM42.0201 174.05C45.9201 183.55 51.4201 191.95 58.5201 198.85C76.9201 216.85 109.62 232.05 145.82 239.35C148.12 239.85 150.42 240.25 152.72 240.65C158.82 239.05 164.92 236.95 170.92 234.45C193.72 224.75 203.32 205.05 207.42 190.15C212.42 171.65 211.42 152.55 208.72 140.85C205.52 126.35 192.32 107.35 174.32 91.25C159.32 82.85 142.72 78.95 124.92 79.45C115.92 79.75 107.42 80.65 99.4201 82.05C86.2201 87.15 74.4201 92.85 65.2201 98.55C61.5201 103.25 57.8201 108.15 54.3201 113.35C51.0201 118.05 48.1201 122.85 45.6201 127.65C43.9201 134.35 42.7201 141.55 42.1201 149.25C41.4201 158.15 41.4201 166.45 42.0201 174.05ZM43.5201 208.15C39.8201 202.65 36.7201 196.85 34.8201 192.15C34.2201 190.65 33.7201 188.95 33.3201 187.05L32.2201 182.45L34.2201 186.75C34.7201 187.85 35.2201 188.85 35.8201 189.95C37.2201 192.55 38.8201 195.25 40.4201 197.85L40.5201 197.95C41.6201 201.35 42.9201 204.65 44.4201 207.65L43.5201 208.15ZM36.0201 192.25C37.2201 195.25 38.9201 198.55 40.9201 202.05C40.4201 200.85 40.0201 199.55 39.6201 198.25C38.3201 196.25 37.1201 194.25 36.0201 192.25ZM26.0201 176.45C25.1201 170.95 24.9201 165.25 25.4201 159.65C25.6201 156.35 26.1201 153.05 26.8201 149.75L27.8201 149.85C27.5201 153.95 27.5201 158.05 27.8201 162.15V162.25V162.35C27.1201 167.25 26.9201 171.95 27.0201 176.45H26.0201ZM26.5201 157.75C26.4201 158.45 26.4201 159.05 26.3201 159.75C26.1201 162.35 26.0201 165.05 26.1201 167.65C26.2201 165.85 26.4201 164.05 26.7201 162.15C26.6201 160.75 26.5201 159.25 26.5201 157.75ZM78.9201 81.25L80.3201 79.75C81.5201 78.45 82.7201 77.35 83.8201 76.25L83.9201 76.15C93.5201 71.65 102.22 70.25 106.52 69.85C108.92 69.65 111.52 69.45 114.22 69.45H117.82L114.32 70.45C110.62 71.65 104.82 73.55 97.9201 76.25C91.9201 77.35 86.1201 78.85 80.8201 80.65L78.9201 81.25ZM84.4201 77.05C83.7201 77.75 83.1201 78.35 82.4201 79.05C87.2201 77.55 92.3201 76.25 97.6201 75.25C102.72 73.25 107.32 71.65 110.82 70.55C109.42 70.65 108.02 70.75 106.72 70.85C102.42 71.25 93.8201 72.55 84.4201 77.05Z" fill="currentColor"/>
<path d="M238.921 68.8501C237.321 68.8501 236.321 67.8501 235.821 67.0501C233.721 67.1501 231.521 65.3501 231.121 65.0501L210.721 55.8501L211.121 54.9501L231.621 64.2501L231.721 64.3501C231.721 64.3501 234.121 66.5501 236.021 66.1501C236.221 66.1501 236.521 66.2501 236.621 66.4501C236.621 66.5501 237.221 67.9501 238.921 67.9501C239.721 66.2501 244.021 56.9501 245.021 54.1501C244.921 53.9501 244.621 53.5501 244.221 53.3501C243.821 53.1501 243.321 53.2501 242.721 53.5501C242.621 53.6501 242.421 53.6501 242.321 53.5501C242.221 53.5501 242.121 53.4501 242.021 53.2501C242.021 53.1501 240.921 51.1501 238.321 51.1501H238.221C238.121 51.1501 238.121 51.1501 238.021 51.1501L193.521 36.2501C193.421 36.2501 193.421 36.2501 193.421 36.2501C193.421 36.2501 193.321 36.2501 193.321 36.3501C192.721 38.1501 191.221 42.6501 189.321 44.7501C189.221 44.8501 189.221 44.9501 189.221 44.9501C189.221 44.9501 189.221 45.0501 189.321 45.0501L196.721 48.3501L196.321 49.2501L188.921 45.9501C188.521 45.7501 188.321 45.4501 188.221 45.0501C188.121 44.6501 188.221 44.2501 188.521 43.9501C190.321 41.9501 191.921 37.2501 192.321 35.9501C192.421 35.6501 192.621 35.4501 192.921 35.2501C193.221 35.1501 193.521 35.0501 193.821 35.1501L238.421 50.0501C240.921 50.0501 242.221 51.5501 242.721 52.2501C243.421 51.9501 244.021 51.9501 244.621 52.1501C245.721 52.5501 246.021 53.6501 246.121 53.7501C246.121 53.8501 246.121 53.9501 246.121 54.0501C245.121 56.9501 240.021 67.9501 239.721 68.4501C239.621 68.6501 239.521 68.7501 239.321 68.7501C239.221 68.8501 239.121 68.8501 238.921 68.8501Z" fill="currentColor"/>
<path d="M236.522 65.7501C236.422 65.7501 236.422 65.7501 236.322 65.7501C236.022 65.6501 235.922 65.3501 236.022 65.1501C236.122 64.8501 238.722 57.5501 240.922 54.3501C241.122 54.1501 241.422 54.0501 241.622 54.2501C241.822 54.4501 241.922 54.7501 241.722 54.9501C239.622 58.0501 237.022 65.4501 236.922 65.5501C236.922 65.6501 236.722 65.7501 236.522 65.7501Z" fill="currentColor"/>
<path d="M232.32 63.5501H232.22C231.92 63.4501 231.82 63.2501 231.82 62.9501C231.92 62.6501 233.62 55.7501 237.02 51.0501C237.22 50.8501 237.52 50.7501 237.72 50.9501C237.92 51.1501 238.02 51.4501 237.82 51.6501C234.52 56.1501 232.72 63.1501 232.72 63.1501C232.72 63.3501 232.52 63.5501 232.32 63.5501Z" fill="currentColor"/>
<path d="M210.022 87.7501C209.522 87.7501 209.022 87.7501 208.522 87.6501C208.322 87.6501 208.122 87.5501 208.122 87.3501L204.822 78.4501L195.822 48.1501V48.0501C195.822 47.9501 195.622 46.4501 196.922 45.8501C198.922 44.7501 203.122 46.6501 209.422 51.5501C209.522 51.5501 209.522 51.6501 209.522 51.7501L220.922 72.3501L223.922 80.4501C224.022 80.5501 223.922 80.7501 223.922 80.8501C223.822 80.9501 219.522 87.7501 210.022 87.7501ZM208.922 86.7501C217.722 87.2501 222.122 81.6501 222.922 80.5501L220.022 72.7501L208.722 52.2501C200.622 46.0501 198.122 46.3501 197.322 46.7501C196.722 47.0501 196.722 47.8501 196.722 47.9501L205.622 78.1501L208.922 86.7501Z" fill="currentColor"/>
<path d="M209.721 79.6502C208.421 79.6502 207.621 79.4502 207.521 79.3502C207.221 79.2502 207.121 78.9502 207.221 78.7502C207.321 78.5502 207.621 78.3502 207.821 78.4502C208.021 78.5502 213.521 79.9502 218.721 74.3502C218.921 74.1502 219.221 74.1502 219.421 74.3502C219.621 74.5502 219.621 74.8502 219.421 75.0502C215.821 78.8502 212.021 79.6502 209.721 79.6502Z" fill="currentColor"/>
<path d="M211.022 89.9502C210.022 89.9502 209.322 89.8502 209.322 89.8502C209.122 89.8502 209.022 89.7502 208.922 89.5502L208.422 88.1502C208.322 87.8502 208.422 87.6502 208.722 87.5502C209.022 87.4502 209.222 87.5502 209.322 87.8502L209.722 88.9502C211.122 89.0502 217.522 89.3502 223.522 84.0502C223.722 83.8502 224.022 83.6502 224.222 83.3502C224.422 83.1502 224.722 83.1502 224.922 83.3502C225.122 83.5502 225.122 83.8502 224.922 84.0502C224.722 84.2502 224.422 84.5502 224.122 84.7502C219.022 89.2502 213.722 89.9502 211.022 89.9502Z" fill="currentColor"/>
<path d="M223.821 80.25C223.821 80.25 228.821 75.35 233.621 79.25C233.621 79.25 227.421 95.35 216.221 101.35C216.221 101.35 214.221 101.15 215.321 99.15C216.421 97.15 217.121 94.55 217.121 94.55L217.521 93.95C217.521 93.95 219.321 88.55 228.221 82.95L228.621 82.65C230.921 83.85 231.921 80.35 231.921 80.35C230.821 80.05 229.821 80.05 229.021 80.25C228.121 80.45 227.321 80.95 226.621 81.55L224.521 83.65" fill="white"/>
<path d="M216.321 101.75C216.121 101.75 215.221 101.65 214.821 100.85C214.521 100.35 214.621 99.65 215.021 98.85C216.121 96.95 216.721 94.45 216.721 94.35C216.721 94.35 216.721 94.25 216.821 94.25L217.221 93.65C217.521 92.95 219.621 87.85 228.021 82.45L228.421 82.25C228.621 82.15 228.721 82.15 228.921 82.25C229.321 82.45 229.721 82.45 230.021 82.35C230.621 82.05 231.121 81.35 231.321 80.75C230.621 80.65 229.921 80.65 229.221 80.75C228.421 80.95 227.721 81.35 227.021 81.95L224.921 84.05C224.721 84.25 224.421 84.25 224.221 84.05C224.021 83.85 224.021 83.55 224.221 83.35L226.321 81.25C227.121 80.45 228.021 79.95 229.021 79.75C230.121 79.55 231.121 79.55 232.121 79.85C232.221 79.85 232.321 79.95 232.421 80.05C232.521 80.15 232.521 80.35 232.421 80.45C232.421 80.55 231.721 82.55 230.321 83.15C229.821 83.35 229.221 83.35 228.621 83.15L228.521 83.25C219.921 88.65 218.121 93.95 218.021 93.95C218.021 94.05 218.021 94.05 217.921 94.05L217.621 94.55C217.521 94.95 216.821 97.35 215.821 99.15C215.521 99.65 215.521 99.95 215.621 100.25C215.721 100.45 216.021 100.55 216.221 100.65C226.121 95.25 232.121 81.65 233.021 79.25C228.721 76.15 224.321 80.25 224.121 80.45C223.921 80.65 223.621 80.65 223.421 80.45C223.221 80.25 223.221 79.95 223.421 79.75C223.521 79.65 228.821 74.65 233.921 78.75C234.121 78.85 234.121 79.15 234.121 79.35C233.821 80.05 227.721 95.65 216.521 101.65C216.521 101.75 216.421 101.75 216.321 101.75Z" fill="currentColor"/>
</svg>
