<svg width="300" height="301" viewBox="0 0 300 301" fill="none" xmlns="http://www.w3.org/2000/svg">
<rect width="300" height="300" transform="translate(0 0.5)" fill="white"/>
<path d="M127.101 135.6C119.201 127.7 113.901 114.6 112.101 98.7998C110.501 84.3998 107.501 32.7998 107.501 32.2998C107.401 30.3998 105.701 28.8998 103.801 28.9998C101.901 29.0998 100.401 30.7998 100.501 32.6998C100.601 34.7998 103.601 85.0998 105.201 99.5998C107.201 117.3 113.101 131.5 122.201 140.6C138.101 156.5 143.301 168.9 139.901 185.4C138.501 189.7 135.601 193.4 131.701 195.7C130.701 196.3 129.401 196.4 128.301 195.9C122.201 192.9 119.601 191.5 113.201 192.7C106.201 194 102.701 197.9 99.8009 201.3C96.3009 205.2 93.4009 208.6 84.4009 208.9C75.4009 208.7 72.4009 205.3 69.0009 201.3C66.0009 197.8 62.6009 194 55.6009 192.7C49.3009 191.6 46.6009 192.9 40.5009 195.9C39.4009 196.4 38.1009 196.4 37.1009 195.8C33.3009 193.9 29.4009 188 28.8009 185.1C24.5009 165.3 36.8009 149.4 44.5009 141.7C45.9009 140.3 45.9009 138.1 44.5009 136.8C43.1009 135.4 40.9009 135.4 39.6009 136.8C32.6009 143.8 16.9009 162.7 22.0009 186.6C22.9009 191 27.8009 199.1 34.1009 202.1C37.1009 203.7 40.6009 203.7 43.6009 202.3C49.3009 199.5 50.4009 198.9 54.3009 199.7C58.9009 200.5 61.0009 203 63.7009 206C67.3009 210.1 71.7009 215.2 82.7009 215.9C82.9009 215.9 83.2009 215.9 83.5009 215.9H85.4009C85.7009 215.9 85.9009 215.9 86.2009 215.9C97.2009 215.2 101.601 210.1 105.201 206C107.901 202.9 110.001 200.5 114.601 199.7C118.501 199 119.601 199.5 125.301 202.3C128.301 203.8 131.801 203.7 134.801 202.1C141.801 198.5 146.501 191.6 147.301 183.8C149.201 165.3 143.801 152.4 127.101 135.6Z" fill="black"/>
<path d="M139.2 220.2C128 217.5 118.3 210.5 112.3 200.6C111.3 199 109.1 198.4 107.5 199.5C105.9 200.5 105.3 202.7 106.4 204.3C120.9 228.1 152 235.6 175.8 221.1C177.5 220.2 178.1 218.1 177.2 216.4C176.3 214.7 174.2 214.1 172.5 215C172.4 215.1 172.3 215.1 172.2 215.2C162.3 221.1 150.4 222.9 139.2 220.2Z" fill="black"/>
<path d="M254.001 213C263.601 219.4 270.201 229.4 272.401 240.8C272.801 242.7 274.601 243.9 276.501 243.5C278.401 243.1 279.601 241.3 279.201 239.4C273.901 212 247.401 194.2 220.001 199.5C218.101 199.8 216.801 201.5 217.001 203.5C217.301 205.4 219.001 206.7 221.001 206.5C221.101 206.5 221.201 206.5 221.301 206.4C232.701 204.1 244.401 206.5 254.001 213Z" fill="black"/>
<path d="M193.2 272.5C191.6 272.5 190 272.1 188.5 271.3C186.3 270 184.7 268 184 265.5L167.2 205.5L167 204.9V204.8L166.9 204.4L159.2 176.7C158.5 174.3 158.8 171.7 160.1 169.5C161.4 167.3 163.4 165.7 165.9 165L196.9 156.3C201.7 155 206.7 157.6 208.4 162.1L208.5 162.2L208.6 162.8L233.5 251.7C234.5 255.2 233.3 259.1 230.6 261.5C229.6 262.4 228.3 263.1 226.9 263.5L226 263.8L195.9 272.2C194.9 272.3 194.1 272.5 193.2 272.5ZM173.6 204.1L190.3 263.8C190.5 264.6 191 265.2 191.7 265.6C192.4 266 193.2 266.1 194 265.9L224.9 257.3C225.4 257.2 225.8 257 226.1 256.7C227 255.9 227.4 254.7 227 253.6L202.1 164.6C201.6 163 200 162.1 198.4 162.6L167.4 171.3C166.6 171.5 166 172 165.6 172.7C165.2 173.4 165.1 174.2 165.3 175L173 202.5L173.4 203L173.3 203.7L173.6 204.1Z" fill="black"/>
</svg>
