<svg width="301" height="301" viewBox="0 0 301 301" fill="none" xmlns="http://www.w3.org/2000/svg">
<rect width="300" height="300" transform="translate(0.296875 0.5)" fill="white"/>
<path d="M278.501 185.467L245.734 148.157C242.978 145.032 239.588 142.53 235.79 140.817C231.992 139.104 227.873 138.22 223.707 138.223H209.11C207.737 128.956 200.469 121.85 191.727 121.85H180.178L195.603 60.4938C195.752 59.9504 195.786 59.382 195.702 58.8249C195.618 58.2677 195.418 57.7344 195.116 57.259C194.814 56.7836 194.415 56.3767 193.946 56.0646C193.477 55.7524 192.948 55.5418 192.393 55.4464L163.986 50.5605C163.525 50.4798 163.054 50.4798 162.593 50.5605H162.27C161.205 50.471 160.148 50.8075 159.33 51.4964C158.513 52.1852 158.002 53.17 157.909 54.235L157.162 62.9165L132.793 64.6932L132.127 59.6458V59.4843C132.135 59.3431 132.135 59.2015 132.127 59.0603C132.127 58.9392 132.127 58.818 132.006 58.7171C131.952 58.5861 131.892 58.4581 131.824 58.3335L131.622 58.0105L131.481 57.7884L131.38 57.6874L131.138 57.425L130.815 57.1221L130.573 56.9404L130.169 56.6981L129.866 56.5568L129.462 56.3953H129.079H128.695H127.766H127.524H127.12L126.737 56.5366L126.393 56.6981L126.03 56.9202L125.828 57.0414L103.075 74.6062C102.403 75.1229 101.911 75.8376 101.668 76.6492C101.426 77.4608 101.444 78.3283 101.722 79.1287C106.083 92.0298 111.938 112.441 114.704 121.809H108.889C100.127 121.809 92.8586 128.916 91.5059 138.183H76.8887C72.7193 138.185 68.5981 139.075 64.8 140.795C61.0018 142.515 57.6138 145.024 54.8619 148.157L22.0944 185.467C21.4688 186.198 21.125 187.129 21.125 188.092C21.125 189.054 21.4688 189.985 22.0944 190.716L54.8619 228.026C57.6138 231.159 61.0018 233.668 64.8 235.388C68.5981 237.108 72.7193 237.998 76.8887 238H223.687C227.856 237.998 231.977 237.108 235.775 235.388C239.574 233.668 242.962 231.159 245.713 228.026L278.501 190.716C279.127 189.985 279.471 189.054 279.471 188.092C279.471 187.129 279.127 186.198 278.501 185.467ZM171.86 121.809H160.231L164.834 68.0043C165.033 67.4691 165.115 66.898 165.077 66.3285C165.077 66.2074 165.077 66.0863 165.077 65.9651L165.662 59.0401L186.639 62.7348L171.86 121.809ZM156.476 71.0125L152.135 121.809H140.203L133.843 72.6681L156.476 71.0125ZM110.141 79.0883L125.041 67.5601L132.127 121.809H123.103C120.962 114.299 114.966 93.5036 110.141 79.1691V79.0883ZM108.889 129.825H191.666C193.923 129.988 196.059 130.905 197.732 132.428C199.406 133.951 200.519 135.992 200.893 138.223H99.7029C100.088 136.009 101.2 133.987 102.864 132.477C104.528 130.966 106.648 130.054 108.889 129.885V129.825ZM239.677 222.696C237.682 224.967 235.225 226.786 232.471 228.033C229.718 229.279 226.73 229.924 223.707 229.924H76.8887C73.8659 229.924 70.878 229.279 68.1241 228.033C65.3703 226.786 62.9139 224.967 60.9188 222.696L30.4932 188.132L60.9188 153.487C62.9176 151.223 65.3756 149.411 68.1293 148.172C70.8829 146.933 73.869 146.294 76.8887 146.299H223.687C226.709 146.299 229.697 146.944 232.451 148.191C235.205 149.437 237.662 151.256 239.657 153.527L270.082 188.172L239.677 222.696Z" fill="black"/>
<path d="M71.5574 167.478C70.4865 167.478 69.4595 167.903 68.7022 168.661C67.945 169.418 67.5195 170.445 67.5195 171.516V204.748C67.5195 205.819 67.945 206.846 68.7022 207.603C69.4595 208.36 70.4865 208.786 71.5574 208.786C72.6284 208.786 73.6554 208.36 74.4127 207.603C75.1699 206.846 75.5953 205.819 75.5953 204.748V171.516C75.5953 170.445 75.1699 169.418 74.4127 168.661C73.6554 167.903 72.6284 167.478 71.5574 167.478Z" fill="black"/>
<path d="M229.036 167.478C227.965 167.478 226.938 167.903 226.181 168.661C225.423 169.418 224.998 170.445 224.998 171.516V204.748C224.998 205.819 225.423 206.846 226.181 207.603C226.938 208.36 227.965 208.786 229.036 208.786C230.107 208.786 231.134 208.36 231.891 207.603C232.648 206.846 233.074 205.819 233.074 204.748V171.516C233.074 170.445 232.648 169.418 231.891 168.661C231.134 167.903 230.107 167.478 229.036 167.478Z" fill="black"/>
</svg>
