<svg width="300" height="301" viewBox="0 0 300 301" fill="none" xmlns="http://www.w3.org/2000/svg">
<rect width="300" height="300" transform="translate(0 0.5)" fill="white"/>
<path d="M81.1531 30.7755V26.2863C81.1531 25.4511 80.3193 24.9291 79.5897 25.3467L44.986 37.6659C44.6733 37.8747 44.4648 38.1879 44.4648 38.6055L44.5691 44.7651L81.1531 30.7755Z" fill="white"/>
<path d="M44.5687 45.287C44.4645 45.287 44.3603 45.287 44.256 45.1826C44.1518 45.0782 44.0476 44.9738 44.0476 44.765L43.9434 38.6054C43.9434 37.979 44.256 37.457 44.7772 37.1438L79.3809 24.8246C79.7978 24.6158 80.4232 24.6158 80.8401 24.8246C81.3613 25.1378 81.6739 25.6598 81.6739 26.1818V30.671C81.6739 30.8798 81.5697 31.0886 81.3613 31.193L44.673 45.287H44.5687ZM80.1105 25.7642C80.0063 25.7642 79.9021 25.7642 79.7978 25.7642L45.0899 38.1878C44.9856 38.2922 44.8814 38.3966 44.8814 38.6054L44.9856 44.0342L80.6317 30.3578V26.2862C80.6317 25.973 80.4232 25.8686 80.319 25.7642C80.319 25.7642 80.2147 25.7642 80.1105 25.7642Z" fill="black"/>
<path d="M90.2209 25.6596L89.9082 29.8356L234.89 41.8416V36.8304C234.89 35.3688 233.847 34.2204 232.388 34.0116L93.2435 23.0496C91.6801 22.9452 90.3251 24.0936 90.2209 25.6596Z" fill="white"/>
<path d="M234.889 42.3637L89.9079 30.3577C89.5952 30.3577 89.3867 30.0445 89.3867 29.8357L89.6994 25.6597C89.8036 24.7201 90.2205 23.8849 90.8459 23.3629C91.5755 22.7365 92.4093 22.5277 93.3474 22.6321L232.388 33.5941C234.16 33.8029 235.41 35.1601 235.41 36.9349V41.9461C235.41 42.0505 235.306 42.2593 235.202 42.3637C235.098 42.3637 234.993 42.3637 234.889 42.3637ZM90.429 29.4181L234.264 41.3197V36.8305C234.264 35.6821 233.43 34.6381 232.179 34.5337L93.2432 23.5717C92.6178 23.4673 91.9924 23.6761 91.4713 24.0937C90.9501 24.5113 90.7417 25.0333 90.6375 25.6597L90.429 29.4181Z" fill="black"/>
<path d="M80.3192 120.35V115.861C80.3192 115.026 79.4853 114.504 78.7557 114.921L44.152 134.549C43.8393 134.757 43.6309 135.071 43.6309 135.488L43.7351 141.648L80.3192 120.35Z" fill="white"/>
<path d="M43.7347 142.17C43.6305 142.17 43.5263 142.17 43.5263 142.065C43.3178 141.961 43.2136 141.857 43.2136 141.648L43.1094 135.488C43.1094 134.862 43.4221 134.34 43.9432 134.027L78.5469 114.399C79.0681 114.086 79.5892 114.086 80.1104 114.399C80.6315 114.713 80.9442 115.235 80.9442 115.757V120.246C80.9442 120.455 80.84 120.559 80.7357 120.663L44.0474 142.065C43.839 142.17 43.7347 142.17 43.7347 142.17ZM79.2765 115.235C79.1723 115.235 79.0681 115.235 78.9638 115.339L44.3601 134.966C44.1517 135.071 44.0474 135.279 44.0474 135.488L44.1517 140.813L79.7977 120.037V115.861C79.7977 115.548 79.5892 115.443 79.485 115.339C79.485 115.339 79.3808 115.235 79.2765 115.235Z" fill="black"/>
<path d="M90.5334 116.07L90.2207 120.246L235.41 135.384V130.373C235.41 128.911 234.368 127.763 232.909 127.554L93.6602 113.46C91.9926 113.355 90.6376 114.504 90.5334 116.07Z" fill="white"/>
<path d="M235.411 135.906C235.411 135.906 235.307 135.906 235.411 135.906L90.2214 120.768C89.9087 120.768 89.7002 120.455 89.8045 120.246L90.1171 116.07C90.2214 115.13 90.6383 114.295 91.2637 113.773C91.9932 113.147 92.8271 112.938 93.7651 113.042L232.91 127.032C234.577 127.241 235.932 128.598 235.932 130.373V135.384C235.932 135.488 235.828 135.697 235.724 135.801C235.62 135.906 235.515 135.906 235.411 135.906ZM90.8467 119.828L234.89 134.862V130.373C234.89 129.224 234.056 128.18 232.805 128.076L93.5567 113.982C92.9313 113.877 92.3059 114.086 91.889 114.504C91.3679 114.921 91.1594 115.443 91.0552 116.07L90.8467 119.828Z" fill="black"/>
<path d="M239.373 213.266C237.392 213.266 235.725 211.596 235.725 209.612V34.8469C235.725 32.8633 237.392 31.1929 239.373 31.1929C241.353 31.1929 243.021 32.8633 243.021 34.8469V209.717C243.021 211.7 241.353 213.266 239.373 213.266Z" fill="black"/>
<path d="M40.401 173.699C39.7756 173.699 39.046 173.386 38.6291 172.759C38.0037 171.82 38.2122 170.463 39.2545 169.836L86.2614 138.725C87.1994 138.099 88.5544 138.307 89.1798 139.351C89.8051 140.291 89.5967 141.648 88.5544 142.275L41.5475 173.281C41.2348 173.595 40.8179 173.699 40.401 173.699Z" fill="black"/>
<path d="M40.9204 70.0294C40.0866 70.0294 39.357 69.6118 39.0443 68.7766C38.5231 67.7326 39.0443 66.4798 40.0866 65.9578L86.5723 44.4514C87.6146 43.9294 88.8653 44.4514 89.3865 45.4954C89.9076 46.5394 89.3865 47.7922 88.3442 48.3142L41.7542 69.925C41.4415 70.0294 41.2331 70.0294 40.9204 70.0294Z" fill="black"/>
<path d="M85.5308 192.491C83.5505 192.491 81.8828 190.82 81.8828 188.837V23.154C81.8828 21.1704 83.4462 19.6044 85.4266 19.5C87.4069 19.3956 89.0746 20.9616 89.1788 22.9452L89.4915 29.2092C89.4915 29.8356 89.3872 30.462 89.1788 30.984V188.837C89.1788 190.82 87.6154 192.491 85.5308 192.491Z" fill="black"/>
<path d="M82.5084 188.732L81.5703 194.161H89.8043L88.7621 188.732C88.7621 188.732 86.0521 190.82 82.5084 188.732Z" fill="white"/>
<path d="M89.804 194.788H81.57C81.4657 194.788 81.2573 194.683 81.1531 194.579C81.0488 194.474 81.0488 194.266 81.0488 194.161L81.9869 188.628C81.9869 188.419 82.0911 188.315 82.2996 188.21C82.4038 188.106 82.6123 188.106 82.8207 188.21C86.0518 190.09 88.3448 188.315 88.449 188.21C88.5533 188.106 88.7617 188.106 88.9702 188.106C89.1786 188.21 89.2829 188.315 89.2829 188.524L90.3251 193.952C90.3251 194.057 90.3251 194.266 90.2209 194.37C90.1167 194.683 90.0124 194.788 89.804 194.788ZM82.1953 193.744H89.1786L88.3448 189.672C87.3025 190.194 85.3222 190.82 82.8207 189.672L82.1953 193.744Z" fill="black"/>
<path d="M84.5938 204.81C84.3854 206.585 84.4896 208.255 84.8023 209.612C85.115 211.178 85.8446 212.327 86.6784 212.327H82.3008C80.7374 212.222 79.7993 208.777 80.2162 204.81C80.6331 200.738 82.0923 197.606 83.6558 197.815H87.7207C86.8868 197.92 86.053 198.964 85.5319 200.53C85.115 201.678 84.8023 203.244 84.5938 204.81Z" fill="black"/>
<path d="M86.6778 213.475H82.3002C81.7791 213.475 81.1537 213.266 80.5283 212.536C79.3818 211.178 78.8607 208.151 79.1734 204.81C79.486 201.469 80.5283 198.65 81.9875 197.398C82.7171 196.771 83.3425 196.771 83.7594 196.771H87.7201C88.2412 196.771 88.7623 197.189 88.7623 197.711C88.7623 198.233 88.4497 198.755 87.9285 198.859C87.7201 198.859 87.0947 199.277 86.4693 200.947C86.0524 202.096 85.7397 203.453 85.6355 204.914C85.5313 206.585 85.5313 208.151 85.844 209.404C86.1566 210.97 86.6778 211.387 86.782 211.387C87.3031 211.387 87.7201 211.909 87.7201 212.431C87.7201 212.953 87.3032 213.475 86.6778 213.475ZM83.6552 198.859C83.5509 198.859 83.4467 198.859 83.3425 198.964C82.5087 199.59 81.5706 201.887 81.2579 204.914C80.9452 207.942 81.4664 210.343 82.196 211.178C82.3002 211.283 82.4044 211.387 82.4044 211.387H84.2805C84.0721 210.97 83.9678 210.448 83.8636 209.926C83.5509 208.464 83.4467 206.689 83.6552 204.81C83.8636 203.14 84.1763 201.574 84.6974 200.216C84.9059 199.694 85.1144 199.277 85.3228 198.859H83.6552Z" fill="black"/>
<path d="M84.9064 210.134C84.8022 210.134 84.8022 210.134 84.9064 210.134C84.5937 210.134 84.4895 209.926 84.3853 209.717C84.0726 208.36 83.9684 206.585 84.1768 204.81C84.281 203.14 84.698 201.678 85.1149 200.425C85.2191 200.216 85.4276 200.112 85.636 200.112C85.8445 200.112 86.0529 200.321 86.1571 200.53C86.4698 201.887 86.5741 203.662 86.3656 205.541C86.1571 207.211 85.8445 208.673 85.4275 209.926C85.2191 210.03 85.1149 210.134 84.9064 210.134ZM85.3233 203.348C85.2191 203.87 85.1149 204.392 85.1149 204.914C85.0106 205.541 85.0106 206.272 85.0106 206.898C85.1149 206.376 85.2191 205.854 85.2191 205.332C85.3233 204.601 85.3233 203.975 85.3233 203.348Z" fill="black"/>
<path d="M90.2224 205.332C89.8055 209.404 88.3463 212.536 86.7829 212.327C85.949 212.223 85.3237 211.179 84.9068 209.613C84.5941 208.255 84.4898 206.585 84.6983 204.81C84.8025 203.14 85.2194 201.678 85.6363 200.53C86.2617 198.964 87.0955 197.92 87.8251 197.815H88.1378C89.597 197.92 90.5351 201.365 90.2224 205.332Z" fill="white"/>
<path d="M86.7825 212.953H86.6783C85.636 212.849 84.8022 211.701 84.3853 209.821C84.0726 208.464 83.9684 206.689 84.1768 204.915C84.281 203.244 84.698 201.783 85.1149 200.53C85.8445 198.651 86.7825 197.607 87.7206 197.398H88.0333C88.5544 197.398 88.9713 197.711 89.3882 198.129C90.4305 199.381 90.9516 202.305 90.639 205.541C90.3263 208.777 89.284 211.492 88.0333 212.536C87.7206 212.744 87.3037 212.953 86.7825 212.953ZM88.0333 198.337H87.8248C87.4079 198.442 86.6783 199.068 86.0529 200.739C85.636 201.887 85.3233 203.349 85.1149 204.915C85.0106 206.585 85.0106 208.255 85.3233 209.508C85.636 210.865 86.1571 211.805 86.6783 211.909C86.8867 211.909 87.0952 211.805 87.3037 211.596C88.2417 210.865 89.1798 208.673 89.4924 205.332C89.8051 202.513 89.3882 199.799 88.4502 198.755C88.4502 198.442 88.2417 198.337 88.0333 198.337Z" fill="black"/>
<path d="M87.0947 208.882C86.6778 208.882 86.0524 208.673 85.7397 207.42C85.5312 206.689 85.5312 205.854 85.5312 204.915C85.7397 203.035 86.4693 201.156 87.6158 201.261C88.8666 201.365 89.1792 203.453 89.075 205.228C88.9708 206.167 88.7623 207.002 88.4496 207.733C88.0327 208.777 87.5116 208.882 87.0947 208.882ZM86.6778 205.019C86.4693 206.794 86.9904 207.838 87.1989 207.838C87.4074 207.838 88.0327 206.898 88.137 205.123C88.2412 203.348 87.8243 202.305 87.6158 202.305C87.5116 202.305 86.8862 203.244 86.6778 205.019Z" fill="black"/>
<path d="M82.8212 198.859H87.303C87.303 198.859 86.0523 212.431 89.8045 205.645C91.4721 202.513 90.4299 191.969 90.4299 191.969C90.4299 191.969 89.9087 194.266 84.8015 194.161C81.4662 194.057 81.362 192.7 81.362 192.7C81.362 192.7 78.3394 198.859 82.8212 198.859Z" fill="white"/>
<path d="M88.1365 208.046C88.0323 208.046 87.928 208.046 87.8238 208.046C86.3646 207.629 86.4688 202.722 86.7815 199.381H82.9251C81.7786 199.381 80.8405 198.963 80.4236 198.233C79.1729 196.353 80.7363 192.804 80.9448 192.386C81.049 192.177 81.2574 192.073 81.4659 192.073C81.6743 192.073 81.8828 192.282 81.8828 192.491C81.8828 192.491 82.1955 193.43 84.9054 193.535C89.4915 193.639 90.0126 191.76 90.0126 191.76C90.1168 191.551 90.3253 191.342 90.5337 191.342C90.7422 191.342 90.9507 191.551 91.0549 191.76C91.0549 192.177 92.2014 202.513 90.4295 205.749C89.5957 207.002 88.8661 208.046 88.1365 208.046ZM81.3617 193.743C80.9448 194.892 80.5278 196.771 81.1532 197.711C81.4659 198.233 81.987 198.441 82.8209 198.441H87.3027C87.4069 198.441 87.6154 198.546 87.7196 198.65C87.8238 198.755 87.8238 198.859 87.8238 199.068C87.5111 203.035 87.6154 206.793 88.1365 207.211C88.1365 207.211 88.5534 207.002 89.283 205.541C90.5337 203.244 90.1168 196.353 89.9084 193.535C89.0745 194.265 87.5111 194.892 84.697 194.892C82.9251 194.579 81.8828 194.161 81.3617 193.743Z" fill="black"/>
<path d="M210.814 61.7818C208.834 61.7818 207.166 60.1114 207.166 58.1278V54.9958C207.166 53.0122 208.834 51.3418 210.814 51.3418C212.794 51.3418 214.462 53.0122 214.462 54.9958V58.1278C214.462 60.1114 212.899 61.7818 210.814 61.7818Z" fill="black"/>
<path d="M236.243 209.717L235.305 215.146H243.539L242.496 209.717C242.496 209.717 239.891 211.805 236.243 209.717Z" fill="white"/>
<path d="M243.644 215.772H235.41C235.306 215.772 235.097 215.668 234.993 215.563C234.889 215.459 234.889 215.25 234.889 215.146L235.827 209.717C235.827 209.508 235.931 209.404 236.139 209.299C236.244 209.195 236.452 209.195 236.661 209.299C239.892 211.178 242.185 209.404 242.289 209.299C242.393 209.195 242.602 209.195 242.81 209.195C243.018 209.299 243.123 209.404 243.123 209.612L244.165 215.041C244.165 215.146 244.165 215.354 244.061 215.459C243.957 215.668 243.748 215.772 243.644 215.772ZM236.035 214.728H243.018L242.185 210.656C241.142 211.178 239.162 211.805 236.661 210.656L236.035 214.728Z" fill="black"/>
<path d="M238.434 225.794C238.225 227.569 238.329 229.24 238.642 230.597C238.955 232.163 239.684 233.311 240.518 233.311H236.141C234.577 233.207 233.639 229.762 234.056 225.794C234.473 221.723 235.932 218.591 237.496 218.8H241.561C240.727 218.904 239.893 219.948 239.372 221.514C238.851 222.767 238.538 224.228 238.434 225.794Z" fill="black"/>
<path d="M240.518 234.46H236.14C235.619 234.46 234.994 234.251 234.368 233.52C233.222 232.163 232.701 229.135 233.013 225.794C233.326 222.454 234.368 219.635 235.827 218.382C236.557 217.756 237.182 217.756 237.599 217.756H241.56C242.081 217.756 242.602 218.173 242.602 218.695C242.602 219.217 242.29 219.739 241.768 219.844C241.56 219.844 240.935 220.261 240.309 221.932C239.892 223.08 239.58 224.437 239.475 225.899C239.371 227.569 239.371 229.135 239.684 230.388C239.996 231.85 240.518 232.372 240.622 232.372C241.143 232.372 241.56 232.894 241.56 233.416C241.56 233.938 241.039 234.46 240.518 234.46ZM237.495 219.844C237.391 219.844 237.287 219.844 237.182 219.948C236.348 220.574 235.41 222.871 235.098 225.899C234.785 228.926 235.306 231.328 236.036 232.163C236.14 232.267 236.244 232.372 236.244 232.372H238.12C237.912 231.954 237.808 231.432 237.703 230.91C237.391 229.448 237.287 227.674 237.495 225.794C237.703 224.124 238.016 222.558 238.537 221.201C238.746 220.679 238.954 220.261 239.163 219.844H237.495Z" fill="black"/>
<path d="M238.641 231.119C238.328 231.119 238.224 230.91 238.12 230.701C237.807 229.344 237.703 227.569 237.911 225.794C238.015 224.124 238.432 222.662 238.849 221.41C238.953 221.201 239.162 221.096 239.37 221.096C239.579 221.096 239.787 221.305 239.892 221.514C240.204 222.871 240.308 224.646 240.1 226.525C239.891 228.196 239.579 229.657 239.162 230.91C239.058 231.014 238.849 231.119 238.641 231.119ZM239.162 224.333C239.058 224.855 238.953 225.377 238.953 225.899C238.849 226.525 238.849 227.256 238.849 227.882C238.953 227.36 239.058 226.838 239.058 226.316C239.162 225.586 239.162 224.959 239.162 224.333Z" fill="black"/>
<path d="M243.957 226.316C243.54 230.388 242.081 233.52 240.517 233.311C239.683 233.207 239.058 232.163 238.641 230.597C238.328 229.24 238.224 227.569 238.433 225.794C238.537 224.124 238.954 222.662 239.371 221.514C239.996 219.948 240.83 218.904 241.56 218.8H241.872C243.436 218.904 244.374 222.349 243.957 226.316Z" fill="white"/>
<path d="M240.622 233.938H240.518C239.476 233.833 238.642 232.685 238.225 230.806C237.912 229.448 237.808 227.674 238.017 225.899C238.121 224.228 238.538 222.767 238.955 221.514C239.684 219.635 240.622 218.591 241.56 218.382H241.873C242.394 218.382 242.811 218.695 243.228 219.113C244.27 220.366 244.791 223.289 244.479 226.525C244.166 229.762 243.124 232.476 241.873 233.52C241.456 233.729 241.039 233.938 240.622 233.938ZM241.769 219.322H241.56C241.144 219.426 240.414 220.052 239.789 221.723C239.372 222.871 239.059 224.333 238.85 225.899C238.746 227.569 238.746 229.24 239.059 230.492C239.372 231.85 239.893 232.789 240.414 232.894C240.622 232.894 240.831 232.789 241.039 232.58C241.977 231.85 242.915 229.657 243.228 226.316C243.541 223.498 243.124 220.783 242.186 219.739C242.186 219.426 241.977 219.322 241.769 219.322Z" fill="black"/>
<path d="M240.935 229.866C240.935 229.866 240.83 229.866 240.935 229.866C240.518 229.866 239.892 229.657 239.58 228.404C239.371 227.674 239.371 226.838 239.371 225.899C239.58 224.02 240.309 222.14 241.456 222.245C242.706 222.349 243.019 224.437 242.915 226.212C242.811 227.152 242.602 227.987 242.289 228.718C241.873 229.762 241.247 229.866 240.935 229.866ZM241.456 223.289C241.247 223.289 240.622 224.228 240.518 226.003C240.309 227.778 240.83 228.822 241.039 228.822C241.247 228.822 241.873 227.882 241.977 226.108C242.081 224.333 241.664 223.393 241.456 223.289Z" fill="black"/>
<path d="M236.661 219.844H241.143C241.143 219.844 239.892 233.416 243.644 226.63C245.312 223.498 244.27 212.953 244.27 212.953C244.27 212.953 243.749 215.25 238.641 215.146C235.306 215.041 235.202 213.684 235.202 213.684C235.202 213.684 232.179 219.844 236.661 219.844Z" fill="white"/>
<path d="M241.873 229.031C241.769 229.031 241.664 229.031 241.56 229.031C240.101 228.613 240.205 223.706 240.518 220.366H236.661C235.515 220.366 234.577 219.948 234.16 219.217C232.909 217.338 234.473 213.789 234.681 213.371C234.785 213.162 234.994 213.058 235.202 213.058C235.411 213.058 235.619 213.267 235.619 213.475C235.619 213.475 235.932 214.415 238.642 214.519C243.228 214.624 243.749 212.745 243.749 212.745C243.853 212.536 244.062 212.327 244.27 212.327C244.479 212.327 244.687 212.536 244.791 212.745C244.791 213.162 245.938 223.498 244.166 226.734C243.436 227.987 242.707 229.031 241.873 229.031ZM235.202 214.728C234.785 215.877 234.368 217.756 234.994 218.695C235.306 219.217 235.828 219.426 236.661 219.426H241.143C241.247 219.426 241.456 219.531 241.56 219.635C241.664 219.739 241.664 219.844 241.664 220.053C241.352 224.02 241.456 227.778 241.977 228.196C241.977 228.196 242.394 227.987 243.124 226.525C244.374 224.229 243.957 217.338 243.749 214.519C242.915 215.25 241.352 215.877 238.538 215.877C236.661 215.563 235.723 215.146 235.202 214.728Z" fill="black"/>
<path d="M213.21 190.925C212.688 190.925 212.271 190.716 211.855 190.403C211.021 189.672 210.917 188.315 211.646 187.48L237.807 158.143C238.537 157.308 239.892 157.204 240.726 157.935C241.56 158.665 241.664 160.022 240.934 160.858L214.773 190.194C214.356 190.716 213.835 190.925 213.21 190.925Z" fill="black"/>
<path d="M210.606 61.469L40.2969 46.5398L83.0304 30.0446C83.0304 30.0446 86.5742 30.8798 88.8672 29.627L235.308 41.111L237.809 42.4682L210.606 61.469Z" fill="white"/>
<path d="M210.605 61.991L40.2965 47.0618C40.0881 47.0618 39.8796 46.853 39.7754 46.6442C39.7754 46.4354 39.8796 46.1222 40.0881 46.1222L82.8216 29.5226C82.9258 29.5226 83.0301 29.5226 83.1343 29.5226C83.1343 29.5226 86.5738 30.3578 88.6584 29.2094C88.7626 29.2094 88.8668 29.105 88.9711 29.105L235.412 40.589C235.516 40.589 235.516 40.589 235.62 40.6934L238.122 42.0506C238.33 42.155 238.33 42.2594 238.434 42.4682C238.538 42.677 238.33 42.7814 238.226 42.8858L211.022 61.8866C210.814 61.991 210.71 61.991 210.605 61.991ZM42.5895 46.2266L210.501 60.947L236.871 42.5726L235.203 41.633L88.9711 30.149C86.7823 31.193 83.7597 30.671 83.0301 30.5666L42.5895 46.2266Z" fill="black"/>
<path d="M210.812 79.9476C210.187 79.9476 209.457 79.6344 209.145 79.008C208.519 78.0684 208.728 76.7112 209.666 76.0848L238.224 56.3532C239.162 55.7268 240.517 55.9356 241.143 56.8752C241.768 57.8148 241.56 59.172 240.621 59.7984L212.063 79.53C211.646 79.8432 211.229 79.9476 210.812 79.9476Z" fill="black"/>
<path d="M40.3999 230.597C38.4196 230.597 36.752 228.927 36.752 226.943V41.5285C36.752 39.5449 38.4196 37.8745 40.3999 37.8745C42.3803 37.8745 44.0479 39.5449 44.0479 41.5285V226.943C44.0479 228.927 42.4845 230.597 40.3999 230.597Z" fill="black"/>
<path d="M37.1673 223.915L36.125 230.179H45.5055L44.2548 223.915C44.359 223.915 41.3364 226.316 37.1673 223.915Z" fill="white"/>
<path d="M45.6107 230.701H36.2301C36.1259 230.701 35.9174 230.597 35.8132 230.492C35.709 230.388 35.709 230.179 35.709 230.075L36.7513 223.811C36.7513 223.602 36.8555 223.498 37.064 223.393C37.1682 223.289 37.3766 223.289 37.5851 223.393C41.3373 225.586 44.1515 223.498 44.1515 223.393C44.2557 223.289 44.4641 223.289 44.6726 223.289C44.8811 223.393 44.9853 223.498 44.9853 223.706L46.236 229.97C46.236 230.075 46.236 230.284 46.1318 230.388C45.9233 230.597 45.7149 230.701 45.6107 230.701ZM36.8555 229.657H44.9853L44.0472 224.75C42.9007 225.377 40.6077 226.108 37.6893 224.75L36.8555 229.657Z" fill="black"/>
<path d="M39.6707 242.29C39.4623 244.378 39.5665 246.257 39.8792 247.718C40.2961 249.598 41.0257 250.746 41.9637 250.85H37.065C35.2931 250.746 34.2508 246.779 34.6678 242.185C35.0847 237.592 36.8566 233.938 38.6284 234.146H43.3187C42.3806 234.251 41.4426 235.504 40.8172 237.278C40.1919 238.74 39.8792 240.41 39.6707 242.29Z" fill="black"/>
<path d="M42.0682 252.521H37.0653H36.9611C36.4399 252.521 35.6061 252.208 34.8765 251.372C33.5215 249.702 32.7919 246.152 33.2088 242.185C33.5215 238.218 34.8765 234.877 36.5441 233.52C37.378 232.789 38.2118 232.685 38.7329 232.685H43.319C44.1528 232.685 44.7782 233.311 44.8824 234.146C44.9866 234.982 44.3613 235.712 43.5274 235.817C43.4232 235.921 42.7978 236.443 42.1725 238.009C41.6513 239.262 41.3386 240.828 41.2344 242.498C41.026 244.378 41.1302 246.152 41.4429 247.51C41.7556 248.762 42.0682 249.389 42.2767 249.493C43.1105 249.598 43.6317 250.328 43.6317 251.164C43.5274 251.894 42.9021 252.521 42.0682 252.521ZM37.2737 249.389H38.7329C38.6287 248.971 38.5245 248.554 38.4203 248.136C38.0033 246.466 37.8991 244.378 38.1076 242.185C38.316 240.202 38.7329 238.427 39.2541 236.861C39.3583 236.548 39.5668 236.13 39.671 235.817H38.6287H38.5245C38.1076 236.026 36.6484 238.218 36.2315 242.498C35.8145 246.57 36.7526 248.971 37.2737 249.389Z" fill="black"/>
<path d="M39.8788 248.345C39.5661 248.345 39.4619 248.136 39.3576 247.927C39.0449 246.361 38.9407 244.378 39.0449 242.29C39.2534 240.411 39.5661 238.636 40.1915 237.279C40.2957 237.07 40.5041 236.965 40.7126 236.965C40.9211 236.965 41.1295 237.174 41.2337 237.383C41.5464 238.949 41.6506 240.933 41.5464 243.021C41.338 244.9 41.0253 246.57 40.3999 248.032C40.2957 248.241 40.0872 248.345 39.8788 248.345ZM40.5041 239.889C40.2957 240.619 40.1915 241.455 40.0872 242.29C39.983 243.334 39.983 244.273 39.983 245.213C40.1915 244.482 40.2957 243.647 40.3999 242.812C40.6084 241.872 40.6084 240.828 40.5041 239.889Z" fill="black"/>
<path d="M46.0282 242.916C45.6112 247.51 43.8394 251.164 42.0675 250.955C41.1294 250.85 40.2956 249.702 39.9829 247.823C39.6702 246.361 39.566 244.378 39.7745 242.394C39.9829 240.515 40.2956 238.844 40.8167 237.487C41.5463 235.712 42.3802 234.46 43.3182 234.355H43.6309C45.4028 234.46 46.4451 238.322 46.0282 242.916Z" fill="white"/>
<path d="M42.1718 251.477C42.0676 251.477 42.0676 251.477 41.9633 251.477C40.8168 251.372 39.8788 250.12 39.3576 247.927C39.0449 246.361 38.9407 244.378 39.0449 242.29C39.2534 240.41 39.5661 238.636 40.1915 237.278C41.0253 235.19 42.0676 233.938 43.1098 233.833H43.5268C44.1521 233.833 44.569 234.146 44.9859 234.668C46.2367 236.13 46.7578 239.471 46.4451 243.02C46.1325 246.674 44.9859 249.806 43.5268 250.955C43.1098 251.268 42.5887 251.477 42.1718 251.477ZM43.5268 234.773H43.2141C42.5887 234.877 41.7549 235.921 41.1295 237.592C40.6084 238.949 40.2957 240.619 40.0872 242.394C39.8788 244.378 39.983 246.257 40.2957 247.718C40.6084 249.389 41.338 250.433 41.9633 250.433C42.1718 250.433 42.4845 250.328 42.7972 250.12C43.8394 249.284 44.9859 246.674 45.4029 242.916C45.7155 239.053 45.0902 236.339 44.2564 235.295C44.0479 234.982 43.8394 234.773 43.5268 234.773Z" fill="black"/>
<path d="M42.4855 246.883C41.1305 246.779 40.6094 244.586 40.8178 242.394C40.922 241.35 41.1305 240.306 41.5474 239.575C42.1728 238.322 42.7981 238.218 43.2151 238.322C44.4658 238.427 44.9869 240.619 44.7785 242.812C44.6742 243.856 44.4658 244.9 44.0489 245.63C43.5277 246.674 42.9024 246.883 42.4855 246.883ZM43.1108 239.366C43.0066 239.366 42.7981 239.471 42.4855 240.097C42.1728 240.724 41.9643 241.559 41.8601 242.498C41.6516 244.586 42.277 245.839 42.4855 245.839C42.4855 245.839 42.7981 245.735 43.1108 245.108C43.4235 244.482 43.632 243.647 43.7362 242.707C43.9447 240.515 43.3193 239.366 43.1108 239.366Z" fill="black"/>
<path d="M37.5879 235.504H42.695C42.695 235.504 41.3401 251.059 45.5092 243.229C47.4895 239.575 46.2388 227.569 46.2388 227.569C46.2388 227.569 45.6134 230.179 39.7767 230.075C36.0244 229.971 35.816 228.405 35.816 228.405C35.816 228.405 32.4807 235.504 37.5879 235.504Z" fill="white"/>
<path d="M43.6321 245.944C43.5279 245.944 43.4237 245.944 43.3194 245.944C41.6518 245.422 41.8602 239.784 42.1729 236.13H37.5869C36.2319 236.13 35.2939 235.713 34.7727 234.773C33.3135 232.581 35.2939 228.405 35.2939 228.196C35.3981 227.987 35.6066 227.883 35.815 227.883C36.0235 227.883 36.2319 228.091 36.2319 228.3C36.2319 228.3 36.5446 229.449 39.6715 229.553C44.8829 229.657 45.6125 227.465 45.6125 227.465C45.7167 227.256 45.9251 227.047 46.1336 227.047C46.3421 227.047 46.5505 227.256 46.6547 227.465C46.759 227.987 47.9055 239.68 45.9251 243.438C45.2998 244.587 44.5702 245.944 43.6321 245.944ZM35.9192 229.449C35.3981 230.806 34.9812 232.998 35.6066 234.147C35.9192 234.669 36.6488 234.982 37.5869 234.982H42.6941C42.7983 234.982 43.0068 235.086 43.111 235.191C43.2152 235.295 43.2152 235.399 43.2152 235.608C42.7983 240.202 43.0068 244.587 43.6321 244.9C43.6321 244.9 44.049 244.795 45.0913 243.021C46.5505 240.306 46.1336 232.267 45.8209 229.031C44.8829 229.866 43.2152 230.701 39.7757 230.597C37.5869 230.493 36.4404 229.971 35.9192 229.449Z" fill="black"/>
<path d="M41.4434 146.554L210.293 170.775C210.293 170.775 239.373 139.246 237.809 139.664C236.246 140.082 235.412 135.488 235.412 135.488L90.2221 120.35C84.2811 123.064 80.3205 120.35 80.3205 120.35L43.7364 141.648C45.404 143.631 41.4434 146.554 41.4434 146.554Z" fill="white"/>
<path d="M210.293 171.297C210.188 171.297 210.188 171.297 210.293 171.297L41.3388 147.077C41.1303 147.077 40.9219 146.868 40.9219 146.659C40.9219 146.45 40.9219 146.242 41.1303 146.137C41.7557 145.615 43.4233 144.153 43.6318 142.901C43.6318 142.587 43.6318 142.274 43.3191 141.961C43.2149 141.857 43.2149 141.648 43.2149 141.544C43.2149 141.439 43.3191 141.23 43.4234 141.23L80.1117 119.828C80.3201 119.724 80.5286 119.724 80.6328 119.828C80.737 119.933 84.4892 122.334 90.0133 119.828C90.1176 119.828 90.2218 119.724 90.326 119.828L235.412 134.966C235.62 134.966 235.828 135.175 235.828 135.384C236.037 136.637 236.662 138.62 237.288 139.142C237.392 139.247 237.496 139.247 237.496 139.247C237.705 139.142 238.017 139.247 238.121 139.456C238.33 139.873 238.747 140.5 210.501 171.193C210.501 171.193 210.397 171.297 210.293 171.297ZM42.5895 146.137L209.98 170.149C219.986 159.292 234.578 143.318 236.975 139.978C236.871 139.978 236.871 139.873 236.767 139.873C235.724 139.142 235.099 136.846 234.89 135.802L90.326 120.872C85.1146 123.169 81.3624 121.499 80.3201 120.977L44.3614 141.857C44.5699 142.17 44.5699 142.588 44.5699 143.005C44.4656 144.258 43.4233 145.406 42.5895 146.137Z" fill="black"/>
<path d="M210.813 170.984C210.709 170.984 210.605 170.984 210.5 170.984C210.5 170.984 168.08 165.347 125.554 159.709C104.292 156.89 83.1336 154.071 67.1867 151.983C59.2654 150.939 52.5948 150 47.9045 149.373L42.4846 148.643C39.9832 148.329 38.7324 148.121 38.7324 146.346C38.7324 145.197 39.6705 144.258 40.817 144.258C40.9212 144.258 41.1297 144.258 41.2339 144.258C44.9861 144.78 209.25 166.495 210.917 166.704C212.064 166.808 212.898 167.852 212.689 169.001C212.793 170.253 211.855 170.984 210.813 170.984Z" fill="black"/>
<path d="M210.604 63.5566C210.5 63.5566 210.5 63.5566 210.395 63.5566C210.395 63.5566 167.662 59.7982 125.033 56.0398C103.666 54.1606 82.2991 52.2814 66.3522 50.8198C58.3266 50.089 51.656 49.4626 46.9658 49.045L41.5459 48.523C39.0444 48.3142 37.6895 48.2098 37.6895 46.2262C37.6895 45.0778 38.6275 44.1382 39.774 44.1382C39.8782 44.1382 39.9825 44.1382 40.0867 44.1382C43.7347 44.5558 209.04 59.1718 210.708 59.2762C211.855 59.3806 212.688 60.4246 212.584 61.573C212.584 62.7214 211.646 63.5566 210.604 63.5566Z" fill="black"/>
<path d="M237.39 42.8853V38.3961C237.39 37.5609 236.556 37.0389 235.827 37.4565L214.564 53.3253C214.251 53.5341 214.043 54.2649 214.043 54.6825L214.147 60.5289L237.39 42.8853Z" fill="white"/>
<path d="M214.043 61.0511C213.939 61.0511 213.939 61.0511 213.835 61.0511C213.626 60.9467 213.522 60.7379 213.522 60.6335L213.418 54.7871C213.418 54.2651 213.626 53.2211 214.252 52.9079L235.514 37.0391C236.035 36.7259 236.661 36.7259 237.182 37.0391C237.703 37.3523 238.016 37.8743 238.016 38.3963V42.8855C238.016 43.0943 237.912 43.1987 237.807 43.3031L214.46 61.0511C214.356 61.0511 214.252 61.0511 214.043 61.0511ZM236.348 37.7699C236.244 37.7699 236.14 37.7699 236.035 37.8743L214.773 53.7431C214.564 53.8475 214.46 54.3695 214.46 54.6827L214.564 59.4851L236.869 42.5723V38.3963C236.869 38.0831 236.661 37.9787 236.557 37.8743C236.557 37.8743 236.452 37.7699 236.348 37.7699Z" fill="black"/>
<path d="M237.392 140.604L237.496 135.07C237.496 134.235 236.662 133.713 235.932 134.131L213.211 158.56C212.898 158.769 212.689 159.082 212.689 159.5L213.002 167.748L237.392 140.604Z" fill="white"/>
<path d="M213.002 168.27C212.898 168.27 212.898 168.27 212.793 168.27C212.585 168.165 212.481 168.061 212.481 167.748L212.168 159.5C212.168 158.978 212.481 158.456 212.898 158.143L235.515 133.818L235.619 133.713C236.14 133.4 236.662 133.4 237.183 133.713C237.704 134.027 238.017 134.549 238.017 135.071L237.912 140.604C237.912 140.708 237.912 140.813 237.808 140.917L213.419 168.061C213.314 168.27 213.21 168.27 213.002 168.27ZM236.245 134.549L213.627 158.874L213.523 158.978C213.314 159.083 213.21 159.291 213.21 159.5L213.523 166.495L236.87 140.395L236.974 135.071C236.974 134.757 236.766 134.653 236.662 134.653C236.662 134.549 236.453 134.444 236.245 134.549Z" fill="black"/>
<path d="M210.812 255.131C208.832 255.131 207.164 253.46 207.164 251.477V58.1281C207.164 56.1445 208.832 54.4741 210.812 54.4741C212.792 54.4741 214.46 56.1445 214.46 58.1281V251.477C214.46 253.565 212.897 255.131 210.812 255.131Z" fill="black"/>
<path d="M207.165 251.895L206.123 258.159H215.504L214.253 251.895C214.253 251.895 211.23 254.296 207.165 251.895Z" fill="white"/>
<path d="M215.503 258.68H206.123C206.018 258.68 205.81 258.576 205.706 258.472C205.602 258.367 205.602 258.158 205.602 258.054L206.644 251.79C206.644 251.581 206.748 251.477 206.957 251.372C207.061 251.268 207.269 251.268 207.478 251.372C211.23 253.565 213.94 251.477 214.044 251.372C214.148 251.268 214.357 251.268 214.565 251.268C214.774 251.372 214.878 251.477 214.878 251.686L216.129 257.95C216.129 258.054 216.129 258.263 216.024 258.367C215.816 258.576 215.712 258.68 215.503 258.68ZM206.748 257.636H214.878L213.94 252.73C212.793 253.356 210.5 254.087 207.582 252.73L206.748 257.636Z" fill="black"/>
<path d="M209.562 270.269C209.354 272.357 209.458 274.236 209.771 275.698C210.187 277.577 210.917 278.725 211.855 278.83H206.852C205.08 278.725 204.038 274.758 204.455 270.165C204.872 265.571 206.644 261.917 208.416 262.126H213.106C212.168 262.23 211.23 263.483 210.604 265.258C210.187 266.719 209.77 268.39 209.562 270.269Z" fill="black"/>
<path d="M211.959 280.5H206.956H206.852C206.331 280.5 205.497 280.187 204.767 279.352C203.412 277.681 202.683 274.132 203.099 270.164C203.516 266.197 204.767 262.856 206.435 261.499C207.269 260.768 208.102 260.664 208.624 260.664H213.21C214.043 260.664 214.669 261.29 214.773 262.126C214.877 262.961 214.252 263.692 213.418 263.796C213.314 263.9 212.688 264.422 212.063 265.988C211.542 267.241 211.229 268.807 211.125 270.478C210.917 272.357 211.021 274.132 211.333 275.489C211.646 276.742 211.959 277.368 212.167 277.472C213.001 277.577 213.522 278.308 213.522 279.143C213.522 279.769 212.793 280.5 211.959 280.5ZM207.164 277.368H208.624C208.519 276.95 208.415 276.533 208.311 276.115C207.894 274.445 207.79 272.357 207.998 270.164C208.207 268.181 208.624 266.406 209.145 264.84C209.249 264.527 209.457 264.109 209.562 263.796H208.415H208.311C207.894 264.005 206.435 266.197 206.018 270.478C205.809 274.445 206.747 276.95 207.164 277.368Z" fill="black"/>
<path d="M209.875 276.324C209.562 276.324 209.458 276.115 209.354 275.906C209.041 274.34 208.937 272.357 209.041 270.269C209.249 268.39 209.562 266.615 210.188 265.258C210.292 265.049 210.5 264.944 210.709 264.944C210.917 264.944 211.126 265.153 211.23 265.362C211.543 266.928 211.647 268.912 211.543 271C211.334 272.879 211.021 274.549 210.396 276.011C210.292 276.115 210.083 276.324 209.875 276.324ZM210.5 267.868C210.292 268.598 210.188 269.434 210.083 270.269C209.979 271.313 209.979 272.252 209.979 273.192C210.188 272.461 210.292 271.626 210.396 270.791C210.5 269.851 210.5 268.807 210.5 267.868Z" fill="black"/>
<path d="M215.919 270.895C215.502 275.489 213.73 279.143 211.958 278.934C211.02 278.83 210.186 277.681 209.874 275.802C209.561 274.34 209.457 272.357 209.665 270.373C209.874 268.494 210.186 266.824 210.707 265.466C211.437 263.692 212.271 262.439 213.209 262.334H213.522C215.293 262.439 216.336 266.302 215.919 270.895Z" fill="white"/>
<path d="M212.062 279.456C211.958 279.456 211.958 279.456 211.854 279.456C210.707 279.352 209.769 278.099 209.248 275.906C208.936 274.34 208.831 272.357 208.936 270.269C209.144 268.39 209.457 266.615 210.082 265.258C210.916 263.17 211.958 261.917 213 261.812H213.417C214.043 261.812 214.46 262.126 214.877 262.648C216.127 264.109 216.648 267.45 216.336 271C216.023 274.654 214.877 277.786 213.417 278.934C213 279.247 212.584 279.456 212.062 279.456ZM213.522 262.752H213.209C212.584 262.856 211.75 263.9 211.124 265.571C210.603 266.928 210.291 268.598 210.082 270.373C209.874 272.357 209.978 274.236 210.291 275.698C210.603 277.368 211.333 278.412 211.958 278.412C212.167 278.412 212.479 278.308 212.792 278.099C213.834 277.264 214.981 274.654 215.398 270.895C215.71 267.032 215.085 264.318 214.251 263.274C213.939 262.961 213.73 262.752 213.522 262.752Z" fill="black"/>
<path d="M212.48 274.862C212.376 274.862 212.376 274.862 212.48 274.862C212.063 274.862 211.334 274.549 211.021 273.296C210.812 272.461 210.708 271.522 210.812 270.373C210.917 269.329 211.125 268.285 211.542 267.554C212.167 266.302 212.793 266.197 213.21 266.302C214.46 266.406 214.981 268.598 214.773 270.791C214.669 271.835 214.46 272.879 214.043 273.61C213.418 274.654 212.793 274.862 212.48 274.862ZM213.105 267.346C213.001 267.346 212.793 267.45 212.48 268.076C212.167 268.703 211.959 269.538 211.855 270.478C211.75 271.417 211.855 272.357 211.959 272.983C212.167 273.61 212.376 273.818 212.376 273.818C212.48 273.818 212.688 273.714 213.001 273.088C213.314 272.461 213.522 271.626 213.627 270.686C213.835 268.494 213.314 267.346 213.105 267.346Z" fill="black"/>
<path d="M207.582 263.483H212.689C212.689 263.483 211.334 279.038 215.503 271.208C217.484 267.554 216.233 255.548 216.233 255.548C216.233 255.548 215.608 258.158 209.771 258.054C206.019 257.95 205.81 256.384 205.81 256.384C205.81 256.384 202.475 263.483 207.582 263.483Z" fill="white"/>
<path d="M213.522 273.923C213.418 273.923 213.314 273.923 213.209 273.923C211.542 273.401 211.75 267.763 212.063 264.109H207.581C206.226 264.109 205.288 263.692 204.767 262.752C203.308 260.56 205.288 256.384 205.288 256.175C205.392 255.966 205.601 255.862 205.809 255.862C206.018 255.862 206.226 256.07 206.226 256.279C206.226 256.279 206.539 257.428 209.666 257.532C214.877 257.636 215.607 255.444 215.607 255.444C215.711 255.235 215.919 255.026 216.128 255.026C216.336 255.026 216.545 255.235 216.649 255.444C216.753 255.966 217.9 267.659 215.919 271.417C215.294 272.566 214.46 273.923 213.522 273.923ZM205.809 257.428C205.288 258.785 204.871 260.977 205.496 262.126C205.809 262.648 206.539 262.961 207.477 262.961H212.584C212.688 262.961 212.897 263.065 213.001 263.17C213.105 263.274 213.105 263.378 213.105 263.587C212.688 268.181 212.897 272.566 213.522 272.879C213.522 272.879 213.939 272.774 214.981 271C216.44 268.285 216.024 260.246 215.711 257.01C214.773 257.845 213.105 258.68 209.666 258.576C207.581 258.472 206.435 257.95 205.809 257.428Z" fill="black"/>
</svg>
