<svg width="301" height="300" viewBox="0 0 301 300" fill="none" xmlns="http://www.w3.org/2000/svg">
<rect width="300" height="300" transform="translate(0.296875)" fill="white"/>
<path d="M148.996 193.8C149.496 193.8 149.896 193.7 150.396 193.5C157.296 190.6 165.396 187.5 174.596 184.3C193.396 177.8 209.496 173.8 222.396 172.6C223.096 172.5 223.796 172.3 224.296 171.8C234.596 163.3 239.996 153.3 239.996 142.8C239.996 128.8 230.396 115.8 212.996 106.2C196.196 96.9999 173.996 91.8999 150.496 91.8999C126.996 91.8999 104.696 96.9999 87.9961 106.2C70.5961 115.8 60.9961 128.8 60.9961 142.8C60.8961 170.9 99.5961 193.3 148.996 193.8ZM220.596 165.8C207.296 167.2 190.996 171.2 172.196 177.8C163.196 180.9 155.096 184 148.196 186.8C103.796 186.2 67.7961 166.5 67.7961 142.8C67.7961 131.5 76.0961 120.6 91.1961 112.3C106.896 103.6 127.996 98.7999 150.396 98.7999C172.796 98.7999 193.896 103.6 209.596 112.3C224.696 120.6 232.996 131.5 232.996 142.8C232.996 150.9 228.696 158.8 220.596 165.8Z" fill="black"/>
<path d="M116.597 217.9C119.997 217.9 122.997 215.8 124.097 212.6C124.597 211.2 127.897 205.6 150.697 193.4C155.497 190.9 161.497 188.8 168.597 186.4C170.597 185.7 172.597 185.1 174.697 184.3C193.497 177.8 209.597 173.8 222.497 172.6C237.897 171.1 245.497 173.7 249.197 176.2C253.597 179.2 259.497 178.3 262.897 174.3C278.797 155.4 284.197 138.2 278.997 122.9L278.797 122.2C274.797 110.1 258.897 80.0999 196.397 65.0999C123.097 47.5999 68.4974 80.4 62.4974 84.2L61.3974 84.9C55.7974 88.4 42.6974 96.7 32.7974 109.7C20.2974 126.2 16.8974 144.7 22.7974 164.6C34.6974 205.3 96.8974 215.6 115.697 217.8C115.997 217.9 116.297 217.9 116.597 217.9ZM230.797 165.2C227.997 165.2 224.897 165.4 221.697 165.7C208.197 167 191.597 171.1 172.197 177.8C170.097 178.5 168.097 179.2 166.197 179.8C158.897 182.3 152.497 184.4 147.297 187.2C129.097 196.9 119.297 204.5 117.397 210.4C117.297 210.7 116.897 211 116.497 210.9C98.7974 208.8 40.2974 199.2 29.4974 162.7C24.2974 145 27.2974 128.6 38.3974 114C47.4974 102 59.3974 94.5 65.0974 90.9L66.1974 90.2C71.8974 86.6 124.197 55.1 194.697 72C253.797 86 268.497 113.3 272.097 124.4L272.397 125.2C276.797 137.9 271.797 152.9 257.497 169.7C256.397 171 254.497 171.3 252.997 170.3C247.797 166.9 240.397 165.2 230.797 165.2Z" fill="black"/>
<path d="M103.496 186.1C104.296 186.1 104.996 185.8 105.696 185.3C127.496 167.8 149.996 160.7 172.696 164.4C189.596 167.1 200.396 175.1 200.496 175.2C201.996 176.4 204.196 176.1 205.396 174.5C206.596 173 206.296 170.8 204.696 169.6C204.196 169.2 192.696 160.6 174.196 157.5C157.196 154.7 130.696 156.3 101.396 179.8C99.8956 181 99.6956 183.2 100.896 184.7C101.496 185.6 102.496 186.1 103.496 186.1Z" fill="black"/>
<path d="M148.796 239.8C174.796 239.8 192.196 229.8 199.796 224.3C203.096 222 205.896 218.8 207.896 215.2L232.996 170.4C233.896 168.7 233.296 166.6 231.696 165.6C229.996 164.7 227.896 165.3 226.896 166.9L201.796 211.7C200.296 214.4 198.196 216.7 195.796 218.5C186.396 225.3 160.096 239.8 119.896 228.4C118.396 228 117.096 227.2 116.096 226.1L100.396 208.9C99.0964 207.5 96.8964 207.4 95.4964 208.7C94.0964 210 93.9964 212.2 95.2964 213.6L110.896 230.9C112.796 233 115.196 234.5 117.996 235.3C129.296 238.5 139.596 239.8 148.796 239.8Z" fill="black"/>
</svg>
