<svg width="301" height="301" viewBox="0 0 301 301" fill="none" xmlns="http://www.w3.org/2000/svg">
<rect width="300" height="300" transform="translate(0.296875 0.5)" fill="white"/>
<path d="M127.92 103.867C88.6951 103.867 46.4824 93.1626 46.4824 69.6355C46.4824 48.8695 88.4493 37.6733 127.92 37.6733C167.39 37.6733 209.357 48.8695 209.357 69.6355C209.357 93.295 168.449 103.867 127.92 103.867ZM127.92 45.2383C84.4209 45.2383 54.0474 58.0988 54.0474 69.6355C54.0474 84.8411 85.8015 96.3021 127.92 96.3021C170.719 96.3021 201.792 85.087 201.792 69.6166C201.792 58.0988 171.418 45.2383 127.92 45.2383Z" fill="black"/>
<path d="M127.921 279.754C93.0839 279.754 65.7553 266.95 65.5095 250.553L46.597 70.033C46.5448 69.5363 46.591 69.0341 46.7329 68.5553C46.8748 68.0764 47.1096 67.6302 47.424 67.242C47.7384 66.8539 48.1261 66.5315 48.565 66.2932C49.004 66.055 49.4856 65.9055 49.9823 65.8533C50.479 65.8012 50.9812 65.8474 51.46 65.9893C51.9389 66.1312 52.3851 66.366 52.7733 66.6804C53.1614 66.9947 53.4838 67.3824 53.7221 67.8214C53.9603 68.2604 54.1098 68.7419 54.162 69.2387L73.0745 249.929C73.0814 250.061 73.0814 250.194 73.0745 250.326C73.0745 260.671 95.5993 272.189 127.921 272.189C160.242 272.189 182.767 260.671 182.767 250.326C182.76 250.194 182.76 250.061 182.767 249.929L201.793 69.2387C201.898 68.2355 202.398 67.3152 203.182 66.6804C203.966 66.0455 204.969 65.748 205.973 65.8533C206.976 65.9587 207.896 66.4582 208.531 67.242C209.166 68.0259 209.463 69.0298 209.358 70.033L190.332 250.553C190.086 266.95 162.758 279.754 127.921 279.754Z" fill="black"/>
<path d="M127.918 165.201C107.701 165.201 89.3934 162.572 76.4005 157.825C75.9335 157.653 75.505 157.392 75.1392 157.055C74.7734 156.718 74.4775 156.312 74.2685 155.861C74.0595 155.409 73.9415 154.921 73.9211 154.424C73.9008 153.927 73.9785 153.431 74.1499 152.964C74.496 152.021 75.2025 151.254 76.114 150.832C76.5654 150.623 77.0534 150.505 77.5504 150.485C78.0474 150.465 78.5435 150.542 79.0104 150.714C91.209 155.177 108.571 157.636 127.937 157.636C164.835 157.636 192.675 148.879 192.675 137.286C192.675 134.298 188.665 130.704 181.951 127.678C181.498 127.475 181.089 127.184 180.748 126.822C180.408 126.461 180.141 126.035 179.965 125.571C179.608 124.633 179.639 123.591 180.05 122.676C180.462 121.761 181.22 121.046 182.158 120.69C183.096 120.333 184.137 120.364 185.053 120.775C197.592 126.449 200.183 132.879 200.183 137.286C200.221 157.882 161.261 165.201 127.918 165.201Z" fill="black"/>
<path d="M169.678 123.366C169.366 123.366 169.054 123.328 168.751 123.252C166.709 122.742 164.572 122.269 162.397 121.834C161.909 121.738 161.444 121.547 161.03 121.272C160.616 120.997 160.26 120.643 159.982 120.23C159.705 119.818 159.511 119.354 159.413 118.867C159.314 118.38 159.313 117.877 159.409 117.389C159.504 116.901 159.695 116.437 159.97 116.023C160.245 115.608 160.599 115.252 161.012 114.975C161.425 114.697 161.888 114.504 162.375 114.405C162.863 114.307 163.365 114.306 163.853 114.401C166.16 114.855 168.43 115.366 170.605 115.895C171.501 116.12 172.283 116.664 172.805 117.426C173.328 118.188 173.553 119.115 173.439 120.031C173.325 120.948 172.879 121.791 172.187 122.402C171.494 123.012 170.602 123.349 169.678 123.347V123.366Z" fill="black"/>
<path d="M100.213 120.624C99.2096 120.694 98.2196 120.363 97.4606 119.703C96.7016 119.043 96.2357 118.109 96.1655 117.106C96.0953 116.103 96.4265 115.113 97.0862 114.354C97.7459 113.595 98.6801 113.129 99.6832 113.059C109.038 111.758 118.475 111.126 127.92 111.167C133.045 111.167 138.151 111.357 143.05 111.716C144.053 111.789 144.986 112.257 145.644 113.018C146.302 113.778 146.631 114.769 146.558 115.773C146.485 116.776 146.017 117.709 145.256 118.367C144.495 119.025 143.504 119.354 142.501 119.281C137.716 118.94 132.78 118.751 127.844 118.751C118.758 118.736 109.682 119.368 100.686 120.643L100.213 120.624Z" fill="black"/>
<path d="M85.1602 251.582L179.546 40.2681C184.305 29.6131 197.138 25.2788 207.383 30.8661L259.018 59.0262" stroke="black" stroke-width="10" stroke-linecap="round" stroke-linejoin="round"/>
</svg>
